<svg width="1018" height="1525" viewBox="0 0 1018 1525" fill="none" xmlns="http://www.w3.org/2000/svg">
<g clip-path="url(#clip0_781_1717)">
<rect width="1016.66" height="1525" transform="translate(0.65625)" fill="black"/>
<rect x="64.5117" y="-55.4482" width="143.071" height="1589.43" fill="#C7FF51"/>
<rect x="449.375" y="-55.2715" width="143.07" height="1112.05" fill="#C7FF51"/>
<rect x="449.375" y="1225.86" width="143.07" height="315.405" fill="#C7FF51"/>
<rect x="829.812" y="757.624" width="149.573" height="321.908" fill="#C7FF51"/>
<rect x="831.43" y="1075.66" width="147.996" height="467.111" fill="#C7FF51"/>
<rect x="833.059" y="-58.5234" width="146.322" height="406.449" fill="#C7FF51"/>
<rect x="1.37109" y="152.644" width="140.602" height="1580.37" transform="rotate(-90 1.37109 152.644)" fill="#E13C95" fill-opacity="0.8"/>
<rect x="257.535" y="757.624" width="143.07" height="845.414" fill="#C7FF51"/>
<rect x="257.535" y="-55.2715" width="143.07" height="673.08" fill="#C7FF51"/>
<rect x="641.273" y="1079.2" width="145.112" height="458.01" fill="#C7FF51"/>
<rect x="641.215" y="334.917" width="146.322" height="477.984" fill="#C7FF51"/>
<rect x="641.566" y="-57.9072" width="144.82" height="407.306" fill="#C7FF51"/>
<rect x="-26.75" y="349.488" width="140.602" height="1608.49" transform="rotate(-90 -26.75 349.488)" fill="#E13C95" fill-opacity="0.8"/>
<rect x="-57.6328" y="541.896" width="140.681" height="674.097" transform="rotate(-90 -57.6328 541.896)" fill="#E13C95" fill-opacity="0.8"/>
<rect x="449.375" y="757.624" width="139.818" height="1128.3" transform="rotate(-90 449.375 757.624)" fill="#E13C95" fill-opacity="0.8"/>
<rect x="-80.6328" y="757.624" width="139.819" height="289.392" transform="rotate(-90 -80.6328 757.624)" fill="#E13C95" fill-opacity="0.8"/>
<rect x="-82.9922" y="982.097" width="146.543" height="697.544" transform="rotate(-90 -82.9922 982.097)" fill="#E13C95" fill-opacity="0.8"/>
<rect x="615.207" y="1225.86" width="146.322" height="409.701" transform="rotate(-90 615.207 1225.86)" fill="#E13C95" fill-opacity="0.8"/>
<rect x="-2.59375" y="1225.86" width="146.322" height="425.959" transform="rotate(-90 -2.59375 1225.86)" fill="#E13C95" fill-opacity="0.8"/>
<rect x="1.37109" y="1418.07" width="140.602" height="1580.37" transform="rotate(-90 1.37109 1418.07)" fill="#E13C95" fill-opacity="0.8"/>
<rect x="449.027" y="157.439" width="143.071" height="194.487" fill="#C7FF51"/>
<rect x="256.758" y="371.546" width="143.071" height="194.487" fill="#C7FF51"/>
<rect x="256.758" y="834.725" width="143.071" height="194.487" fill="#C7FF51"/>
<rect x="641.215" y="981.987" width="146.322" height="100.799" fill="#C7FF51"/>
<rect x="831.43" y="1051.26" width="147.996" height="201.181" fill="#C7FF51"/>
<rect x="641.273" y="1249.27" width="145.112" height="197.262" fill="#C7FF51"/>
<rect x="256.758" y="1250.1" width="143.071" height="194.487" fill="#C7FF51"/>
<rect x="64.5117" y="1055.57" width="143.071" height="194.487" fill="#C7FF51"/>
<rect x="65.0039" y="183.39" width="143.071" height="194.487" fill="#C7FF51"/>
<rect x="833.059" y="373.938" width="146.322" height="26.0127" fill="#C7FF51"/>
<rect x="65.0039" y="540.513" width="144.778" height="295.991" fill="#9B22EC"/>
<rect x="449.375" y="539.771" width="143.07" height="295.895" fill="#9B22EC"/>
<rect x="640.902" y="-90.0791" width="144.778" height="299.208" fill="#9B22EC"/>
<rect x="256.508" y="349.061" width="144.778" height="270.253" fill="#9B22EC"/>
<rect x="641.215" y="1225.86" width="146.322" height="312.153" fill="#9B22EC"/>
<rect x="256.508" y="757.42" width="144.028" height="323.638" fill="#9B22EC"/>
<rect x="833.059" y="149.576" width="146.322" height="227.612" fill="#C7FF51"/>
<path d="M837.636 430.476L842.186 440.227L846.735 430.476H849.513V442.856H847.071V435.1L843.472 442.856H840.824L837.226 435.1V442.856H834.783V430.476H837.636ZM858.73 430.476L864.119 442.856H861.527L860.315 440.116H854.666L853.454 442.856H850.955L856.344 430.476H858.73ZM857.5 433.72L855.635 437.934H859.346L857.5 433.72ZM871.134 430.234C873.819 430.234 875.777 431.706 876.765 433.907H874.155C873.483 433.03 872.402 432.415 871.134 432.415C868.859 432.415 867.181 434.242 867.181 436.666C867.181 439.09 868.859 440.917 871.134 440.917C872.402 440.917 873.483 440.321 874.155 439.426H876.765C875.777 441.644 873.819 443.099 871.134 443.099C867.498 443.099 864.739 440.358 864.739 436.666C864.739 432.974 867.498 430.234 871.134 430.234ZM877.859 430.476H888.375V432.657H884.348V442.856H881.905V432.657H877.859V430.476ZM898.935 432.657H892.689V435.566H898.804V437.748H892.689V440.675H898.935V442.856H890.246V430.476H898.935V432.657ZM911.867 434.28C911.867 436.349 910.524 438.102 907.578 438.102H903.905V442.856H901.463V430.476H907.578C910.524 430.476 911.867 432.229 911.867 434.28ZM903.905 432.657V435.92H907.41C908.678 435.92 909.424 435.268 909.424 434.28C909.424 433.291 908.678 432.657 907.41 432.657H903.905ZM924.413 442.856H921.188L916.414 437.953V442.856H913.972V430.476H916.414V435.492L921.337 430.476H924.413L918.372 436.666L924.413 442.856ZM927.827 430.476H936.982V442.856H934.539V432.657H930.269V436.349C930.269 439.444 929.841 442.856 926.261 442.856H925.161V440.656H925.869C927.715 440.656 927.827 438.4 927.827 436.517V430.476ZM946.185 430.476L951.574 442.856H948.982L947.77 440.116H942.121L940.909 442.856H938.41L943.799 430.476H946.185ZM944.955 433.72L943.09 437.934H946.801L944.955 433.72ZM958.589 430.234C961.274 430.234 963.232 431.706 964.22 433.907H961.61C960.938 433.03 959.857 432.415 958.589 432.415C956.314 432.415 954.636 434.242 954.636 436.666C954.636 439.09 956.314 440.917 958.589 440.917C959.857 440.917 960.938 440.321 961.61 439.426H964.22C963.232 441.644 961.274 443.099 958.589 443.099C954.953 443.099 952.194 440.358 952.194 436.666C952.194 432.974 954.953 430.234 958.589 430.234ZM972.045 430.234C974.73 430.234 976.688 431.706 977.676 433.907H975.066C974.394 433.03 973.313 432.415 972.045 432.415C969.77 432.415 968.092 434.242 968.092 436.666C968.092 439.09 969.77 440.917 972.045 440.917C973.313 440.917 974.394 440.321 975.066 439.426H977.676C976.688 441.644 974.73 443.099 972.045 443.099C968.409 443.099 965.65 440.358 965.65 436.666C965.65 432.974 968.409 430.234 972.045 430.234ZM845.486 467.856H843.043V457.657H837.226V467.856H834.783V455.476H845.486V467.856ZM854.11 468.099C850.306 468.099 847.677 465.209 847.677 461.666C847.677 458.105 850.306 455.234 854.11 455.234C857.914 455.234 860.543 458.105 860.543 461.666C860.543 465.209 857.914 468.099 854.11 468.099ZM854.11 465.917C856.422 465.917 858.1 464.015 858.1 461.666C858.1 459.298 856.422 457.415 854.11 457.415C851.798 457.415 850.12 459.298 850.12 461.666C850.12 464.015 851.798 465.917 854.11 465.917ZM877.369 467.856H874.926V457.657H869.109V467.856H866.666V455.476H877.369V467.856ZM881.723 455.476H890.878V467.856H888.436V457.657H884.166V461.349C884.166 464.444 883.737 467.856 880.157 467.856H879.057V465.656H879.765C881.611 465.656 881.723 463.4 881.723 461.517V455.476ZM902.431 457.657H896.185V460.566H902.3V462.748H896.185V465.675H902.431V467.856H893.742V455.476H902.431V457.657ZM903.952 455.476H914.468V457.657H910.44V467.856H907.998V457.657H903.952V455.476ZM925.028 457.657H918.781V460.566H924.897V462.748H918.781V465.675H925.028V467.856H916.339L916.339 455.476H925.028V457.657ZM938.444 467.856H936.002V462.748H929.998V467.856H927.555L927.555 455.476H929.998V460.566H936.002V455.476H938.444V467.856ZM952.359 467.856H949.916V459.149L943.763 467.856H941.321L941.321 455.476H943.763V464.183L949.916 455.476H952.359V467.856ZM966.195 468.099C962.802 468.099 960.397 465.824 959.931 462.748H957.675V467.856H955.232L955.232 455.476H957.675V460.566H959.931C960.397 457.49 962.802 455.234 966.195 455.234C969.999 455.234 972.554 458.049 972.554 461.666C972.554 465.265 969.999 468.099 966.195 468.099ZM966.195 465.917C968.508 465.917 970.111 464.053 970.111 461.666C970.111 459.261 968.508 457.415 966.195 457.415C963.902 457.415 962.299 459.261 962.299 461.666C962.299 464.053 963.902 465.917 966.195 465.917ZM845.225 492.856H841.999L837.226 487.953V492.856H834.783V480.476H837.226V485.492L842.148 480.476H845.225L839.184 486.666L845.225 492.856ZM852.162 493.099C848.358 493.099 845.729 490.209 845.729 486.666C845.729 483.105 848.358 480.234 852.162 480.234C855.965 480.234 858.594 483.105 858.594 486.666C858.594 490.209 855.965 493.099 852.162 493.099ZM852.162 490.917C854.474 490.917 856.152 489.015 856.152 486.666C856.152 484.298 854.474 482.415 852.162 482.415C849.85 482.415 848.172 484.298 848.172 486.666C848.172 489.015 849.85 490.917 852.162 490.917ZM866.49 480.476C869.305 480.476 870.611 482.061 870.611 484.019C870.611 485.137 870.126 486.125 869.175 486.666C870.126 487.207 870.611 488.195 870.611 489.314C870.611 491.272 869.305 492.856 866.49 492.856H860.803V480.476H866.49ZM863.246 482.657V485.585H866.248C867.404 485.585 868.168 485.081 868.168 484.13C868.168 483.142 867.422 482.657 866.248 482.657H863.246ZM863.246 487.766V490.675H866.248C867.404 490.675 868.168 490.19 868.168 489.239C868.168 488.251 867.422 487.766 866.248 487.766H863.246ZM883.389 484.28C883.389 486.349 882.046 488.102 879.1 488.102H875.427V492.856H872.985V480.476H879.1C882.046 480.476 883.389 482.229 883.389 484.28ZM875.427 482.657V485.92H878.932C880.2 485.92 880.946 485.268 880.946 484.28C880.946 483.291 880.2 482.657 878.932 482.657H875.427ZM890.832 480.476L896.22 492.856H893.629L892.417 490.116H886.767L885.555 492.856H883.057L888.445 480.476H890.832ZM889.601 483.72L887.737 487.934H891.447L889.601 483.72Z" fill="#C7FF51"/>
<path d="M845.169 536.506C845.169 538.632 843.77 540.44 840.731 540.44H834.783V528.06H844.199V530.241H837.226V532.553H840.731C843.77 532.553 845.169 534.362 845.169 536.506ZM837.226 534.735V538.259H840.545C841.925 538.259 842.726 537.569 842.726 536.506C842.726 535.443 841.925 534.735 840.545 534.735H837.226ZM853.036 540.683C849.232 540.683 846.603 537.793 846.603 534.25C846.603 530.689 849.232 527.817 853.036 527.817C856.839 527.817 859.468 530.689 859.468 534.25C859.468 537.793 856.839 540.683 853.036 540.683ZM853.036 538.501C855.348 538.501 857.026 536.599 857.026 534.25C857.026 531.882 855.348 529.999 853.036 529.999C850.724 529.999 849.046 531.882 849.046 534.25C849.046 536.599 850.724 538.501 853.036 538.501ZM863.169 528.06H872.324V540.44H869.881V530.241H865.611V533.933C865.611 537.028 865.183 540.44 861.603 540.44H860.503V538.24H861.211C863.057 538.24 863.169 535.984 863.169 534.101V528.06ZM885.573 536.506C885.573 538.632 884.175 540.44 881.136 540.44H875.188V528.06H877.63V532.553H881.136C884.175 532.553 885.573 534.362 885.573 536.506ZM877.63 534.735V538.259H880.949C882.329 538.259 883.131 537.569 883.131 536.506C883.131 535.443 882.329 534.735 880.949 534.735H877.63ZM901.495 528.06H903.938V540.44H887.679V528.06H890.121V538.259H894.596V528.06H897.039V538.259H901.495V528.06ZM913.155 528.06L918.544 540.44H915.952L914.74 537.7H909.091L907.879 540.44H905.38L910.769 528.06H913.155ZM911.925 531.304L910.06 535.518H913.771L911.925 531.304ZM919.626 531.864C919.626 529.813 920.969 528.06 923.915 528.06H930.03V540.44H927.588V535.686H925.63L922.013 540.44H918.974L922.684 535.574C920.596 535.164 919.626 533.616 919.626 531.864ZM927.588 533.504V530.241H924.082C922.815 530.241 922.069 530.875 922.069 531.864C922.069 532.852 922.815 533.504 924.082 533.504H927.588ZM845.672 565.44H843.23V560.332H837.226V565.44H834.783V553.06H837.226V558.15H843.23V553.06H845.672V565.44ZM859.587 565.44H857.144V556.733L850.991 565.44H848.549V553.06H850.991V561.767L857.144 553.06H859.587V565.44ZM872.902 565.44H869.676L864.903 560.537V565.44H862.46V553.06H864.903V558.075L869.825 553.06H872.902L866.86 559.25L872.902 565.44ZM885.443 565.44H883V556.733L876.847 565.44H874.405V553.06H876.847V561.767L883 553.06H885.443V565.44ZM887.309 553.06H897.825V555.241H893.798V565.44H891.355V555.241H887.309V553.06ZM905.166 552.817C907.85 552.817 909.808 554.29 910.796 556.491H908.186C907.515 555.614 906.433 554.999 905.166 554.999C902.891 554.999 901.213 556.826 901.213 559.25C901.213 561.674 902.891 563.501 905.166 563.501C906.433 563.501 907.515 562.905 908.186 562.01H910.796C909.808 564.228 907.85 565.683 905.166 565.683C901.53 565.683 898.77 562.942 898.77 559.25C898.77 555.558 901.53 552.817 905.166 552.817ZM923.339 565.44H920.113L915.34 560.537V565.44H912.897L912.897 553.06H915.34V558.075L920.262 553.06H923.339L917.298 559.25L923.339 565.44ZM931.182 553.06L936.57 565.44H933.978L932.766 562.7H927.117L925.905 565.44H923.406L928.795 553.06H931.182ZM929.951 556.304L928.086 560.518H931.797L929.951 556.304ZM937.653 556.864C937.653 554.813 938.995 553.06 941.941 553.06H948.057V565.44H945.614V560.686H943.656L940.039 565.44H937L940.71 560.574C938.622 560.164 937.653 558.616 937.653 556.864ZM945.614 558.504V555.241H942.109C940.841 555.241 940.095 555.875 940.095 556.864C940.095 557.852 940.841 558.504 942.109 558.504H945.614ZM951.867 567.995H950.245L951.792 565.44H950.506V562.662H953.284V565.72L951.867 567.995ZM836.014 578.06H845.169V588.259H846.866V593.181H844.479V590.44H835.995V593.181H833.609V588.259H834.802C835.697 587.271 836.014 585.406 836.014 583.616V578.06ZM838.456 580.241V583.598C838.456 585.052 838.326 586.861 837.655 588.259H842.726V580.241H838.456ZM849.322 590.44V587.662H852.1V590.44H849.322ZM855.332 590.44V580.875L852.777 583.225V580.353L855.22 578.06H857.774V590.44H855.332ZM866.281 582.684H868.723V585.649H870.7V587.83H868.723V590.44H866.281V587.83H859.922V585.649L865.852 578.06H868.686L862.738 585.649H866.281V582.684Z" fill="#C7FF51"/>
<path d="M660.03 896.335V886.77L657.476 889.119V886.248L659.918 883.954H662.473V896.335H660.03ZM670.047 896.577C667.119 896.577 665.273 894.899 665.273 892.811C665.273 891.767 665.795 890.723 666.877 890.07C665.851 889.436 665.422 888.392 665.422 887.404C665.422 885.353 667.175 883.712 670.047 883.712C672.899 883.712 674.652 885.353 674.652 887.404C674.652 888.392 674.223 889.436 673.198 890.07C674.279 890.723 674.801 891.767 674.801 892.811C674.801 894.899 672.955 896.577 670.047 896.577ZM670.047 894.396C671.445 894.396 672.359 893.706 672.359 892.774C672.359 891.823 671.464 891.17 670.047 891.17C668.63 891.17 667.716 891.823 667.716 892.774C667.716 893.706 668.648 894.396 670.047 894.396ZM672.209 887.422C672.209 886.527 671.389 885.875 670.047 885.875C668.704 885.875 667.865 886.527 667.865 887.422C667.865 888.355 668.685 888.989 670.047 888.989C671.408 888.989 672.209 888.355 672.209 887.422ZM692.068 896.335H689.625V891.226H683.621V896.335H681.179L681.179 883.954H683.621V889.045H689.625V883.954H692.068V896.335ZM700.706 896.577C696.902 896.577 694.273 893.687 694.273 890.145C694.273 886.583 696.902 883.712 700.706 883.712C704.51 883.712 707.139 886.583 707.139 890.145C707.139 893.687 704.51 896.577 700.706 896.577ZM700.706 894.396C703.018 894.396 704.696 892.494 704.696 890.145C704.696 887.777 703.018 885.894 700.706 885.894C698.394 885.894 696.716 887.777 696.716 890.145C696.716 892.494 698.394 894.396 700.706 894.396ZM708.993 887.758C708.993 885.707 710.336 883.954 713.281 883.954H719.397V896.335H716.955V891.58H714.997L711.38 896.335H708.34L712.051 891.469C709.963 891.058 708.993 889.511 708.993 887.758ZM716.955 889.399V886.136H713.449C712.181 886.136 711.436 886.77 711.436 887.758C711.436 888.746 712.181 889.399 713.449 889.399H716.955ZM732.661 892.401C732.661 894.526 731.262 896.335 728.223 896.335H722.275V883.954H731.691V886.136H724.718V888.448H728.223C731.262 888.448 732.661 890.257 732.661 892.401ZM724.718 890.629V894.153H728.037C729.416 894.153 730.218 893.464 730.218 892.401C730.218 891.338 729.416 890.629 728.037 890.629H724.718ZM745.17 887.758C745.17 889.828 743.828 891.58 740.882 891.58H737.209V896.335H734.766V883.954H740.882C743.828 883.954 745.17 885.707 745.17 887.758ZM737.209 886.136V889.399H740.714C741.982 889.399 742.728 888.746 742.728 887.758C742.728 886.77 741.982 886.136 740.714 886.136H737.209ZM746.921 887.758C746.921 885.707 748.264 883.954 751.21 883.954H757.325V896.335H754.883V891.58H752.925L749.308 896.335H746.269L749.979 891.469C747.891 891.058 746.921 889.511 746.921 887.758ZM754.883 889.399V886.136H751.377C750.11 886.136 749.364 886.77 749.364 887.758C749.364 888.746 750.11 889.399 751.377 889.399H754.883ZM663.797 908.712C666.481 908.712 668.439 910.185 669.427 912.385H666.817C666.146 911.509 665.064 910.894 663.797 910.894C661.522 910.894 659.844 912.721 659.844 915.145C659.844 917.569 661.522 919.396 663.797 919.396C665.064 919.396 666.146 918.799 666.817 917.904H669.427C668.439 920.123 666.481 921.577 663.797 921.577C660.161 921.577 657.401 918.836 657.401 915.145C657.401 911.453 660.161 908.712 663.797 908.712ZM677.401 921.335V911.77L674.847 914.119V911.248L677.289 908.954H679.844V921.335H677.401ZM687.082 921.577C684.583 921.577 682.831 920.179 682.364 918.035H684.826C685.217 918.986 686.056 919.396 687.044 919.396C688.443 919.396 689.338 918.482 689.338 917.289C689.338 916.096 688.443 915.219 687.044 915.219C686.243 915.219 685.441 915.518 684.919 916.058H682.737L683.427 908.954H691.277V911.136H685.497L685.292 913.373C685.795 913.168 686.653 913.038 687.287 913.038C689.524 913.038 691.78 914.455 691.78 917.289C691.78 919.582 689.953 921.577 687.082 921.577ZM699.289 908.954H708.444V919.153H710.14V924.076H707.754V921.335H699.27V924.076H696.883V919.153H698.077C698.972 918.165 699.289 916.301 699.289 914.511V908.954ZM701.731 911.136V914.492C701.731 915.946 701.601 917.755 700.929 919.153H706.001V911.136H701.731ZM717.931 921.577C714.127 921.577 711.498 918.687 711.498 915.145C711.498 911.583 714.127 908.712 717.931 908.712C721.735 908.712 724.364 911.583 724.364 915.145C724.364 918.687 721.735 921.577 717.931 921.577ZM717.931 919.396C720.243 919.396 721.921 917.494 721.921 915.145C721.921 912.777 720.243 910.894 717.931 910.894C715.619 910.894 713.941 912.777 713.941 915.145C713.941 917.494 715.619 919.396 717.931 919.396ZM732.445 921.335V911.77L729.891 914.119V911.248L732.333 908.954H734.888V921.335H732.445ZM742.461 921.577C739.534 921.577 737.688 919.899 737.688 917.811C737.688 916.767 738.21 915.723 739.292 915.07C738.266 914.436 737.837 913.392 737.837 912.404C737.837 910.353 739.59 908.712 742.461 908.712C745.314 908.712 747.067 910.353 747.067 912.404C747.067 913.392 746.638 914.436 745.612 915.07C746.694 915.723 747.216 916.767 747.216 917.811C747.216 919.899 745.37 921.577 742.461 921.577ZM742.461 919.396C743.86 919.396 744.773 918.706 744.773 917.774C744.773 916.823 743.878 916.17 742.461 916.17C741.044 916.17 740.131 916.823 740.131 917.774C740.131 918.706 741.063 919.396 742.461 919.396ZM744.624 912.422C744.624 911.527 743.804 910.875 742.461 910.875C741.119 910.875 740.28 911.527 740.28 912.422C740.28 913.355 741.1 913.989 742.461 913.989C743.823 913.989 744.624 913.355 744.624 912.422Z" fill="#C7FF51"/>
<path d="M291.019 660.056C290.245 660.681 294.154 656.533 296.738 654.583C300.083 653.334 299.855 651.974 301.279 651.711C302.703 651.448 305.691 652.824 307.287 654.632C308.883 656.44 308.076 658.903 308.452 660.937C308.828 662.971 300.846 667.706 299.407 669.023C297.967 670.341 296.614 676.55 294.934 677.702C293.254 678.854 291.554 678.887 291.116 681.071C290.679 683.255 291.31 686.883 290.169 688.468C288.83 690.327 282.318 694.798 280.146 701.257C279.468 703.275 281.837 710.409 287.689 712.483C294.707 714.97 301.643 702.753 304.906 698.785C309.25 693.502 308.136 687.812 309.056 685.959C309.976 684.107 313.915 679.243 314.985 678.204C316.57 676.664 319.003 675.919 320.441 671.306C322.062 666.107 323.246 661.323 323.947 660.563C324.648 659.802 330.011 659.232 332.136 658.208C334.26 657.185 337.196 661.69 338.032 662.798C338.7 663.684 337.309 666.857 336.531 668.333C335.543 670.198 333.435 674.121 332.905 674.892C332.242 675.856 324.078 679.608 326.57 682.723C327.748 684.197 331.011 683.235 331.026 684.073C329.883 685.476 327.634 688.486 327.785 689.299C327.935 690.113 324.156 692.424 322.247 693.478C320.203 694.556 315.956 696.996 315.323 698.122C314.69 699.249 313.752 702.9 313.362 704.584C312.596 706.128 310.771 709.227 309.602 709.275C308.14 709.335 305.187 711.563 304.267 713.416C303.347 715.268 307.369 717.68 306.652 719.495C305.936 721.31 299.916 725.157 297.905 726.79C295.893 728.424 287.066 727.321 285.069 727.9C283.073 728.479 276.461 725.705 273.907 725.546C271.354 725.386 268.199 721.973 267.808 720.994C267.417 720.014 268.073 716.738 268.978 715.94C269.701 715.302 267.95 712.274 266.984 710.84C266.678 709.564 266.273 706.765 267.099 705.771C268.131 704.528 266.573 702.923 266.422 702.11C266.272 701.296 269.572 697.532 271.124 696.824C272.676 696.117 269.603 695.423 270.298 692.35C270.992 689.277 272.634 687.922 275.015 686.009C277.396 684.097 276.766 677.273 278.553 674.419C280.339 671.565 288.855 665.294 289.85 663.848C290.845 662.402 292.26 659.056 291.019 660.056Z" fill="#C7FF51" stroke="#C7FF51" stroke-width="0.717109"/>
<path fill-rule="evenodd" clip-rule="evenodd" d="M306.583 719.084C306.972 719.293 307.762 720.002 307.81 721.171C307.834 721.76 307.511 722.687 307.162 723.685C306.646 725.163 306.075 726.797 306.497 727.724C307.204 729.276 311.338 732.298 312.574 731.018C313.032 730.544 314.049 729.822 315.159 729.035C317.045 727.698 319.196 726.172 319.31 725.356C319.404 724.685 320.24 723.143 321.096 721.565C321.892 720.097 322.704 718.599 322.951 717.743C323.14 717.089 323.238 716.254 323.342 715.365C323.522 713.834 323.72 712.144 324.43 710.949C325.043 709.918 326.806 708.674 328.503 707.477C329.917 706.48 331.285 705.514 331.905 704.73C332.445 704.047 332.819 702.999 333.179 701.988C333.728 700.448 334.246 698.996 335.274 699.06C336.144 699.114 337.371 699.322 338.822 699.567C340.212 699.803 341.807 700.073 343.491 700.276C345.315 700.496 346.121 700.963 346.719 701.309C347.249 701.616 347.614 701.828 348.379 701.686C349.81 701.422 351.976 698.094 352.816 696.804C352.931 696.627 353.021 696.488 353.081 696.401C353.389 695.954 354.248 695.887 355.436 695.795C356.171 695.738 357.03 695.671 357.962 695.499C358.319 695.433 358.745 695.359 359.225 695.275C362.029 694.786 366.648 693.981 369.646 692.709C373.157 691.219 379.899 687.87 381.044 687.238C382.19 686.605 385.271 683.933 384.971 682.306C384.739 681.052 384.069 680.129 383.375 679.172C383.168 678.887 382.958 678.599 382.758 678.298C381.885 676.987 381.321 673.936 383.129 672.34C384.938 670.744 386.746 669.147 385.798 667.43C384.849 665.712 380.831 663.44 379.535 663.259C378.24 663.077 373.148 661.704 371.371 661.191C369.594 660.679 362.438 661.79 361.014 662.054C360.411 662.165 359.175 661.904 357.748 661.602C355.805 661.191 353.508 660.706 351.983 660.988C351.712 661.038 351.449 661.084 351.192 661.13C348.953 661.525 347.251 661.825 345.331 663.689C344.108 664.877 343.424 667.089 342.833 669.004C342.39 670.439 341.998 671.707 341.469 672.255C341.099 672.638 340.531 673.171 339.896 673.766C338.406 675.163 336.545 676.908 335.99 677.895C335.341 679.05 334.393 680.119 333.595 681.019C333.42 681.216 333.252 681.404 333.097 681.584C332.916 681.793 332.72 682.013 332.518 682.24C331.749 683.103 330.898 684.059 330.534 684.792C329.502 686.035 327.467 688.682 327.587 689.333C327.668 689.771 324.295 691.943 321.031 694.044C318.229 695.847 315.509 697.599 315.126 698.156C314.297 699.36 313.255 703.97 313.368 704.58C313.458 705.068 311.17 707.861 310.014 709.196C308.566 709.323 305.315 710.401 303.904 713.69C302.493 716.98 305.102 718.657 306.583 719.084ZM340.884 681.62C340.141 682.529 338.648 684.768 338.623 686.455C338.592 688.564 340.889 689.612 342.018 690.034C342.23 690.113 342.475 690.215 342.742 690.327C343.9 690.81 345.463 691.462 346.424 691.113C346.953 690.921 347.732 690.263 348.607 689.523C349.688 688.609 350.917 687.571 352 687.138C353.958 686.356 356.361 685.701 357.785 685.438L362.87 684.499C363.907 684.798 366.209 685.27 367.125 684.764C367.216 684.714 367.313 684.661 367.413 684.606C368.573 683.971 370.303 683.025 371.593 681.625C372.065 681.113 372.59 680.639 373.061 680.215C373.99 679.378 374.704 678.735 374.359 678.38C374.144 678.158 373.998 677.923 373.828 677.649C373.587 677.26 373.296 676.791 372.688 676.164C372.319 675.785 371.91 675.467 371.526 675.168C370.826 674.624 370.211 674.146 370.09 673.489C369.94 672.676 370.329 670.991 370.543 670.251C370.702 669.591 370.719 668.241 369.52 668.126C368.817 668.059 368.378 667.665 367.962 667.294C367.492 666.872 367.053 666.479 366.296 666.619C365.158 666.829 360.865 667.201 358.862 667.361C357.697 667.506 354.987 668.246 353.468 670.041C351.569 672.284 349.06 674.641 348.856 674.679C348.653 674.716 345.052 676.854 343.982 677.893C343.126 678.724 341.56 680.724 340.884 681.62Z" fill="#C7FF51"/>
<path d="M307.81 721.171L308.168 721.157L308.168 721.157L307.81 721.171ZM306.583 719.084L306.753 718.768L306.719 718.75L306.683 718.74L306.583 719.084ZM307.162 723.685L307.5 723.804L307.5 723.804L307.162 723.685ZM306.497 727.724L306.823 727.575L306.823 727.575L306.497 727.724ZM312.574 731.018L312.832 731.267L312.832 731.267L312.574 731.018ZM315.159 729.035L314.951 728.743L314.951 728.743L315.159 729.035ZM319.31 725.356L318.955 725.306L318.955 725.306L319.31 725.356ZM321.096 721.565L320.781 721.394L320.781 721.394L321.096 721.565ZM323.342 715.365L322.986 715.323L322.986 715.323L323.342 715.365ZM324.43 710.949L324.122 710.766L324.122 710.766L324.43 710.949ZM328.503 707.477L328.709 707.77L328.709 707.77L328.503 707.477ZM331.905 704.73L331.624 704.508L331.624 704.508L331.905 704.73ZM333.179 701.988L332.842 701.868L332.842 701.868L333.179 701.988ZM335.274 699.06L335.252 699.418L335.252 699.418L335.274 699.06ZM338.822 699.567L338.762 699.921L338.762 699.921L338.822 699.567ZM343.491 700.276L343.448 700.632L343.448 700.632L343.491 700.276ZM346.719 701.309L346.539 701.619L346.539 701.619L346.719 701.309ZM352.816 696.804L353.116 696.999L353.116 696.999L352.816 696.804ZM353.081 696.401L353.377 696.604L353.377 696.604L353.081 696.401ZM355.436 695.795L355.409 695.437L355.409 695.437L355.436 695.795ZM359.225 695.275L359.163 694.922L359.163 694.922L359.225 695.275ZM369.646 692.709L369.506 692.379L369.506 692.379L369.646 692.709ZM383.375 679.172L383.085 679.383L383.085 679.383L383.375 679.172ZM382.758 678.298L382.459 678.496L382.459 678.496L382.758 678.298ZM383.129 672.34L383.367 672.609L383.367 672.609L383.129 672.34ZM385.798 667.43L385.484 667.603L385.484 667.603L385.798 667.43ZM379.535 663.259L379.585 662.903L379.585 662.903L379.535 663.259ZM371.371 661.191L371.272 661.536L371.272 661.536L371.371 661.191ZM357.748 661.602L357.823 661.251L357.823 661.251L357.748 661.602ZM351.983 660.988L351.918 660.635L351.983 660.988ZM351.192 661.13L351.255 661.483L351.255 661.483L351.192 661.13ZM345.331 663.689L345.581 663.947L345.581 663.947L345.331 663.689ZM342.833 669.004L343.175 669.11L343.175 669.11L342.833 669.004ZM341.469 672.255L341.727 672.504L341.727 672.504L341.469 672.255ZM339.896 673.766L339.65 673.505L339.65 673.505L339.896 673.766ZM335.99 677.895L336.303 678.07L336.303 678.07L335.99 677.895ZM333.595 681.019L333.326 680.781L333.326 680.781L333.595 681.019ZM333.097 681.584L332.825 681.35L332.825 681.35L333.097 681.584ZM332.518 682.24L332.25 682.002L332.25 682.002L332.518 682.24ZM330.534 684.792L330.81 685.021L330.837 684.989L330.856 684.952L330.534 684.792ZM321.031 694.044L320.837 693.742L320.837 693.742L321.031 694.044ZM310.014 709.196L310.046 709.553L310.19 709.54L310.286 709.43L310.014 709.196ZM303.904 713.69L303.574 713.549L303.574 713.549L303.904 713.69ZM338.623 686.455L338.264 686.45L338.264 686.45L338.623 686.455ZM340.884 681.62L341.162 681.847L341.166 681.842L341.171 681.836L340.884 681.62ZM342.018 690.034L341.893 690.37L341.893 690.37L342.018 690.034ZM342.742 690.327L342.604 690.658L342.604 690.658L342.742 690.327ZM346.424 691.113L346.546 691.45L346.546 691.45L346.424 691.113ZM348.607 689.523L348.375 689.25L348.375 689.25L348.607 689.523ZM352 687.138L351.867 686.805L351.867 686.805L352 687.138ZM357.785 685.438L357.72 685.086L357.785 685.438ZM362.87 684.499L362.969 684.154L362.888 684.131L362.805 684.146L362.87 684.499ZM367.125 684.764L367.299 685.078L367.299 685.078L367.125 684.764ZM367.413 684.606L367.585 684.921L367.585 684.921L367.413 684.606ZM371.593 681.625L371.857 681.868L371.857 681.868L371.593 681.625ZM373.061 680.215L373.301 680.481L373.301 680.481L373.061 680.215ZM374.359 678.38L374.102 678.629L374.102 678.629L374.359 678.38ZM373.828 677.649L373.523 677.838L373.523 677.838L373.828 677.649ZM372.688 676.164L372.945 675.915L372.945 675.915L372.688 676.164ZM371.526 675.168L371.306 675.451L371.306 675.451L371.526 675.168ZM370.543 670.251L370.888 670.35L370.89 670.342L370.892 670.334L370.543 670.251ZM369.52 668.126L369.554 667.769L369.554 667.769L369.52 668.126ZM367.962 667.294L368.202 667.026L368.202 667.026L367.962 667.294ZM358.862 667.361L358.833 667.004L358.825 667.004L358.818 667.005L358.862 667.361ZM353.468 670.041L353.194 669.809L353.194 669.809L353.468 670.041ZM343.982 677.893L344.231 678.15L344.231 678.15L343.982 677.893ZM308.168 721.157C308.114 719.827 307.22 719.019 306.753 718.768L306.414 719.4C306.725 719.567 307.411 720.177 307.452 721.186L308.168 721.157ZM307.5 723.804C307.674 723.307 307.846 722.815 307.971 722.372C308.094 721.936 308.183 721.511 308.168 721.157L307.452 721.186C307.462 721.42 307.401 721.753 307.281 722.177C307.163 722.595 306.999 723.065 306.823 723.567L307.5 723.804ZM306.823 727.575C306.664 727.225 306.676 726.687 306.828 725.988C306.977 725.304 307.24 724.548 307.5 723.804L306.823 723.567C306.567 724.301 306.287 725.101 306.127 725.835C305.97 726.554 305.908 727.296 306.171 727.872L306.823 727.575ZM312.316 730.769C312.139 730.952 311.812 731.03 311.281 730.911C310.763 730.796 310.147 730.512 309.526 730.128C308.909 729.746 308.307 729.278 307.818 728.813C307.322 728.342 306.971 727.9 306.823 727.575L306.171 727.872C306.376 728.323 306.807 728.841 307.324 729.333C307.848 729.831 308.49 730.33 309.149 730.738C309.804 731.143 310.498 731.471 311.125 731.611C311.738 731.748 312.391 731.723 312.832 731.267L312.316 730.769ZM314.951 728.743C313.859 729.518 312.804 730.264 312.316 730.769L312.832 731.267C313.26 730.823 314.24 730.126 315.366 729.328L314.951 728.743ZM318.955 725.306C318.943 725.397 318.853 725.576 318.61 725.849C318.381 726.108 318.059 726.403 317.671 726.724C316.895 727.364 315.897 728.072 314.951 728.743L315.366 729.328C316.306 728.661 317.327 727.937 318.127 727.276C318.527 726.946 318.882 726.624 319.147 726.325C319.399 726.041 319.621 725.723 319.665 725.406L318.955 725.306ZM320.781 721.394C320.354 722.181 319.927 722.968 319.596 723.642C319.43 723.98 319.285 724.294 319.175 724.57C319.068 724.84 318.985 725.095 318.955 725.306L319.665 725.406C319.683 725.282 319.739 725.092 319.842 724.835C319.942 724.584 320.077 724.288 320.239 723.959C320.563 723.3 320.982 722.527 321.411 721.736L320.781 721.394ZM322.607 717.643C322.493 718.037 322.242 718.599 321.909 719.264C321.578 719.923 321.179 720.659 320.781 721.394L321.411 721.736C321.808 721.003 322.213 720.256 322.55 719.585C322.884 718.92 323.162 718.305 323.296 717.842L322.607 717.643ZM322.986 715.323C322.881 716.222 322.785 717.024 322.607 717.643L323.296 717.842C323.494 717.154 323.595 716.286 323.698 715.406L322.986 715.323ZM324.122 710.766C323.365 712.04 323.163 713.816 322.986 715.323L323.698 715.406C323.881 713.852 324.075 712.249 324.739 711.132L324.122 710.766ZM328.296 707.184C327.45 707.781 326.575 708.398 325.834 708.997C325.102 709.588 324.464 710.191 324.122 710.766L324.739 711.132C325.01 710.676 325.559 710.141 326.285 709.554C327.004 708.974 327.858 708.37 328.709 707.77L328.296 707.184ZM331.624 704.508C331.342 704.864 330.874 705.279 330.281 705.741C329.693 706.198 329.005 706.684 328.296 707.184L328.709 707.77C329.415 707.273 330.117 706.777 330.722 706.307C331.322 705.84 331.848 705.381 332.186 704.953L331.624 704.508ZM332.842 701.868C332.474 702.898 332.119 703.881 331.624 704.508L332.186 704.953C332.771 704.213 333.164 703.1 333.517 702.108L332.842 701.868ZM335.296 698.702C334.572 698.657 334.084 699.161 333.739 699.739C333.391 700.323 333.112 701.109 332.842 701.868L333.517 702.108C333.796 701.327 334.05 700.617 334.355 700.106C334.664 699.588 334.948 699.399 335.252 699.418L335.296 698.702ZM338.882 699.214C337.439 698.97 336.189 698.758 335.296 698.702L335.252 699.418C336.098 699.471 337.302 699.674 338.762 699.921L338.882 699.214ZM343.534 699.92C341.86 699.718 340.273 699.449 338.882 699.214L338.762 699.921C340.151 700.156 341.755 700.427 343.448 700.632L343.534 699.92ZM346.898 700.999C346.274 700.638 345.421 700.148 343.534 699.92L343.448 700.632C345.209 700.844 345.968 701.289 346.539 701.619L346.898 700.999ZM348.314 701.334C347.977 701.396 347.752 701.377 347.561 701.322C347.357 701.262 347.171 701.157 346.898 700.999L346.539 701.619C346.796 701.769 347.058 701.922 347.361 702.01C347.676 702.102 348.016 702.118 348.444 702.039L348.314 701.334ZM352.515 696.608C352.094 697.255 351.352 698.395 350.539 699.405C350.133 699.911 349.716 700.375 349.32 700.725C348.914 701.084 348.572 701.286 348.314 701.334L348.444 702.039C348.902 701.954 349.367 701.641 349.795 701.262C350.234 700.874 350.679 700.375 351.098 699.855C351.936 698.812 352.697 697.643 353.116 696.999L352.515 696.608ZM352.786 696.197C352.722 696.289 352.629 696.433 352.515 696.608L353.116 696.999C353.233 696.82 353.32 696.686 353.377 696.604L352.786 696.197ZM355.409 695.437C354.823 695.483 354.285 695.524 353.855 695.614C353.437 695.701 353.023 695.853 352.786 696.197L353.377 696.604C353.447 696.502 353.616 696.396 354.002 696.316C354.376 696.237 354.862 696.199 355.464 696.152L355.409 695.437ZM357.897 695.146C356.986 695.315 356.144 695.38 355.409 695.437L355.464 696.152C356.197 696.095 357.074 696.027 358.028 695.851L357.897 695.146ZM359.163 694.922C358.684 695.005 358.256 695.08 357.897 695.146L358.028 695.851C358.382 695.786 358.806 695.712 359.286 695.628L359.163 694.922ZM369.506 692.379C366.554 693.632 361.981 694.431 359.163 694.922L359.286 695.628C362.077 695.142 366.742 694.331 369.786 693.039L369.506 692.379ZM380.871 686.924C379.737 687.55 373.005 690.894 369.506 692.379L369.786 693.039C373.308 691.544 380.062 688.19 381.218 687.551L380.871 686.924ZM384.618 682.371C384.671 682.658 384.58 683.041 384.33 683.503C384.084 683.957 383.713 684.438 383.286 684.902C382.429 685.832 381.402 686.631 380.871 686.924L381.218 687.551C381.832 687.212 382.919 686.358 383.813 685.388C384.263 684.9 384.677 684.369 384.96 683.844C385.24 683.328 385.42 682.767 385.323 682.24L384.618 682.371ZM383.085 679.383C383.785 680.347 384.403 681.208 384.618 682.371L385.323 682.24C385.075 680.896 384.354 679.911 383.665 678.962L383.085 679.383ZM382.459 678.496C382.665 678.804 382.878 679.098 383.085 679.383L383.665 678.962C383.457 678.675 383.252 678.393 383.056 678.099L382.459 678.496ZM382.892 672.071C381.882 672.962 381.554 674.243 381.579 675.433C381.605 676.62 381.981 677.778 382.459 678.496L383.056 678.099C382.661 677.506 382.319 676.484 382.296 675.418C382.274 674.356 382.568 673.313 383.367 672.609L382.892 672.071ZM385.484 667.603C385.866 668.296 385.72 668.973 385.202 669.727C384.673 670.496 383.807 671.263 382.892 672.071L383.367 672.609C384.26 671.82 385.203 670.991 385.793 670.134C386.393 669.261 386.677 668.281 386.112 667.256L385.484 667.603ZM379.485 663.614C379.754 663.651 380.208 663.808 380.776 664.071C381.335 664.329 381.975 664.676 382.606 665.072C383.238 665.468 383.854 665.908 384.367 666.35C384.885 666.797 385.277 667.229 385.484 667.603L386.112 667.256C385.844 666.772 385.378 666.275 384.835 665.807C384.288 665.335 383.641 664.874 382.987 664.464C382.333 664.054 381.666 663.692 381.077 663.42C380.498 663.152 379.964 662.957 379.585 662.903L379.485 663.614ZM371.272 661.536C372.164 661.793 373.884 662.266 375.544 662.696C377.193 663.124 378.813 663.519 379.485 663.614L379.585 662.903C378.962 662.816 377.389 662.434 375.724 662.002C374.069 661.573 372.355 661.102 371.47 660.847L371.272 661.536ZM361.079 662.406C361.782 662.276 363.919 661.934 366.1 661.688C367.19 661.565 368.286 661.467 369.217 661.431C370.164 661.395 370.89 661.426 371.272 661.536L371.47 660.847C370.963 660.701 370.128 660.678 369.189 660.715C368.234 660.751 367.118 660.851 366.02 660.975C363.822 661.223 361.669 661.568 360.949 661.701L361.079 662.406ZM357.674 661.953C358.385 662.103 359.06 662.246 359.634 662.337C360.194 662.425 360.71 662.474 361.079 662.406L360.949 661.701C360.715 661.744 360.311 661.718 359.746 661.629C359.194 661.541 358.539 661.403 357.823 661.251L357.674 661.953ZM352.048 661.34C352.753 661.21 353.662 661.255 354.66 661.391C355.653 661.526 356.7 661.747 357.674 661.953L357.823 661.251C356.853 661.047 355.78 660.82 354.757 660.68C353.74 660.541 352.738 660.484 351.918 660.635L352.048 661.34ZM351.255 661.483C351.511 661.438 351.775 661.391 352.048 661.34L351.918 660.635C351.648 660.685 351.386 660.731 351.13 660.777L351.255 661.483ZM345.581 663.947C347.417 662.164 349.021 661.877 351.255 661.483L351.13 660.777C348.884 661.173 347.086 661.486 345.081 663.432L345.581 663.947ZM343.175 669.11C343.472 668.149 343.786 667.135 344.175 666.214C344.566 665.289 345.02 664.491 345.581 663.947L345.081 663.432C344.419 664.076 343.919 664.977 343.515 665.934C343.109 666.895 342.785 667.944 342.49 668.898L343.175 669.11ZM341.727 672.504C342.045 672.175 342.296 671.662 342.517 671.092C342.742 670.513 342.955 669.824 343.175 669.11L342.49 668.898C342.268 669.619 342.063 670.282 341.849 670.832C341.631 671.392 341.422 671.788 341.211 672.006L341.727 672.504ZM340.141 674.028C340.773 673.435 341.349 672.895 341.727 672.504L341.211 672.006C340.849 672.381 340.289 672.906 339.65 673.505L340.141 674.028ZM336.303 678.07C336.554 677.624 337.125 676.973 337.848 676.235C338.563 675.507 339.395 674.727 340.141 674.028L339.65 673.505C338.907 674.202 338.064 674.992 337.337 675.733C336.619 676.464 335.982 677.178 335.678 677.719L336.303 678.07ZM333.863 681.257C334.656 680.362 335.632 679.265 336.303 678.07L335.678 677.719C335.051 678.835 334.129 679.876 333.326 680.781L333.863 681.257ZM333.368 681.819C333.522 681.641 333.688 681.454 333.863 681.257L333.326 680.781C333.152 680.977 332.983 681.168 332.825 681.35L333.368 681.819ZM332.785 682.479C332.987 682.252 333.185 682.03 333.368 681.819L332.825 681.35C332.647 681.556 332.452 681.775 332.25 682.002L332.785 682.479ZM330.856 684.952C331.019 684.621 331.303 684.224 331.653 683.79C332.001 683.36 332.4 682.912 332.785 682.479L332.25 682.002C331.867 682.432 331.456 682.893 331.095 683.34C330.737 683.783 330.413 684.23 330.213 684.633L330.856 684.952ZM327.94 689.268C327.942 689.28 327.935 689.24 327.977 689.116C328.015 689.005 328.079 688.862 328.169 688.691C328.349 688.35 328.615 687.933 328.923 687.489C329.538 686.601 330.298 685.637 330.81 685.021L330.259 684.563C329.738 685.189 328.964 686.17 328.334 687.08C328.019 687.534 327.735 687.978 327.535 688.356C327.435 688.544 327.352 688.725 327.297 688.887C327.247 689.038 327.203 689.223 327.235 689.398L327.94 689.268ZM321.225 694.345C322.855 693.296 324.52 692.224 325.768 691.359C326.39 690.928 326.917 690.542 327.286 690.233C327.469 690.08 327.625 689.936 327.734 689.809C327.789 689.746 327.842 689.675 327.881 689.6C327.916 689.534 327.967 689.412 327.94 689.268L327.235 689.398C327.218 689.308 327.252 689.255 327.245 689.269C327.242 689.275 327.228 689.298 327.191 689.341C327.119 689.424 326.999 689.538 326.826 689.683C326.483 689.97 325.978 690.341 325.359 690.77C324.124 691.626 322.471 692.69 320.837 693.742L321.225 694.345ZM315.421 698.359C315.444 698.326 315.502 698.26 315.614 698.16C315.721 698.064 315.862 697.949 316.034 697.816C316.379 697.552 316.836 697.229 317.373 696.864C318.447 696.134 319.823 695.248 321.225 694.345L320.837 693.742C319.437 694.643 318.053 695.535 316.97 696.271C316.429 696.639 315.958 696.971 315.598 697.248C315.417 697.386 315.261 697.513 315.135 697.626C315.013 697.735 314.903 697.847 314.83 697.952L315.421 698.359ZM313.721 704.515C313.721 704.516 313.72 704.51 313.719 704.494C313.718 704.478 313.718 704.457 313.719 704.429C313.72 704.374 313.725 704.303 313.734 704.215C313.752 704.04 313.785 703.814 313.832 703.55C313.925 703.024 314.068 702.362 314.241 701.679C314.414 700.996 314.616 700.298 314.824 699.7C315.036 699.091 315.243 698.617 315.421 698.359L314.83 697.952C314.593 698.297 314.36 698.85 314.147 699.464C313.93 700.088 313.723 700.806 313.546 701.503C313.369 702.199 313.222 702.879 313.125 703.426C313.077 703.699 313.041 703.943 313.021 704.141C313.002 704.324 312.991 704.512 313.015 704.645L313.721 704.515ZM310.286 709.43C310.866 708.759 311.732 707.721 312.444 706.787C312.799 706.321 313.12 705.875 313.349 705.51C313.462 705.328 313.559 705.158 313.625 705.01C313.658 704.936 313.687 704.86 313.705 704.786C313.723 704.717 313.74 704.619 313.721 704.515L313.015 704.645C313.007 704.602 313.017 704.583 313.01 704.609C313.005 704.63 312.993 704.665 312.97 704.717C312.924 704.821 312.847 704.959 312.741 705.129C312.529 705.467 312.223 705.893 311.873 706.353C311.174 707.271 310.318 708.297 309.743 708.961L310.286 709.43ZM304.233 713.832C305.575 710.706 308.675 709.674 310.046 709.553L309.983 708.839C308.456 708.973 305.056 710.096 303.574 713.549L304.233 713.832ZM306.683 718.74C305.993 718.541 305.047 718.049 304.446 717.246C303.864 716.468 303.577 715.363 304.233 713.832L303.574 713.549C302.82 715.307 303.131 716.685 303.872 717.675C304.593 718.639 305.693 719.2 306.484 719.429L306.683 718.74ZM338.981 686.46C338.992 685.704 339.339 684.784 339.801 683.914C340.258 683.053 340.803 682.285 341.162 681.847L340.607 681.393C340.222 681.864 339.649 682.67 339.167 683.577C338.691 684.475 338.278 685.519 338.264 686.45L338.981 686.46ZM342.144 689.698C341.59 689.491 340.777 689.14 340.111 688.599C339.449 688.06 338.968 687.366 338.981 686.46L338.264 686.45C338.247 687.653 338.898 688.537 339.659 689.155C340.416 689.771 341.317 690.155 341.893 690.37L342.144 689.698ZM342.88 689.996C342.615 689.885 342.363 689.78 342.144 689.698L341.893 690.37C342.097 690.446 342.335 690.546 342.604 690.658L342.88 689.996ZM346.302 690.776C345.932 690.91 345.395 690.862 344.752 690.686C344.122 690.513 343.463 690.239 342.88 689.996L342.604 690.658C343.179 690.897 343.88 691.191 344.562 691.377C345.23 691.561 345.955 691.665 346.546 691.45L346.302 690.776ZM348.375 689.25C347.936 689.621 347.53 689.964 347.169 690.238C346.801 690.517 346.511 690.7 346.302 690.776L346.546 691.45C346.866 691.334 347.23 691.092 347.603 690.809C347.982 690.521 348.403 690.165 348.838 689.797L348.375 689.25ZM351.867 686.805C350.717 687.264 349.44 688.35 348.375 689.25L348.838 689.797C349.937 688.869 351.116 687.877 352.133 687.471L351.867 686.805ZM357.72 685.086C356.274 685.353 353.848 686.014 351.867 686.805L352.133 687.471C354.069 686.698 356.449 686.05 357.85 685.791L357.72 685.086ZM362.805 684.146L357.72 685.086L357.85 685.791L362.935 684.851L362.805 684.146ZM366.952 684.45C366.791 684.539 366.538 684.599 366.198 684.62C365.865 684.641 365.481 684.622 365.083 684.577C364.287 684.487 363.473 684.299 362.969 684.154L362.77 684.843C363.304 684.997 364.159 685.195 365.003 685.29C365.425 685.337 365.853 685.36 366.242 685.336C366.624 685.312 367.001 685.242 367.299 685.078L366.952 684.45ZM367.241 684.292C367.141 684.346 367.044 684.399 366.952 684.45L367.299 685.078C367.389 685.028 367.485 684.976 367.585 684.921L367.241 684.292ZM371.329 681.382C370.085 682.732 368.407 683.653 367.241 684.292L367.585 684.921C368.739 684.289 370.521 683.317 371.857 681.868L371.329 681.382ZM372.821 679.949C372.352 680.371 371.814 680.856 371.329 681.382L371.857 681.868C372.315 681.371 372.829 680.907 373.301 680.481L372.821 679.949ZM374.102 678.629C374.102 678.63 374.094 678.62 374.09 678.603C374.087 678.588 374.091 678.586 374.086 678.606C374.073 678.655 374.025 678.747 373.909 678.891C373.68 679.174 373.294 679.522 372.821 679.949L373.301 680.481C373.757 680.071 374.193 679.679 374.466 679.342C374.601 679.176 374.726 678.989 374.778 678.791C374.838 678.567 374.804 678.324 374.616 678.13L374.102 678.629ZM373.523 677.838C373.691 678.108 373.855 678.376 374.102 678.629L374.616 678.13C374.432 677.94 374.306 677.739 374.133 677.46L373.523 677.838ZM372.43 676.414C373.012 677.013 373.287 677.457 373.523 677.838L374.133 677.46C373.887 677.064 373.58 676.569 372.945 675.915L372.43 676.414ZM371.306 675.451C371.692 675.752 372.082 676.056 372.43 676.414L372.945 675.915C372.557 675.515 372.127 675.182 371.746 674.885L371.306 675.451ZM369.737 673.555C369.816 673.978 370.05 674.322 370.331 674.618C370.61 674.911 370.961 675.184 371.306 675.451L371.746 674.885C371.39 674.609 371.085 674.37 370.851 674.124C370.62 673.881 370.486 673.658 370.443 673.424L369.737 673.555ZM370.199 670.151C370.089 670.532 369.935 671.152 369.827 671.782C369.721 672.398 369.649 673.079 369.737 673.555L370.443 673.424C370.38 673.087 370.428 672.519 370.533 671.903C370.636 671.303 370.784 670.71 370.888 670.35L370.199 670.151ZM369.485 668.483C369.714 668.505 369.862 668.582 369.964 668.676C370.069 668.774 370.146 668.911 370.196 669.084C370.299 669.438 370.265 669.873 370.195 670.167L370.892 670.334C370.98 669.968 371.034 669.398 370.885 668.884C370.809 668.622 370.676 668.359 370.452 668.151C370.224 667.94 369.924 667.805 369.554 667.769L369.485 668.483ZM367.723 667.561C368.133 667.928 368.652 668.403 369.485 668.483L369.554 667.769C368.982 667.714 368.622 667.403 368.202 667.026L367.723 667.561ZM366.362 666.971C366.927 666.867 367.243 667.131 367.723 667.561L368.202 667.026C367.741 666.614 367.178 666.091 366.231 666.266L366.362 666.971ZM358.89 667.719C360.883 667.56 365.199 667.186 366.362 666.971L366.231 666.266C365.116 666.472 360.848 666.843 358.833 667.004L358.89 667.719ZM353.741 670.272C354.452 669.433 355.453 668.828 356.437 668.413C357.419 667.998 358.356 667.786 358.906 667.717L358.818 667.005C358.203 667.082 357.202 667.312 356.158 667.752C355.116 668.191 354.003 668.853 353.194 669.809L353.741 670.272ZM348.921 675.031C348.982 675.02 349.029 674.996 349.048 674.986C349.074 674.973 349.098 674.958 349.119 674.944C349.16 674.916 349.207 674.881 349.257 674.842C349.357 674.763 349.485 674.654 349.634 674.521C349.933 674.255 350.33 673.883 350.777 673.443C351.673 672.563 352.783 671.405 353.741 670.272L353.194 669.809C352.254 670.92 351.16 672.062 350.275 672.931C349.833 673.366 349.445 673.73 349.157 673.986C349.013 674.114 348.896 674.213 348.813 674.279C348.77 674.312 348.741 674.334 348.723 674.346C348.713 674.352 348.712 674.353 348.716 674.351C348.718 674.349 348.725 674.346 348.735 674.342C348.744 674.338 348.763 674.331 348.791 674.326L348.921 675.031ZM344.231 678.15C344.735 677.661 345.87 676.886 346.935 676.213C347.461 675.881 347.96 675.58 348.339 675.361C348.529 675.251 348.686 675.163 348.801 675.101C348.859 675.07 348.903 675.048 348.934 675.033C348.949 675.026 348.958 675.022 348.962 675.021C348.972 675.016 348.953 675.025 348.921 675.031L348.791 674.326C348.747 674.334 348.708 674.35 348.693 674.356C348.671 674.365 348.648 674.375 348.626 674.386C348.581 674.407 348.526 674.435 348.463 674.469C348.338 674.535 348.173 674.628 347.979 674.74C347.592 674.965 347.086 675.27 346.552 675.607C345.498 676.273 344.298 677.086 343.732 677.636L344.231 678.15ZM341.171 681.836C341.85 680.935 343.399 678.959 344.231 678.15L343.732 677.636C342.852 678.49 341.27 680.513 340.598 681.404L341.171 681.836Z" fill="#C7FF51"/>
<path d="M348.409 680.227C347.625 680.54 346.143 683.52 345.499 684.971L347.752 683.503C348.342 682.903 349.752 681.577 350.668 681.071C351.813 680.439 351.76 681.29 353.221 681.231C354.683 681.171 355.014 680.689 355.421 680.614C355.746 680.554 357.736 679.485 358.691 678.958L361.741 678.394C362.555 678.244 363.09 677.724 363.256 677.484C363.545 677.15 363.904 676.438 363.03 676.263C361.938 676.044 362.179 676.21 360.033 675.976C357.886 675.741 358.405 676.276 356.65 677.021C354.895 677.766 354.375 677.231 352.786 677.735C351.514 678.139 351.075 679.103 351.015 679.535C350.473 679.635 349.192 679.914 348.409 680.227Z" fill="#C7FF51" stroke="#C7FF51" stroke-width="0.717109"/>
<path d="M294.7 692.234C295.247 691.592 295.169 688.265 295.062 686.681L293.754 689.03C293.511 689.836 292.882 691.666 292.307 692.541C291.589 693.634 291.239 692.856 289.974 693.59C288.709 694.324 288.64 694.905 288.316 695.161C288.056 695.366 286.793 697.239 286.195 698.15L283.758 700.071C283.109 700.583 282.878 701.292 282.843 701.582C282.743 702.012 282.757 702.809 283.612 702.557C284.68 702.242 284.389 702.207 286.398 701.414C288.406 700.621 287.697 700.389 288.903 698.912C290.108 697.435 290.817 697.666 291.989 696.479C292.926 695.53 292.864 694.472 292.716 694.062C293.15 693.72 294.153 692.877 294.7 692.234Z" fill="#C7FF51" stroke="#C7FF51" stroke-width="0.71711"/>
<path d="M337.272 704.62C337.379 706.203 337.457 709.531 336.91 710.173C336.362 710.815 335.359 711.659 334.926 712C335.074 712.41 336.017 713.961 335.08 714.91C333.909 716.097 333.488 715.365 332.282 716.843C331.076 718.32 330.616 718.559 328.607 719.352C326.599 720.146 326.89 720.18 325.821 720.496C324.967 720.748 324.953 719.951 325.053 719.521C325.087 719.231 325.319 718.522 325.968 718.009C326.618 717.497 326.896 716.094 327.438 715.667C327.203 715.247 327.096 715.093 327.057 715.044C327.036 715.029 327.029 715.009 327.057 715.044C327.124 715.092 327.33 715.087 326.953 713.046C326.841 712.436 327.497 712.184 328.762 711.45C330.027 710.716 330.74 711.204 331.459 710.111C332.034 709.236 332.758 708.739 333 707.933L337.272 704.62Z" fill="#C7FF51"/>
<path d="M337.272 704.62C337.379 706.203 337.457 709.531 336.91 710.173C336.362 710.815 335.359 711.659 334.926 712C335.074 712.41 336.017 713.961 335.08 714.91C333.909 716.097 333.488 715.365 332.282 716.843C331.076 718.32 330.616 718.559 328.607 719.352C326.599 720.146 326.89 720.18 325.821 720.496C324.967 720.748 324.953 719.951 325.053 719.521C325.087 719.231 325.319 718.522 325.968 718.009C326.618 717.497 326.896 716.094 327.438 715.667C326.494 713.973 327.611 716.605 326.953 713.046C326.841 712.436 327.497 712.184 328.762 711.45C330.027 710.716 330.74 711.204 331.459 710.111C332.034 709.236 332.758 708.739 333 707.933L337.272 704.62Z" stroke="#C7FF51" stroke-width="0.71711"/>
<rect x="447.859" y="1415.61" width="144.778" height="312.077" fill="#9B22EC"/>
<rect x="830.711" y="1415.61" width="147.996" height="312.077" fill="#9B22EC"/>
<path d="M456.691 1090.54C459.376 1090.54 461.334 1092.01 462.322 1094.21H459.712C459.04 1093.34 457.959 1092.72 456.691 1092.72C454.416 1092.72 452.738 1094.55 452.738 1096.97C452.738 1099.4 454.416 1101.22 456.691 1101.22C457.959 1101.22 459.04 1100.63 459.712 1099.73H462.322C461.334 1101.95 459.376 1103.41 456.691 1103.41C453.055 1103.41 450.296 1100.66 450.296 1096.97C450.296 1093.28 453.055 1090.54 456.691 1090.54ZM463.416 1090.78H473.932V1092.96H469.905V1103.16H467.462V1092.96H463.416V1090.78ZM480.539 1097.23L483.877 1090.78H486.338L481.509 1100.25C480.39 1102.45 479.849 1103.16 477.985 1103.16H476.4V1100.98H477.78C478.525 1100.98 478.88 1100.74 479.178 1100.09L479.327 1099.75L474.703 1090.78H477.202L480.539 1097.23ZM487.868 1090.78H497.023V1100.98H498.719V1105.9H496.333V1103.16H487.849V1105.9H485.463V1100.98H486.656C487.551 1099.99 487.868 1098.13 487.868 1096.34V1090.78ZM490.31 1092.96V1096.32C490.31 1097.77 490.18 1099.58 489.509 1100.98H494.58V1092.96H490.31ZM511.787 1103.16H509.344V1094.46L503.191 1103.16H500.749V1090.78H503.191V1099.49L509.344 1090.78H511.787V1103.16ZM514.306 1094.59C514.306 1092.54 515.648 1090.78 518.594 1090.78H524.71V1103.16H522.267V1098.41H520.31L516.692 1103.16H513.653L517.364 1098.3C515.275 1097.89 514.306 1096.34 514.306 1094.59ZM522.267 1096.23V1092.96H518.762C517.494 1092.96 516.748 1093.6 516.748 1094.59C516.748 1095.57 517.494 1096.23 518.762 1096.23H522.267ZM456.728 1128.41C452.925 1128.41 450.296 1125.52 450.296 1121.97C450.296 1118.41 452.925 1115.54 456.728 1115.54C460.532 1115.54 463.161 1118.41 463.161 1121.97C463.161 1125.52 460.532 1128.41 456.728 1128.41ZM456.728 1126.22C459.04 1126.22 460.718 1124.32 460.718 1121.97C460.718 1119.6 459.04 1117.72 456.728 1117.72C454.416 1117.72 452.738 1119.6 452.738 1121.97C452.738 1124.32 454.416 1126.22 456.728 1126.22ZM475.755 1124.23C475.755 1126.35 474.357 1128.16 471.318 1128.16H465.37V1115.78H474.786V1117.96H467.812V1120.28H471.318C474.357 1120.28 475.755 1122.08 475.755 1124.23ZM467.812 1122.46V1125.98H471.131C472.511 1125.98 473.313 1125.29 473.313 1124.23C473.313 1123.17 472.511 1122.46 471.131 1122.46H467.812ZM482.433 1122.23L485.77 1115.78H488.232L483.402 1125.25C482.284 1127.45 481.743 1128.16 479.878 1128.16H478.294V1125.98H479.673C480.419 1125.98 480.773 1125.74 481.072 1125.09L481.221 1124.75L476.597 1115.78H479.095L482.433 1122.23ZM489.12 1115.78H491.563V1119.42C491.563 1121 492.383 1121.6 494.322 1121.6C495.068 1121.6 496.224 1121.51 497.268 1121.32V1115.78H499.711V1128.16H497.268V1123.52C496.466 1123.65 495.124 1123.78 494.415 1123.78C490.798 1123.78 489.12 1122.38 489.12 1119.47V1115.78ZM511.277 1117.96H505.03V1120.87H511.146V1123.05H505.03V1125.98H511.277V1128.16H502.588V1115.78H511.277V1117.96ZM524.693 1128.16H522.251V1123.05H516.247V1128.16H513.804L513.804 1115.78H516.247V1120.87H522.251V1115.78H524.693V1128.16ZM538.608 1128.16H536.165V1119.46L530.012 1128.16H527.57L527.57 1115.78H530.012V1124.49L536.165 1115.78H538.608V1128.16ZM541.127 1119.59C541.127 1117.54 542.469 1115.78 545.415 1115.78H551.531V1128.16H549.088V1123.41H547.131L543.513 1128.16H540.474L544.185 1123.3C542.096 1122.89 541.127 1121.34 541.127 1119.59ZM549.088 1121.23V1117.96H545.583C544.315 1117.96 543.569 1118.6 543.569 1119.59C543.569 1120.57 544.315 1121.23 545.583 1121.23H549.088ZM461.669 1153.16H459.227V1142.96H453.409V1153.16H450.967V1140.78H461.669V1153.16ZM470.294 1153.41C466.49 1153.41 463.861 1150.52 463.861 1146.97C463.861 1143.41 466.49 1140.54 470.294 1140.54C474.097 1140.54 476.726 1143.41 476.726 1146.97C476.726 1150.52 474.097 1153.41 470.294 1153.41ZM470.294 1151.22C472.606 1151.22 474.284 1149.32 474.284 1146.97C474.284 1144.6 472.606 1142.72 470.294 1142.72C467.982 1142.72 466.304 1144.6 466.304 1146.97C466.304 1149.32 467.982 1151.22 470.294 1151.22ZM480.427 1140.78H489.582V1153.16H487.139V1142.96H482.869V1146.66C482.869 1149.75 482.44 1153.16 478.86 1153.16H477.76V1150.96H478.469C480.315 1150.96 480.427 1148.71 480.427 1146.82V1140.78ZM501.134 1142.96H494.888V1145.87H501.004V1148.05H494.888V1150.98H501.134V1153.16H492.446V1140.78H501.134V1142.96ZM502.655 1140.78H513.171V1142.96H509.144V1153.16H506.701V1142.96H502.655V1140.78ZM519.778 1147.23L523.116 1140.78H525.577L520.748 1150.25C519.629 1152.45 519.088 1153.16 517.224 1153.16H515.639V1150.98H517.019C517.765 1150.98 518.119 1150.74 518.417 1150.09L518.566 1149.75L513.942 1140.78H516.441L519.778 1147.23ZM461.856 1178.16H459.413V1173.05H453.409V1178.16H450.967V1165.78H453.409V1170.87H459.413V1165.78H461.856V1178.16ZM471.072 1165.78L476.46 1178.16H473.869L472.657 1175.42H467.007L465.795 1178.16H463.297L468.685 1165.78H471.072ZM469.841 1169.03L467.977 1173.24H471.687L469.841 1169.03ZM492.253 1178.16H489.028L484.255 1173.26V1178.16H481.812V1165.78H484.255V1170.8L489.177 1165.78H492.253L486.212 1171.97L492.253 1178.16ZM499.19 1178.41C495.387 1178.41 492.758 1175.52 492.758 1171.97C492.758 1168.41 495.387 1165.54 499.19 1165.54C502.994 1165.54 505.623 1168.41 505.623 1171.97C505.623 1175.52 502.994 1178.41 499.19 1178.41ZM499.19 1176.22C501.502 1176.22 503.181 1174.32 503.181 1171.97C503.181 1169.6 501.502 1167.72 499.19 1167.72C496.878 1167.72 495.2 1169.6 495.2 1171.97C495.2 1174.32 496.878 1176.22 499.19 1176.22ZM513.519 1165.78C516.334 1165.78 517.639 1167.37 517.639 1169.33C517.639 1170.44 517.155 1171.43 516.204 1171.97C517.155 1172.51 517.639 1173.5 517.639 1174.62C517.639 1176.58 516.334 1178.16 513.519 1178.16H507.832V1165.78H513.519ZM510.274 1167.96V1170.89H513.276C514.432 1170.89 515.197 1170.39 515.197 1169.44C515.197 1168.45 514.451 1167.96 513.276 1167.96H510.274ZM510.274 1173.07V1175.98H513.276C514.432 1175.98 515.197 1175.5 515.197 1174.55C515.197 1173.56 514.451 1173.07 513.276 1173.07H510.274ZM530.417 1169.59C530.417 1171.66 529.075 1173.41 526.129 1173.41H522.456V1178.16H520.013V1165.78H526.129C529.075 1165.78 530.417 1167.54 530.417 1169.59ZM522.456 1167.96V1171.23H525.961C527.229 1171.23 527.975 1170.57 527.975 1169.59C527.975 1168.6 527.229 1167.96 525.961 1167.96H522.456ZM537.86 1165.78L543.249 1178.16H540.657L539.445 1175.42H533.796L532.584 1178.16H530.085L535.474 1165.78H537.86ZM536.63 1169.03L534.765 1173.24H538.476L536.63 1169.03ZM543.511 1178.16L547.911 1172.01L543.511 1165.78H546.326L549.328 1170.03L552.368 1165.78H555.09L550.671 1171.94L555.09 1178.16H552.293L549.254 1173.89L546.196 1178.16H543.511ZM456.691 1190.54C459.376 1190.54 461.334 1192.01 462.322 1194.21H459.712C459.04 1193.34 457.959 1192.72 456.691 1192.72C454.416 1192.72 452.738 1194.55 452.738 1196.97C452.738 1199.4 454.416 1201.22 456.691 1201.22C457.959 1201.22 459.04 1200.63 459.712 1199.73H462.322C461.334 1201.95 459.376 1203.41 456.691 1203.41C453.055 1203.41 450.296 1200.66 450.296 1196.97C450.296 1193.28 453.055 1190.54 456.691 1190.54ZM470.762 1190.78L476.151 1203.16H473.559L472.347 1200.42H466.698L465.486 1203.16H462.987L468.376 1190.78H470.762ZM469.532 1194.03L467.667 1198.24H471.378L469.532 1194.03ZM480.44 1190.78L484.99 1200.53L489.539 1190.78H492.318V1203.16H489.875V1195.41L486.276 1203.16H483.629L480.03 1195.41V1203.16H477.588V1190.78H480.44ZM500.957 1203.41C497.153 1203.41 494.524 1200.52 494.524 1196.97C494.524 1193.41 497.153 1190.54 500.957 1190.54C504.76 1190.54 507.389 1193.41 507.389 1196.97C507.389 1200.52 504.76 1203.41 500.957 1203.41ZM500.957 1201.22C503.269 1201.22 504.947 1199.32 504.947 1196.97C504.947 1194.6 503.269 1192.72 500.957 1192.72C498.645 1192.72 496.966 1194.6 496.966 1196.97C496.966 1199.32 498.645 1201.22 500.957 1201.22ZM511.09 1190.78H520.245V1203.16H517.802V1192.96H513.532V1196.66C513.532 1199.75 513.103 1203.16 509.523 1203.16H508.423V1200.96H509.132C510.978 1200.96 511.09 1198.71 511.09 1196.82V1190.78ZM531.797 1192.96H525.551V1195.87H531.667V1198.05H525.551V1200.98H531.797V1203.16H523.109V1190.78H531.797V1192.96ZM533.318 1190.78H543.834V1192.96H539.807V1203.16H537.364V1192.96H533.318V1190.78ZM551.207 1190.78L556.596 1203.16H554.004L552.792 1200.42H547.142L545.931 1203.16H543.432L548.821 1190.78H551.207ZM549.977 1194.03L548.112 1198.24H551.822L549.977 1194.03ZM556.858 1203.16L561.258 1197.01L556.858 1190.78H559.673L562.675 1195.03L565.714 1190.78H568.437L564.018 1196.94L568.437 1203.16H565.64L562.601 1198.89L559.543 1203.16H556.858Z" fill="#C7FF51"/>
</g>
<defs>
<clipPath id="clip0_781_1717">
<rect width="1016.66" height="1525" fill="white" transform="translate(0.65625)"/>
</clipPath>
</defs>
</svg>
