<svg width="1018" height="1525" viewBox="0 0 1018 1525" fill="none" xmlns="http://www.w3.org/2000/svg">
<g clip-path="url(#clip0_781_1526)">
<rect width="1016.66" height="1525" transform="translate(0.621094)" fill="black"/>
<rect x="644.504" y="1013.27" width="40.6666" height="432.083" fill="#9042C4"/>
<rect x="748.758" y="1013.27" width="38.9524" height="432.737" fill="#9042C4"/>
<rect x="853.453" y="1092.4" width="38.9524" height="248.322" fill="#9042C4"/>
<rect x="958.137" y="1282.9" width="38.9524" height="163.113" fill="#9042C4"/>
<rect x="958.137" y="1013.27" width="38.9524" height="162.505" fill="#9042C4"/>
<rect x="958.137" y="1069.87" width="38.9524" height="98.5984" transform="rotate(-90 958.137 1069.87)" fill="#FF6B00"/>
<rect x="637.387" y="1070.48" width="38.9524" height="150.332" transform="rotate(-90 637.387 1070.48)" fill="#FF6B00"/>
<rect x="696.414" y="1013.27" width="38.9524" height="432.737" fill="#9042C4"/>
<rect x="801.105" y="1123.43" width="38.9524" height="199.631" fill="#9042C4"/>
<rect x="905.801" y="1242.12" width="38.9524" height="133.899" fill="#9042C4"/>
<rect x="905.801" y="1047.36" width="38.9524" height="149.115" fill="#9042C4"/>
<rect x="1010.48" y="1315.75" width="38.9524" height="130.247" fill="#9042C4"/>
<rect x="1010.48" y="1013.27" width="38.9524" height="116.249" fill="#9042C4"/>
<rect x="892.398" y="1122.83" width="38.9524" height="164.331" transform="rotate(-90 892.398 1122.83)" fill="#FF6B00"/>
<rect x="637.387" y="1122.83" width="38.9524" height="150.332" transform="rotate(-90 637.387 1122.83)" fill="#FF6B00"/>
<rect x="-519.574" y="1176.35" width="40.0012" height="1516.97" transform="rotate(-90 -519.574 1176.35)" fill="#FF6B00"/>
<rect x="637.387" y="1235.43" width="38.9524" height="268.407" transform="rotate(-90 637.387 1235.43)" fill="#FF6B00"/>
<rect x="637.387" y="1295.06" width="38.9524" height="334.748" transform="rotate(-90 637.387 1295.06)" fill="#FF6B00"/>
<rect x="871.109" y="1362.01" width="38.9524" height="185.633" transform="rotate(-90 871.109 1362.01)" fill="#FF6B00"/>
<rect x="637.992" y="1362.01" width="38.9524" height="163.113" transform="rotate(-90 637.992 1362.01)" fill="#FF6B00"/>
<rect x="928.934" y="1414.97" width="38.9524" height="127.813" transform="rotate(-90 928.934 1414.97)" fill="#FF6B00"/>
<rect x="-98.0195" y="1416.36" width="40.0012" height="886.181" transform="rotate(-90 -98.0195 1416.36)" fill="#FF6B00"/>
<rect x="748.758" y="1069.87" width="38.9524" height="52.951" fill="#9042C4"/>
<rect x="696.414" y="1129.53" width="38.9524" height="52.951" fill="#9042C4"/>
<rect x="801.105" y="1124.52" width="38.9524" height="52.951" fill="#9042C4"/>
<rect x="905.801" y="1129.53" width="38.9524" height="52.951" fill="#9042C4"/>
<rect x="748.758" y="1189.17" width="38.9524" height="52.951" fill="#9042C4"/>
<rect x="696.414" y="1256.12" width="38.9524" height="52.951" fill="#9042C4"/>
<rect x="801.105" y="1256.12" width="38.9524" height="52.951" fill="#9042C4"/>
<rect x="748.758" y="1315.75" width="38.9524" height="52.951" fill="#9042C4"/>
<rect x="853.453" y="1296.29" width="38.9524" height="52.951" fill="#9042C4"/>
<rect x="905.801" y="1362.01" width="38.9524" height="33.4748" fill="#9042C4"/>
<rect x="1010.48" y="1368.72" width="38.9524" height="52.951" fill="#9042C4"/>
<rect x="696.414" y="1368.72" width="38.9524" height="52.951" fill="#9042C4"/>
<rect x="958.137" y="1315.75" width="38.9524" height="52.951" fill="#9042C4"/>
<rect x="905.801" y="1256.12" width="38.9524" height="52.951" fill="#9042C4"/>
<rect x="644.078" y="1315.75" width="38.9524" height="52.951" fill="#9042C4"/>
<rect x="853.453" y="1189.17" width="38.9524" height="52.951" fill="#9042C4"/>
<rect x="644.078" y="1189.17" width="38.9524" height="52.951" fill="#9042C4"/>
<rect x="644.078" y="1070.48" width="38.9524" height="52.951" fill="#9042C4"/>
<rect x="853.453" y="1083.87" width="38.9524" height="38.9524" fill="#9042C4"/>
<rect x="958.137" y="1069.87" width="38.9524" height="52.951" fill="#9042C4"/>
<rect x="-23.1562" y="30.5" width="39.1682" height="435.134" fill="#FFD549" fill-opacity="0.988542"/>
<rect x="82.1094" y="30.5" width="39.1682" height="435.134" fill="#FFD549" fill-opacity="0.988542"/>
<rect x="187.375" y="314.451" width="39.1682" height="151.165" fill="#FFD549" fill-opacity="0.988542"/>
<rect x="187.375" y="30.5" width="39.1682" height="124.236" fill="#FFD549" fill-opacity="0.988542"/>
<rect x="292.066" y="30.5" width="38.9722" height="577.805" fill="#FFD549" fill-opacity="0.988542"/>
<rect x="-29.8828" y="87.4082" width="39.1681" height="421.67" transform="rotate(-90 -29.8828 87.4082)" fill="#E13C95"/>
<rect x="29.4727" y="30.5" width="39.1682" height="435.134" fill="#FFD549" fill-opacity="0.988542"/>
<rect x="134.746" y="313.855" width="39.1682" height="151.777" fill="#FFD549" fill-opacity="0.988542"/>
<rect x="134.746" y="30.5" width="39.1682" height="124.236" fill="#FFD549" fill-opacity="0.988542"/>
<rect x="239.531" y="-5.08496" width="38.9722" height="613.388" fill="#FFD549" fill-opacity="0.988542"/>
<rect x="345.277" y="30.5" width="39.1682" height="435.134" fill="#FFD549" fill-opacity="0.988542"/>
<rect x="-29.8828" y="139.483" width="37.3664" height="657.026" transform="rotate(-90 -29.8828 139.483)" fill="#E13C95"/>
<rect x="233.895" y="193.904" width="39.1681" height="157.897" transform="rotate(-90 233.895 193.904)" fill="#E13C95"/>
<rect x="-29.8828" y="193.904" width="39.1681" height="157.897" transform="rotate(-90 -29.8828 193.904)" fill="#E13C95"/>
<rect x="233.895" y="253.88" width="39.1681" height="157.897" transform="rotate(-90 233.895 253.88)" fill="#E13C95"/>
<rect x="-29.8828" y="253.88" width="39.1681" height="157.897" transform="rotate(-90 -29.8828 253.88)" fill="#E13C95"/>
<rect x="233.895" y="313.855" width="39.1681" height="157.897" transform="rotate(-90 233.895 313.855)" fill="#E13C95"/>
<rect x="-29.2773" y="314.451" width="39.1681" height="157.285" transform="rotate(-90 -29.2773 314.451)" fill="#E13C95"/>
<rect x="-29.8828" y="381.17" width="39.1681" height="421.67" transform="rotate(-90 -29.8828 381.17)" fill="#E13C95"/>
<rect x="-29.8828" y="434.428" width="39.1681" height="421.67" transform="rotate(-90 -29.8828 434.428)" fill="#E13C95"/>
<rect x="82.1094" y="87.4082" width="39.1682" height="53.2442" fill="#FFD549" fill-opacity="0.988542"/>
<rect x="29.4727" y="147.393" width="39.1682" height="53.2442" fill="#FFD549" fill-opacity="0.988542"/>
<rect x="134.746" y="140.668" width="39.1682" height="14.0761" fill="#FFD549" fill-opacity="0.988542"/>
<rect x="240.023" y="147.393" width="39.1682" height="53.2442" fill="#FFD549" fill-opacity="0.988542"/>
<rect x="82.1094" y="207.375" width="39.1682" height="53.2442" fill="#FFD549" fill-opacity="0.988542"/>
<rect x="29.4727" y="274.682" width="39.1682" height="53.2442" fill="#FFD549" fill-opacity="0.988542"/>
<rect x="134.746" y="313.855" width="39.1682" height="28.1521" fill="#FFD549" fill-opacity="0.988542"/>
<rect x="82.1094" y="334.659" width="39.1682" height="53.2442" fill="#FFD549" fill-opacity="0.988542"/>
<rect x="187.375" y="334.659" width="39.1682" height="53.2442" fill="#FFD549" fill-opacity="0.988542"/>
<rect x="134.746" y="387.911" width="39.1682" height="53.2442" fill="#FFD549" fill-opacity="0.988542"/>
<rect x="240.023" y="387.911" width="39.1682" height="53.2442" fill="#FFD549" fill-opacity="0.988542"/>
<rect x="345.277" y="387.911" width="39.1682" height="53.2442" fill="#FFD549" fill-opacity="0.988542"/>
<rect x="29.4727" y="387.911" width="39.1682" height="53.2442" fill="#FFD549" fill-opacity="0.988542"/>
<rect x="292.648" y="334.659" width="39.1682" height="53.2442" fill="#FFD549" fill-opacity="0.988542"/>
<rect x="-23.1562" y="334.659" width="39.1682" height="53.2442" fill="#FFD549" fill-opacity="0.988542"/>
<rect x="240.023" y="274.682" width="39.1682" height="53.2442" fill="#FFD549" fill-opacity="0.988542"/>
<rect x="345.277" y="267.963" width="39.1682" height="53.2442" fill="#FFD549" fill-opacity="0.988542"/>
<rect x="292.648" y="200.63" width="39.1682" height="53.2442" fill="#FFD549" fill-opacity="0.988542"/>
<rect x="-23.1562" y="207.375" width="39.1682" height="53.2442" fill="#FFD549" fill-opacity="0.988542"/>
<rect x="-23.1562" y="88.0283" width="39.1682" height="53.2442" fill="#FFD549" fill-opacity="0.988542"/>
<rect x="345.277" y="147.393" width="39.1682" height="53.2442" fill="#FFD549" fill-opacity="0.988542"/>
<rect x="187.375" y="87.4082" width="39.1682" height="53.2442" fill="#FFD549" fill-opacity="0.988542"/>
<rect x="292.648" y="87.4082" width="39.1682" height="53.2442" fill="#FFD549" fill-opacity="0.988542"/>
<rect x="539.41" y="30.4824" width="39.1986" height="435.471" fill="#9042C4"/>
<rect x="644.754" y="72.7422" width="39.1986" height="218.654" fill="#9042C4"/>
<rect x="750.098" y="147.474" width="39.1986" height="180.681" fill="#9042C4"/>
<rect x="855.453" y="30.4824" width="39.1986" height="435.471" fill="#9042C4"/>
<rect x="821.758" y="87.4473" width="39.1986" height="132.908" transform="rotate(-90 821.758 87.4473)" fill="#3EFFFF" fill-opacity="0.988542"/>
<rect x="532.672" y="86.835" width="39.1986" height="129.233" transform="rotate(-90 532.672 86.835)" fill="#3EFFFF" fill-opacity="0.988542"/>
<rect x="592.07" y="30.4824" width="39.1986" height="435.471" fill="#9B22EC"/>
<rect x="697.422" y="147.474" width="39.1986" height="180.681" fill="#9042C4"/>
<rect x="802.781" y="72.7422" width="39.1986" height="195.38" fill="#9042C4"/>
<rect x="908.844" y="-0.0126953" width="38.9722" height="535.444" fill="#9042C4"/>
<rect x="802.082" y="140.625" width="38.9721" height="215.194" transform="rotate(-90 802.082 140.625)" fill="#E13C95"/>
<rect x="532.672" y="141.35" width="39.1986" height="164.756" transform="rotate(-90 532.672 141.35)" fill="#E13C95"/>
<rect x="750.098" y="194.015" width="39.1986" height="204.567" transform="rotate(-90 750.098 194.015)" fill="#3EFFFF" fill-opacity="0.988542"/>
<rect x="533.277" y="194.015" width="39.1986" height="203.343" transform="rotate(-90 533.277 194.015)" fill="#3EFFFF" fill-opacity="0.988542"/>
<rect x="532.672" y="254.148" width="38.9721" height="603.221" transform="rotate(-90 532.672 254.148)" fill="#3EFFFF" fill-opacity="0.988542"/>
<rect x="827.879" y="314.062" width="39.1986" height="126.783" transform="rotate(-90 827.879 314.062)" fill="#3EFFFF" fill-opacity="0.988542"/>
<rect x="697.422" y="314.062" width="39.1986" height="91.8716" transform="rotate(-90 697.422 314.062)" fill="#3EFFFF" fill-opacity="0.988542"/>
<rect x="533.277" y="314.062" width="39.1986" height="128.62" transform="rotate(-90 533.277 314.062)" fill="#3EFFFF" fill-opacity="0.988542"/>
<rect x="849.332" y="381.435" width="39.1986" height="105.346" transform="rotate(-90 849.332 381.435)" fill="#3EFFFF" fill-opacity="0.988542"/>
<rect x="532.672" y="381.435" width="39.1986" height="105.959" transform="rotate(-90 532.672 381.435)" fill="#3EFFFF" fill-opacity="0.988542"/>
<rect x="849.332" y="434.72" width="39.1986" height="105.346" transform="rotate(-90 849.332 434.72)" fill="#3EFFFF" fill-opacity="0.988542"/>
<rect x="533.277" y="434.72" width="39.1986" height="105.346" transform="rotate(-90 533.277 434.72)" fill="#3EFFFF" fill-opacity="0.988542"/>
<rect x="644.754" y="87.4473" width="39.1986" height="60.0228" fill="#9042C4"/>
<rect x="592.07" y="147.474" width="39.1986" height="53.2856" fill="#9B22EC"/>
<rect x="697.422" y="154.812" width="39.1986" height="39.1986" fill="#9042C4"/>
<rect x="802.781" y="147.474" width="39.1986" height="53.2856" fill="#9042C4"/>
<rect x="644.754" y="207.494" width="39.1986" height="53.2856" fill="#9042C4"/>
<rect x="592.07" y="274.859" width="39.1986" height="53.2856" fill="#9B22EC"/>
<rect x="697.422" y="274.859" width="39.1986" height="53.2856" fill="#9042C4"/>
<rect x="908.125" y="388.179" width="39.1986" height="53.2856" fill="#9042C4"/>
<rect x="592.07" y="388.179" width="39.1986" height="53.2856" fill="#9B22EC"/>
<rect x="855.453" y="334.88" width="39.1986" height="53.2856" fill="#9042C4"/>
<rect x="539.41" y="334.88" width="39.1986" height="53.2856" fill="#9042C4"/>
<rect x="802.781" y="254.05" width="39.1986" height="37.3611" fill="#9042C4"/>
<rect x="908.125" y="268.138" width="39.1986" height="53.2856" fill="#9042C4"/>
<rect x="750.098" y="207.494" width="39.1986" height="53.2856" fill="#9042C4"/>
<rect x="855.453" y="202.445" width="39.1986" height="53.2856" fill="#9042C4"/>
<rect x="539.41" y="207.494" width="39.1986" height="53.2856" fill="#9042C4"/>
<rect x="539.41" y="88.0518" width="39.1986" height="53.2856" fill="#9042C4"/>
<rect x="908.125" y="147.474" width="39.1986" height="53.2856" fill="#9042C4"/>
<rect x="855.453" y="87.4473" width="39.1986" height="53.2856" fill="#9042C4"/>
<rect x="539.59" y="532.789" width="39.0591" height="433.922" fill="#9B22EC"/>
<rect x="644.508" y="532.041" width="40.6666" height="481.221" fill="#9B22EC"/>
<rect x="749.535" y="532.789" width="39.0591" height="169.663" fill="#9B22EC"/>
<rect x="750.152" y="758.603" width="39.0591" height="208.112" fill="#9B22EC"/>
<rect x="854.508" y="532.789" width="39.0591" height="169.663" fill="#9B22EC"/>
<rect x="855.105" y="758.603" width="39.0591" height="208.112" fill="#9B22EC"/>
<rect x="-29.8828" y="587.962" width="37.2777" height="982.776" transform="rotate(-90 -29.8828 587.962)" fill="#E7FF51"/>
<rect x="533.492" y="815.347" width="39.0591" height="420.496" transform="rotate(-90 533.492 815.347)" fill="#E7FF51"/>
<rect x="591.98" y="465.96" width="40.6666" height="501.555" fill="#9B22EC"/>
<rect x="697.043" y="532.789" width="39.0591" height="169.663" fill="#9B22EC"/>
<rect x="699.707" y="758.603" width="39.0591" height="208.112" fill="#9B22EC"/>
<rect x="802.027" y="532.789" width="39.0591" height="170.273" fill="#9B22EC"/>
<rect x="802.637" y="758.603" width="39.0591" height="208.112" fill="#9B22EC"/>
<rect x="908.684" y="532.789" width="39.0591" height="124.501" fill="#9B22EC"/>
<rect x="907.598" y="758.603" width="39.0591" height="124.501" fill="#9B22EC"/>
<rect x="532.672" y="642.181" width="38.9721" height="484.61" transform="rotate(-90 532.672 642.181)" fill="#E7FF51"/>
<rect x="533.492" y="867.834" width="39.0591" height="420.496" transform="rotate(-90 533.492 867.834)" fill="#E7FF51"/>
<rect x="532.883" y="695.74" width="39.0591" height="420.496" transform="rotate(-90 532.883 695.74)" fill="#E7FF51"/>
<rect x="533.492" y="921.552" width="39.0591" height="420.496" transform="rotate(-90 533.492 921.552)" fill="#E7FF51"/>
<rect x="532.883" y="755.548" width="39.0591" height="164.17" transform="rotate(-90 532.883 755.548)" fill="#E7FF51"/>
<rect x="532.883" y="815.347" width="39.0591" height="164.17" transform="rotate(-90 532.883 815.347)" fill="#E7FF51"/>
<rect x="532.883" y="867.834" width="39.0591" height="164.17" transform="rotate(-90 532.883 867.834)" fill="#E7FF51"/>
<rect x="-12.3867" y="868.178" width="39.0191" height="708.848" transform="rotate(-90 -12.3867 868.178)" fill="#E7FF51"/>
<rect x="533.492" y="922.16" width="39.0591" height="164.17" transform="rotate(-90 533.492 922.16)" fill="#E7FF51"/>
<rect x="0.621094" y="923.454" width="42.2707" height="699.093" transform="rotate(-90 0.621094 923.454)" fill="#E7FF51"/>
<rect x="644.562" y="589.538" width="39.0591" height="53.096" fill="#9B22EC"/>
<rect x="592.07" y="649.358" width="39.0591" height="53.096" fill="#9B22EC"/>
<rect x="697.043" y="642.651" width="39.0591" height="53.096" fill="#9B22EC"/>
<rect x="699.707" y="868.178" width="39.0191" height="55.2771" fill="#9B22EC"/>
<rect x="644.562" y="709.17" width="39.0591" height="53.096" fill="#9B22EC"/>
<rect x="592.07" y="776.286" width="39.0591" height="53.096" fill="#9B22EC"/>
<rect x="644.562" y="820.84" width="39.0591" height="53.096" fill="#9B22EC"/>
<rect x="592.07" y="881.269" width="39.0591" height="53.096" fill="#9B22EC"/>
<rect x="539.59" y="822.08" width="39.0591" height="53.096" fill="#9B22EC"/>
<rect x="539.59" y="709.17" width="39.0591" height="53.096" fill="#9B22EC"/>
<rect x="539.59" y="590.154" width="39.0591" height="53.096" fill="#9B22EC"/>
<rect x="749.535" y="589.538" width="39.0591" height="53.096" fill="#9B22EC"/>
<rect x="750.152" y="815.347" width="39.0591" height="53.096" fill="#9B22EC"/>
<rect x="802.027" y="649.971" width="39.0591" height="53.096" fill="#9B22EC"/>
<rect x="802.637" y="875.775" width="39.0591" height="53.096" fill="#9B22EC"/>
<rect x="854.621" y="820.1" width="39.0591" height="53.096" fill="#9B22EC"/>
<rect x="908.684" y="649.971" width="39.0591" height="53.096" fill="#9B22EC"/>
<rect x="907.598" y="875.775" width="39.0591" height="90.9345" fill="#9B22EC"/>
<rect x="854.621" y="596.432" width="39.0591" height="53.096" fill="#9B22EC"/>
<path d="M36.0315 651.024L44.3033 668.754L52.5751 651.024H57.6263L57.6263 673.534H53.1853L53.1853 659.431L46.6425 673.534H41.8286L35.2857 659.431L35.2857 673.534H30.8447L30.8447 651.024H36.0315ZM74.3847 651.024L84.182 673.534H79.4698L77.2662 668.551H66.9943L64.7908 673.534H60.2481L70.0454 651.024H74.3847ZM72.1472 656.923L68.7572 664.584H75.5034L72.1472 656.923ZM96.9369 650.583C101.819 650.583 105.378 653.262 107.175 657.262H102.429C101.208 655.668 99.2421 654.55 96.9369 654.55C92.801 654.55 89.7499 657.872 89.7499 662.279C89.7499 666.686 92.801 670.009 96.9369 670.009C99.2421 670.009 101.208 668.924 102.429 667.296H107.175C105.378 671.331 101.819 673.975 96.9369 673.975C90.3262 673.975 85.3089 668.991 85.3089 662.279C85.3089 655.567 90.3262 650.583 96.9369 650.583ZM109.164 651.024H128.284V654.99H120.962V673.534H116.521V654.99H109.164V651.024ZM147.484 654.99H136.127V660.279H147.247V664.245H136.127V669.568H147.484V673.534H131.686V651.024H147.484V654.99ZM170.996 657.94C170.996 661.703 168.555 664.889 163.199 664.889H156.521V673.534H152.08V651.024H163.199C168.555 651.024 170.996 654.211 170.996 657.94ZM156.521 654.99V660.923H162.894C165.199 660.923 166.555 659.737 166.555 657.94C166.555 656.143 165.199 654.99 162.894 654.99H156.521ZM193.808 673.534H187.943L179.265 664.618V673.534H174.824V651.024H179.265V660.143L188.214 651.024H193.808L182.824 662.279L193.808 673.534ZM200.015 651.024H216.66V673.534H212.219V654.99H204.456V661.703C204.456 667.33 203.676 673.534 197.167 673.534H195.167V669.534H196.455C199.811 669.534 200.015 665.432 200.015 662.008V651.024ZM233.394 651.024L243.191 673.534H238.479L236.275 668.551H226.003L223.8 673.534H219.257L229.054 651.024H233.394ZM231.156 656.923L227.766 664.584H234.512L231.156 656.923ZM255.946 650.583C260.828 650.583 264.387 653.262 266.184 657.262H261.438C260.217 655.668 258.251 654.55 255.946 654.55C251.81 654.55 248.759 657.872 248.759 662.279C248.759 666.686 251.81 670.009 255.946 670.009C258.251 670.009 260.217 668.924 261.438 667.296H266.184C264.387 671.331 260.828 673.975 255.946 673.975C249.335 673.975 244.318 668.991 244.318 662.279C244.318 655.567 249.335 650.583 255.946 650.583ZM280.411 650.583C285.293 650.583 288.853 653.262 290.649 657.262H285.903C284.683 655.668 282.717 654.55 280.411 654.55C276.276 654.55 273.224 657.872 273.224 662.279C273.224 666.686 276.276 670.009 280.411 670.009C282.717 670.009 284.683 668.924 285.903 667.296H290.649C288.853 671.331 285.293 673.975 280.411 673.975C273.801 673.975 268.784 668.991 268.784 662.279C268.784 655.567 273.801 650.583 280.411 650.583ZM50.3038 719.534H45.8628V700.99H35.2857L35.2857 719.534H30.8447L30.8447 697.024H50.3038V719.534ZM65.9842 719.975C59.0684 719.975 54.2884 714.72 54.2884 708.279C54.2884 701.804 59.0684 696.583 65.9842 696.583C72.8999 696.583 77.6799 701.804 77.6799 708.279C77.6799 714.72 72.8999 719.975 65.9842 719.975ZM65.9842 716.009C70.1879 716.009 73.2389 712.551 73.2389 708.279C73.2389 703.974 70.1879 700.55 65.9842 700.55C61.7805 700.55 58.7294 703.974 58.7294 708.279C58.7294 712.551 61.7805 716.009 65.9842 716.009ZM108.273 719.534H103.832V700.99H93.2547V719.534H88.8137L88.8137 697.024H108.273V719.534ZM116.19 697.024H132.835V719.534H128.394V700.99H120.631V707.703C120.631 713.33 119.851 719.534 113.342 719.534H111.342V715.534H112.63C115.986 715.534 116.19 711.432 116.19 708.008V697.024ZM153.84 700.99H142.484V706.279H153.603V710.245H142.484V715.568H153.84V719.534H138.043V697.024H153.84V700.99ZM156.605 697.024H175.725V700.99H168.403V719.534H163.962V700.99H156.605V697.024ZM194.925 700.99H183.568V706.279H194.688V710.245H183.568V715.568H194.925V719.534H179.127V697.024H194.925V700.99ZM219.319 719.534H214.878V710.245H203.962V719.534H199.521V697.024H203.962V706.279H214.878V697.024H219.319V719.534ZM244.618 719.534H240.177V703.703L228.99 719.534H224.549V697.024H228.99V712.856L240.177 697.024H244.618V719.534ZM269.776 719.975C263.606 719.975 259.233 715.839 258.385 710.245H254.283V719.534H249.842V697.024H254.283V706.279H258.385C259.233 700.685 263.606 696.583 269.776 696.583C276.692 696.583 281.336 701.702 281.336 708.279C281.336 714.822 276.692 719.975 269.776 719.975ZM269.776 716.009C273.98 716.009 276.895 712.618 276.895 708.279C276.895 703.906 273.98 700.55 269.776 700.55C265.606 700.55 262.691 703.906 262.691 708.279C262.691 712.618 265.606 716.009 269.776 716.009ZM49.8292 765.534H43.9643L35.2857 756.618V765.534H30.8447L30.8447 743.024H35.2857L35.2857 752.143L44.2355 743.024H49.8292L38.8453 754.279L49.8292 765.534ZM62.4418 765.975C55.5261 765.975 50.7461 760.72 50.7461 754.279C50.7461 747.804 55.5261 742.583 62.4418 742.583C69.3576 742.583 74.1376 747.804 74.1376 754.279C74.1376 760.72 69.3576 765.975 62.4418 765.975ZM62.4418 762.009C66.6455 762.009 69.6966 758.551 69.6966 754.279C69.6966 749.974 66.6455 746.55 62.4418 746.55C58.2381 746.55 55.1871 749.974 55.1871 754.279C55.1871 758.551 58.2381 762.009 62.4418 762.009ZM88.4932 743.024C93.6122 743.024 95.9853 745.906 95.9853 749.465C95.9853 751.499 95.1039 753.296 93.3749 754.279C95.1039 755.262 95.9853 757.059 95.9853 759.093C95.9853 762.653 93.6122 765.534 88.4932 765.534H78.1535L78.1535 743.024H88.4932ZM82.5945 746.99L82.5945 752.313H88.0525C90.1544 752.313 91.5443 751.398 91.5443 749.669C91.5443 747.872 90.1883 746.99 88.0525 746.99H82.5945ZM82.5945 756.279V761.568H88.0525C90.1544 761.568 91.5443 760.686 91.5443 758.957C91.5443 757.161 90.1883 756.279 88.0525 756.279H82.5945ZM119.218 749.94C119.218 753.703 116.777 756.889 111.421 756.889H104.743V765.534H100.302V743.024H111.421C116.777 743.024 119.218 746.211 119.218 749.94ZM104.743 746.99V752.923H111.116C113.421 752.923 114.777 751.737 114.777 749.94C114.777 748.143 113.421 746.99 111.116 746.99H104.743ZM133.521 765.975C126.605 765.975 121.825 760.72 121.825 754.279C121.825 747.804 126.605 742.583 133.521 742.583C140.437 742.583 145.217 747.804 145.217 754.279C145.217 760.72 140.437 765.975 133.521 765.975ZM133.521 762.009C137.725 762.009 140.776 758.551 140.776 754.279C140.776 749.974 137.725 746.55 133.521 746.55C129.317 746.55 126.266 749.974 126.266 754.279C126.266 758.551 129.317 762.009 133.521 762.009ZM159.572 743.024C164.691 743.024 167.064 745.906 167.064 749.465C167.064 751.499 166.183 753.296 164.454 754.279C166.183 755.262 167.064 757.059 167.064 759.093C167.064 762.653 164.691 765.534 159.572 765.534H149.233V743.024H159.572ZM153.674 746.99V752.313H159.132C161.233 752.313 162.623 751.398 162.623 749.669C162.623 747.872 161.267 746.99 159.132 746.99H153.674ZM153.674 756.279V761.568H159.132C161.233 761.568 162.623 760.686 162.623 758.957C162.623 757.161 161.267 756.279 159.132 756.279H153.674ZM188.838 743.024C193.957 743.024 196.33 745.906 196.33 749.465C196.33 751.499 195.449 753.296 193.72 754.279C195.449 755.262 196.33 757.059 196.33 759.093C196.33 762.653 193.957 765.534 188.838 765.534H178.498V743.024H188.838ZM182.939 746.99V752.313H188.397C190.499 752.313 191.889 751.398 191.889 749.669C191.889 747.872 190.533 746.99 188.397 746.99H182.939ZM182.939 756.279V761.568H188.397C190.499 761.568 191.889 760.686 191.889 758.957C191.889 757.161 190.533 756.279 188.397 756.279H182.939ZM218.24 765.975C211.324 765.975 206.544 760.72 206.544 754.279C206.544 747.804 211.324 742.583 218.24 742.583C225.155 742.583 229.935 747.804 229.935 754.279C229.935 760.72 225.155 765.975 218.24 765.975ZM218.24 762.009C222.443 762.009 225.494 758.551 225.494 754.279C225.494 749.974 222.443 746.55 218.24 746.55C214.036 746.55 210.985 749.974 210.985 754.279C210.985 758.551 214.036 762.009 218.24 762.009ZM239.138 743.024L247.41 760.754L255.682 743.024H260.733V765.534H256.292V751.431L249.749 765.534H244.935L238.392 751.431V765.534H233.951V743.024H239.138ZM276.373 742.583C281.254 742.583 284.814 745.262 286.611 749.262H281.864C280.644 747.668 278.678 746.55 276.373 746.55C272.237 746.55 269.186 749.872 269.186 754.279C269.186 758.686 272.237 762.009 276.373 762.009C278.678 762.009 280.644 760.924 281.864 759.296H286.611C284.814 763.331 281.254 765.975 276.373 765.975C269.762 765.975 264.745 760.991 264.745 754.279C264.745 747.567 269.762 742.583 276.373 742.583ZM309.415 765.534H303.55L294.871 756.618V765.534H290.43V743.024H294.871V752.143L303.821 743.024H309.415L298.431 754.279L309.415 765.534ZM327.946 746.99H316.589V752.279H327.709V756.245H316.589V761.568H327.946V765.534H312.148V743.024H327.946V746.99ZM333.321 765.534V760.483L338.372 760.483V765.534H333.321ZM338.033 743.024V758.618L333.66 758.618V743.024H338.033ZM345.14 765.534V760.483H350.191V765.534H345.14ZM349.852 743.024V758.618H345.479V743.024H349.852ZM356.959 765.534V760.483H362.01V765.534H356.959ZM361.671 743.024V758.618H357.298V743.024H361.671Z" fill="#E7FF51"/>
<path d="M186.628 1092.04C190.066 1092.04 191.659 1093.98 191.659 1096.37C191.659 1097.73 191.067 1098.94 189.906 1099.6C191.067 1100.26 191.659 1101.47 191.659 1102.83C191.659 1105.22 190.066 1107.16 186.628 1107.16H179.683V1092.04H186.628ZM182.666 1094.71V1098.28H186.332C187.743 1098.28 188.677 1097.67 188.677 1096.5C188.677 1095.3 187.766 1094.71 186.332 1094.71H182.666ZM182.666 1100.94V1104.5H186.332C187.743 1104.5 188.677 1103.9 188.677 1102.74C188.677 1101.54 187.766 1100.94 186.332 1100.94H182.666ZM205.169 1094.71H197.541V1098.26H205.01V1100.92H197.541V1104.5H205.169V1107.16H194.558V1092.04H205.169V1094.71ZM215.246 1091.75C218.524 1091.75 220.915 1093.54 222.122 1096.23H218.934C218.115 1095.16 216.794 1094.41 215.246 1094.41C212.468 1094.41 210.419 1096.64 210.419 1099.6C210.419 1102.56 212.468 1104.79 215.246 1104.79C216.794 1104.79 218.115 1104.06 218.934 1102.97H222.122C220.915 1105.68 218.524 1107.46 215.246 1107.46C210.806 1107.46 207.436 1104.11 207.436 1099.6C207.436 1095.09 210.806 1091.75 215.246 1091.75ZM237.37 1102.36C237.37 1104.95 235.662 1107.16 231.951 1107.16H224.688V1092.04H227.67V1097.53H231.951C235.662 1097.53 237.37 1099.74 237.37 1102.36ZM227.67 1100.19V1104.5H231.723C233.408 1104.5 234.387 1103.65 234.387 1102.36C234.387 1101.06 233.408 1100.19 231.723 1100.19H227.67ZM246.225 1092.04H257.404V1104.5H259.476V1110.51H256.562V1107.16H246.202V1110.51H243.287V1104.5H244.745C245.837 1103.29 246.225 1101.01 246.225 1098.83V1092.04ZM249.207 1094.71V1098.8C249.207 1100.58 249.048 1102.79 248.228 1104.5H254.421V1094.71H249.207ZM272.565 1094.71H264.937V1098.26H272.405V1100.92H264.937V1104.5H272.565V1107.16H261.954V1092.04H272.565V1094.71ZM288.949 1107.16H285.966V1100.92H278.634V1107.16H275.651V1092.04H278.634V1098.26H285.966V1092.04H288.949V1107.16ZM305.144 1102.36C305.144 1104.95 303.436 1107.16 299.725 1107.16H292.461V1092.04H295.444V1097.53H299.725C303.436 1097.53 305.144 1099.74 305.144 1102.36ZM295.444 1100.19V1104.5H299.497C301.182 1104.5 302.161 1103.65 302.161 1102.36C302.161 1101.06 301.182 1100.19 299.497 1100.19H295.444ZM319.486 1091.75C322.765 1091.75 325.155 1093.54 326.362 1096.23H323.174C322.355 1095.16 321.034 1094.41 319.486 1094.41C316.708 1094.41 314.659 1096.64 314.659 1099.6C314.659 1102.56 316.708 1104.79 319.486 1104.79C321.034 1104.79 322.355 1104.06 323.174 1102.97H326.362C325.155 1105.68 322.765 1107.46 319.486 1107.46C315.046 1107.46 311.676 1104.11 311.676 1099.6C311.676 1095.09 315.046 1091.75 319.486 1091.75ZM336.099 1107.16V1095.48L332.98 1098.35V1094.84L335.962 1092.04H339.082V1107.16H336.099ZM354.797 1099.6C354.797 1102.74 353.522 1107.46 348.649 1107.46C343.8 1107.46 342.502 1102.74 342.502 1099.6C342.502 1096.46 343.8 1091.75 348.649 1091.75C353.522 1091.75 354.797 1096.46 354.797 1099.6ZM351.814 1099.6C351.814 1097.37 351.04 1094.41 348.649 1094.41C346.281 1094.41 345.485 1097.37 345.485 1099.6C345.485 1101.83 346.281 1104.79 348.649 1104.79C351.04 1104.79 351.814 1101.83 351.814 1099.6ZM364.095 1092.04H375.275V1104.5H377.347V1110.51H374.432V1107.16H364.072V1110.51H361.158V1104.5H362.615C363.708 1103.29 364.095 1101.01 364.095 1098.83V1092.04ZM367.078 1094.71V1098.8C367.078 1100.58 366.918 1102.79 366.099 1104.5H372.292V1094.71H367.078ZM386.86 1107.46C382.215 1107.46 379.005 1103.93 379.005 1099.6C379.005 1095.25 382.215 1091.75 386.86 1091.75C391.505 1091.75 394.716 1095.25 394.716 1099.6C394.716 1103.93 391.505 1107.46 386.86 1107.46ZM386.86 1104.79C389.684 1104.79 391.733 1102.47 391.733 1099.6C391.733 1096.71 389.684 1094.41 386.86 1094.41C384.037 1094.41 381.988 1096.71 381.988 1099.6C381.988 1102.47 384.037 1104.79 386.86 1104.79ZM404.584 1107.16V1095.48L401.465 1098.35V1094.84L404.448 1092.04H407.567V1107.16H404.584ZM416.816 1107.46C413.241 1107.46 410.987 1105.41 410.987 1102.86C410.987 1101.58 411.625 1100.31 412.945 1099.51C411.693 1098.74 411.169 1097.46 411.169 1096.25C411.169 1093.75 413.31 1091.75 416.816 1091.75C420.3 1091.75 422.44 1093.75 422.44 1096.25C422.44 1097.46 421.916 1098.74 420.664 1099.51C421.985 1100.31 422.622 1101.58 422.622 1102.86C422.622 1105.41 420.368 1107.46 416.816 1107.46ZM416.816 1104.79C418.524 1104.79 419.639 1103.95 419.639 1102.81C419.639 1101.65 418.547 1100.85 416.816 1100.85C415.086 1100.85 413.97 1101.65 413.97 1102.81C413.97 1103.95 415.108 1104.79 416.816 1104.79ZM419.457 1096.28C419.457 1095.18 418.455 1094.39 416.816 1094.39C415.177 1094.39 414.152 1095.18 414.152 1096.28C414.152 1097.41 415.154 1098.19 416.816 1098.19C418.478 1098.19 419.457 1097.41 419.457 1096.28Z" fill="#E7FF51"/>
<path d="M30.7846 1107.16L30.7846 1095.48L27.6652 1098.35L27.6652 1094.84L30.648 1092.04H33.7674V1107.16H30.7846ZM43.0163 1107.46C39.4415 1107.46 37.1874 1105.41 37.1874 1102.86C37.1874 1101.58 37.8249 1100.31 39.1455 1099.51C37.8932 1098.74 37.3695 1097.46 37.3695 1096.25C37.3695 1093.75 39.5098 1091.75 43.0163 1091.75C46.5 1091.75 48.6403 1093.75 48.6403 1096.25C48.6403 1097.46 48.1166 1098.74 46.8643 1099.51C48.1849 1100.31 48.8224 1101.58 48.8224 1102.86C48.8224 1105.41 46.5683 1107.46 43.0163 1107.46ZM43.0163 1104.79C44.724 1104.79 45.8397 1103.95 45.8397 1102.81C45.8397 1101.65 44.7467 1100.85 43.0163 1100.85C41.2858 1100.85 40.1701 1101.65 40.1701 1102.81C40.1701 1103.95 41.3086 1104.79 43.0163 1104.79ZM45.6575 1096.28C45.6575 1095.18 44.6557 1094.39 43.0163 1094.39C41.3769 1094.39 40.3523 1095.18 40.3523 1096.28C40.3523 1097.41 41.3541 1098.19 43.0163 1098.19C44.6784 1098.19 45.6575 1097.41 45.6575 1096.28ZM69.9079 1107.16H66.9251V1100.92H59.5935L59.5935 1107.16H56.6107V1092.04H59.5935V1098.26H66.9251V1092.04H69.9079V1107.16ZM80.4564 1107.46C75.8115 1107.46 72.6011 1103.93 72.6011 1099.6C72.6011 1095.25 75.8115 1091.75 80.4564 1091.75C85.1013 1091.75 88.3118 1095.25 88.3118 1099.6C88.3118 1103.93 85.1013 1107.46 80.4564 1107.46ZM80.4564 1104.79C83.2798 1104.79 85.329 1102.47 85.329 1099.6C85.329 1096.71 83.2798 1094.41 80.4564 1094.41C77.6331 1094.41 75.5838 1096.71 75.5838 1099.6C75.5838 1102.47 77.6331 1104.79 80.4564 1104.79ZM90.5764 1096.69C90.5764 1094.18 92.2158 1092.04 95.8133 1092.04H103.282V1107.16H100.299V1101.35H97.9081L93.4909 1107.16H89.7795L94.3106 1101.22C91.7604 1100.72 90.5764 1098.83 90.5764 1096.69ZM100.299 1098.69V1094.71H96.0183C94.47 1094.71 93.5592 1095.48 93.5592 1096.69C93.5592 1097.89 94.47 1098.69 96.0183 1098.69H100.299ZM119.479 1102.36C119.479 1104.95 117.771 1107.16 114.06 1107.16H106.796V1092.04H118.295V1094.71H109.779V1097.53H114.06C117.771 1097.53 119.479 1099.74 119.479 1102.36ZM109.779 1100.19V1104.5H113.832C115.517 1104.5 116.496 1103.65 116.496 1102.36C116.496 1101.06 115.517 1100.19 113.832 1100.19H109.779ZM134.755 1096.69C134.755 1099.21 133.116 1101.35 129.518 1101.35H125.033V1107.16H122.05V1092.04H129.518C133.116 1092.04 134.755 1094.18 134.755 1096.69ZM125.033 1094.71V1098.69H129.313C130.861 1098.69 131.772 1097.89 131.772 1096.69C131.772 1095.48 130.861 1094.71 129.313 1094.71H125.033ZM136.893 1096.69C136.893 1094.18 138.532 1092.04 142.13 1092.04H149.598V1107.16H146.615V1101.35H144.225L139.807 1107.16H136.096L140.627 1101.22C138.077 1100.72 136.893 1098.83 136.893 1096.69ZM146.615 1098.69V1094.71H142.335C140.787 1094.71 139.876 1095.48 139.876 1096.69C139.876 1097.89 140.787 1098.69 142.335 1098.69H146.615Z" fill="#E7FF51"/>
<path d="M164.491 1347.11C164.491 1349.82 162.711 1352.12 158.843 1352.12H151.273V1336.36H163.257V1339.14H154.382V1342.08H158.843C162.711 1342.08 164.491 1344.38 164.491 1347.11ZM154.382 1344.86V1349.34H158.606C160.362 1349.34 161.382 1348.46 161.382 1347.11C161.382 1345.76 160.362 1344.86 158.606 1344.86H154.382ZM174.504 1352.43C169.663 1352.43 166.317 1348.75 166.317 1344.24C166.317 1339.71 169.663 1336.05 174.504 1336.05C179.345 1336.05 182.691 1339.71 182.691 1344.24C182.691 1348.75 179.345 1352.43 174.504 1352.43ZM174.504 1349.65C177.446 1349.65 179.582 1347.23 179.582 1344.24C179.582 1341.22 177.446 1338.83 174.504 1338.83C171.561 1338.83 169.425 1341.22 169.425 1344.24C169.425 1347.23 171.561 1349.65 174.504 1349.65ZM187.4 1336.36H199.052V1352.12H195.943V1339.14H190.509V1343.84C190.509 1347.77 189.963 1352.12 185.407 1352.12H184.007V1349.32H184.908C187.258 1349.32 187.4 1346.45 187.4 1344.05V1336.36ZM215.915 1347.11C215.915 1349.82 214.135 1352.12 210.267 1352.12H202.697V1336.36H205.806V1342.08H210.267C214.135 1342.08 215.915 1344.38 215.915 1347.11ZM205.806 1344.86V1349.34H210.03C211.786 1349.34 212.806 1348.46 212.806 1347.11C212.806 1345.76 211.786 1344.86 210.03 1344.86H205.806ZM236.179 1336.36H239.288V1352.12H218.595V1336.36H221.703V1349.34H227.399V1336.36H230.507V1349.34H236.179V1336.36ZM251.019 1336.36L257.877 1352.12H254.579L253.036 1348.63H245.846L244.304 1352.12H241.124L247.982 1336.36H251.019ZM249.453 1340.49L247.08 1345.85H251.802L249.453 1340.49ZM259.255 1341.2C259.255 1338.59 260.964 1336.36 264.713 1336.36H272.497V1352.12H269.388V1346.07H266.896L262.293 1352.12H258.424L263.147 1345.92C260.489 1345.4 259.255 1343.43 259.255 1341.2ZM269.388 1343.29V1339.14H264.927C263.313 1339.14 262.364 1339.94 262.364 1341.2C262.364 1342.46 263.313 1343.29 264.927 1343.29H269.388ZM288.38 1336.36C291.963 1336.36 293.624 1338.38 293.624 1340.87C293.624 1342.29 293.007 1343.55 291.797 1344.24C293.007 1344.93 293.624 1346.18 293.624 1347.61C293.624 1350.1 291.963 1352.12 288.38 1352.12H281.142V1336.36H288.38ZM284.251 1339.14V1342.86H288.072C289.543 1342.86 290.516 1342.22 290.516 1341.01C290.516 1339.75 289.567 1339.14 288.072 1339.14H284.251ZM284.251 1345.64V1349.34H288.072C289.543 1349.34 290.516 1348.72 290.516 1347.51C290.516 1346.26 289.567 1345.64 288.072 1345.64H284.251ZM307.182 1344.24C308.392 1344.93 309.009 1346.07 309.009 1347.49C309.009 1350.05 306.708 1352.43 302.46 1352.43C298.354 1352.43 296.337 1350.38 295.53 1347.75H298.687C299.375 1349.06 300.727 1349.65 302.46 1349.65C304.453 1349.65 305.901 1348.84 305.901 1347.51C305.901 1346.26 304.952 1345.64 303.433 1345.64H299.944V1342.86H303.433C304.928 1342.86 305.901 1342.22 305.901 1341.01C305.901 1339.8 304.69 1338.83 302.626 1338.83C300.894 1338.83 299.304 1339.52 298.805 1340.73H295.673C296.361 1338.33 298.615 1336.05 302.578 1336.05C306.423 1336.05 309.009 1338.09 309.009 1340.99C309.009 1342.41 308.392 1343.55 307.182 1344.24ZM314.025 1336.36H325.676V1352.12H322.568V1339.14H317.133V1343.84C317.133 1347.77 316.588 1352.12 312.031 1352.12H310.631V1349.32H311.533C313.882 1349.32 314.025 1346.45 314.025 1344.05V1336.36ZM340.38 1339.14H332.43V1342.84H340.214V1345.62H332.43V1349.34H340.38V1352.12H329.322V1336.36H340.38V1339.14ZM342.316 1336.36H355.7V1339.14H350.574V1352.12H347.465V1339.14H342.316V1336.36ZM371.94 1352.12H368.831V1345.62H361.19V1352.12H358.081V1336.36H361.19V1342.84H368.831V1336.36H371.94V1352.12ZM383.669 1336.36L390.527 1352.12H387.229L385.686 1348.63H378.496L376.953 1352.12H373.774L380.632 1336.36H383.669ZM382.103 1340.49L379.73 1345.85H384.452L382.103 1340.49ZM391.905 1341.2C391.905 1338.59 393.614 1336.36 397.363 1336.36H405.147V1352.12H402.038V1346.07H399.546L394.942 1352.12H391.074L395.797 1345.92C393.139 1345.4 391.905 1343.43 391.905 1341.2ZM402.038 1343.29V1339.14H397.577C395.963 1339.14 395.014 1339.94 395.014 1341.2C395.014 1342.46 395.963 1343.29 397.577 1343.29H402.038ZM418.754 1344.57L423.001 1336.36H426.134L419.988 1348.42C418.564 1351.22 417.876 1352.12 415.503 1352.12H413.485V1349.34H415.242C416.191 1349.34 416.642 1349.03 417.021 1348.2L417.211 1347.77L411.326 1336.36H414.506L418.754 1344.57ZM428.784 1336.36H440.436V1352.12H437.327V1339.14H431.893V1343.84C431.893 1347.77 431.347 1352.12 426.791 1352.12H425.391V1349.32H426.292C428.642 1349.32 428.784 1346.45 428.784 1344.05V1336.36ZM458.129 1352.12H455.021V1341.04L447.19 1352.12H444.081V1336.36H447.19V1347.44L455.021 1336.36H458.129V1352.12ZM477.401 1355.61H474.363V1352.12H461.786V1336.36H464.895V1349.34H472.133V1336.36H475.241V1349.34H477.401V1355.61ZM488.51 1336.36L495.368 1352.12H492.069L490.527 1348.63H483.337L481.794 1352.12H478.614L485.472 1336.36H488.51ZM486.944 1340.49L484.571 1345.85H489.293L486.944 1340.49ZM503.745 1336.36H515.397V1349.34H517.556V1355.61H514.519V1352.12H503.722V1355.61H500.684V1349.34H502.203C503.342 1348.08 503.745 1345.71 503.745 1343.43V1336.36ZM506.854 1339.14V1343.41C506.854 1345.26 506.688 1347.56 505.834 1349.34H512.288V1339.14H506.854ZM520.683 1352.12V1348.58H524.219V1352.12H520.683ZM532.353 1352.43C529.53 1352.43 527.133 1351 526.35 1347.75H529.435C529.933 1349.1 530.953 1349.65 532.377 1349.65C534.015 1349.65 535.059 1348.79 535.059 1347.58C535.059 1346.37 534.133 1345.59 532.448 1345.59H530.479V1342.79H532.425C534.11 1342.79 535.011 1342.06 535.011 1340.85C535.011 1339.63 534.038 1338.83 532.401 1338.83C531.025 1338.83 529.98 1339.47 529.482 1340.73H526.373C527.085 1337.52 529.601 1336.05 532.377 1336.05C535.937 1336.05 538.12 1338.33 538.12 1340.85C538.12 1342.08 537.598 1343.31 536.316 1344.17C537.669 1345.07 538.167 1346.33 538.167 1347.58C538.167 1350.17 535.937 1352.43 532.353 1352.43Z" fill="#E7FF51"/>
<path d="M52.6813 1309.6C52.1327 1310.04 54.9029 1307.1 56.7344 1305.72C59.1047 1304.83 58.9431 1303.87 59.9521 1303.68C60.961 1303.49 63.0789 1304.47 64.21 1305.75C65.3412 1307.03 64.7693 1308.78 65.0356 1310.22C65.302 1311.66 59.6452 1315.02 58.6252 1315.95C57.6053 1316.88 56.6462 1321.28 55.4555 1322.1C54.2648 1322.92 53.0603 1322.94 52.7501 1324.49C52.4399 1326.04 52.8874 1328.61 52.079 1329.73C51.1301 1331.05 46.515 1334.22 44.9759 1338.79C44.4949 1340.22 46.1743 1345.28 50.3213 1346.75C55.2949 1348.51 60.21 1339.85 62.5224 1337.04C65.6009 1333.3 64.8119 1329.27 65.4637 1327.95C66.1154 1326.64 68.9068 1323.19 69.665 1322.46C70.7885 1321.36 72.5125 1320.84 73.5316 1317.57C74.6806 1313.88 75.5201 1310.49 76.0167 1309.95C76.5133 1309.42 80.3141 1309.01 81.8197 1308.29C83.3253 1307.56 85.4058 1310.75 85.998 1311.54C86.4717 1312.17 85.4862 1314.42 84.9342 1315.46C84.2344 1316.78 82.7408 1319.56 82.3648 1320.11C81.8948 1320.79 76.1093 1323.45 77.8751 1325.66C78.7103 1326.7 81.0226 1326.02 81.033 1326.62C80.2231 1327.61 78.6297 1329.74 78.7363 1330.32C78.8428 1330.9 76.1643 1332.53 74.8117 1333.28C73.363 1334.04 70.3535 1335.77 69.9048 1336.57C69.4561 1337.37 68.7914 1339.96 68.5152 1341.15C67.972 1342.25 66.6787 1344.44 65.8502 1344.48C64.8146 1344.52 62.7215 1346.1 62.0698 1347.41C61.418 1348.72 64.2678 1350.43 63.7602 1351.72C63.2526 1353 58.9865 1355.73 57.5608 1356.89C56.1351 1358.05 49.8794 1357.26 48.4647 1357.67C47.05 1358.09 42.364 1356.12 40.5545 1356.01C38.745 1355.89 36.5094 1353.47 36.2321 1352.78C35.9548 1352.09 36.4201 1349.76 37.0609 1349.2C37.5735 1348.75 36.3324 1346.6 35.6478 1345.58C35.4311 1344.68 35.144 1342.7 35.7293 1341.99C36.4609 1341.11 35.3564 1339.97 35.2499 1339.4C35.1434 1338.82 37.4825 1336.15 38.5823 1335.65C39.6821 1335.15 37.5044 1334.66 37.9964 1332.48C38.4883 1330.3 39.6524 1329.34 41.3397 1327.99C43.027 1326.63 42.5806 1321.8 43.8465 1319.77C45.1123 1317.75 51.1478 1313.31 51.8528 1312.28C52.5578 1311.26 53.5608 1308.89 52.6813 1309.6Z" fill="#E7FF51" stroke="#E7FF51" stroke-width="0.545962"/>
<path fill-rule="evenodd" clip-rule="evenodd" d="M63.7117 1351.43C63.9874 1351.58 64.5473 1352.08 64.5812 1352.91C64.5982 1353.33 64.3688 1353.98 64.1217 1354.69C63.7558 1355.74 63.3513 1356.89 63.6505 1357.55C64.1518 1358.65 67.0815 1360.79 67.9573 1359.89C68.2816 1359.55 69.0027 1359.04 69.7887 1358.48C71.1255 1357.53 72.6501 1356.45 72.731 1355.87C72.7975 1355.4 73.3902 1354.3 73.9965 1353.19C74.5604 1352.15 75.1362 1351.08 75.3113 1350.48C75.4449 1350.01 75.5144 1349.42 75.5883 1348.79C75.7156 1347.71 75.8561 1346.51 76.3595 1345.66C76.7936 1344.93 78.0428 1344.05 79.2454 1343.2C80.2474 1342.5 81.2171 1341.81 81.6565 1341.26C82.0394 1340.77 82.3044 1340.03 82.5597 1339.31C82.9489 1338.22 83.3157 1337.19 84.0441 1337.24C84.6604 1337.28 85.5301 1337.42 86.5587 1337.6C87.5436 1337.76 88.6742 1337.96 89.8674 1338.1C91.1597 1338.26 91.7314 1338.59 92.1546 1338.83C92.5303 1339.05 92.7892 1339.2 93.3313 1339.1C94.3453 1338.91 95.8802 1336.55 96.4755 1335.64C96.5572 1335.51 96.6212 1335.42 96.6637 1335.35C96.8816 1335.04 97.4908 1334.99 98.3327 1334.92C98.8531 1334.88 99.4623 1334.84 100.123 1334.71C100.375 1334.67 100.678 1334.61 101.017 1334.56C103.005 1334.21 106.278 1333.64 108.403 1332.74C110.891 1331.68 115.669 1329.31 116.481 1328.86C117.292 1328.41 119.476 1326.52 119.263 1325.36C119.099 1324.48 118.624 1323.82 118.132 1323.14C117.985 1322.94 117.837 1322.74 117.695 1322.52C117.076 1321.59 116.677 1319.43 117.958 1318.3C119.24 1317.17 120.521 1316.04 119.849 1314.82C119.177 1313.6 116.329 1311.99 115.411 1311.87C114.493 1311.74 110.885 1310.76 109.625 1310.4C108.366 1310.04 103.294 1310.83 102.285 1311.01C101.858 1311.09 100.982 1310.91 99.9713 1310.69C98.5937 1310.4 96.9663 1310.06 95.8856 1310.26C95.6932 1310.29 95.5067 1310.33 95.3251 1310.36C93.738 1310.64 92.5323 1310.85 91.1714 1312.17C90.3043 1313.01 89.8202 1314.58 89.4009 1315.94C89.0869 1316.95 88.8092 1317.85 88.4341 1318.24C88.1722 1318.51 87.7698 1318.89 87.3194 1319.31C86.264 1320.3 84.945 1321.54 84.5519 1322.24C84.0917 1323.06 83.4197 1323.81 82.854 1324.45C82.7301 1324.59 82.6114 1324.73 82.501 1324.85C82.3732 1325 82.234 1325.16 82.0908 1325.32C81.5461 1325.93 80.9433 1326.61 80.6853 1327.13C79.9536 1328.01 78.5116 1329.88 78.5968 1330.34C78.6542 1330.65 76.2633 1332.19 73.9506 1333.68C71.9649 1334.96 70.0368 1336.2 69.7654 1336.6C69.1779 1337.45 68.44 1340.72 68.5199 1341.15C68.5838 1341.5 66.9621 1343.47 66.1432 1344.42C65.1165 1344.51 62.8131 1345.27 61.8129 1347.61C60.8127 1349.94 62.662 1351.13 63.7117 1351.43ZM88.0223 1324.88C87.4953 1325.52 86.4371 1327.11 86.4195 1328.3C86.3976 1329.8 88.0253 1330.54 88.8259 1330.84C88.9758 1330.9 89.1495 1330.97 89.3385 1331.05C90.1592 1331.39 91.267 1331.85 91.9483 1331.6C92.323 1331.47 92.875 1331 93.4949 1330.48C94.2615 1329.83 95.132 1329.09 95.8995 1328.79C97.2875 1328.23 98.9905 1327.77 99.9995 1327.58L103.603 1326.92C104.338 1327.13 105.969 1327.46 106.619 1327.1C106.683 1327.07 106.751 1327.03 106.823 1326.99C107.645 1326.54 108.871 1325.87 109.785 1324.88C110.119 1324.52 110.492 1324.18 110.825 1323.88C111.483 1323.29 111.989 1322.83 111.745 1322.58C111.592 1322.42 111.489 1322.26 111.369 1322.06C111.198 1321.79 110.992 1321.45 110.56 1321.01C110.3 1320.74 110.009 1320.52 109.737 1320.3C109.241 1319.92 108.806 1319.58 108.72 1319.11C108.613 1318.54 108.889 1317.34 109.041 1316.82C109.153 1316.35 109.165 1315.4 108.316 1315.31C107.817 1315.27 107.506 1314.99 107.212 1314.72C106.879 1314.43 106.567 1314.15 106.031 1314.25C105.224 1314.39 102.182 1314.66 100.763 1314.77C99.9369 1314.87 98.0165 1315.4 96.9399 1316.67C95.5941 1318.26 93.8159 1319.93 93.6717 1319.96C93.5276 1319.98 90.9755 1321.5 90.2172 1322.24C89.6106 1322.82 88.5011 1324.24 88.0223 1324.88Z" fill="#E7FF51"/>
<path d="M64.5812 1352.91L64.8539 1352.9L64.8539 1352.9L64.5812 1352.91ZM63.7117 1351.43L63.8406 1351.19L63.8151 1351.17L63.7873 1351.17L63.7117 1351.43ZM64.1217 1354.69L63.8639 1354.6L63.8639 1354.6L64.1217 1354.69ZM63.6505 1357.55L63.8989 1357.44L63.8989 1357.44L63.6505 1357.55ZM67.9573 1359.89L67.7609 1359.7L67.7609 1359.7L67.9573 1359.89ZM69.7887 1358.48L69.6308 1358.26L69.6308 1358.26L69.7887 1358.48ZM72.731 1355.87L72.4606 1355.84L72.4606 1355.84L72.731 1355.87ZM73.9965 1353.19L74.2365 1353.32L74.2365 1353.32L73.9965 1353.19ZM75.3113 1350.48L75.0491 1350.4L75.0491 1350.4L75.3113 1350.48ZM75.5883 1348.79L75.8595 1348.82L75.8595 1348.82L75.5883 1348.79ZM76.3595 1345.66L76.5942 1345.8L76.5942 1345.8L76.3595 1345.66ZM79.2454 1343.2L79.4028 1343.43L79.4028 1343.43L79.2454 1343.2ZM81.6565 1341.26L81.8705 1341.43L81.8705 1341.43L81.6565 1341.26ZM82.5597 1339.31L82.8169 1339.4L82.8169 1339.4L82.5597 1339.31ZM86.5587 1337.6L86.5131 1337.87L86.5131 1337.87L86.5587 1337.6ZM89.8674 1338.1L89.9002 1337.83L89.8674 1338.1ZM92.1546 1338.83L92.2914 1338.6L92.2914 1338.6L92.1546 1338.83ZM96.4755 1335.64L96.2467 1335.49L96.2467 1335.49L96.4755 1335.64ZM96.6637 1335.35L96.4388 1335.2L96.4388 1335.2L96.6637 1335.35ZM98.3327 1334.92L98.3116 1334.65L98.3116 1334.65L98.3327 1334.92ZM101.017 1334.56L101.064 1334.82L101.064 1334.82L101.017 1334.56ZM108.403 1332.74L108.296 1332.49L108.296 1332.49L108.403 1332.74ZM116.481 1328.86L116.613 1329.1L116.613 1329.1L116.481 1328.86ZM118.132 1323.14L117.911 1323.3L117.911 1323.3L118.132 1323.14ZM117.695 1322.52L117.922 1322.37L117.922 1322.37L117.695 1322.52ZM117.958 1318.3L118.139 1318.51L118.139 1318.51L117.958 1318.3ZM119.849 1314.82L119.61 1314.95L119.61 1314.95L119.849 1314.82ZM115.411 1311.87L115.373 1312.14L115.373 1312.14L115.411 1311.87ZM109.625 1310.4L109.55 1310.66L109.55 1310.66L109.625 1310.4ZM99.9713 1310.69L99.9148 1310.96L99.9148 1310.96L99.9713 1310.69ZM95.3251 1310.36L95.2777 1310.09L95.2777 1310.09L95.3251 1310.36ZM91.1714 1312.17L90.9813 1311.98L90.9813 1311.98L91.1714 1312.17ZM89.4009 1315.94L89.6617 1316.02L89.6617 1316.02L89.4009 1315.94ZM88.4341 1318.24L88.6305 1318.43L88.6305 1318.43L88.4341 1318.24ZM87.3194 1319.31L87.5061 1319.51L87.5061 1319.51L87.3194 1319.31ZM84.5519 1322.24L84.7898 1322.37L84.7898 1322.37L84.5519 1322.24ZM82.854 1324.45L83.0582 1324.63L83.0582 1324.63L82.854 1324.45ZM82.501 1324.85L82.2946 1324.67L82.2946 1324.67L82.501 1324.85ZM82.0908 1325.32L81.8869 1325.14L81.8869 1325.14L82.0908 1325.32ZM80.6853 1327.13L80.8952 1327.3L80.9156 1327.28L80.9298 1327.25L80.6853 1327.13ZM73.9506 1333.68L73.8029 1333.45L73.8029 1333.45L73.9506 1333.68ZM69.7654 1336.6L69.9903 1336.75L69.9903 1336.75L69.7654 1336.6ZM66.1432 1344.42L66.1671 1344.69L66.2773 1344.68L66.3496 1344.6L66.1432 1344.42ZM61.8129 1347.61L61.562 1347.5L61.562 1347.5L61.8129 1347.61ZM86.4195 1328.3L86.6925 1328.31L86.6925 1328.31L86.4195 1328.3ZM88.0223 1324.88L88.2337 1325.05L88.2402 1325.04L88.0223 1324.88ZM88.8259 1330.84L88.7303 1331.1L88.7303 1331.1L88.8259 1330.84ZM89.3385 1331.05L89.2334 1331.3L89.2334 1331.3L89.3385 1331.05ZM91.9483 1331.6L92.0413 1331.86L92.0413 1331.86L91.9483 1331.6ZM93.4949 1330.48L93.3187 1330.27L93.3187 1330.27L93.4949 1330.48ZM95.8995 1328.79L95.7982 1328.53L95.7982 1328.53L95.8995 1328.79ZM99.9995 1327.58L100.049 1327.85L99.9995 1327.58ZM103.603 1326.92L103.679 1326.65L103.617 1326.64L103.553 1326.65L103.603 1326.92ZM106.619 1327.1L106.751 1327.34L106.751 1327.34L106.619 1327.1ZM106.823 1326.99L106.692 1326.75L106.692 1326.75L106.823 1326.99ZM109.785 1324.88L109.584 1324.7L109.584 1324.7L109.785 1324.88ZM110.825 1323.88L110.642 1323.68L110.642 1323.68L110.825 1323.88ZM111.745 1322.58L111.941 1322.39L111.941 1322.39L111.745 1322.58ZM111.369 1322.06L111.137 1322.21L111.137 1322.21L111.369 1322.06ZM110.56 1321.01L110.365 1321.2L110.365 1321.2L110.56 1321.01ZM109.737 1320.3L109.905 1320.09L109.905 1320.09L109.737 1320.3ZM109.041 1316.82L109.303 1316.9L109.306 1316.88L109.041 1316.82ZM108.316 1315.31L108.342 1315.04L108.342 1315.04L108.316 1315.31ZM107.212 1314.72L107.03 1314.93L107.03 1314.93L107.212 1314.72ZM100.763 1314.77L100.741 1314.5L100.729 1314.5L100.763 1314.77ZM96.9399 1316.67L96.7315 1316.49L96.7315 1316.49L96.9399 1316.67ZM90.2172 1322.24L90.4074 1322.43L90.4074 1322.43L90.2172 1322.24ZM64.8539 1352.9C64.8151 1351.95 64.1761 1351.37 63.8406 1351.19L63.5827 1351.67C63.7987 1351.79 64.2796 1352.21 64.3084 1352.92L64.8539 1352.9ZM64.3794 1354.78C64.5022 1354.43 64.6243 1354.08 64.7132 1353.76C64.8005 1353.45 64.8643 1353.15 64.8539 1352.9L64.3084 1352.92C64.3151 1353.08 64.2726 1353.32 64.1878 1353.62C64.1044 1353.91 63.9882 1354.24 63.8639 1354.6L64.3794 1354.78ZM63.8989 1357.44C63.7887 1357.2 63.7956 1356.82 63.9034 1356.33C64.0087 1355.84 64.1951 1355.31 64.3794 1354.78L63.8639 1354.6C63.6824 1355.12 63.4836 1355.69 63.37 1356.21C63.2588 1356.72 63.2131 1357.25 63.4021 1357.66L63.8989 1357.44ZM67.7609 1359.7C67.6423 1359.82 67.4189 1359.88 67.0447 1359.79C66.6806 1359.71 66.2461 1359.51 65.8071 1359.24C65.3708 1358.97 64.9452 1358.64 64.5999 1358.31C64.2491 1357.98 64.0023 1357.67 63.8989 1357.44L63.4021 1357.66C63.5493 1357.99 63.8568 1358.36 64.2237 1358.71C64.5961 1359.06 65.0516 1359.41 65.5199 1359.7C65.9854 1359.99 66.4788 1360.23 66.926 1360.32C67.3631 1360.42 67.8344 1360.41 68.1537 1360.08L67.7609 1359.7ZM69.6308 1358.26C68.8575 1358.81 68.1078 1359.34 67.7609 1359.7L68.1537 1360.08C68.4554 1359.76 69.1478 1359.27 69.9467 1358.7L69.6308 1358.26ZM72.4606 1355.84C72.4525 1355.89 72.3925 1356.02 72.2209 1356.21C72.0593 1356.39 71.8317 1356.6 71.557 1356.83C71.0079 1357.28 70.3016 1357.78 69.6308 1358.26L69.9467 1358.7C70.6126 1358.23 71.3369 1357.72 71.9046 1357.25C72.1882 1357.01 72.4405 1356.79 72.6293 1356.57C72.8081 1356.37 72.969 1356.14 73.0013 1355.91L72.4606 1355.84ZM73.7565 1353.06C73.4542 1353.61 73.1515 1354.17 72.9164 1354.65C72.7987 1354.89 72.696 1355.11 72.6179 1355.31C72.5414 1355.5 72.4819 1355.68 72.4606 1355.84L73.0013 1355.91C73.0133 1355.83 73.0528 1355.69 73.1251 1355.51C73.1958 1355.33 73.2917 1355.12 73.4063 1354.89C73.6357 1354.42 73.9325 1353.88 74.2365 1353.32L73.7565 1353.06ZM75.0491 1350.4C74.9691 1350.68 74.7918 1351.08 74.5557 1351.55C74.3217 1352.01 74.039 1352.54 73.7565 1353.06L74.2365 1353.32C74.5179 1352.8 74.8051 1352.27 75.0437 1351.79C75.2802 1351.32 75.4784 1350.88 75.5736 1350.55L75.0491 1350.4ZM75.3172 1348.76C75.2424 1349.4 75.1751 1349.97 75.0491 1350.4L75.5736 1350.55C75.7148 1350.06 75.7864 1349.45 75.8595 1348.82L75.3172 1348.76ZM76.1248 1345.52C75.5856 1346.43 75.4424 1347.69 75.3172 1348.76L75.8595 1348.82C75.9888 1347.72 76.1266 1346.59 76.5942 1345.8L76.1248 1345.52ZM79.0881 1342.98C78.4886 1343.4 77.8678 1343.84 77.3427 1344.27C76.8237 1344.68 76.3688 1345.11 76.1248 1345.52L76.5942 1345.8C76.7844 1345.48 77.1711 1345.11 77.6859 1344.69C78.1945 1344.28 78.7996 1343.85 79.4028 1343.43L79.0881 1342.98ZM81.4424 1341.09C81.2443 1341.34 80.9142 1341.63 80.4943 1341.96C80.0777 1342.28 79.5904 1342.63 79.0881 1342.98L79.4028 1343.43C79.9024 1343.07 80.401 1342.72 80.8296 1342.39C81.2549 1342.06 81.6293 1341.73 81.8705 1341.43L81.4424 1341.09ZM82.3026 1339.22C82.042 1339.95 81.7913 1340.65 81.4424 1341.09L81.8705 1341.43C82.2875 1340.9 82.5668 1340.11 82.8169 1339.4L82.3026 1339.22ZM84.0611 1336.97C83.5366 1336.93 83.1852 1337.3 82.9403 1337.71C82.6922 1338.13 82.4941 1338.68 82.3026 1339.22L82.8169 1339.4C83.0145 1338.85 83.1944 1338.35 83.4092 1337.99C83.627 1337.62 83.8232 1337.5 84.0271 1337.51L84.0611 1336.97ZM86.6042 1337.33C85.5821 1337.16 84.6953 1337.01 84.0611 1336.97L84.0271 1337.51C84.6255 1337.55 85.478 1337.69 86.5131 1337.87L86.6042 1337.33ZM89.9002 1337.83C88.7143 1337.69 87.5898 1337.5 86.6042 1337.33L86.5131 1337.87C87.4974 1338.03 88.6341 1338.23 89.8347 1338.37L89.9002 1337.83ZM92.2914 1338.6C91.8478 1338.34 91.2405 1337.99 89.9002 1337.83L89.8347 1338.37C91.079 1338.52 91.6149 1338.83 92.0178 1339.07L92.2914 1338.6ZM93.2817 1338.83C93.0455 1338.87 92.889 1338.86 92.7567 1338.82C92.6148 1338.78 92.4851 1338.71 92.2914 1338.6L92.0178 1339.07C92.1998 1339.17 92.3874 1339.28 92.6044 1339.35C92.831 1339.41 93.075 1339.42 93.3809 1339.37L93.2817 1338.83ZM96.2467 1335.49C95.9485 1335.95 95.4228 1336.76 94.8477 1337.47C94.5599 1337.83 94.2653 1338.16 93.9858 1338.4C93.6986 1338.66 93.4592 1338.8 93.2817 1338.83L93.3809 1339.37C93.7105 1339.31 94.0432 1339.08 94.3476 1338.81C94.6596 1338.54 94.976 1338.18 95.2732 1337.81C95.8678 1337.07 96.4073 1336.24 96.7043 1335.79L96.2467 1335.49ZM96.4388 1335.2C96.3938 1335.26 96.3274 1335.37 96.2467 1335.49L96.7043 1335.79C96.787 1335.66 96.8486 1335.57 96.8886 1335.51L96.4388 1335.2ZM98.3116 1334.65C97.897 1334.68 97.5141 1334.71 97.2083 1334.78C96.9113 1334.84 96.6112 1334.95 96.4388 1335.2L96.8886 1335.51C96.934 1335.44 97.0475 1335.37 97.3201 1335.31C97.5838 1335.26 97.9265 1335.23 98.3539 1335.2L98.3116 1334.65ZM100.073 1334.45C99.4286 1334.56 98.8327 1334.61 98.3116 1334.65L98.3539 1335.2C98.8734 1335.16 99.4959 1335.11 100.173 1334.98L100.073 1334.45ZM100.971 1334.29C100.631 1334.35 100.327 1334.4 100.073 1334.45L100.173 1334.98C100.423 1334.94 100.724 1334.88 101.064 1334.82L100.971 1334.29ZM108.296 1332.49C106.207 1333.37 102.969 1333.94 100.971 1334.29L101.064 1334.82C103.042 1334.48 106.35 1333.91 108.509 1332.99L108.296 1332.49ZM116.349 1328.62C115.545 1329.06 110.776 1331.43 108.296 1332.49L108.509 1332.99C111.006 1331.93 115.793 1329.55 116.613 1329.1L116.349 1328.62ZM118.995 1325.41C119.031 1325.61 118.969 1325.88 118.792 1326.2C118.619 1326.52 118.357 1326.86 118.055 1327.19C117.449 1327.85 116.722 1328.41 116.349 1328.62L116.613 1329.1C117.05 1328.86 117.822 1328.25 118.457 1327.56C118.776 1327.22 119.07 1326.84 119.272 1326.46C119.471 1326.1 119.602 1325.69 119.532 1325.31L118.995 1325.41ZM117.911 1323.3C118.408 1323.99 118.843 1324.6 118.995 1325.41L119.532 1325.31C119.355 1324.36 118.841 1323.66 118.353 1322.98L117.911 1323.3ZM117.468 1322.68C117.613 1322.89 117.765 1323.1 117.911 1323.3L118.353 1322.98C118.206 1322.78 118.061 1322.58 117.922 1322.37L117.468 1322.68ZM117.777 1318.1C117.056 1318.73 116.823 1319.65 116.841 1320.49C116.859 1321.34 117.126 1322.16 117.468 1322.68L117.922 1322.37C117.645 1321.96 117.403 1321.23 117.387 1320.48C117.371 1319.73 117.578 1319 118.139 1318.51L117.777 1318.1ZM119.61 1314.95C119.876 1315.44 119.777 1315.91 119.411 1316.44C119.038 1316.98 118.426 1317.52 117.777 1318.1L118.139 1318.51C118.771 1317.95 119.441 1317.36 119.861 1316.75C120.289 1316.13 120.494 1315.43 120.088 1314.69L119.61 1314.95ZM115.373 1312.14C115.561 1312.16 115.88 1312.27 116.283 1312.46C116.678 1312.64 117.131 1312.89 117.577 1313.17C118.024 1313.45 118.46 1313.76 118.823 1314.07C119.19 1314.39 119.465 1314.69 119.61 1314.95L120.088 1314.69C119.897 1314.34 119.564 1313.99 119.18 1313.66C118.791 1313.32 118.331 1313 117.867 1312.7C117.403 1312.41 116.93 1312.16 116.512 1311.96C116.101 1311.77 115.721 1311.63 115.449 1311.6L115.373 1312.14ZM109.55 1310.66C110.182 1310.85 111.402 1311.18 112.578 1311.49C113.746 1311.79 114.895 1312.07 115.373 1312.14L115.449 1311.6C115.009 1311.53 113.895 1311.26 112.715 1310.96C111.542 1310.65 110.328 1310.32 109.701 1310.14L109.55 1310.66ZM102.335 1311.28C102.833 1311.19 104.347 1310.95 105.892 1310.77C106.665 1310.68 107.441 1310.62 108.099 1310.59C108.771 1310.56 109.283 1310.59 109.55 1310.66L109.701 1310.14C109.338 1310.03 108.743 1310.02 108.078 1310.04C107.401 1310.07 106.61 1310.14 105.831 1310.23C104.273 1310.4 102.747 1310.65 102.236 1310.74L102.335 1311.28ZM99.9148 1310.96C100.418 1311.07 100.897 1311.17 101.305 1311.23C101.701 1311.29 102.07 1311.33 102.335 1311.28L102.236 1310.74C102.074 1310.77 101.791 1310.76 101.39 1310.69C101 1310.63 100.535 1310.53 100.028 1310.43L99.9148 1310.96ZM95.9352 1310.53C96.4316 1310.43 97.0736 1310.46 97.7802 1310.56C98.4828 1310.66 99.2242 1310.81 99.9148 1310.96L100.028 1310.43C99.3408 1310.28 98.5797 1310.12 97.854 1310.02C97.1323 1309.92 96.4202 1309.88 95.836 1309.99L95.9352 1310.53ZM95.3725 1310.63C95.5539 1310.59 95.7416 1310.56 95.9352 1310.53L95.836 1309.99C95.6449 1310.02 95.4594 1310.06 95.2777 1310.09L95.3725 1310.63ZM91.3616 1312.37C92.6585 1311.11 93.7901 1310.91 95.3725 1310.63L95.2777 1310.09C93.6859 1310.37 92.4062 1310.59 90.9813 1311.98L91.3616 1312.37ZM89.6617 1316.02C89.8722 1315.34 90.0941 1314.62 90.3697 1313.97C90.6462 1313.31 90.9668 1312.75 91.3616 1312.37L90.9813 1311.98C90.5089 1312.43 90.1539 1313.08 89.8668 1313.76C89.5787 1314.44 89.349 1315.18 89.1401 1315.86L89.6617 1316.02ZM88.6305 1318.43C88.8587 1318.2 89.0378 1317.83 89.1948 1317.42C89.3546 1317.01 89.5056 1316.52 89.6617 1316.02L89.1401 1315.86C88.9822 1316.37 88.8373 1316.84 88.6859 1317.23C88.5318 1317.62 88.3846 1317.9 88.2377 1318.05L88.6305 1318.43ZM87.5061 1319.51C87.9542 1319.09 88.3627 1318.71 88.6305 1318.43L88.2377 1318.05C87.9817 1318.32 87.5853 1318.69 87.1327 1319.11L87.5061 1319.51ZM84.7898 1322.37C84.9662 1322.06 85.3689 1321.6 85.882 1321.08C86.3882 1320.56 86.9775 1320.01 87.5061 1319.51L87.1327 1319.11C86.6059 1319.61 86.008 1320.17 85.4925 1320.69C84.984 1321.21 84.5307 1321.72 84.3139 1322.1L84.7898 1322.37ZM83.0582 1324.63C83.6202 1324 84.3129 1323.22 84.7898 1322.37L84.3139 1322.1C83.8706 1322.89 83.2191 1323.63 82.6498 1324.27L83.0582 1324.63ZM82.7075 1325.03C82.8165 1324.91 82.9341 1324.77 83.0582 1324.63L82.6498 1324.27C82.5262 1324.41 82.4063 1324.55 82.2946 1324.67L82.7075 1325.03ZM82.2946 1325.5C82.4376 1325.34 82.5781 1325.18 82.7075 1325.03L82.2946 1324.67C82.1683 1324.82 82.0304 1324.98 81.8869 1325.14L82.2946 1325.5ZM80.9298 1327.25C81.045 1327.02 81.2447 1326.74 81.4928 1326.43C81.739 1326.12 82.0214 1325.81 82.2946 1325.5L81.8869 1325.14C81.6155 1325.44 81.3241 1325.77 81.0682 1326.09C80.8143 1326.4 80.5835 1326.72 80.4407 1327.01L80.9298 1327.25ZM78.8653 1330.29C78.8678 1330.31 78.8615 1330.28 78.8908 1330.2C78.917 1330.12 78.9618 1330.02 79.0256 1329.9C79.1528 1329.66 79.3409 1329.36 79.5591 1329.05C79.9945 1328.42 80.5326 1327.74 80.8952 1327.3L80.4753 1326.95C80.1063 1327.4 79.5576 1328.09 79.1104 1328.74C78.8872 1329.06 78.6851 1329.37 78.543 1329.64C78.4722 1329.78 78.4126 1329.91 78.3734 1330.02C78.3373 1330.13 78.3046 1330.27 78.3284 1330.39L78.8653 1330.29ZM74.0984 1333.91C75.2534 1333.17 76.4337 1332.41 77.318 1331.8C77.7593 1331.49 78.1334 1331.22 78.3955 1331C78.5255 1330.89 78.6364 1330.79 78.7152 1330.69C78.7543 1330.65 78.7931 1330.6 78.8217 1330.54C78.847 1330.49 78.8853 1330.4 78.8653 1330.29L78.3284 1330.39C78.3216 1330.36 78.3261 1330.33 78.3298 1330.31C78.3317 1330.31 78.3337 1330.3 78.3351 1330.3C78.3364 1330.29 78.3374 1330.29 78.3374 1330.29C78.3374 1330.29 78.3368 1330.29 78.3353 1330.29C78.3338 1330.3 78.3317 1330.3 78.3286 1330.3C78.3225 1330.31 78.3137 1330.32 78.3018 1330.34C78.2518 1330.4 78.1673 1330.48 78.045 1330.58C77.8027 1330.78 77.4453 1331.04 77.007 1331.35C76.132 1331.95 74.9606 1332.71 73.8029 1333.45L74.0984 1333.91ZM69.9903 1336.75C70.0053 1336.73 70.0452 1336.69 70.1242 1336.61C70.1995 1336.55 70.2988 1336.47 70.4208 1336.37C70.6646 1336.18 70.9881 1335.96 71.3686 1335.7C72.1294 1335.18 73.1046 1334.55 74.0984 1333.91L73.8029 1333.45C72.811 1334.09 71.8293 1334.72 71.0617 1335.25C70.6781 1335.51 70.3446 1335.74 70.0884 1335.94C69.9605 1336.04 69.8491 1336.13 69.7593 1336.21C69.6731 1336.29 69.5934 1336.37 69.5405 1336.44L69.9903 1336.75ZM68.7883 1341.1C68.7885 1341.1 68.7861 1341.09 68.7871 1341.04C68.7881 1341.01 68.7915 1340.95 68.7979 1340.89C68.8107 1340.77 68.8341 1340.61 68.867 1340.42C68.9328 1340.05 69.0343 1339.58 69.157 1339.1C69.2796 1338.62 69.4223 1338.12 69.5696 1337.7C69.7194 1337.27 69.8659 1336.93 69.9903 1336.75L69.5405 1336.44C69.3712 1336.69 69.2051 1337.08 69.0539 1337.52C68.9 1337.96 68.753 1338.47 68.6278 1338.96C68.5025 1339.46 68.3978 1339.94 68.3293 1340.33C68.2951 1340.52 68.2694 1340.7 68.2548 1340.84C68.2414 1340.97 68.2334 1341.1 68.2514 1341.2L68.7883 1341.1ZM66.3496 1344.6C66.7613 1344.12 67.3754 1343.39 67.8798 1342.73C68.1314 1342.4 68.3596 1342.08 68.522 1341.82C68.6028 1341.69 68.6716 1341.57 68.7189 1341.46C68.7425 1341.41 68.7635 1341.35 68.7773 1341.3C68.79 1341.25 68.8027 1341.18 68.7883 1341.1L68.2514 1341.2C68.2451 1341.16 68.2526 1341.15 68.2481 1341.17C68.2448 1341.18 68.2367 1341.2 68.2205 1341.24C68.1881 1341.31 68.1343 1341.41 68.0593 1341.53C67.91 1341.77 67.6936 1342.07 67.4454 1342.39C66.9502 1343.05 66.344 1343.77 65.9368 1344.24L66.3496 1344.6ZM62.0637 1347.71C63.0104 1345.51 65.1999 1344.78 66.1671 1344.69L66.1193 1344.15C65.0332 1344.24 62.6157 1345.04 61.562 1347.5L62.0637 1347.71ZM63.7873 1351.17C63.301 1351.03 62.635 1350.68 62.2122 1350.11C61.8042 1349.57 61.6007 1348.79 62.0637 1347.71L61.562 1347.5C61.0248 1348.75 61.246 1349.73 61.775 1350.44C62.2892 1351.13 63.0726 1351.53 63.636 1351.69L63.7873 1351.17ZM86.6925 1328.31C86.7003 1327.78 86.9439 1327.13 87.271 1326.51C87.5943 1325.9 87.9802 1325.36 88.2335 1325.05L87.811 1324.7C87.5374 1325.04 87.1307 1325.61 86.7888 1326.25C86.4506 1326.89 86.1563 1327.63 86.1466 1328.3L86.6925 1328.31ZM88.9215 1330.58C88.5297 1330.44 87.9559 1330.19 87.4865 1329.81C87.0196 1329.43 86.6832 1328.94 86.6925 1328.31L86.1466 1328.3C86.1339 1329.16 86.6005 1329.79 87.1421 1330.23C87.6812 1330.67 88.3216 1330.94 88.7303 1331.1L88.9215 1330.58ZM89.4436 1330.79C89.2561 1330.72 89.0771 1330.64 88.9215 1330.58L88.7303 1331.1C88.8744 1331.15 89.043 1331.22 89.2334 1331.3L89.4436 1330.79ZM91.8552 1331.35C91.5992 1331.44 91.2234 1331.41 90.7679 1331.28C90.3229 1331.16 89.857 1330.97 89.4436 1330.79L89.2334 1331.3C89.6407 1331.47 90.1391 1331.68 90.6235 1331.81C91.0974 1331.94 91.6161 1332.01 92.0413 1331.86L91.8552 1331.35ZM93.3187 1330.27C93.0071 1330.53 92.7201 1330.77 92.4646 1330.97C92.2039 1331.17 92.0005 1331.29 91.8552 1331.35L92.0413 1331.86C92.2708 1331.78 92.5308 1331.6 92.7947 1331.4C93.0639 1331.2 93.3628 1330.95 93.6711 1330.69L93.3187 1330.27ZM95.7982 1328.53C94.9803 1328.86 94.0724 1329.63 93.3187 1330.27L93.6711 1330.69C94.4506 1330.03 95.2837 1329.33 96.0007 1329.04L95.7982 1328.53ZM99.9499 1327.31C98.9238 1327.5 97.2034 1327.97 95.7982 1328.53L96.0007 1329.04C97.3716 1328.49 99.0573 1328.03 100.049 1327.85L99.9499 1327.31ZM103.553 1326.65L99.9499 1327.31L100.049 1327.85L103.652 1327.19L103.553 1326.65ZM106.487 1326.87C106.376 1326.93 106.2 1326.97 105.96 1326.98C105.725 1327 105.455 1326.98 105.173 1326.95C104.611 1326.89 104.035 1326.76 103.679 1326.65L103.527 1327.18C103.906 1327.29 104.513 1327.43 105.112 1327.5C105.412 1327.53 105.717 1327.55 105.994 1327.53C106.265 1327.51 106.536 1327.46 106.751 1327.34L106.487 1326.87ZM106.692 1326.75C106.62 1326.79 106.552 1326.83 106.487 1326.87L106.751 1327.34C106.815 1327.31 106.882 1327.27 106.954 1327.23L106.692 1326.75ZM109.584 1324.7C108.705 1325.65 107.518 1326.3 106.692 1326.75L106.954 1327.23C107.771 1326.78 109.037 1326.09 109.986 1325.07L109.584 1324.7ZM110.642 1323.68C110.31 1323.98 109.928 1324.32 109.584 1324.7L109.986 1325.07C110.31 1324.71 110.673 1324.39 111.008 1324.08L110.642 1323.68ZM111.549 1322.77C111.532 1322.75 111.536 1322.72 111.533 1322.74C111.525 1322.77 111.493 1322.83 111.412 1322.93C111.25 1323.13 110.978 1323.38 110.642 1323.68L111.008 1324.08C111.33 1323.79 111.641 1323.51 111.835 1323.27C111.932 1323.16 112.022 1323.02 112.061 1322.88C112.104 1322.71 112.08 1322.53 111.941 1322.39L111.549 1322.77ZM111.137 1322.21C111.255 1322.4 111.373 1322.59 111.549 1322.77L111.941 1322.39C111.812 1322.26 111.723 1322.12 111.601 1321.92L111.137 1322.21ZM110.365 1321.2C110.776 1321.62 110.97 1321.94 111.137 1322.21L111.601 1321.92C111.426 1321.64 111.208 1321.29 110.756 1320.82L110.365 1321.2ZM109.57 1320.52C109.844 1320.73 110.119 1320.95 110.365 1321.2L110.756 1320.82C110.48 1320.54 110.175 1320.3 109.905 1320.09L109.57 1320.52ZM108.451 1319.16C108.508 1319.47 108.676 1319.72 108.877 1319.93C109.075 1320.14 109.326 1320.33 109.57 1320.52L109.905 1320.09C109.652 1319.89 109.437 1319.72 109.273 1319.55C109.11 1319.38 109.018 1319.23 108.988 1319.07L108.451 1319.16ZM108.779 1316.74C108.701 1317.01 108.591 1317.45 108.514 1317.9C108.44 1318.34 108.388 1318.82 108.451 1319.16L108.988 1319.07C108.945 1318.83 108.978 1318.43 109.053 1317.99C109.125 1317.57 109.23 1317.15 109.303 1316.9L108.779 1316.74ZM108.289 1315.59C108.448 1315.6 108.549 1315.65 108.617 1315.72C108.689 1315.78 108.742 1315.88 108.777 1316C108.848 1316.24 108.825 1316.55 108.775 1316.76L109.306 1316.88C109.369 1316.62 109.408 1316.21 109.301 1315.85C109.247 1315.66 109.151 1315.47 108.989 1315.32C108.824 1315.16 108.608 1315.07 108.342 1315.04L108.289 1315.59ZM107.03 1314.93C107.32 1315.19 107.692 1315.53 108.289 1315.59L108.342 1315.04C107.943 1315 107.692 1314.79 107.394 1314.52L107.03 1314.93ZM106.081 1314.51C106.472 1314.44 106.689 1314.62 107.03 1314.93L107.394 1314.52C107.068 1314.23 106.663 1313.85 105.982 1313.98L106.081 1314.51ZM100.784 1315.04C102.196 1314.93 105.256 1314.67 106.081 1314.51L105.982 1313.98C105.192 1314.12 102.169 1314.39 100.741 1314.5L100.784 1315.04ZM97.1482 1316.85C97.6488 1316.26 98.3558 1315.83 99.0514 1315.53C99.7459 1315.24 100.408 1315.09 100.796 1315.04L100.729 1314.5C100.291 1314.56 99.5806 1314.72 98.8392 1315.03C98.0991 1315.34 97.3075 1315.81 96.7315 1316.49L97.1482 1316.85ZM93.7213 1320.23C93.767 1320.22 93.8023 1320.2 93.8164 1320.19C93.8354 1320.18 93.8531 1320.17 93.8681 1320.16C93.8984 1320.14 93.9322 1320.12 93.9674 1320.09C94.0386 1320.03 94.1297 1319.95 94.2354 1319.86C94.4477 1319.67 94.7289 1319.41 95.0465 1319.09C95.6813 1318.47 96.4684 1317.65 97.1482 1316.85L96.7315 1316.49C96.0655 1317.28 95.2906 1318.09 94.6639 1318.71C94.3506 1319.01 94.0761 1319.27 93.8724 1319.45C93.7702 1319.54 93.6882 1319.61 93.6293 1319.66C93.5994 1319.68 93.5789 1319.7 93.5667 1319.71C93.5605 1319.71 93.5598 1319.71 93.5635 1319.71C93.5655 1319.71 93.5708 1319.7 93.5786 1319.7C93.5856 1319.7 93.601 1319.69 93.6221 1319.69L93.7213 1320.23ZM90.4074 1322.43C90.7627 1322.09 91.5656 1321.54 92.3205 1321.06C92.6933 1320.83 93.0465 1320.61 93.3147 1320.46C93.449 1320.38 93.5604 1320.32 93.6416 1320.27C93.6824 1320.25 93.7134 1320.24 93.7347 1320.23C93.7455 1320.22 93.7515 1320.22 93.7536 1320.22C93.7607 1320.21 93.7459 1320.22 93.7213 1320.23L93.6221 1319.69C93.5886 1319.7 93.56 1319.71 93.549 1319.71C93.533 1319.72 93.5163 1319.73 93.5003 1319.73C93.468 1319.75 93.4287 1319.77 93.3844 1319.79C93.2955 1319.84 93.178 1319.91 93.0409 1319.98C92.7663 1320.14 92.4071 1320.36 92.029 1320.6C91.2822 1321.07 90.4299 1321.65 90.027 1322.04L90.4074 1322.43ZM88.2402 1325.04C88.7217 1324.4 89.8185 1323 90.4074 1322.43L90.027 1322.04C89.4026 1322.65 88.2806 1324.08 87.8043 1324.71L88.2402 1325.04Z" fill="#E7FF51"/>
<path d="M93.3517 1323.89C92.7965 1324.11 91.7459 1326.23 91.2901 1327.25L92.8865 1326.21C93.3048 1325.79 94.3037 1324.85 94.9529 1324.49C95.7644 1324.04 95.7269 1324.65 96.7625 1324.6C97.7981 1324.56 98.0331 1324.22 98.3213 1324.17C98.5519 1324.12 99.9622 1323.37 100.638 1322.99L102.8 1322.59C103.377 1322.49 103.756 1322.12 103.874 1321.95C104.078 1321.71 104.333 1321.21 103.714 1321.08C102.94 1320.93 103.111 1321.04 101.589 1320.88C100.068 1320.71 100.436 1321.09 99.1923 1321.62C97.9483 1322.15 97.5802 1321.77 96.4537 1322.13C95.5525 1322.41 95.2416 1323.1 95.1988 1323.4C94.8145 1323.47 93.9069 1323.67 93.3517 1323.89Z" fill="#E7FF51" stroke="#E7FF51" stroke-width="0.545962"/>
<path d="M55.2844 1332.4C55.6722 1331.95 55.6172 1329.59 55.5412 1328.47L54.6138 1330.13C54.4418 1330.7 53.9962 1332 53.5889 1332.62C53.0798 1333.39 52.8319 1332.84 51.9354 1333.36C51.0389 1333.88 50.9902 1334.3 50.76 1334.48C50.5759 1334.62 49.6813 1335.95 49.2571 1336.6L47.5305 1337.96C47.0701 1338.32 46.9063 1338.82 46.8819 1339.03C46.8111 1339.33 46.8208 1339.9 47.4265 1339.72C48.1835 1339.49 47.9776 1339.47 49.4009 1338.91C50.8241 1338.35 50.3217 1338.18 51.1761 1337.14C52.0305 1336.09 52.533 1336.25 53.3631 1335.41C54.0271 1334.74 53.9836 1333.99 53.8788 1333.7C54.1858 1333.46 54.8966 1332.86 55.2844 1332.4Z" fill="#E7FF51" stroke="#E7FF51" stroke-width="0.545962"/>
<path d="M85.456 1341.18C85.532 1342.3 85.587 1344.66 85.1992 1345.12C84.8114 1345.57 84.1006 1346.17 83.7936 1346.41C83.8984 1346.7 84.5666 1347.8 83.9026 1348.47C83.0725 1349.31 82.7742 1348.8 81.9198 1349.84C81.0654 1350.89 80.7389 1351.06 79.3157 1351.62C77.8924 1352.18 78.0983 1352.21 77.3413 1352.43C76.7356 1352.61 76.7259 1352.05 76.7968 1351.74C76.8211 1351.54 76.9849 1351.03 77.4453 1350.67C77.9057 1350.31 78.1029 1349.31 78.4866 1349.01C78.3206 1348.71 78.2446 1348.6 78.2169 1348.57C78.2022 1348.56 78.197 1348.54 78.2169 1348.57C78.2643 1348.6 78.4107 1348.6 78.1435 1347.15C78.0636 1346.72 78.5286 1346.54 79.425 1346.02C80.3215 1345.5 80.8273 1345.85 81.3364 1345.07C81.7437 1344.45 82.2568 1344.1 82.4287 1343.53L85.456 1341.18Z" fill="#E7FF51"/>
<path d="M85.456 1341.18C85.532 1342.3 85.587 1344.66 85.1992 1345.12C84.8114 1345.57 84.1006 1346.17 83.7936 1346.41C83.8984 1346.7 84.5666 1347.8 83.9026 1348.47C83.0725 1349.31 82.7742 1348.8 81.9198 1349.84C81.0654 1350.89 80.7389 1351.06 79.3157 1351.62C77.8924 1352.18 78.0983 1352.21 77.3413 1352.43C76.7356 1352.61 76.7259 1352.05 76.7968 1351.74C76.8211 1351.54 76.9849 1351.03 77.4453 1350.67C77.9057 1350.31 78.1029 1349.31 78.4866 1349.01C77.8176 1347.81 78.6094 1349.67 78.1435 1347.15C78.0636 1346.72 78.5286 1346.54 79.425 1346.02C80.3215 1345.5 80.8273 1345.85 81.3364 1345.07C81.7437 1344.45 82.2568 1344.1 82.4287 1343.53L85.456 1341.18Z" stroke="#E7FF51" stroke-width="0.545962"/>
</g>
<defs>
<clipPath id="clip0_781_1526">
<rect width="1016.66" height="1525" fill="white" transform="translate(0.621094)"/>
</clipPath>
</defs>
</svg>
