<svg width="1017" height="1526" viewBox="0 0 1017 1526" fill="none" xmlns="http://www.w3.org/2000/svg">
<g clip-path="url(#clip0_781_520)">
<rect width="1016.79" height="1525.18" fill="black"/>
<rect y="1284.53" width="1016.79" height="108.457" fill="#E13C95"/>
<rect y="901.544" width="1016.79" height="108.457" fill="#E13C95"/>
<rect y="518.559" width="1016.79" height="108.457" fill="#E13C95"/>
<rect y="135.57" width="1016.79" height="108.457" fill="#E13C95"/>
<path d="M942.668 71.1738H1004.91V1455.7H928.425C894.664 1451.74 869.344 1346.91 869.344 1222.31V71.1738H931.59V1388.45H942.668V71.1738Z" fill="white"/>
<path d="M787.593 71.1738C858.889 71.1741 849.016 177.524 849.016 305.538V561.567C849.016 689.581 821.242 793.962 787.059 793.962H774.775V1455.7H711.75V71.1738H787.593ZM785.991 728.97V138.135H774.775V728.97H785.991Z" fill="white"/>
<path d="M691.415 734.185H618.09V1379.65H629.168V775.136H691.415V1209.99C691.415 1340.65 665.039 1453.75 630.751 1455.7H618.09C584.329 1451.8 555.844 1340.65 555.844 1213.89V295.428C555.844 168.676 583.802 71.1738 618.09 71.1738H630.751C664.512 75.074 691.415 172.576 691.415 299.328V734.185ZM629.168 669.834V139.425H618.09V669.834H629.168Z" fill="white"/>
<path d="M534.972 564.104V1239.67C534.972 1361.43 506.242 1455.7 473.256 1455.7H459.423C425.372 1455.7 398.238 1349.65 398.238 1223.96V71.1738H474.32C546.563 71.1738 535.504 173.295 535.504 295.054H472.191V137.945H461.019V344.151H473.256C506.242 344.151 534.972 438.416 534.972 564.104ZM472.191 1390.89V410.922H461.019V1390.89H472.191Z" fill="white"/>
<path d="M228.724 291.127H240.404C273.851 291.127 302.52 379.5 302.52 503.224V1239.67C302.52 1363.4 275.975 1455.7 241.466 1455.7H228.194C193.685 1455.7 166.078 1349.65 166.078 1222V71.1738H228.724V291.127ZM313.669 1445.88V71.1738H377.908V1445.88H313.669ZM239.873 1396.78V355.934H228.724V1396.78H239.873Z" fill="white"/>
<path d="M145.739 306.542V561.69C145.739 648.717 133.559 723.877 114.494 765.413C133.559 804.971 145.739 880.13 145.739 965.18V1222.31C145.739 1350.87 118.201 1455.7 83.7788 1455.7H10.168V71.1729H84.3083C118.201 75.1287 145.739 177.979 145.739 306.542ZM83.7788 727.833V138.421H72.6577V727.833H83.7788ZM83.7788 1388.45V799.037H72.6577V1388.45H83.7788Z" fill="white"/>
<rect x="81.3398" y="901.544" width="74.5643" height="108.457" fill="#E13C95"/>
<rect x="72.8672" y="135.57" width="83.0376" height="108.457" fill="#E13C95"/>
<rect x="233.859" y="901.544" width="74.5643" height="108.457" fill="#E13C95"/>
<rect x="233.859" y="135.57" width="74.5643" height="108.457" fill="#E13C95"/>
<rect x="386.371" y="901.544" width="84.7322" height="108.457" fill="#E13C95"/>
<rect x="398.234" y="135.57" width="74.5643" height="108.457" fill="#E13C95"/>
<rect x="393.961" y="135.57" width="74.5643" height="108.457" fill="#E13C95"/>
<rect x="549.062" y="901.544" width="74.5643" height="108.457" fill="#E13C95"/>
<rect x="554.145" y="135.57" width="74.5643" height="108.457" fill="#E13C95"/>
<rect x="711.742" y="901.544" width="74.5643" height="108.457" fill="#E13C95"/>
<rect x="711.742" y="135.57" width="74.5643" height="108.457" fill="#E13C95"/>
<rect x="942.223" y="901.544" width="74.5643" height="108.457" fill="#E13C95"/>
<rect x="942.223" y="135.57" width="74.5643" height="108.457" fill="#E13C95"/>
<rect x="10.168" y="1284.53" width="74.5643" height="108.457" fill="#E13C95"/>
<rect x="5.08203" y="518.559" width="74.5643" height="108.457" fill="#E13C95"/>
<rect x="166.078" y="1284.53" width="74.5643" height="108.457" fill="#E13C95"/>
<rect x="160.984" y="518.559" width="74.5643" height="108.457" fill="#E13C95"/>
<rect x="308.422" y="1284.53" width="74.5643" height="108.457" fill="#E13C95"/>
<rect x="303.34" y="518.559" width="74.5643" height="108.457" fill="#E13C95"/>
<rect x="471.113" y="1284.53" width="74.5643" height="108.457" fill="#E13C95"/>
<rect x="466.02" y="518.559" width="74.5643" height="108.457" fill="#E13C95"/>
<rect x="623.625" y="1284.53" width="74.5643" height="108.457" fill="#E13C95"/>
<rect x="618.547" y="518.559" width="74.5643" height="108.457" fill="#E13C95"/>
<rect x="942.223" y="1284.53" width="74.5643" height="108.457" fill="#E13C95"/>
<rect x="937.129" y="518.559" width="74.5643" height="108.457" fill="#E13C95"/>
<path d="M20.8585 1465.19H22.6963V1475.02H20.8585V1470.87H15.1099V1475.02H13.2721V1465.19H15.1099V1469.25H20.8585V1465.19ZM30.6158 1464.91C33.5649 1464.91 35.766 1467.13 35.766 1470.1C35.766 1473.05 33.5649 1475.29 30.6158 1475.29C27.6667 1475.29 25.4656 1473.05 25.4656 1470.1C25.4656 1467.13 27.6667 1464.91 30.6158 1464.91ZM30.6158 1473.58C32.5605 1473.58 33.9282 1472.02 33.9282 1470.1C33.9282 1468.16 32.5605 1466.62 30.6158 1466.62C28.6711 1466.62 27.3034 1468.16 27.3034 1470.1C27.3034 1472.02 28.6711 1473.58 30.6158 1473.58ZM46.2808 1470.1C47.392 1470.68 47.6484 1471.53 47.6484 1472.37C47.6484 1473.82 46.6441 1475.02 44.507 1475.02H38.5448V1465.19H44.4216C46.5586 1465.19 47.563 1466.36 47.563 1467.84C47.563 1468.65 47.3493 1469.48 46.2808 1470.1ZM44.3147 1473.39C45.2336 1473.39 45.8106 1472.99 45.8106 1472.15C45.8106 1471.32 45.2336 1470.91 44.3147 1470.91H40.3826V1473.39H44.3147ZM44.2292 1469.29C45.1481 1469.29 45.7251 1468.88 45.7251 1468.05C45.7251 1467.22 45.1481 1466.81 44.2292 1466.81H40.3826V1469.29H44.2292ZM54.3515 1464.91C57.1296 1464.91 59.0529 1466.3 59.0529 1468.76V1475.02H57.2151V1473.95C56.4458 1474.78 55.3131 1475.29 53.7959 1475.29C51.4879 1475.29 49.7997 1474.23 49.7997 1472.02C49.7997 1469.65 51.8512 1468.84 54.1164 1468.84H57.2151C57.2151 1467.22 55.9756 1466.62 54.3515 1466.62C53.1761 1466.62 51.9794 1467.11 51.5947 1468.05H49.5646C50.1416 1466.02 52.0863 1464.91 54.3515 1464.91ZM57.2151 1471.08V1470.44H54.095C52.5778 1470.44 51.6375 1470.96 51.6375 1472.02C51.6375 1473.09 52.5778 1473.58 53.9882 1473.58C55.9756 1473.58 57.2151 1472.56 57.2151 1471.08ZM68.4068 1471.77H66.1202L63.3421 1475.02H60.9273L63.855 1471.6C62.2523 1471.15 61.5043 1469.89 61.5043 1468.48C61.5043 1466.7 62.6583 1465.19 65.2013 1465.19H70.2447V1475.02H68.4068V1471.77ZM68.4068 1466.81H65.2654C64.0901 1466.81 63.3421 1467.41 63.3421 1468.48C63.3421 1469.55 64.0901 1470.14 65.2654 1470.14H68.4068V1466.81ZM79.5545 1465.19H87.4187V1475.02H85.5809V1466.81H81.3924V1469.35C81.3924 1471.83 81.2 1475.02 77.9304 1475.02H77.3107V1473.29H77.6953C79.5332 1473.29 79.5545 1471.04 79.5545 1469.35V1465.19ZM92.681 1475.02H90.8431V1465.19H92.681V1472.35L98.4295 1465.19H100.267V1475.02H98.4295V1467.86L92.681 1475.02ZM111.264 1465.19H113.102V1475.02H111.264V1470.87H105.516V1475.02H103.678V1465.19H105.516V1469.25H111.264V1465.19ZM121.021 1473.58C122.175 1473.58 123.116 1473.14 123.629 1472.26H125.616C124.932 1474.16 123.18 1475.29 121.021 1475.29C118.051 1475.29 115.871 1473.11 115.871 1470.08C115.871 1467.13 117.944 1464.91 120.915 1464.91C123.735 1464.91 125.744 1467.15 125.744 1469.97C125.744 1470.21 125.744 1470.51 125.701 1470.79H117.773C117.987 1472.39 119.333 1473.58 121.021 1473.58ZM120.915 1466.62C119.226 1466.62 118.008 1467.67 117.795 1469.18H123.821C123.586 1467.67 122.517 1466.62 120.915 1466.62ZM130.35 1475.02H128.512V1465.19H130.35V1472.35L136.099 1465.19H137.936V1475.02H136.099V1467.86L130.35 1475.02ZM133.214 1462.15C134.432 1462.15 135.308 1461.3 135.479 1460.19H137.103C136.932 1462.17 135.286 1463.73 133.214 1463.73C131.119 1463.73 129.495 1462.17 129.324 1460.19H130.927C131.098 1461.3 131.974 1462.15 133.214 1462.15ZM141.347 1465.19H143.185V1469.48L147.907 1465.19H150.365L144.916 1470.1L150.365 1475.02H147.907L143.185 1470.98V1475.02H141.347V1465.19ZM156.214 1464.91C158.992 1464.91 160.916 1466.3 160.916 1468.76V1475.02H159.078V1473.95C158.309 1474.78 157.176 1475.29 155.659 1475.29C153.351 1475.29 151.662 1474.23 151.662 1472.02C151.662 1469.65 153.714 1468.84 155.979 1468.84H159.078C159.078 1467.22 157.838 1466.62 156.214 1466.62C155.039 1466.62 153.842 1467.11 153.458 1468.05H151.427C152.004 1466.02 153.949 1464.91 156.214 1464.91ZM159.078 1471.08V1470.44H155.958C154.441 1470.44 153.5 1470.96 153.5 1472.02C153.5 1473.09 154.441 1473.58 155.851 1473.58C157.838 1473.58 159.078 1472.56 159.078 1471.08ZM169.04 1465.19H170.878V1469.48L175.601 1465.19H178.058L172.609 1470.1L178.058 1475.02H175.601L170.878 1470.98V1475.02H169.04V1465.19ZM184.276 1464.91C187.225 1464.91 189.426 1467.13 189.426 1470.1C189.426 1473.05 187.225 1475.29 184.276 1475.29C181.327 1475.29 179.126 1473.05 179.126 1470.1C179.126 1467.13 181.327 1464.91 184.276 1464.91ZM184.276 1473.58C186.221 1473.58 187.588 1472.02 187.588 1470.1C187.588 1468.16 186.221 1466.62 184.276 1466.62C182.331 1466.62 180.964 1468.16 180.964 1470.1C180.964 1472.02 182.331 1473.58 184.276 1473.58ZM199.941 1470.1C201.052 1470.68 201.309 1471.53 201.309 1472.37C201.309 1473.82 200.304 1475.02 198.167 1475.02H192.205V1465.19H198.082C200.219 1465.19 201.223 1466.36 201.223 1467.84C201.223 1468.65 201.01 1469.48 199.941 1470.1ZM197.975 1473.39C198.894 1473.39 199.471 1472.99 199.471 1472.15C199.471 1471.32 198.894 1470.91 197.975 1470.91H194.043V1473.39H197.975ZM197.89 1469.29C198.808 1469.29 199.385 1468.88 199.385 1468.05C199.385 1467.22 198.808 1466.81 197.89 1466.81H194.043V1469.29H197.89ZM205.918 1479.38H204.08V1465.19H205.918V1466.25C206.644 1465.44 207.841 1464.91 209.23 1464.91C212.457 1464.91 214.209 1467.39 214.209 1470.1C214.209 1472.82 212.457 1475.29 209.23 1475.29C207.841 1475.29 206.644 1474.76 205.918 1473.95V1479.38ZM205.853 1470.1C205.853 1472.43 207.456 1473.58 209.166 1473.58C211.068 1473.58 212.371 1471.98 212.371 1470.1C212.371 1468.22 211.068 1466.62 209.166 1466.62C207.456 1466.62 205.853 1467.77 205.853 1470.1ZM221.486 1464.91C224.435 1464.91 226.636 1467.13 226.636 1470.1C226.636 1473.05 224.435 1475.29 221.486 1475.29C218.537 1475.29 216.336 1473.05 216.336 1470.1C216.336 1467.13 218.537 1464.91 221.486 1464.91ZM221.486 1473.58C223.431 1473.58 224.798 1472.02 224.798 1470.1C224.798 1468.16 223.431 1466.62 221.486 1466.62C219.541 1466.62 218.174 1468.16 218.174 1470.1C218.174 1472.02 219.541 1473.58 221.486 1473.58ZM237.151 1470.1C238.262 1470.68 238.519 1471.53 238.519 1472.37C238.519 1473.82 237.514 1475.02 235.377 1475.02H229.415V1465.19H235.292C237.429 1465.19 238.433 1466.36 238.433 1467.84C238.433 1468.65 238.219 1469.48 237.151 1470.1ZM235.185 1473.39C236.104 1473.39 236.681 1472.99 236.681 1472.15C236.681 1471.32 236.104 1470.91 235.185 1470.91H231.253V1473.39H235.185ZM235.099 1469.29C236.018 1469.29 236.595 1468.88 236.595 1468.05C236.595 1467.22 236.018 1466.81 235.099 1466.81H231.253V1469.29H235.099ZM255.34 1468.05H253.331C252.818 1467.17 251.856 1466.62 250.702 1466.62C248.779 1466.62 247.411 1468.16 247.411 1470.1C247.411 1472.05 248.779 1473.58 250.702 1473.58C251.856 1473.58 252.818 1473.03 253.331 1472.15H255.34C254.635 1474.05 252.882 1475.29 250.702 1475.29C247.796 1475.29 245.574 1473.07 245.574 1470.1C245.574 1467.13 247.796 1464.91 250.702 1464.91C252.882 1464.91 254.635 1466.15 255.34 1468.05ZM261.938 1464.91C264.716 1464.91 266.639 1466.3 266.639 1468.76V1475.02H264.802V1473.95C264.032 1474.78 262.9 1475.29 261.382 1475.29C259.074 1475.29 257.386 1474.23 257.386 1472.02C257.386 1469.65 259.438 1468.84 261.703 1468.84H264.802C264.802 1467.22 263.562 1466.62 261.938 1466.62C260.763 1466.62 259.566 1467.11 259.181 1468.05H257.151C257.728 1466.02 259.673 1464.91 261.938 1464.91ZM264.802 1471.08V1470.44H261.682C260.164 1470.44 259.224 1470.96 259.224 1472.02C259.224 1473.09 260.164 1473.58 261.575 1473.58C263.562 1473.58 264.802 1472.56 264.802 1471.08ZM279.904 1468.52L276.72 1475.02H274.861L271.677 1468.52V1475.02H269.839V1465.19H271.933L275.801 1473.09L279.69 1465.19H281.742V1475.02H279.904V1468.52ZM289.666 1464.91C292.615 1464.91 294.816 1467.13 294.816 1470.1C294.816 1473.05 292.615 1475.29 289.666 1475.29C286.717 1475.29 284.516 1473.05 284.516 1470.1C284.516 1467.13 286.717 1464.91 289.666 1464.91ZM289.666 1473.58C291.611 1473.58 292.978 1472.02 292.978 1470.1C292.978 1468.16 291.611 1466.62 289.666 1466.62C287.721 1466.62 286.353 1468.16 286.353 1470.1C286.353 1472.02 287.721 1473.58 289.666 1473.58ZM298.556 1465.19H306.421V1475.02H304.583V1466.81H300.394V1469.35C300.394 1471.83 300.202 1475.02 296.932 1475.02H296.313V1473.29H296.697C298.535 1473.29 298.556 1471.04 298.556 1469.35V1465.19ZM314.354 1473.58C315.508 1473.58 316.448 1473.14 316.961 1472.26H318.949C318.265 1474.16 316.513 1475.29 314.354 1475.29C311.384 1475.29 309.204 1473.11 309.204 1470.08C309.204 1467.13 311.277 1464.91 314.247 1464.91C317.068 1464.91 319.077 1467.15 319.077 1469.97C319.077 1470.21 319.077 1470.51 319.034 1470.79H311.106C311.32 1472.39 312.666 1473.58 314.354 1473.58ZM314.247 1466.62C312.559 1466.62 311.341 1467.67 311.127 1469.18H317.154C316.919 1467.67 315.85 1466.62 314.247 1466.62ZM320.354 1466.81V1465.19H329.8V1466.81H325.996V1475.02H324.158V1466.81H320.354ZM336.288 1464.91C339.237 1464.91 341.438 1467.13 341.438 1470.1C341.438 1473.05 339.237 1475.29 336.288 1475.29C333.339 1475.29 331.138 1473.05 331.138 1470.1C331.138 1467.13 333.339 1464.91 336.288 1464.91ZM336.288 1473.58C338.232 1473.58 339.6 1472.02 339.6 1470.1C339.6 1468.16 338.232 1466.62 336.288 1466.62C334.343 1466.62 332.975 1468.16 332.975 1470.1C332.975 1472.02 334.343 1473.58 336.288 1473.58ZM351.953 1470.1C353.064 1470.68 353.32 1471.53 353.32 1472.37C353.32 1473.82 352.316 1475.02 350.179 1475.02H344.217V1465.19H350.094C352.231 1465.19 353.235 1466.36 353.235 1467.84C353.235 1468.65 353.021 1469.48 351.953 1470.1ZM349.987 1473.39C350.906 1473.39 351.483 1472.99 351.483 1472.15C351.483 1471.32 350.906 1470.91 349.987 1470.91H346.055V1473.39H349.987ZM349.901 1469.29C350.82 1469.29 351.397 1468.88 351.397 1468.05C351.397 1467.22 350.82 1466.81 349.901 1466.81H346.055V1469.29H349.901Z" fill="white"/>
<path d="M19.3635 1491.32C22.1843 1491.32 24.3641 1493.59 24.3641 1496.36C24.3641 1499.14 22.163 1501.36 19.2139 1501.36C15.8374 1501.36 14.1064 1498.86 14.1064 1495.38C14.1064 1490.98 15.0895 1488.52 18.4446 1488.16L20.4747 1487.94C21.4577 1487.84 22.0775 1487.54 22.2271 1486.79H24.0649C23.9581 1488.14 23.1246 1489.33 21.1372 1489.55L18.5942 1489.8C16.5212 1490.02 16.0084 1491.6 15.9015 1492.86C16.5212 1492.07 17.6325 1491.32 19.3635 1491.32ZM19.2139 1499.65C21.1372 1499.65 22.5263 1498.2 22.5263 1496.36C22.5263 1494.48 21.1372 1493.01 19.2139 1493.01C17.3119 1493.01 15.9443 1494.48 15.9443 1496.36C15.9443 1498.2 17.3119 1499.65 19.2139 1499.65ZM31.648 1490.98C34.597 1490.98 36.7982 1493.2 36.7982 1496.17C36.7982 1499.12 34.597 1501.36 31.648 1501.36C28.6989 1501.36 26.4978 1499.12 26.4978 1496.17C26.4978 1493.2 28.6989 1490.98 31.648 1490.98ZM31.648 1499.65C33.5926 1499.65 34.9603 1498.09 34.9603 1496.17C34.9603 1494.23 33.5926 1492.69 31.648 1492.69C29.7033 1492.69 28.3356 1494.23 28.3356 1496.17C28.3356 1498.09 29.7033 1499.65 31.648 1499.65ZM40.5386 1491.26H48.4028V1501.09H46.565V1492.88H42.3764V1495.42C42.3764 1497.9 42.1841 1501.09 38.9145 1501.09H38.2947V1499.35H38.6794C40.5172 1499.35 40.5386 1497.11 40.5386 1495.42V1491.26ZM57.0842 1494.5C59.6273 1494.5 60.7813 1496.04 60.7813 1497.79C60.7813 1499.57 59.6273 1501.09 57.0842 1501.09H51.8272V1491.26H53.665V1494.5H57.0842ZM57.0201 1499.46C58.1955 1499.46 58.9434 1498.86 58.9434 1497.79C58.9434 1496.73 58.1955 1496.13 57.0201 1496.13H53.665V1499.46H57.0201ZM77.2426 1501.09H63.1383V1491.26H64.9762V1499.46H69.2715V1491.26H71.1094V1499.46H75.4048V1491.26H77.2426V1501.09ZM84.6006 1490.98C87.3787 1490.98 89.302 1492.37 89.302 1494.82V1501.09H87.4642V1500.02C86.6949 1500.85 85.5623 1501.36 84.045 1501.36C81.737 1501.36 80.0488 1500.3 80.0488 1498.09C80.0488 1495.72 82.1003 1494.91 84.3655 1494.91H87.4642C87.4642 1493.29 86.2247 1492.69 84.6006 1492.69C83.4252 1492.69 82.2285 1493.18 81.8439 1494.12H79.8137C80.3907 1492.09 82.3354 1490.98 84.6006 1490.98ZM87.4642 1497.15V1496.51H84.3442C82.8269 1496.51 81.8866 1497.03 81.8866 1498.09C81.8866 1499.16 82.8269 1499.65 84.2373 1499.65C86.2247 1499.65 87.4642 1498.63 87.4642 1497.15ZM98.656 1497.84H96.3694L93.5912 1501.09H91.1764L94.1041 1497.67C92.5014 1497.22 91.7534 1495.96 91.7534 1494.55C91.7534 1492.77 92.9074 1491.26 95.4504 1491.26H100.494V1501.09H98.656V1497.84ZM98.656 1492.88H95.5146C94.3392 1492.88 93.5912 1493.48 93.5912 1494.55C93.5912 1495.62 94.3392 1496.21 95.5146 1496.21H98.656V1492.88ZM116.428 1491.26H118.266V1501.09H116.428V1496.94H110.68V1501.09H108.842V1491.26H110.68V1495.32H116.428V1491.26ZM123.514 1501.09H121.677V1491.26H123.514V1498.41L129.263 1491.26H131.101V1501.09H129.263V1493.93L123.514 1501.09ZM134.511 1491.26H136.349V1495.55L141.072 1491.26H143.529L138.08 1496.17L143.529 1501.09H141.072L136.349 1497.05V1501.09H134.511V1491.26ZM147.285 1501.09H145.447V1491.26H147.285V1498.41L153.033 1491.26H154.871V1501.09H153.033V1493.93L147.285 1501.09ZM156.999 1492.88V1491.26H166.445V1492.88H162.641V1501.09H160.803V1492.88H156.999ZM177.549 1494.12H175.54C175.027 1493.24 174.065 1492.69 172.911 1492.69C170.988 1492.69 169.62 1494.23 169.62 1496.17C169.62 1498.12 170.988 1499.65 172.911 1499.65C174.065 1499.65 175.027 1499.1 175.54 1498.22H177.549C176.844 1500.12 175.091 1501.36 172.911 1501.36C170.005 1501.36 167.783 1499.14 167.783 1496.17C167.783 1493.2 170.005 1490.98 172.911 1490.98C175.091 1490.98 176.844 1492.22 177.549 1494.12ZM180.215 1491.26H182.053V1495.55L186.775 1491.26H189.233L183.784 1496.17L189.233 1501.09H186.775L182.053 1497.05V1501.09H180.215V1491.26ZM195.082 1490.98C197.861 1490.98 199.784 1492.37 199.784 1494.82V1501.09H197.946V1500.02C197.177 1500.85 196.044 1501.36 194.527 1501.36C192.219 1501.36 190.531 1500.3 190.531 1498.09C190.531 1495.72 192.582 1494.91 194.847 1494.91H197.946C197.946 1493.29 196.707 1492.69 195.082 1492.69C193.907 1492.69 192.71 1493.18 192.326 1494.12H190.296C190.873 1492.09 192.817 1490.98 195.082 1490.98ZM197.946 1497.15V1496.51H194.826C193.309 1496.51 192.368 1497.03 192.368 1498.09C192.368 1499.16 193.309 1499.65 194.719 1499.65C196.707 1499.65 197.946 1498.63 197.946 1497.15ZM209.138 1497.84H206.851L204.073 1501.09H201.658L204.586 1497.67C202.983 1497.22 202.235 1495.96 202.235 1494.55C202.235 1492.77 203.389 1491.26 205.932 1491.26H210.976V1501.09H209.138V1497.84ZM209.138 1492.88H205.996C204.821 1492.88 204.073 1493.48 204.073 1494.55C204.073 1495.62 204.821 1496.21 205.996 1496.21H209.138V1492.88ZM221.717 1501.09V1489.12L218.683 1491.85V1489.5L221.632 1486.9H223.641V1501.09H221.717ZM233.956 1492.07H235.88V1496.28H238.316V1498.07H235.88V1501.09H233.956V1498.07H226.306V1496.28L233.23 1486.9H235.452L228.528 1496.28H233.956V1492.07Z" fill="white"/>
<path d="M838.425 1500.35V1488.38L835.39 1491.12V1488.77L838.339 1486.16H840.348V1500.35H838.425ZM849.082 1500.63C845.791 1500.63 843.868 1498.66 843.868 1496.44C843.868 1495.28 844.338 1494.07 845.856 1493.08C844.445 1492.14 844.018 1491.01 844.018 1489.9C844.018 1487.78 845.877 1485.88 849.082 1485.88C852.288 1485.88 854.147 1487.78 854.147 1489.9C854.147 1491.01 853.72 1492.14 852.309 1493.08C853.827 1494.07 854.297 1495.28 854.297 1496.44C854.297 1498.66 852.373 1500.63 849.082 1500.63ZM852.224 1489.9C852.224 1488.6 850.92 1487.68 849.082 1487.68C847.245 1487.68 845.941 1488.6 845.941 1489.9C845.941 1491.35 847.181 1492.19 849.082 1492.19C850.984 1492.19 852.224 1491.35 852.224 1489.9ZM849.082 1498.83C850.963 1498.83 852.373 1497.83 852.373 1496.44C852.373 1494.92 851.027 1493.98 849.082 1493.98C847.138 1493.98 845.791 1494.92 845.791 1496.44C845.791 1497.83 847.202 1498.83 849.082 1498.83ZM869.809 1490.52H871.646V1500.35H869.809V1496.2H864.06V1500.35H862.222V1490.52H864.06V1494.58H869.809V1490.52ZM879.566 1490.24C882.515 1490.24 884.716 1492.46 884.716 1495.43C884.716 1498.38 882.515 1500.63 879.566 1500.63C876.617 1500.63 874.416 1498.38 874.416 1495.43C874.416 1492.46 876.617 1490.24 879.566 1490.24ZM879.566 1498.92C881.511 1498.92 882.878 1497.36 882.878 1495.43C882.878 1493.49 881.511 1491.95 879.566 1491.95C877.621 1491.95 876.254 1493.49 876.254 1495.43C876.254 1497.36 877.621 1498.92 879.566 1498.92ZM893.65 1497.1H891.363L888.585 1500.35H886.17L889.098 1496.93C887.495 1496.48 886.747 1495.22 886.747 1493.81C886.747 1492.04 887.901 1490.52 890.444 1490.52H895.487V1500.35H893.65V1497.1ZM893.65 1492.14H890.508C889.333 1492.14 888.585 1492.74 888.585 1493.81C888.585 1494.88 889.333 1495.48 890.508 1495.48H893.65V1492.14ZM903.74 1490.58C906.561 1490.58 908.741 1492.85 908.741 1495.63C908.741 1498.4 906.54 1500.63 903.59 1500.63C900.214 1500.63 898.483 1498.13 898.483 1494.64C898.483 1490.24 899.466 1487.78 902.821 1487.42L904.851 1487.21C905.834 1487.1 906.454 1486.8 906.604 1486.05H908.441C908.335 1487.4 907.501 1488.6 905.514 1488.81L902.971 1489.07C900.898 1489.28 900.385 1490.86 900.278 1492.12C900.898 1491.33 902.009 1490.58 903.74 1490.58ZM903.59 1498.92C905.514 1498.92 906.903 1497.46 906.903 1495.63C906.903 1493.75 905.514 1492.27 903.59 1492.27C901.689 1492.27 900.321 1493.75 900.321 1495.63C900.321 1497.46 901.689 1498.92 903.59 1498.92ZM913.353 1504.71H911.515V1490.52H913.353V1491.59C914.08 1490.78 915.277 1490.24 916.666 1490.24C919.893 1490.24 921.645 1492.72 921.645 1495.43C921.645 1498.15 919.893 1500.63 916.666 1500.63C915.277 1500.63 914.08 1500.09 913.353 1499.28V1504.71ZM913.289 1495.43C913.289 1497.76 914.892 1498.92 916.602 1498.92C918.503 1498.92 919.807 1497.32 919.807 1495.43C919.807 1493.55 918.503 1491.95 916.602 1491.95C914.892 1491.95 913.289 1493.11 913.289 1495.43ZM930.567 1497.1H928.281L925.503 1500.35H923.088L926.015 1496.93C924.413 1496.48 923.665 1495.22 923.665 1493.81C923.665 1492.04 924.819 1490.52 927.362 1490.52H932.405V1500.35H930.567V1497.1ZM930.567 1492.14H927.426C926.25 1492.14 925.503 1492.74 925.503 1493.81C925.503 1494.88 926.25 1495.48 927.426 1495.48H930.567V1492.14ZM948.489 1495.43C949.6 1496.01 949.857 1496.87 949.857 1497.7C949.857 1499.15 948.853 1500.35 946.716 1500.35H940.753V1490.52H946.63C948.767 1490.52 949.771 1491.69 949.771 1493.17C949.771 1493.98 949.558 1494.81 948.489 1495.43ZM946.523 1498.73C947.442 1498.73 948.019 1498.32 948.019 1497.49C948.019 1496.65 947.442 1496.25 946.523 1496.25H942.591V1498.73H946.523ZM946.438 1494.62C947.357 1494.62 947.934 1494.22 947.934 1493.38C947.934 1492.55 947.357 1492.14 946.438 1492.14H942.591V1494.62H946.438ZM962.821 1490.52H964.659V1500.35H962.821V1490.52ZM957.458 1493.77C960.001 1493.77 961.155 1495.31 961.155 1497.06C961.155 1498.83 960.001 1500.35 957.458 1500.35H952.628V1490.52H954.466V1493.77H957.458ZM957.393 1498.73C958.569 1498.73 959.317 1498.13 959.317 1497.06C959.317 1495.99 958.569 1495.39 957.393 1495.39H954.466V1498.73H957.393ZM977.025 1490.52L973.029 1495.37L977.068 1500.35H974.824L971.875 1496.74L968.905 1500.35H966.789L970.806 1495.43L966.832 1490.52H969.118L971.96 1494.05L974.824 1490.52H977.025ZM983.516 1490.24C986.465 1490.24 988.666 1492.46 988.666 1495.43C988.666 1498.38 986.465 1500.63 983.516 1500.63C980.567 1500.63 978.366 1498.38 978.366 1495.43C978.366 1492.46 980.567 1490.24 983.516 1490.24ZM983.516 1498.92C985.46 1498.92 986.828 1497.36 986.828 1495.43C986.828 1493.49 985.46 1491.95 983.516 1491.95C981.571 1491.95 980.203 1493.49 980.203 1495.43C980.203 1497.36 981.571 1498.92 983.516 1498.92ZM1002.09 1503.04H1000.25V1500.35H992V1503.04H990.162V1498.73H991.316C992.235 1497.89 992.535 1496.25 992.535 1494.6V1490.52H1000.48V1498.73H1002.09V1503.04ZM994.372 1494.58C994.372 1495.93 994.223 1497.59 993.518 1498.73H998.646V1492.14H994.372V1494.58Z" fill="white"/>
<path d="M918.806 1468.05H916.797C916.285 1467.17 915.323 1466.62 914.169 1466.62C912.246 1466.62 910.878 1468.16 910.878 1470.1C910.878 1472.05 912.246 1473.58 914.169 1473.58C915.323 1473.58 916.285 1473.03 916.797 1472.15H918.806C918.101 1474.05 916.349 1475.29 914.169 1475.29C911.263 1475.29 909.04 1473.07 909.04 1470.1C909.04 1467.13 911.263 1464.91 914.169 1464.91C916.349 1464.91 918.101 1466.15 918.806 1468.05ZM928.791 1475.02V1463.05L925.756 1465.78V1463.43L928.705 1460.83H930.714V1475.02H928.791ZM939.662 1460.55C943.936 1460.55 945.09 1465.02 945.09 1467.92C945.09 1470.83 943.936 1475.29 939.662 1475.29C935.388 1475.29 934.234 1470.83 934.234 1467.92C934.234 1465.02 935.388 1460.55 939.662 1460.55ZM939.662 1473.5C942.355 1473.5 943.167 1470.32 943.167 1467.92C943.167 1465.53 942.355 1462.34 939.662 1462.34C936.97 1462.34 936.158 1465.53 936.158 1467.92C936.158 1470.32 936.97 1473.5 939.662 1473.5ZM963.648 1477.71H961.81V1475.02H953.561V1477.71H951.724V1473.39H952.878C953.796 1472.56 954.096 1470.91 954.096 1469.27V1465.19H962.045V1473.39H963.648V1477.71ZM955.933 1469.25C955.933 1470.59 955.784 1472.26 955.079 1473.39H960.207V1466.81H955.933V1469.25ZM970.725 1464.91C973.674 1464.91 975.875 1467.13 975.875 1470.1C975.875 1473.05 973.674 1475.29 970.725 1475.29C967.776 1475.29 965.575 1473.05 965.575 1470.1C965.575 1467.13 967.776 1464.91 970.725 1464.91ZM970.725 1473.58C972.67 1473.58 974.037 1472.02 974.037 1470.1C974.037 1468.16 972.67 1466.62 970.725 1466.62C968.78 1466.62 967.413 1468.16 967.413 1470.1C967.413 1472.02 968.78 1473.58 970.725 1473.58ZM985.759 1473.22H992.854V1475.02H983.173V1473.22L988.964 1467.9C989.841 1467.09 990.695 1466.15 990.695 1464.93C990.695 1463.35 989.435 1462.34 987.853 1462.34C986.421 1462.34 985.203 1463.09 984.84 1464.65H982.831C983.28 1462.24 985.054 1460.55 987.746 1460.55C990.61 1460.55 992.597 1462.24 992.597 1464.87C992.597 1466.43 991.721 1467.73 990.46 1468.88L985.759 1473.22ZM997.926 1473.22H1005.02V1475.02H995.34V1473.22L1001.13 1467.9C1002.01 1467.09 1002.86 1466.15 1002.86 1464.93C1002.86 1463.35 1001.6 1462.34 1000.02 1462.34C998.588 1462.34 997.37 1463.09 997.007 1464.65H994.998C995.447 1462.24 997.22 1460.55 999.913 1460.55C1002.78 1460.55 1004.76 1462.24 1004.76 1464.87C1004.76 1466.43 1003.89 1467.73 1002.63 1468.88L997.926 1473.22Z" fill="white"/>
<path d="M954.448 13.1009C954.006 13.4572 956.238 11.0889 957.713 9.9757C959.623 9.26259 959.493 8.4861 960.306 8.33591C961.118 8.18571 962.825 8.97138 963.736 10.0039C964.647 11.0363 964.187 12.4424 964.401 13.6036C964.616 14.7648 960.058 17.4681 959.237 18.2203C958.415 18.9726 957.642 22.5178 956.683 23.1754C955.724 23.833 954.753 23.8521 954.503 25.0992C954.254 26.3462 954.614 28.4174 953.963 29.3221C953.198 30.3839 949.48 32.9363 948.24 36.6239C947.853 37.7763 949.206 41.8494 952.547 43.0333C956.554 44.4533 960.513 37.4784 962.376 35.2128C964.857 32.1966 964.221 28.9477 964.746 27.89C965.271 26.8323 967.52 24.0551 968.131 23.4619C969.036 22.5829 970.425 22.1573 971.246 19.5239C972.172 16.5552 972.848 13.824 973.248 13.3898C973.648 12.9556 976.71 12.63 977.923 12.0456C979.136 11.4613 980.812 14.0336 981.289 14.666C981.671 15.1719 980.877 16.9838 980.432 17.8265C979.869 18.8913 978.665 21.1311 978.362 21.5714C977.984 22.1217 973.323 24.2638 974.745 26.0424C975.418 26.8835 977.281 26.3344 977.289 26.8132C976.637 27.6143 975.353 29.3325 975.439 29.797C975.525 30.2615 973.367 31.5809 972.277 32.1825C971.11 32.7984 968.686 34.1911 968.324 34.8343C967.963 35.4775 967.427 37.5619 967.204 38.5237C966.767 39.4051 965.725 41.1748 965.057 41.202C964.223 41.2361 962.537 42.5084 962.012 43.5661C961.487 44.6238 963.783 46.0008 963.374 47.0371C962.965 48.0733 959.528 50.2695 958.379 51.2022C957.231 52.135 952.191 51.5051 951.051 51.8358C949.911 52.1665 946.136 50.5824 944.678 50.4915C943.22 50.4006 941.419 48.4518 941.196 47.8926C940.972 47.3335 941.347 45.4629 941.863 45.0073C942.276 44.6428 941.277 42.9141 940.725 42.0954C940.55 41.3671 940.319 39.7687 940.791 39.2012C941.38 38.4919 940.49 37.5755 940.404 37.111C940.319 36.6465 942.203 34.4971 943.089 34.0932C943.975 33.6893 942.221 33.2929 942.617 31.5385C943.013 29.7841 943.951 29.0104 945.311 27.9186C946.67 26.8268 946.31 22.9304 947.33 21.301C948.35 19.6715 953.212 16.0911 953.78 15.2656C954.348 14.4402 955.156 12.5296 954.448 13.1009Z" fill="#3EFFFF" fill-opacity="0.988542" stroke="#3EFFFF" stroke-opacity="0.988542" stroke-width="0.89494"/>
<path fill-rule="evenodd" clip-rule="evenodd" d="M963.33 46.8017C963.552 46.9208 964.003 47.3258 964.031 47.9932C964.044 48.3296 963.859 48.8588 963.66 49.4287C963.366 50.2725 963.04 51.2055 963.281 51.7343C963.685 52.6204 966.045 54.3458 966.751 53.615C967.012 53.3444 967.593 52.9324 968.226 52.4833C969.303 51.7195 970.531 50.8484 970.596 50.3826C970.65 49.9994 971.128 49.1188 971.616 48.218C972.07 47.3801 972.534 46.5247 972.675 46.0357C972.783 45.6627 972.839 45.1857 972.899 44.678C973.001 43.8043 973.114 42.8395 973.52 42.157C973.87 41.5683 974.876 40.8583 975.845 40.1747C976.652 39.6051 977.433 39.0539 977.787 38.6065C978.096 38.2164 978.309 37.6177 978.515 37.0407C978.828 36.1614 979.124 35.3324 979.711 35.369C980.207 35.4 980.908 35.5185 981.737 35.6587C982.53 35.793 983.441 35.9471 984.402 36.0632C985.444 36.189 985.904 36.4557 986.245 36.6532C986.548 36.8285 986.756 36.9493 987.193 36.8686C988.01 36.7176 989.247 34.8177 989.726 34.0808C989.792 33.9797 989.844 33.9005 989.878 33.8507C990.053 33.5956 990.544 33.5575 991.222 33.5048C991.642 33.4722 992.132 33.4341 992.665 33.3357C992.868 33.2981 993.112 33.2557 993.385 33.208C994.987 32.929 997.624 32.4695 999.335 31.7429C1001.34 30.8922 1005.19 28.9801 1005.84 28.6191C1006.5 28.2581 1008.26 26.7321 1008.08 25.8032C1007.95 25.0875 1007.57 24.5607 1007.17 24.0143C1007.06 23.8513 1006.94 23.6867 1006.82 23.5148C1006.32 22.7663 1006 21.0245 1007.03 20.1132C1008.07 19.2019 1009.1 18.2906 1008.56 17.3099C1008.02 16.3292 1005.72 15.0319 1004.98 14.9284C1004.24 14.8249 1001.34 14.041 1000.32 13.7482C999.305 13.4554 995.22 14.0902 994.407 14.2404C994.063 14.304 993.357 14.1548 992.543 13.9827C991.433 13.7482 990.122 13.4711 989.251 13.632C989.096 13.6606 988.946 13.6871 988.799 13.7129C987.521 13.9384 986.549 14.1097 985.453 15.1743C984.754 15.8527 984.364 17.1152 984.027 18.2088C983.774 19.0278 983.55 19.7521 983.248 20.065C983.037 20.2836 982.712 20.5876 982.35 20.9278C981.499 21.725 980.437 22.7213 980.12 23.2848C979.749 23.9444 979.208 24.5547 978.752 25.0683C978.652 25.1808 978.557 25.2887 978.468 25.3914C978.365 25.5104 978.253 25.6364 978.137 25.7659C977.698 26.2587 977.213 26.8041 977.005 27.2228C976.415 27.9322 975.254 29.4438 975.322 29.8154C975.368 30.0653 973.442 31.3053 971.579 32.5049C969.979 33.5348 968.426 34.5349 968.207 34.8527C967.734 35.5405 967.139 38.1722 967.204 38.5206C967.255 38.7993 965.949 40.3936 965.289 41.156C964.462 41.2288 962.606 41.8439 961.8 43.722C960.995 45.6001 962.484 46.5577 963.33 46.8017ZM982.912 25.4096C982.488 25.9284 981.635 27.2067 981.621 28.17C981.603 29.3741 982.915 29.9724 983.56 30.2135C983.68 30.2586 983.82 30.317 983.973 30.3805C984.634 30.6563 985.526 31.0285 986.075 30.8295C986.377 30.72 986.822 30.3441 987.321 29.922C987.939 29.3999 988.64 28.8072 989.259 28.5601C990.377 28.1133 991.749 27.7397 992.562 27.5895L995.465 27.0531C996.057 27.2239 997.371 27.4934 997.894 27.2046C997.947 27.1759 998.001 27.1458 998.059 27.1145C998.721 26.752 999.709 26.2116 1000.45 25.4123C1000.71 25.1203 1001.01 24.8497 1001.28 24.6075C1001.81 24.1295 1002.22 23.7622 1002.02 23.5595C1001.9 23.4329 1001.82 23.2991 1001.72 23.1422C1001.58 22.9204 1001.42 22.6526 1001.07 22.2947C1000.86 22.0783 1000.63 21.8964 1000.41 21.726C1000.01 21.4152 999.656 21.1424 999.587 20.7675C999.501 20.303 999.724 19.3412 999.846 18.9184C999.936 18.5414 999.946 17.7711 999.261 17.7054C998.86 17.6669 998.609 17.4423 998.372 17.23C998.104 16.9895 997.853 16.7648 997.421 16.8446C996.771 16.9647 994.32 17.1773 993.176 17.2686C992.511 17.3515 990.964 17.7735 990.097 18.7984C989.013 20.0795 987.58 21.4249 987.464 21.4464C987.348 21.4679 985.292 22.6884 984.681 23.2816C984.192 23.7562 983.298 24.898 982.912 25.4096Z" fill="#3EFFFF" fill-opacity="0.988542"/>
<path d="M964.031 47.9932L964.478 47.975L964.478 47.975L964.031 47.9932ZM963.33 46.8017L963.541 46.4073L963.5 46.3849L963.454 46.3718L963.33 46.8017ZM963.66 49.4287L964.083 49.5763L964.083 49.5763L963.66 49.4287ZM963.281 51.7343L963.688 51.5487L963.688 51.5487L963.281 51.7343ZM966.751 53.615L966.429 53.3042L966.429 53.3042L966.751 53.615ZM968.226 52.4833L968.485 52.8483L968.485 52.8483L968.226 52.4833ZM970.596 50.3826L970.153 50.3206L970.153 50.3206L970.596 50.3826ZM971.616 48.218L971.223 48.0047L971.223 48.0047L971.616 48.218ZM972.899 44.678L973.343 44.7302L973.343 44.7302L972.899 44.678ZM973.52 42.157L973.904 42.3855L973.904 42.3855L973.52 42.157ZM975.845 40.1747L975.587 39.809L975.587 39.809L975.845 40.1747ZM977.787 38.6065L977.436 38.3289L977.436 38.3289L977.787 38.6065ZM978.515 37.0407L978.936 37.191L978.936 37.191L978.515 37.0407ZM979.711 35.369L979.739 34.9224L979.739 34.9224L979.711 35.369ZM981.737 35.6587L981.811 35.2175L981.811 35.2175L981.737 35.6587ZM984.402 36.0632L984.456 35.619L984.456 35.619L984.402 36.0632ZM986.245 36.6532L986.469 36.266L986.469 36.266L986.245 36.6532ZM989.726 34.0808L989.351 33.8367L989.351 33.8367L989.726 34.0808ZM989.878 33.8507L989.509 33.597L989.509 33.597L989.878 33.8507ZM991.222 33.5048L991.188 33.0586L991.188 33.0586L991.222 33.5048ZM993.385 33.208L993.462 33.6488L993.462 33.6488L993.385 33.208ZM999.335 31.7429L999.51 32.1548L999.51 32.1548L999.335 31.7429ZM1005.84 28.6191L1005.63 28.2273L1005.63 28.2273L1005.84 28.6191ZM1007.17 24.0143L1006.81 24.2771L1006.81 24.2771L1007.17 24.0143ZM1006.82 23.5148L1006.45 23.7629L1006.45 23.7629L1006.82 23.5148ZM1008.56 17.3099L1008.17 17.5262L1008.17 17.5262L1008.56 17.3099ZM1004.98 14.9284L1005.04 14.4852L1005.04 14.4852L1004.98 14.9284ZM1000.32 13.7482L1000.2 14.1781L1000.2 14.1781L1000.32 13.7482ZM992.543 13.9827L992.635 13.5449L992.635 13.5449L992.543 13.9827ZM988.799 13.7129L988.722 13.2722L988.722 13.2722L988.799 13.7129ZM985.453 15.1743L985.141 14.8533L985.141 14.8533L985.453 15.1743ZM984.027 18.2088L984.454 18.3409L984.454 18.3409L984.027 18.2088ZM983.248 20.065L983.57 20.3758L983.57 20.3758L983.248 20.065ZM982.35 20.9278L982.656 21.2542L982.656 21.2542L982.35 20.9278ZM980.12 23.2848L980.51 23.5041L980.51 23.5041L980.12 23.2848ZM978.752 25.0683L978.417 24.7714L978.417 24.7714L978.752 25.0683ZM978.468 25.3914L978.806 25.6842L978.806 25.6842L978.468 25.3914ZM978.137 25.7659L977.803 25.4683L977.803 25.4683L978.137 25.7659ZM977.005 27.2228L977.349 27.5088L977.382 27.4686L977.406 27.4218L977.005 27.2228ZM971.579 32.5049L971.821 32.8811L971.821 32.8811L971.579 32.5049ZM968.207 34.8527L967.839 34.599L967.839 34.599L968.207 34.8527ZM965.289 41.156L965.328 41.6017L965.509 41.5859L965.627 41.4488L965.289 41.156ZM961.8 43.722L962.212 43.8984L962.212 43.8984L961.8 43.722ZM981.621 28.17L981.174 28.1635L981.174 28.1635L981.621 28.17ZM982.912 25.4096L983.259 25.693L983.264 25.6861L983.27 25.6791L982.912 25.4096ZM983.56 30.2135L983.403 30.6327L983.403 30.6327L983.56 30.2135ZM983.973 30.3805L984.145 29.9675L984.145 29.9675L983.973 30.3805ZM986.075 30.8295L985.923 30.4088L985.923 30.4088L986.075 30.8295ZM987.321 29.922L987.61 30.2637L987.61 30.2637L987.321 29.922ZM989.259 28.5601L989.425 28.9756L989.425 28.9756L989.259 28.5601ZM995.465 27.0531L995.589 26.6232L995.487 26.5939L995.383 26.6131L995.465 27.0531ZM997.894 27.2046L997.678 26.8129L997.678 26.8129L997.894 27.2046ZM998.059 27.1145L998.274 27.507L998.274 27.507L998.059 27.1145ZM1000.45 25.4123L1000.77 25.7156L1000.77 25.7156L1000.45 25.4123ZM1001.28 24.6075L1000.98 24.2751L1000.98 24.2751L1001.28 24.6075ZM1002.02 23.5595L1002.35 23.2477L1002.35 23.2477L1002.02 23.5595ZM1001.72 23.1422L1002.1 22.9064L1002.1 22.9064L1001.72 23.1422ZM1001.07 22.2947L1000.75 22.6065L1000.75 22.6065L1001.07 22.2947ZM1000.41 21.726L1000.13 22.0792L1000.13 22.0792L1000.41 21.726ZM999.846 18.9184L1000.28 19.0424L1000.28 19.0327L1000.28 19.0228L999.846 18.9184ZM999.261 17.7054L999.304 17.26L999.304 17.26L999.261 17.7054ZM998.372 17.23L998.074 17.5633L998.074 17.5633L998.372 17.23ZM993.176 17.2686L993.141 16.8226L993.131 16.8234L993.121 16.8246L993.176 17.2686ZM990.097 18.7984L990.438 19.0874L990.438 19.0874L990.097 18.7984ZM984.681 23.2816L984.369 22.9606L984.369 22.9606L984.681 23.2816ZM964.478 47.975C964.442 47.1071 963.862 46.5789 963.541 46.4073L963.119 47.1961C963.243 47.2627 963.564 47.5444 963.584 48.0115L964.478 47.975ZM964.083 49.5763C964.181 49.2948 964.282 49.0063 964.356 48.745C964.427 48.4921 964.488 48.2182 964.478 47.975L963.584 48.0115C963.587 48.1046 963.562 48.2634 963.495 48.5017C963.43 48.7316 963.339 48.9927 963.238 49.2811L964.083 49.5763ZM963.688 51.5487C963.632 51.4261 963.621 51.187 963.707 50.7949C963.788 50.4218 963.933 50.0046 964.083 49.5763L963.238 49.2811C963.093 49.6966 962.928 50.1678 962.832 50.6044C962.742 51.0219 962.689 51.5138 962.874 51.9199L963.688 51.5487ZM966.429 53.3042C966.417 53.3166 966.34 53.3787 966.065 53.3173C965.806 53.2597 965.481 53.1124 965.138 52.9005C964.8 52.6913 964.469 52.4343 964.203 52.1805C963.927 51.9181 963.753 51.6916 963.688 51.5487L962.874 51.9199C963.011 52.2201 963.284 52.5416 963.586 52.829C963.897 53.1251 964.277 53.4199 964.667 53.6616C965.053 53.9004 965.475 54.1028 965.87 54.1908C966.249 54.2752 966.732 54.2789 967.072 53.9258L966.429 53.3042ZM967.967 52.1183C967.355 52.5525 966.727 52.9953 966.429 53.3042L967.072 53.9258C967.297 53.6936 967.831 53.3123 968.485 52.8483L967.967 52.1183ZM970.153 50.3206C970.157 50.2951 970.151 50.3505 970.015 50.503C969.896 50.6369 969.723 50.7964 969.506 50.9762C969.071 51.335 968.51 51.7336 967.967 52.1183L968.485 52.8483C969.019 52.4691 969.611 52.0503 970.076 51.6662C970.308 51.4745 970.521 51.2811 970.685 51.0969C970.832 50.9311 971.003 50.703 971.04 50.4446L970.153 50.3206ZM971.223 48.0047C970.98 48.4528 970.734 48.9067 970.542 49.297C970.446 49.4924 970.36 49.6782 970.294 49.8439C970.231 50.003 970.174 50.1702 970.153 50.3206L971.04 50.4446C971.045 50.4034 971.069 50.3169 971.125 50.175C971.179 50.0396 971.254 49.8771 971.345 49.6918C971.527 49.3209 971.764 48.8841 972.009 48.4313L971.223 48.0047ZM972.245 45.9116C972.187 46.1127 972.053 46.4164 971.863 46.7954C971.677 47.1675 971.451 47.5841 971.223 48.0047L972.009 48.4313C972.236 48.014 972.469 47.584 972.663 47.1966C972.854 46.8162 973.022 46.4477 973.105 46.1597L972.245 45.9116ZM972.454 44.6259C972.393 45.146 972.341 45.5817 972.245 45.9116L973.105 46.1597C973.225 45.7437 973.285 45.2255 973.343 44.7302L972.454 44.6259ZM973.135 41.9284C972.671 42.7097 972.553 43.7817 972.454 44.6259L973.343 44.7302C973.449 43.8269 973.558 42.9693 973.904 42.3855L973.135 41.9284ZM975.587 39.809C975.105 40.1487 974.599 40.5059 974.169 40.8534C973.749 41.1927 973.354 41.5599 973.135 41.9284L973.904 42.3855C974.035 42.1654 974.318 41.8832 974.731 41.5494C975.134 41.2238 975.615 40.8842 976.103 40.5403L975.587 39.809ZM977.436 38.3289C977.295 38.5079 977.047 38.7302 976.711 38.9916C976.381 39.2489 975.993 39.5227 975.587 39.809L976.103 40.5403C976.504 40.2571 976.91 39.9706 977.261 39.6979C977.606 39.4296 977.926 39.1525 978.138 38.8841L977.436 38.3289ZM978.093 36.8904C977.879 37.4917 977.689 38.0093 977.436 38.3289L978.138 38.8841C978.502 38.4236 978.739 37.7438 978.936 37.191L978.093 36.8904ZM979.739 34.9224C979.183 34.8877 978.835 35.2823 978.626 35.6322C978.412 35.9906 978.245 36.4647 978.093 36.8904L978.936 37.191C979.098 36.7374 979.236 36.3574 979.395 36.0906C979.559 35.8153 979.652 35.8137 979.683 35.8156L979.739 34.9224ZM981.811 35.2175C980.993 35.0791 980.265 34.9552 979.739 34.9224L979.683 35.8156C980.15 35.8447 980.823 35.9579 981.662 36.0999L981.811 35.2175ZM984.456 35.619C983.507 35.5044 982.606 35.352 981.811 35.2175L981.662 36.0999C982.455 36.234 983.375 36.3899 984.349 36.5075L984.456 35.619ZM986.469 36.266C986.095 36.0492 985.576 35.7542 984.456 35.619L984.349 36.5075C985.311 36.6237 985.713 36.8622 986.021 37.0404L986.469 36.266ZM987.112 36.4285C986.95 36.4583 986.861 36.4467 986.794 36.4272C986.711 36.403 986.63 36.3592 986.469 36.266L986.021 37.0404C986.163 37.1225 986.338 37.2267 986.544 37.2866C986.766 37.3511 986.999 37.3595 987.274 37.3086L987.112 36.4285ZM989.351 33.8367C989.11 34.2067 988.693 34.8479 988.237 35.414C988.009 35.6974 987.781 35.9505 987.57 36.1378C987.345 36.3362 987.191 36.4138 987.112 36.4285L987.274 37.3086C987.603 37.2478 987.91 37.0313 988.163 36.808C988.428 36.5736 988.692 36.2773 988.935 35.9748C989.422 35.369 989.862 34.6918 990.101 34.3249L989.351 33.8367ZM989.509 33.597C989.471 33.6528 989.415 33.7382 989.351 33.8367L990.101 34.3249C990.169 34.2212 990.216 34.1481 990.246 34.1043L989.509 33.597ZM991.188 33.0586C990.859 33.0842 990.534 33.1086 990.27 33.1638C990.02 33.216 989.701 33.3182 989.509 33.597L990.246 34.1043C990.23 34.1281 990.244 34.0836 990.453 34.0398C990.648 33.999 990.907 33.9781 991.257 33.9509L991.188 33.0586ZM992.583 32.8957C992.077 32.9892 991.608 33.026 991.188 33.0586L991.257 33.9509C991.675 33.9184 992.188 33.8789 992.746 33.7758L992.583 32.8957ZM993.308 32.7672C993.035 32.8148 992.79 32.8576 992.583 32.8957L992.746 33.7758C992.947 33.7387 993.188 33.6967 993.462 33.6488L993.308 32.7672ZM999.161 31.331C997.506 32.0331 994.927 32.4852 993.308 32.7672L993.462 33.6488C995.046 33.3728 997.741 32.9058 999.51 32.1548L999.161 31.331ZM1005.63 28.2273C1004.99 28.5808 1001.15 30.4862 999.161 31.331L999.51 32.1548C1001.53 31.2982 1005.39 29.3793 1006.06 29.0108L1005.63 28.2273ZM1007.64 25.8845C1007.66 25.9677 1007.64 26.126 1007.51 26.3715C1007.38 26.6062 1007.18 26.8647 1006.94 27.1209C1006.47 27.6383 1005.9 28.0759 1005.63 28.2273L1006.06 29.0108C1006.44 28.8013 1007.08 28.2954 1007.6 27.7273C1007.87 27.4408 1008.12 27.1211 1008.29 26.7971C1008.46 26.4839 1008.6 26.1031 1008.52 25.7219L1007.64 25.8845ZM1006.81 24.2771C1007.21 24.8329 1007.53 25.2825 1007.64 25.8845L1008.52 25.7219C1008.37 24.8925 1007.93 24.2885 1007.54 23.7514L1006.81 24.2771ZM1006.45 23.7629C1006.57 23.9435 1006.69 24.1153 1006.81 24.2771L1007.54 23.7514C1007.42 23.5874 1007.3 23.4299 1007.19 23.2667L1006.45 23.7629ZM1006.74 19.7777C1006.09 20.3498 1005.89 21.1619 1005.91 21.8846C1005.92 22.6028 1006.15 23.3102 1006.45 23.7629L1007.19 23.2667C1007 22.9709 1006.81 22.4331 1006.8 21.8655C1006.79 21.3024 1006.95 20.7879 1007.33 20.4487L1006.74 19.7777ZM1008.17 17.5262C1008.32 17.8096 1008.29 18.0939 1008.02 18.484C1007.74 18.8933 1007.27 19.3104 1006.74 19.7777L1007.33 20.4487C1007.83 20.0047 1008.4 19.5105 1008.75 18.9913C1009.12 18.4527 1009.33 17.791 1008.95 17.0936L1008.17 17.5262ZM1004.92 15.3715C1005.04 15.3878 1005.27 15.4639 1005.59 15.6124C1005.9 15.7552 1006.25 15.9484 1006.61 16.1694C1006.96 16.3905 1007.3 16.6347 1007.58 16.8775C1007.87 17.1258 1008.07 17.3497 1008.17 17.5262L1008.95 17.0936C1008.78 16.7798 1008.48 16.4737 1008.17 16.1998C1007.84 15.9202 1007.46 15.6497 1007.08 15.411C1006.7 15.1721 1006.31 14.9603 1005.96 14.8001C1005.63 14.6456 1005.3 14.5208 1005.04 14.4852L1004.92 15.3715ZM1000.2 14.1781C1000.71 14.3259 1001.69 14.5961 1002.64 14.8424C1003.58 15.0853 1004.52 15.3154 1004.92 15.3715L1005.04 14.4852C1004.71 14.4379 1003.82 14.2243 1002.87 13.9762C1001.92 13.7315 1000.95 13.4634 1000.44 13.3183L1000.2 14.1781ZM994.488 14.6804C994.884 14.6073 996.098 14.4125 997.338 14.2728C997.958 14.203 998.577 14.1477 999.1 14.1276C999.644 14.1067 1000.02 14.1275 1000.2 14.1781L1000.44 13.3183C1000.11 13.2225 999.598 13.2128 999.065 13.2333C998.511 13.2546 997.868 13.3125 997.238 13.3835C995.978 13.5255 994.743 13.7233 994.326 13.8004L994.488 14.6804ZM992.45 14.4205C992.854 14.5058 993.246 14.5888 993.581 14.6419C993.899 14.6922 994.232 14.7278 994.488 14.6804L994.326 13.8004C994.238 13.8166 994.046 13.8093 993.721 13.7579C993.413 13.7093 993.046 13.6317 992.635 13.5449L992.45 14.4205ZM989.332 14.072C989.696 14.0049 990.184 14.0256 990.747 14.1024C991.303 14.1783 991.892 14.3026 992.45 14.4205L992.635 13.5449C992.083 13.4283 991.462 13.2967 990.867 13.2157C990.28 13.1355 989.677 13.0982 989.17 13.192L989.332 14.072ZM988.877 14.1536C989.023 14.1278 989.175 14.101 989.332 14.072L989.17 13.192C989.017 13.2202 988.868 13.2464 988.722 13.2722L988.877 14.1536ZM985.765 15.4954C986.756 14.5326 987.606 14.3777 988.877 14.1536L988.722 13.2722C987.435 13.4991 986.343 13.6868 985.141 14.8533L985.765 15.4954ZM984.454 18.3409C984.624 17.79 984.8 17.2229 985.017 16.7101C985.235 16.1934 985.479 15.7728 985.765 15.4954L985.141 14.8533C984.728 15.2542 984.428 15.8041 984.192 16.3616C983.955 16.9231 983.767 17.534 983.599 18.0767L984.454 18.3409ZM983.57 20.3758C983.787 20.1503 983.945 19.8174 984.073 19.4888C984.205 19.1483 984.329 18.7459 984.454 18.3409L983.599 18.0767C983.471 18.4907 983.357 18.8599 983.238 19.1646C983.115 19.4811 983.01 19.6668 982.926 19.7542L983.57 20.3758ZM982.656 21.2542C983.015 20.9175 983.349 20.6044 983.57 20.3758L982.926 19.7542C982.724 19.9628 982.41 20.2576 982.043 20.6014L982.656 21.2542ZM980.51 23.5041C980.635 23.2813 980.939 22.9305 981.354 22.5074C981.758 22.0961 982.229 21.6542 982.656 21.2542L982.043 20.6014C981.62 20.9986 981.135 21.4535 980.715 21.8805C980.308 22.2958 979.921 22.7249 979.73 23.0656L980.51 23.5041ZM979.087 25.3653C979.537 24.8584 980.112 24.2127 980.51 23.5041L979.73 23.0656C979.387 23.6761 978.879 24.251 978.417 24.7714L979.087 25.3653ZM978.806 25.6842C978.893 25.584 978.987 25.4783 979.087 25.3653L978.417 24.7714C978.318 24.8834 978.22 24.9934 978.129 25.0986L978.806 25.6842ZM978.471 26.0635C978.586 25.9345 978.701 25.8061 978.806 25.6842L978.129 25.0986C978.029 25.2148 977.919 25.3382 977.803 25.4683L978.471 26.0635ZM977.406 27.4218C977.487 27.2579 977.635 27.0478 977.832 26.8034C978.027 26.563 978.25 26.3116 978.471 26.0635L977.803 25.4683C977.585 25.7131 977.347 25.9808 977.136 26.2409C976.929 26.497 976.731 26.769 976.604 27.0239L977.406 27.4218ZM975.762 29.734C975.775 29.8042 975.754 29.8307 975.775 29.7691C975.79 29.7227 975.82 29.6541 975.869 29.5625C975.965 29.3805 976.111 29.1513 976.285 28.9006C976.63 28.4016 977.06 27.8571 977.349 27.5088L976.661 26.9369C976.361 27.2979 975.914 27.8639 975.549 28.3909C975.367 28.6532 975.198 28.916 975.078 29.144C975.018 29.2574 974.964 29.3735 974.927 29.4836C974.895 29.5786 974.852 29.7336 974.882 29.8967L975.762 29.734ZM971.821 32.8811C972.751 32.2828 973.705 31.6683 974.422 31.1718C974.778 30.9244 975.087 30.6991 975.306 30.5154C975.414 30.4251 975.515 30.3332 975.59 30.2457C975.627 30.2027 975.671 30.1463 975.705 30.0802C975.734 30.0244 975.792 29.8955 975.762 29.734L974.882 29.8967C974.858 29.7664 974.906 29.6765 974.911 29.667C974.922 29.647 974.927 29.6441 974.912 29.6612C974.884 29.694 974.827 29.7495 974.732 29.8293C974.545 29.9858 974.264 30.1924 973.912 30.4362C973.211 30.9221 972.271 31.5274 971.337 32.1286L971.821 32.8811ZM968.576 35.1063C968.572 35.1118 968.588 35.0901 968.648 35.0356C968.703 34.9865 968.778 34.9251 968.874 34.8516C969.065 34.7048 969.322 34.5234 969.627 34.3159C970.237 33.9012 971.02 33.3971 971.821 32.8811L971.337 32.1286C970.539 32.6426 969.745 33.1535 969.124 33.5758C968.813 33.7867 968.54 33.9793 968.329 34.1416C968.223 34.2226 968.129 34.2995 968.05 34.3699C967.978 34.4351 967.897 34.5141 967.839 34.599L968.576 35.1063ZM967.644 38.4393C967.649 38.4672 967.643 38.4483 967.654 38.3372C967.664 38.245 967.682 38.1223 967.708 37.975C967.759 37.6813 967.84 37.3091 967.938 36.924C968.035 36.5387 968.149 36.1473 968.264 35.8139C968.385 35.4683 968.494 35.2248 968.576 35.1063L967.839 34.599C967.683 34.8245 967.542 35.1679 967.419 35.5201C967.292 35.8845 967.172 36.3018 967.07 36.7039C966.968 37.1063 966.883 37.5003 966.826 37.8195C966.798 37.9786 966.776 38.124 966.764 38.2452C966.753 38.3473 966.743 38.4869 966.764 38.6019L967.644 38.4393ZM965.627 41.4488C965.961 41.0634 966.459 40.4666 966.869 39.928C967.073 39.6599 967.262 39.398 967.398 39.1801C967.466 39.0723 967.528 38.9642 967.572 38.8652C967.594 38.8158 967.616 38.7585 967.632 38.6979C967.645 38.6442 967.664 38.5488 967.644 38.4393L966.764 38.6019C966.756 38.5611 966.757 38.529 966.759 38.5114C966.761 38.4932 966.763 38.4813 966.764 38.4776C966.766 38.4712 966.765 38.4775 966.755 38.4999C966.735 38.5444 966.698 38.6125 966.64 38.7053C966.525 38.8886 966.356 39.1252 966.157 39.3858C965.762 39.9047 965.277 40.4863 964.951 40.8632L965.627 41.4488ZM962.212 43.8984C962.93 42.2247 964.599 41.6659 965.328 41.6017L965.25 40.7102C964.325 40.7916 962.283 41.4631 961.389 43.5456L962.212 43.8984ZM963.454 46.3718C963.094 46.268 962.607 46.0112 962.304 45.6066C962.026 45.2345 961.869 44.6958 962.212 43.8984L961.389 43.5455C960.925 44.6263 961.111 45.5054 961.588 46.1426C962.04 46.7474 962.72 47.0914 963.206 47.2316L963.454 46.3718ZM982.068 28.1766C982.074 27.8038 982.249 27.3206 982.508 26.8329C982.761 26.3569 983.063 25.9321 983.259 25.693L982.566 25.1262C982.337 25.4059 982.001 25.8796 981.718 26.4133C981.44 26.9353 981.182 27.5729 981.174 28.1635L982.068 28.1766ZM983.716 29.7944C983.408 29.679 982.973 29.4895 982.624 29.2057C982.279 28.9252 982.062 28.5925 982.068 28.1766L981.174 28.1635C981.162 28.9516 981.592 29.5201 982.06 29.9001C982.523 30.2768 983.067 30.5069 983.403 30.6327L983.716 29.7944ZM984.145 29.9675C983.995 29.905 983.847 29.843 983.716 29.7944L983.403 30.6327C983.514 30.6742 983.646 30.729 983.801 30.7935L984.145 29.9675ZM985.923 30.4088C985.787 30.4581 985.544 30.45 985.184 30.3515C984.842 30.2577 984.481 30.1075 984.145 29.9675L983.801 30.7935C984.126 30.9293 984.541 31.1031 984.948 31.2146C985.337 31.3214 985.815 31.4 986.228 31.2502L985.923 30.4088ZM987.032 29.5802C986.78 29.7935 986.554 29.9847 986.354 30.1366C986.145 30.295 986.005 30.3791 985.923 30.4088L986.228 31.2502C986.448 31.1704 986.681 31.0118 986.895 30.8494C987.117 30.6804 987.363 30.4726 987.61 30.2637L987.032 29.5802ZM989.093 28.1446C988.392 28.4247 987.629 29.076 987.032 29.5802L987.61 30.2637C988.249 29.7238 988.889 29.1897 989.425 28.9756L989.093 28.1446ZM992.48 27.1495C991.639 27.3049 990.239 27.6865 989.093 28.1446L989.425 28.9756C990.515 28.5401 991.858 28.1745 992.643 28.0295L992.48 27.1495ZM995.383 26.6131L992.48 27.1495L992.643 28.0295L995.546 27.4931L995.383 26.6131ZM997.678 26.8129C997.633 26.8381 997.53 26.8691 997.35 26.8802C997.178 26.8907 996.974 26.8812 996.755 26.8566C996.318 26.8073 995.866 26.7032 995.589 26.6232L995.341 27.4831C995.655 27.5739 996.157 27.6899 996.655 27.7459C996.905 27.7739 997.164 27.7882 997.405 27.7734C997.637 27.7591 997.895 27.7156 998.111 27.5963L997.678 26.8129ZM997.844 26.7219C997.787 26.7532 997.731 26.7837 997.678 26.8129L998.111 27.5963C998.162 27.5681 998.216 27.5385 998.274 27.507L997.844 26.7219ZM1000.12 25.1091C999.437 25.8464 998.514 26.3553 997.844 26.7219L998.274 27.507C998.928 27.1487 999.981 26.5767 1000.77 25.7156L1000.12 25.1091ZM1000.98 24.2751C1000.72 24.5151 1000.4 24.7993 1000.12 25.1091L1000.77 25.7156C1001.03 25.4413 1001.31 25.1842 1001.58 24.9398L1000.98 24.2751ZM1001.7 23.8712C1001.67 23.8419 1001.65 23.7966 1001.63 23.7389C1001.62 23.6846 1001.63 23.6434 1001.63 23.6261C1001.64 23.6038 1001.64 23.6243 1001.58 23.6983C1001.46 23.8416 1001.26 24.026 1000.98 24.2751L1001.58 24.9398C1001.84 24.7109 1002.1 24.4727 1002.27 24.2622C1002.36 24.1593 1002.45 24.02 1002.5 23.857C1002.55 23.6612 1002.52 23.4298 1002.35 23.2477L1001.7 23.8712ZM1001.34 23.378C1001.43 23.5295 1001.54 23.7046 1001.7 23.8712L1002.35 23.2477C1002.26 23.1613 1002.2 23.0686 1002.1 22.9064L1001.34 23.378ZM1000.75 22.6065C1001.06 22.9299 1001.21 23.1658 1001.34 23.378L1002.1 22.9064C1001.96 22.675 1001.77 22.3753 1001.39 21.983L1000.75 22.6065ZM1000.13 22.0792C1000.35 22.2524 1000.56 22.4159 1000.75 22.6065L1001.39 21.983C1001.16 21.7407 1000.9 21.5405 1000.68 21.3727L1000.13 22.0792ZM999.147 20.8488C999.204 21.1545 999.371 21.3921 999.549 21.5791C999.723 21.7622 999.939 21.9294 1000.13 22.0792L1000.68 21.3727C1000.47 21.2118 1000.32 21.0873 1000.2 20.9625C1000.08 20.8417 1000.04 20.7554 1000.03 20.6862L999.147 20.8488ZM999.416 18.7943C999.351 19.019 999.261 19.3815 999.197 19.7518C999.137 20.103 999.088 20.5304 999.147 20.8488L1000.03 20.6862C1000 20.5401 1000.02 20.2543 1000.08 19.9028C1000.14 19.5704 1000.22 19.2405 1000.28 19.0424L999.416 18.7943ZM999.219 18.1508C999.302 18.1588 999.334 18.1832 999.35 18.1973C999.37 18.2158 999.395 18.2516 999.415 18.3197C999.457 18.4679 999.445 18.6706 999.411 18.814L1000.28 19.0228C1000.34 18.7892 1000.37 18.4182 1000.27 18.0706C1000.22 17.8908 1000.13 17.6981 999.959 17.5419C999.786 17.3814 999.564 17.2849 999.304 17.26L999.219 18.1508ZM998.074 17.5633C998.304 17.7697 998.655 18.0968 999.219 18.1508L999.304 17.26C999.066 17.2371 998.915 17.1149 998.671 16.8966L998.074 17.5633ZM997.503 17.2846C997.616 17.2636 997.688 17.2817 997.755 17.3162C997.844 17.3612 997.93 17.4349 998.074 17.5633L998.671 16.8966C998.415 16.6672 998.01 16.2808 997.34 16.4046L997.503 17.2846ZM993.212 17.7147C994.342 17.6245 996.823 17.4101 997.503 17.2846L997.34 16.4046C996.719 16.5194 994.299 16.7302 993.141 16.8226L993.212 17.7147ZM990.438 19.0874C990.81 18.648 991.344 18.3211 991.886 18.0925C992.426 17.8648 992.939 17.7491 993.232 17.7127L993.121 16.8246C992.748 16.871 992.155 17.0078 991.539 17.268C990.924 17.5273 990.251 17.9238 989.755 18.5093L990.438 19.0874ZM987.545 21.8864C987.616 21.8733 987.669 21.8459 987.686 21.8371C987.71 21.8242 987.732 21.8107 987.748 21.8003C987.78 21.7792 987.812 21.7544 987.843 21.7303C987.905 21.6811 987.983 21.6151 988.069 21.538C988.244 21.3825 988.473 21.167 988.731 20.914C989.246 20.4082 989.885 19.7413 990.438 19.0874L989.755 18.5093C989.224 19.1365 988.605 19.7829 988.104 20.2755C987.853 20.5217 987.635 20.7266 987.474 20.8695C987.393 20.9415 987.331 20.9942 987.289 21.0277C987.267 21.0449 987.256 21.0525 987.254 21.0541C987.252 21.055 987.259 21.0505 987.271 21.044C987.276 21.0417 987.319 21.0182 987.382 21.0064L987.545 21.8864ZM984.992 23.6026C985.259 23.3438 985.885 22.9141 986.497 22.5279C986.795 22.3397 987.077 22.1696 987.29 22.0459C987.397 21.9839 987.485 21.935 987.547 21.9018C987.578 21.885 987.6 21.8741 987.612 21.8682C987.619 21.865 987.619 21.8651 987.615 21.8667C987.613 21.8676 987.607 21.87 987.598 21.8729C987.591 21.8752 987.572 21.8815 987.545 21.8864L987.382 21.0064C987.331 21.0158 987.29 21.0328 987.28 21.037C987.261 21.0446 987.243 21.0527 987.228 21.0599C987.197 21.0744 987.162 21.0926 987.125 21.1123C987.05 21.1523 986.953 21.2069 986.841 21.2716C986.618 21.4014 986.326 21.5775 986.019 21.7712C985.421 22.149 984.713 22.6261 984.369 22.9606L984.992 23.6026ZM983.27 25.6791C983.66 25.1619 984.533 24.0489 984.992 23.6026L984.369 22.9606C983.851 23.4635 982.937 24.6342 982.555 25.1402L983.27 25.6791Z" fill="#3EFFFF" fill-opacity="0.988542"/>
<path d="M987.215 24.6187C986.767 24.7974 985.921 26.4989 985.554 27.3273L986.84 26.4892C987.177 26.1467 987.982 25.3896 988.505 25.1008C989.159 24.7398 989.128 25.2258 989.963 25.1917C990.797 25.1576 990.986 24.8825 991.218 24.8396C991.404 24.8053 992.54 24.195 993.085 23.8942L994.827 23.5724C995.292 23.4866 995.597 23.19 995.692 23.0524C995.857 22.8618 996.062 22.4556 995.563 22.3556C994.939 22.2307 995.077 22.3254 993.851 22.1916C992.626 22.0578 992.922 22.3632 991.92 22.7885C990.918 23.2139 990.621 22.9084 989.714 23.1962C988.988 23.4264 988.737 23.9771 988.703 24.2236C988.393 24.2808 987.662 24.4399 987.215 24.6187Z" fill="#3EFFFF" fill-opacity="0.988542" stroke="#3EFFFF" stroke-opacity="0.988542" stroke-width="0.89494"/>
<path d="M956.554 31.4712C956.866 31.1046 956.822 29.2047 956.761 28.3006L956.014 29.6416C955.875 30.1017 955.516 31.1466 955.188 31.646C954.778 32.2701 954.578 31.8261 953.856 32.2451C953.133 32.6642 953.094 32.9958 952.909 33.1421C952.76 33.2591 952.04 34.3285 951.698 34.8486L950.307 35.9453C949.936 36.2378 949.804 36.6426 949.784 36.8084C949.727 37.0539 949.735 37.5089 950.223 37.3648C950.833 37.1847 950.667 37.1651 951.814 36.7121C952.96 36.2592 952.556 36.1273 953.244 35.2838C953.932 34.4403 954.337 34.5723 955.006 33.8946C955.541 33.3525 955.506 32.7486 955.421 32.5144C955.669 32.3194 956.241 31.8378 956.554 31.4712Z" fill="#3EFFFF" fill-opacity="0.988542" stroke="#3EFFFF" stroke-opacity="0.988542" stroke-width="0.894941"/>
<path d="M980.857 38.5456C980.918 39.4497 980.962 41.3496 980.65 41.7162C980.337 42.0829 979.765 42.5644 979.517 42.7594C979.602 42.9936 980.14 43.8787 979.605 44.4208C978.936 45.0985 978.696 44.6808 978.008 45.5243C977.319 46.3677 977.056 46.5042 975.91 46.9572C974.763 47.4101 974.929 47.4297 974.319 47.6098C973.831 47.7539 973.823 47.2989 973.88 47.0534C973.9 46.8876 974.032 46.4828 974.403 46.1903C974.774 45.8979 974.933 45.0966 975.242 44.8529C975.108 44.6129 975.047 44.525 975.024 44.4974C975.013 44.4889 975.008 44.4775 975.024 44.4974C975.063 44.5246 975.181 44.5218 974.965 43.3568C974.901 43.0084 975.276 42.8645 975.998 42.4455C976.72 42.0264 977.128 42.3048 977.538 41.6806C977.866 41.1813 978.279 40.8973 978.418 40.4372L980.857 38.5456Z" fill="#3EFFFF" fill-opacity="0.988542"/>
<path d="M980.857 38.5456C980.918 39.4497 980.962 41.3496 980.65 41.7162C980.337 42.0829 979.765 42.5644 979.517 42.7594C979.602 42.9936 980.14 43.8787 979.605 44.4208C978.936 45.0985 978.696 44.6808 978.008 45.5243C977.319 46.3677 977.056 46.5042 975.91 46.9572C974.763 47.4101 974.929 47.4297 974.319 47.6098C973.831 47.7539 973.823 47.2989 973.88 47.0534C973.9 46.8876 974.032 46.4828 974.403 46.1903C974.774 45.8979 974.933 45.0966 975.242 44.8529C974.703 43.8856 975.341 45.3884 974.965 43.3568C974.901 43.0084 975.276 42.8645 975.998 42.4455C976.72 42.0264 977.128 42.3048 977.538 41.6806C977.866 41.1813 978.279 40.8973 978.418 40.4372L980.857 38.5456Z" stroke="#3EFFFF" stroke-opacity="0.988542" stroke-width="0.894941"/>
</g>
<defs>
<clipPath id="clip0_781_520">
<rect width="1016.79" height="1525.18" fill="white"/>
</clipPath>
</defs>
</svg>
