<svg width="77" height="57" viewBox="0 0 77 57" fill="none" xmlns="http://www.w3.org/2000/svg">
<path d="M19.0794 12.6894C18.6513 13.0345 20.8126 10.741 22.2415 9.66294C24.0908 8.97236 23.9647 8.2204 24.7519 8.07496C25.5391 7.92951 27.1915 8.69035 28.0739 9.69021C28.9564 10.6901 28.5103 12.0517 28.7181 13.1762C28.9258 14.3008 24.5125 16.9186 23.7167 17.6471C22.921 18.3755 22.1727 21.8088 21.2438 22.4456C20.3148 23.0824 19.3751 23.1009 19.133 24.3086C18.891 25.5162 19.2402 27.5219 18.6094 28.398C17.8691 29.4264 14.2685 31.8981 13.0676 35.4692C12.6924 36.5851 14.0027 40.5295 17.2381 41.6761C21.1184 43.0512 24.9531 36.2966 26.7573 34.1026C29.1591 31.1818 28.5435 28.0355 29.052 27.0112C29.5605 25.9869 31.7383 23.2975 32.3299 22.723C33.2064 21.8718 34.5514 21.4597 35.3466 18.9094C36.2429 16.0345 36.8979 13.3897 37.2854 12.9692C37.6729 12.5487 40.6382 12.2334 41.8128 11.6675C42.9875 11.1016 44.6107 13.5926 45.0727 14.205C45.4423 14.6949 44.6734 16.4496 44.2427 17.2657C43.6967 18.2969 42.5314 20.4659 42.2381 20.8922C41.8714 21.4251 37.3576 23.4996 38.7353 25.222C39.3869 26.0365 41.1909 25.5048 41.1991 25.9684C40.5671 26.7442 39.324 28.4081 39.4072 28.858C39.4903 29.3078 37.4005 30.5855 36.3453 31.1681C35.215 31.7646 32.867 33.1132 32.517 33.7361C32.1669 34.359 31.6483 36.3775 31.4328 37.3089C31.009 38.1625 29.9999 39.8762 29.3536 39.9026C28.5456 39.9356 26.9126 41.1677 26.4041 42.192C25.8957 43.2162 28.119 44.5498 27.723 45.5533C27.327 46.5568 23.9986 48.6836 22.8863 49.5869C21.774 50.4901 16.8933 49.8802 15.7896 50.2004C14.6858 50.5206 11.0299 48.9866 9.61816 48.8986C8.20641 48.8106 6.46218 46.9233 6.24584 46.3818C6.02949 45.8403 6.39253 44.0289 6.89246 43.5876C7.2924 43.2347 6.3241 41.5607 5.78996 40.7678C5.62089 40.0625 5.39689 38.5146 5.85355 37.965C6.42437 37.2781 5.56266 36.3907 5.47954 35.9409C5.39643 35.4911 7.22136 33.4095 8.07942 33.0184C8.93748 32.6273 7.23848 32.2434 7.6223 30.5444C8.00612 28.8454 8.9143 28.0962 10.2307 27.0389C11.5472 25.9816 11.1988 22.2083 12.1865 20.6304C13.1741 19.0524 17.8829 15.5851 18.4329 14.7857C18.983 13.9864 19.7655 12.1362 19.0794 12.6894Z" fill="black" stroke="black" stroke-width="0.305275"/>
<path fill-rule="evenodd" clip-rule="evenodd" d="M27.6813 45.3282C27.8964 45.4435 28.3333 45.8357 28.3597 46.482C28.373 46.8078 28.194 47.3202 28.0012 47.8721C27.7158 48.6892 27.4001 49.5928 27.6336 50.1049C28.0247 50.963 30.3104 52.6339 30.9937 51.9262C31.2467 51.6641 31.8093 51.2651 32.4226 50.8302C33.4655 50.0906 34.655 49.247 34.7181 48.7959C34.77 48.4248 35.2324 47.5721 35.7054 46.6997C36.1454 45.8883 36.5946 45.0599 36.7312 44.5863C36.8355 44.2251 36.8897 43.7632 36.9474 43.2716C37.0467 42.4254 37.1563 41.4911 37.549 40.8302C37.8877 40.2601 38.8623 39.5725 39.8006 38.9105C40.5823 38.359 41.3389 37.8252 41.6817 37.3919C41.9805 37.0141 42.1872 36.4344 42.3864 35.8756C42.69 35.024 42.9762 34.2212 43.5445 34.2567C44.0253 34.2867 44.7038 34.4015 45.5063 34.5373C46.2748 34.6673 47.1568 34.8166 48.0878 34.929C49.096 35.0507 49.542 35.309 49.8722 35.5003C50.1653 35.67 50.3673 35.787 50.7903 35.7088C51.5814 35.5627 52.7789 33.7228 53.2433 33.0091C53.3071 32.9112 53.357 32.8345 53.3902 32.7863C53.5601 32.5393 54.0354 32.5024 54.6923 32.4513C55.0983 32.4198 55.5736 32.3829 56.089 32.2876C56.286 32.2512 56.5218 32.2102 56.7869 32.164C58.3376 31.8937 60.8912 31.4487 62.5489 30.7452C64.4899 29.9213 68.218 28.0696 68.8511 27.72C69.4843 27.3704 71.1882 25.8927 71.022 24.9931C70.8939 24.3001 70.5236 23.7898 70.1396 23.2607C70.0251 23.1029 69.9094 22.9435 69.7985 22.777C69.3157 22.0522 69.004 20.3654 70.0039 19.4829C71.0037 18.6004 72.0036 17.7179 71.4792 16.7682C70.9548 15.8184 68.7329 14.5622 68.0167 14.4619C67.3004 14.3617 64.4854 13.6026 63.5027 13.319C62.52 13.0354 58.5634 13.6502 57.7762 13.7957C57.443 13.8572 56.7594 13.7128 55.9707 13.5461C54.8959 13.319 53.6262 13.0507 52.7831 13.2065C52.633 13.2342 52.4875 13.2599 52.3458 13.2848C51.1076 13.5032 50.1669 13.6691 49.1051 14.7001C48.4286 15.357 48.0509 16.5797 47.7238 17.6387C47.4788 18.4318 47.2621 19.1332 46.9695 19.4363C46.7651 19.648 46.4512 19.9423 46.0998 20.2718C45.2764 21.0438 44.2473 22.0086 43.9406 22.5543C43.5816 23.1931 43.0573 23.7841 42.616 24.2815C42.5193 24.3904 42.4267 24.4949 42.3406 24.5943C42.2408 24.7096 42.1322 24.8316 42.0205 24.957C41.5955 25.4343 41.1252 25.9624 40.9239 26.3679C40.3531 27.0548 39.2281 28.5187 39.2946 28.8785C39.3393 29.1205 37.474 30.3214 35.6696 31.4831C34.1204 32.4805 32.6161 33.4489 32.4044 33.7567C31.946 34.4228 31.3703 36.9713 31.4326 37.3087C31.4825 37.5786 30.2172 39.1226 29.5784 39.8608C28.7773 39.9313 26.9802 40.527 26.1999 42.3457C25.4196 44.1645 26.8624 45.0919 27.6813 45.3282ZM46.6468 24.6128C46.2356 25.1151 45.41 26.3531 45.3963 27.2859C45.3792 28.452 46.6492 29.0314 47.2738 29.2649C47.3907 29.3085 47.5262 29.3651 47.6737 29.4266C48.314 29.6936 49.1783 30.0541 49.7098 29.8614C50.0022 29.7553 50.4328 29.3913 50.9165 28.9825C51.5146 28.477 52.1937 27.9029 52.7925 27.6637C53.8754 27.231 55.2041 26.8692 55.9912 26.7238L58.8026 26.2043C59.3758 26.3697 60.649 26.6307 61.1555 26.351C61.2059 26.3232 61.2591 26.2941 61.3146 26.2637C61.956 25.9127 62.9126 25.3893 63.6258 24.6154C63.8864 24.3325 64.1772 24.0705 64.4374 23.8359C64.9509 23.373 65.3455 23.0173 65.1549 22.821C65.0359 22.6985 64.9555 22.5689 64.8614 22.417C64.7282 22.2021 64.5674 21.9428 64.2309 21.5963C64.0273 21.3867 63.8008 21.2106 63.5885 21.0455C63.2015 20.7446 62.8618 20.4803 62.7947 20.1173C62.7116 19.6675 62.9271 18.7361 63.0453 18.3266C63.1329 17.9615 63.1423 17.2155 62.4793 17.152C62.0908 17.1147 61.8479 16.8971 61.6183 16.6915C61.3582 16.4586 61.1153 16.2411 60.6972 16.3183C60.0675 16.4347 57.6944 16.6406 56.5866 16.729C55.9425 16.8092 54.4441 17.2179 53.6042 18.2104C52.5542 19.451 51.1669 20.754 51.0544 20.7747C50.942 20.7955 48.9508 21.9775 48.3592 22.5519C47.8859 23.0115 47.0204 24.1173 46.6468 24.6128Z" fill="black"/>
<path d="M28.3597 46.482L28.2072 46.4883L28.2072 46.4883L28.3597 46.482ZM27.6813 45.3282L27.7534 45.1936L27.7392 45.186L27.7236 45.1815L27.6813 45.3282ZM28.0012 47.8721L28.1453 47.9225L28.1453 47.9225L28.0012 47.8721ZM27.6336 50.1049L27.7725 50.0416L27.7725 50.0416L27.6336 50.1049ZM30.9937 51.9262L30.8839 51.8202L30.8839 51.8202L30.9937 51.9262ZM32.4226 50.8302L32.5109 50.9547L32.5109 50.9547L32.4226 50.8302ZM34.7181 48.7959L34.5669 48.7748L34.5669 48.7748L34.7181 48.7959ZM35.7054 46.6997L35.5712 46.6269L35.5712 46.6269L35.7054 46.6997ZM36.9474 43.2716L36.7958 43.2538L36.7958 43.2538L36.9474 43.2716ZM37.549 40.8302L37.4178 40.7522L37.4178 40.7522L37.549 40.8302ZM39.8006 38.9105L39.8886 39.0352L39.8886 39.0352L39.8006 38.9105ZM41.6817 37.3919L41.8014 37.4866L41.8014 37.4866L41.6817 37.3919ZM42.3864 35.8756L42.2426 35.8243L42.3864 35.8756ZM43.5445 34.2567L43.554 34.1043L43.554 34.1043L43.5445 34.2567ZM45.5063 34.5373L45.5318 34.3868L45.5318 34.3868L45.5063 34.5373ZM48.0878 34.929L48.0695 35.0805L48.0695 35.0805L48.0878 34.929ZM49.8722 35.5003L49.7957 35.6324L49.7957 35.6324L49.8722 35.5003ZM53.2433 33.0091L53.3713 33.0924L53.3713 33.0924L53.2433 33.0091ZM53.3902 32.7863L53.5159 32.8728L53.5159 32.8728L53.3902 32.7863ZM54.6923 32.4513L54.7041 32.6035L54.7041 32.6035L54.6923 32.4513ZM56.7869 32.164L56.8131 32.3143L56.8131 32.3143L56.7869 32.164ZM62.5489 30.7452L62.4893 30.6047L62.4893 30.6047L62.5489 30.7452ZM68.8511 27.72L68.7774 27.5864L68.7774 27.5864L68.8511 27.72ZM70.1396 23.2607L70.2631 23.171L70.2631 23.171L70.1396 23.2607ZM69.7985 22.777L69.9255 22.6924L69.9255 22.6924L69.7985 22.777ZM68.0167 14.4619L67.9955 14.6131L67.9955 14.6131L68.0167 14.4619ZM63.5027 13.319L63.545 13.1724L63.545 13.1724L63.5027 13.319ZM55.9707 13.5461L56.0023 13.3968L56.0023 13.3968L55.9707 13.5461ZM52.3458 13.2848L52.3193 13.1345L52.3193 13.1345L52.3458 13.2848ZM49.1051 14.7001L49.2115 14.8096L49.2115 14.8096L49.1051 14.7001ZM47.7238 17.6387L47.8696 17.6837L47.8696 17.6837L47.7238 17.6387ZM46.9695 19.4363L46.8597 19.3303L46.8597 19.3303L46.9695 19.4363ZM46.0998 20.2718L45.9954 20.1604L45.9954 20.1604L46.0998 20.2718ZM43.9406 22.5543L44.0737 22.6291L44.0737 22.6291L43.9406 22.5543ZM42.616 24.2815L42.5018 24.1802L42.5018 24.1802L42.616 24.2815ZM42.3406 24.5943L42.456 24.6942L42.456 24.6942L42.3406 24.5943ZM42.0205 24.957L41.9065 24.8555L41.9065 24.8555L42.0205 24.957ZM40.9239 26.3679L41.0413 26.4655L41.0527 26.4518L41.0606 26.4358L40.9239 26.3679ZM35.6696 31.4831L35.587 31.3547L35.587 31.3547L35.6696 31.4831ZM32.4044 33.7567L32.2786 33.6701L32.2786 33.6701L32.4044 33.7567ZM29.5784 39.8608L29.5917 40.0129L29.6533 40.0075L29.6938 39.9607L29.5784 39.8608ZM26.1999 42.3457L26.3402 42.4059L26.3402 42.4059L26.1999 42.3457ZM45.3963 27.2859L45.2437 27.2837L45.2437 27.2837L45.3963 27.2859ZM46.6468 24.6128L46.765 24.7095L46.7686 24.7047L46.6468 24.6128ZM47.2738 29.2649L47.2203 29.4078L47.2203 29.4078L47.2738 29.2649ZM47.6737 29.4266L47.6149 29.5675L47.6149 29.5675L47.6737 29.4266ZM49.7098 29.8614L49.6578 29.7179L49.6578 29.7179L49.7098 29.8614ZM50.9165 28.9825L50.8179 28.8659L50.8179 28.8659L50.9165 28.9825ZM52.7925 27.6637L52.8491 27.8054L52.8491 27.8054L52.7925 27.6637ZM58.8026 26.2043L58.8449 26.0577L58.8103 26.0477L58.7748 26.0542L58.8026 26.2043ZM61.1555 26.351L61.2293 26.4846L61.2293 26.4846L61.1555 26.351ZM61.3146 26.2637L61.2413 26.1298L61.2413 26.1298L61.3146 26.2637ZM63.6258 24.6154L63.738 24.7188L63.738 24.7188L63.6258 24.6154ZM64.4374 23.8359L64.5396 23.9493L64.5396 23.9493L64.4374 23.8359ZM65.1549 22.821L65.0454 22.9274L65.0454 22.9274L65.1549 22.821ZM64.8614 22.417L64.9911 22.3365L64.9911 22.3365L64.8614 22.417ZM64.2309 21.5963L64.1214 21.7026L64.1214 21.7026L64.2309 21.5963ZM63.5885 21.0455L63.4948 21.166L63.4948 21.166L63.5885 21.0455ZM63.0453 18.3266L63.1921 18.369L63.1937 18.3622L63.0453 18.3266ZM62.4793 17.152L62.4939 17L62.4939 17L62.4793 17.152ZM61.6183 16.6915L61.7201 16.5778L61.7201 16.5778L61.6183 16.6915ZM56.5866 16.729L56.5745 16.5767L56.5677 16.5775L56.5866 16.729ZM53.6042 18.2104L53.7207 18.309L53.7207 18.309L53.6042 18.2104ZM48.3592 22.5519L48.4655 22.6615L48.4655 22.6615L48.3592 22.5519ZM28.5122 46.4758C28.483 45.7611 28.0019 45.3268 27.7534 45.1936L27.6092 45.4627C27.7909 45.5601 28.1836 45.9102 28.2072 46.4883L28.5122 46.4758ZM28.1453 47.9225C28.2413 47.6477 28.3359 47.3769 28.4046 47.1338C28.4725 46.8934 28.5199 46.6643 28.5122 46.4758L28.2072 46.4883C28.2128 46.6255 28.1773 46.8154 28.1108 47.0508C28.0451 47.2832 27.9539 47.5447 27.8571 47.8218L28.1453 47.9225ZM27.7725 50.0416C27.6778 49.8339 27.6875 49.5231 27.7719 49.1354C27.855 48.7542 28.0018 48.3332 28.1453 47.9225L27.8571 47.8218C27.7151 48.2282 27.5614 48.6675 27.4737 49.0704C27.3873 49.4668 27.3559 49.8638 27.4947 50.1682L27.7725 50.0416ZM30.8839 51.8202C30.7691 51.939 30.5675 51.9785 30.2686 51.9119C29.9754 51.8465 29.6298 51.6866 29.2844 51.4729C28.9405 51.2602 28.6051 50.9995 28.3327 50.7404C28.0572 50.4784 27.858 50.2293 27.7725 50.0416L27.4947 50.1682C27.6047 50.4096 27.8379 50.6911 28.1223 50.9616C28.4099 51.2351 28.762 51.5087 29.1238 51.7325C29.4841 51.9554 29.8625 52.1341 30.2022 52.2098C30.5363 52.2843 30.8766 52.2673 31.1035 52.0322L30.8839 51.8202ZM32.3343 50.7057C31.7281 51.1356 31.1495 51.545 30.8839 51.8202L31.1035 52.0322C31.3439 51.7832 31.8904 51.3947 32.5109 50.9547L32.3343 50.7057ZM34.5669 48.7748C34.5579 48.8391 34.4999 48.9469 34.3652 49.0987C34.2362 49.2442 34.0559 49.4093 33.8405 49.5871C33.4101 49.9426 32.8571 50.3349 32.3343 50.7057L32.5109 50.9547C33.031 50.5858 33.5941 50.1866 34.0349 49.8225C34.2552 49.6406 34.4493 49.464 34.5936 49.3013C34.7323 49.145 34.8467 48.9782 34.8692 48.8171L34.5669 48.7748ZM35.5712 46.6269C35.3352 47.0623 35.0997 47.4965 34.9169 47.8684C34.8254 48.0545 34.746 48.2271 34.6859 48.378C34.6267 48.5267 34.5825 48.6634 34.5669 48.7748L34.8692 48.8171C34.8796 48.7429 34.9127 48.6338 34.9695 48.491C35.0255 48.3504 35.1011 48.1857 35.1908 48.0031C35.3704 47.6378 35.6027 47.2094 35.8396 46.7724L35.5712 46.6269ZM36.5846 44.544C36.5205 44.766 36.3799 45.0804 36.1956 45.4479C36.0126 45.813 35.7915 46.2207 35.5712 46.6269L35.8396 46.7724C36.0593 46.3673 36.2828 45.9551 36.4685 45.5847C36.653 45.2168 36.8053 44.8802 36.8779 44.6286L36.5846 44.544ZM36.7958 43.2538C36.7376 43.7497 36.6846 44.1975 36.5846 44.544L36.8779 44.6286C36.9864 44.2528 37.0418 43.7768 37.099 43.2893L36.7958 43.2538ZM37.4178 40.7522C37.005 41.4469 36.8939 42.4177 36.7958 43.2538L37.099 43.2893C37.1994 42.4332 37.3075 41.5354 37.6802 40.9081L37.4178 40.7522ZM39.7126 38.7858C39.2445 39.116 38.7619 39.4564 38.354 39.7861C37.9496 40.113 37.6022 40.4419 37.4178 40.7522L37.6802 40.9081C37.8346 40.6484 38.1438 40.3485 38.5459 40.0235C38.9446 39.7013 39.4184 39.3669 39.8886 39.0352L39.7126 38.7858ZM41.5619 37.2972C41.4026 37.4986 41.1402 37.731 40.812 37.9864C40.4857 38.2403 40.1042 38.5095 39.7126 38.7858L39.8886 39.0352C40.2787 38.76 40.6664 38.4865 40.9995 38.2273C41.3307 37.9696 41.6179 37.7185 41.8014 37.4866L41.5619 37.2972ZM42.2426 35.8243C42.0404 36.3914 41.8417 36.9435 41.5619 37.2972L41.8014 37.4866C42.1192 37.0848 42.3339 36.4774 42.5302 35.9268L42.2426 35.8243ZM43.554 34.1043C43.1802 34.081 42.9232 34.3399 42.7351 34.6553C42.5452 34.9737 42.3927 35.4033 42.2426 35.8243L42.5302 35.9268C42.6837 35.4963 42.8261 35.0988 42.9973 34.8117C43.1702 34.5217 43.3405 34.3969 43.535 34.409L43.554 34.1043ZM45.5318 34.3868C44.7329 34.2516 44.0448 34.1349 43.554 34.1043L43.535 34.409C44.0058 34.4384 44.6747 34.5514 45.4809 34.6878L45.5318 34.3868ZM48.1061 34.7774C47.1793 34.6655 46.3006 34.5169 45.5318 34.3868L45.4809 34.6878C46.2489 34.8177 47.1344 34.9676 48.0695 35.0805L48.1061 34.7774ZM49.9487 35.3682C49.6071 35.1703 49.1412 34.9024 48.1061 34.7774L48.0695 35.0805C49.0509 35.199 49.4769 35.4477 49.7957 35.6324L49.9487 35.3682ZM50.7626 35.5587C50.5705 35.5942 50.4387 35.584 50.3251 35.551C50.2061 35.5164 50.0986 35.455 49.9487 35.3682L49.7957 35.6324C49.939 35.7153 50.079 35.7973 50.2399 35.8441C50.4063 35.8925 50.5871 35.9016 50.818 35.8589L50.7626 35.5587ZM53.1154 32.9259C52.8828 33.2832 52.4712 33.9155 52.0203 34.4761C51.7948 34.7566 51.5625 35.0152 51.3409 35.2114C51.1149 35.4114 50.9178 35.5301 50.7626 35.5587L50.818 35.8589C51.0583 35.8145 51.3076 35.6484 51.5431 35.44C51.783 35.2278 52.0275 34.9544 52.2582 34.6674C52.72 34.0932 53.1394 33.4487 53.3713 33.0924L53.1154 32.9259ZM53.2644 32.6998C53.2298 32.7501 53.1786 32.8289 53.1154 32.9259L53.3713 33.0924C53.4356 32.9936 53.4841 32.919 53.5159 32.8728L53.2644 32.6998ZM54.6805 32.2992C54.3557 32.3244 54.0614 32.347 53.8274 32.3959C53.5984 32.4439 53.3849 32.5247 53.2644 32.6998L53.5159 32.8728C53.5654 32.8009 53.6746 32.7398 53.8899 32.6947C54.1003 32.6507 54.3721 32.6293 54.7041 32.6035L54.6805 32.2992ZM56.0613 32.1375C55.5547 32.2311 55.0869 32.2676 54.6805 32.2992L54.7041 32.6035C55.1096 32.572 55.5924 32.5346 56.1167 32.4377L56.0613 32.1375ZM56.7606 32.0136C56.4958 32.0597 56.2592 32.101 56.0613 32.1375L56.1167 32.4377C56.3128 32.4015 56.5477 32.3606 56.8131 32.3143L56.7606 32.0136ZM62.4893 30.6047C60.8512 31.2999 58.3172 31.7424 56.7606 32.0136L56.8131 32.3143C58.358 32.0451 60.9312 31.5976 62.6085 30.8857L62.4893 30.6047ZM68.7774 27.5864C68.1489 27.9334 64.4255 29.7829 62.4893 30.6047L62.6085 30.8857C64.5543 30.0598 68.2871 28.2058 68.9249 27.8536L68.7774 27.5864ZM70.8719 25.0208C70.9041 25.1949 70.8477 25.418 70.7077 25.6769C70.5697 25.9322 70.3615 26.2017 70.1241 26.4594C69.6477 26.9763 69.076 27.4215 68.7774 27.5864L68.9249 27.8536C69.2594 27.6689 69.8563 27.2005 70.3486 26.6662C70.5955 26.3983 70.8217 26.1078 70.9762 25.8221C71.1287 25.5401 71.223 25.2411 71.1721 24.9653L70.8719 25.0208ZM70.0161 23.3503C70.4024 23.8827 70.751 24.3666 70.8719 25.0208L71.1721 24.9653C71.0369 24.2335 70.6448 23.697 70.2631 23.171L70.0161 23.3503ZM69.6714 22.8616C69.7843 23.0311 69.9018 23.193 70.0161 23.3504L70.2631 23.171C70.1483 23.0129 70.0344 22.8559 69.9255 22.6924L69.6714 22.8616ZM69.9029 19.3685C69.3579 19.8494 69.1787 20.5425 69.1926 21.1923C69.2064 21.8406 69.4122 22.4725 69.6714 22.8616L69.9255 22.6924C69.7019 22.3567 69.5105 21.7828 69.4978 21.1858C69.4851 20.5904 69.6499 19.9989 70.1049 19.5973L69.9029 19.3685ZM71.3456 16.842C71.5688 17.2462 71.4793 17.6399 71.1874 18.0642C70.8909 18.4951 70.4073 18.9232 69.9029 19.3685L70.1049 19.5973C70.6003 19.1601 71.1166 18.7057 71.4389 18.2373C71.7657 17.7623 71.914 17.2399 71.6128 16.6944L71.3456 16.842ZM67.9955 14.6131C68.151 14.6348 68.4071 14.7239 68.722 14.8695C69.0328 15.0133 69.3885 15.2062 69.7388 15.4258C70.0894 15.6455 70.432 15.8902 70.718 16.1368C71.0062 16.3854 71.2274 16.628 71.3456 16.842L71.6128 16.6944C71.4688 16.4335 71.2157 16.1629 70.9174 15.9057C70.6169 15.6465 70.261 15.3928 69.901 15.1672C69.5408 14.9414 69.1738 14.7421 68.8502 14.5925C68.5307 14.4447 68.2404 14.3391 68.0378 14.3108L67.9955 14.6131ZM63.4604 13.4657C63.9533 13.6079 64.9041 13.869 65.8213 14.107C66.7339 14.3438 67.6266 14.5615 67.9955 14.6131L68.0378 14.3108C67.6904 14.2621 66.8175 14.0501 65.8979 13.8115C64.9829 13.574 64.0348 13.3137 63.545 13.1724L63.4604 13.4657ZM57.8039 13.9458C58.1939 13.8737 59.3763 13.6842 60.5832 13.5481C61.1866 13.4801 61.7938 13.4258 62.3099 13.4059C62.8332 13.3858 63.2414 13.4025 63.4604 13.4657L63.545 13.1724C63.2726 13.0938 62.8177 13.0809 62.2982 13.1009C61.7714 13.1211 61.156 13.1764 60.549 13.2448C59.3351 13.3816 58.1456 13.5722 57.7485 13.6456L57.8039 13.9458ZM55.9391 13.6954C56.3323 13.7785 56.7046 13.8572 57.0204 13.9072C57.3304 13.9563 57.6086 13.9819 57.8039 13.9458L57.7485 13.6456C57.6106 13.671 57.3804 13.6551 57.0681 13.6057C56.7617 13.5572 56.3978 13.4803 56.0023 13.3968L55.9391 13.6954ZM52.8108 13.3566C53.2078 13.2832 53.7165 13.3085 54.2694 13.3839C54.8201 13.459 55.4007 13.5817 55.9391 13.6954L56.0023 13.3968C55.4659 13.2834 54.8743 13.1583 54.3107 13.0815C53.7493 13.0049 53.2015 12.9739 52.7553 13.0564L52.8108 13.3566ZM52.3723 13.4352C52.5139 13.4102 52.66 13.3844 52.8108 13.3566L52.7553 13.0564C52.606 13.084 52.461 13.1095 52.3193 13.1345L52.3723 13.4352ZM49.2115 14.8096C50.2374 13.8134 51.1367 13.6531 52.3723 13.4352L52.3193 13.1345C51.0784 13.3534 50.0964 13.5248 48.9988 14.5906L49.2115 14.8096ZM47.8696 17.6837C48.0336 17.1528 48.2077 16.5899 48.4241 16.078C48.641 15.5649 48.8949 15.117 49.2115 14.8096L48.9988 14.5906C48.6389 14.9401 48.3657 15.432 48.1429 15.9592C47.9195 16.4876 47.7411 17.0655 47.578 17.5936L47.8696 17.6837ZM47.0793 19.5423C47.2484 19.3672 47.3846 19.091 47.5068 18.7765C47.6305 18.4581 47.7476 18.0788 47.8696 17.6837L47.578 17.5936C47.455 17.9917 47.3412 18.3597 47.2222 18.666C47.1017 18.9763 46.9833 19.2023 46.8597 19.3303L47.0793 19.5423ZM46.2042 20.3831C46.5543 20.0549 46.8717 19.7574 47.0793 19.5423L46.8597 19.3303C46.6586 19.5385 46.3481 19.8298 45.9954 20.1604L46.2042 20.3831ZM44.0737 22.6291C44.2157 22.3764 44.5355 22.0121 44.9354 21.6049C45.3313 21.2016 45.792 20.7696 46.2042 20.3831L45.9954 20.1604C45.5842 20.546 45.1187 20.9824 44.7175 21.391C44.3203 21.7956 43.9722 22.1866 43.8076 22.4796L44.0737 22.6291ZM42.7301 24.3828C43.1694 23.8877 43.7053 23.2846 44.0737 22.6291L43.8076 22.4796C43.458 23.1016 42.9452 23.6805 42.5018 24.1802L42.7301 24.3828ZM42.456 24.6942C42.5414 24.5956 42.6334 24.4919 42.7301 24.3828L42.5018 24.1802C42.4053 24.289 42.312 24.3941 42.2252 24.4945L42.456 24.6942ZM42.1345 25.0586C42.2461 24.9333 42.3554 24.8105 42.456 24.6942L42.2252 24.4945C42.1263 24.6088 42.0184 24.7299 41.9065 24.8555L42.1345 25.0586ZM41.0606 26.4358C41.1536 26.2485 41.3128 26.0257 41.5071 25.7853C41.7002 25.5463 41.9215 25.2977 42.1345 25.0586L41.9065 24.8555C41.6945 25.0936 41.4682 25.3477 41.2696 25.5934C41.0722 25.8378 40.8956 26.0818 40.7872 26.3L41.0606 26.4358ZM39.4447 28.8508C39.4447 28.8511 39.4443 28.849 39.4444 28.8438C39.4445 28.8387 39.445 28.8315 39.4465 28.8218C39.4495 28.8022 39.4559 28.7765 39.4667 28.7442C39.4886 28.6793 39.5252 28.598 39.5758 28.5024C39.6766 28.3117 39.8249 28.0792 39.9957 27.8328C40.3367 27.3408 40.7577 26.8068 41.0413 26.4655L40.8065 26.2704C40.5193 26.616 40.0924 27.1573 39.7448 27.6589C39.5713 27.9093 39.4151 28.1532 39.3059 28.3596C39.2514 28.4626 39.2066 28.5601 39.1774 28.6468C39.15 28.7283 39.1288 28.8215 39.1445 28.9062L39.4447 28.8508ZM35.7523 31.6114C36.6537 31.0311 37.5736 30.4389 38.2625 29.9614C38.6064 29.7229 38.8965 29.5106 39.0988 29.3412C39.1993 29.2571 39.283 29.1795 39.3413 29.1119C39.3702 29.0784 39.3972 29.0424 39.4164 29.0054C39.4339 28.9718 39.4567 28.9157 39.4447 28.8508L39.1445 28.9062C39.1381 28.8716 39.1515 28.8532 39.1457 28.8644C39.1417 28.8721 39.1314 28.8879 39.1101 28.9126C39.0679 28.9615 38.999 29.0266 38.9028 29.1072C38.7115 29.2673 38.4308 29.4732 38.0886 29.7105C37.4049 30.1843 36.49 30.7734 35.587 31.3547L35.7523 31.6114ZM32.5301 33.8432C32.546 33.8201 32.5816 33.7811 32.644 33.7251C32.7044 33.6708 32.7832 33.6065 32.879 33.5329C33.0705 33.3859 33.324 33.2068 33.6213 33.0047C34.2155 32.6008 34.9771 32.1105 35.7523 31.6114L35.587 31.3547C34.8129 31.8531 34.0478 32.3457 33.4497 32.7523C33.1507 32.9555 32.8916 33.1385 32.6931 33.2908C32.594 33.3669 32.5084 33.4365 32.4399 33.498C32.3735 33.5577 32.3157 33.6163 32.2786 33.6701L32.5301 33.8432ZM31.5827 37.2809C31.5794 37.2631 31.5787 37.207 31.5895 37.1022C31.5997 37.0039 31.6182 36.8779 31.644 36.7316C31.6956 36.4391 31.7752 36.0718 31.8712 35.6935C31.9672 35.3151 32.079 34.928 32.1946 34.5954C32.3117 34.2586 32.4281 33.9915 32.5301 33.8432L32.2786 33.6701C32.1515 33.8549 32.0241 34.1561 31.9062 34.4951C31.7869 34.8383 31.6727 35.2343 31.5753 35.6184C31.4778 36.0027 31.3965 36.3774 31.3434 36.6785C31.3169 36.8289 31.297 36.9626 31.2859 37.0708C31.2753 37.1726 31.2702 37.2699 31.2825 37.3364L31.5827 37.2809ZM29.6938 39.9607C30.0145 39.5901 30.4927 39.017 30.8852 38.5016C31.0812 38.2443 31.2579 37.9986 31.3832 37.7985C31.4456 37.6988 31.4976 37.6066 31.5328 37.5278C31.5504 37.4885 31.5654 37.449 31.575 37.4113C31.584 37.3759 31.5916 37.3292 31.5827 37.2809L31.2825 37.3364C31.2798 37.3219 31.2835 37.3188 31.2791 37.3361C31.2753 37.351 31.2676 37.3731 31.2541 37.4032C31.2272 37.4634 31.1836 37.542 31.1244 37.6365C31.0065 37.8249 30.8363 38.0619 30.6423 38.3166C30.255 38.8253 29.7811 39.3933 29.4629 39.7609L29.6938 39.9607ZM26.3402 42.4059C27.0906 40.6569 28.824 40.0804 29.5917 40.0129L29.565 39.7088C28.7307 39.7822 26.8699 40.3971 26.0596 42.2856L26.3402 42.4059ZM27.7236 45.1815C27.3357 45.0696 26.8031 44.7935 26.4631 44.339C26.1314 43.8955 25.9707 43.267 26.3402 42.4059L26.0596 42.2856C25.6487 43.2433 25.8193 43.9879 26.2186 44.5218C26.6097 45.0447 27.208 45.3504 27.639 45.4748L27.7236 45.1815ZM45.5489 27.2882C45.5552 26.8589 45.7509 26.3425 46.0073 25.8595C46.2616 25.3804 46.565 24.9537 46.7649 24.7094L46.5286 24.5161C46.3174 24.7742 46.0024 25.2176 45.7377 25.7163C45.4751 26.2111 45.2511 26.7801 45.2437 27.2837L45.5489 27.2882ZM47.3272 29.1219C47.0197 29.0069 46.5646 28.8106 46.1907 28.5067C45.8181 28.2039 45.5413 27.8077 45.5489 27.2882L45.2437 27.2837C45.2342 27.9302 45.5838 28.4068 45.9981 28.7436C46.411 29.0792 46.9033 29.2893 47.2203 29.4078L47.3272 29.1219ZM47.7324 29.2857C47.5858 29.2246 47.4473 29.1668 47.3272 29.1219L47.2203 29.4078C47.334 29.4503 47.4667 29.5056 47.6149 29.5675L47.7324 29.2857ZM49.6578 29.7179C49.4393 29.7971 49.1303 29.7672 48.7729 29.6692C48.4214 29.5728 48.0543 29.42 47.7324 29.2857L47.6149 29.5675C47.9334 29.7003 48.3186 29.8612 48.6922 29.9636C49.0599 30.0644 49.4487 30.1184 49.7618 30.0049L49.6578 29.7179ZM50.8179 28.8659C50.5752 29.0711 50.3499 29.2615 50.1491 29.4139C49.9453 29.5686 49.7804 29.6734 49.6578 29.7179L49.7618 30.0049C49.9316 29.9433 50.1281 29.8131 50.3337 29.6571C50.5422 29.4988 50.7741 29.3027 51.015 29.0991L50.8179 28.8659ZM52.7358 27.5219C52.1089 27.7724 51.4088 28.3665 50.8179 28.8659L51.015 29.0991C51.6203 28.5874 52.2785 28.0334 52.8491 27.8054L52.7358 27.5219ZM55.9635 26.5737C55.1668 26.7209 53.8284 27.0854 52.7358 27.5219L52.8491 27.8054C53.9225 27.3766 55.2414 27.0175 56.019 26.8739L55.9635 26.5737ZM58.7748 26.0542L55.9635 26.5737L56.019 26.8739L58.8303 26.3544L58.7748 26.0542ZM61.0817 26.2174C60.9841 26.2713 60.836 26.3053 60.6454 26.317C60.4577 26.3285 60.2426 26.3178 60.0211 26.2929C59.5781 26.2431 59.1251 26.1385 58.8449 26.0577L58.7602 26.351C59.0532 26.4355 59.5234 26.5441 59.987 26.5962C60.2188 26.6223 60.4528 26.6347 60.6641 26.6217C60.8726 26.6089 61.0736 26.5706 61.2293 26.4846L61.0817 26.2174ZM61.2413 26.1298C61.1858 26.1602 61.1324 26.1894 61.0817 26.2174L61.2293 26.4846C61.2794 26.457 61.3323 26.428 61.3878 26.3976L61.2413 26.1298ZM63.5135 24.5119C62.8198 25.2648 61.8853 25.7774 61.2413 26.1298L61.3878 26.3976C62.0267 26.0481 63.0053 25.5139 63.738 24.7188L63.5135 24.5119ZM64.3352 23.7225C64.0758 23.9564 63.7797 24.2231 63.5135 24.5119L63.738 24.7188C63.9931 24.442 64.2786 24.1846 64.5396 23.9493L64.3352 23.7225ZM65.0454 22.9274C65.0495 22.9316 65.0548 22.9325 65.048 22.958C65.0382 22.9945 65.0072 23.0516 64.9417 23.1323C64.812 23.2922 64.5958 23.4877 64.3352 23.7225L64.5396 23.9493C64.7926 23.7213 65.0304 23.5075 65.1787 23.3247C65.2522 23.2341 65.3163 23.1365 65.3429 23.0367C65.3725 22.9258 65.3556 22.8086 65.2644 22.7147L65.0454 22.9274ZM64.7316 22.4974C64.8247 22.6475 64.9132 22.7912 65.0454 22.9274L65.2644 22.7147C65.1587 22.6058 65.0864 22.4902 64.9911 22.3365L64.7316 22.4974ZM64.1214 21.7026C64.4465 22.0374 64.6005 22.2858 64.7316 22.4974L64.9911 22.3365C64.8559 22.1184 64.6883 21.8482 64.3404 21.4899L64.1214 21.7026ZM63.4948 21.166C63.7083 21.332 63.9264 21.5019 64.1214 21.7026L64.3404 21.4899C64.1283 21.2715 63.8934 21.0892 63.6822 20.925L63.4948 21.166ZM62.6446 20.145C62.6856 20.3669 62.8086 20.5495 62.961 20.7099C63.1122 20.8688 63.3038 21.0174 63.4948 21.166L63.6822 20.925C63.4863 20.7726 63.3145 20.6386 63.1823 20.4995C63.0513 20.3617 62.9709 20.2307 62.9448 20.0895L62.6446 20.145ZM62.8986 18.2843C62.8382 18.4936 62.7534 18.8343 62.694 19.181C62.6358 19.5212 62.5976 19.8907 62.6446 20.145L62.9448 20.0895C62.9086 19.894 62.9367 19.5729 62.9949 19.2326C63.0521 18.8987 63.1341 18.5691 63.1919 18.3689L62.8986 18.2843ZM62.4648 17.3039C62.6004 17.3169 62.6917 17.3631 62.7558 17.4228C62.8215 17.4838 62.8679 17.5677 62.8972 17.6687C62.9569 17.8748 62.9369 18.1238 62.8968 18.291L63.1937 18.3622C63.2412 18.1643 63.2698 17.8578 63.1904 17.5837C63.1501 17.4446 63.08 17.3073 62.9637 17.1992C62.8459 17.0896 62.6898 17.0188 62.4939 17L62.4648 17.3039ZM61.5164 16.8052C61.7438 17.0088 62.0206 17.2613 62.4648 17.3039L62.4939 17C62.1609 16.9681 61.9519 16.7855 61.7201 16.5778L61.5164 16.8052ZM60.725 16.4684C61.0618 16.4062 61.2522 16.5686 61.5165 16.8052L61.7201 16.5778C61.4643 16.3487 61.1688 16.076 60.6695 16.1682L60.725 16.4684ZM56.5987 16.8811C57.7018 16.7931 60.0853 16.5866 60.725 16.4684L60.6695 16.1682C60.0496 16.2828 57.687 16.488 56.5745 16.5768L56.5987 16.8811ZM53.7207 18.309C54.1196 17.8377 54.6805 17.4992 55.2281 17.2682C55.7751 17.0375 56.2971 16.9189 56.6055 16.8804L56.5677 16.5775C56.2319 16.6194 55.6827 16.7452 55.1095 16.987C54.537 17.2285 53.9287 17.5906 53.4877 18.1118L53.7207 18.309ZM51.0821 20.9248C51.1087 20.9199 51.1298 20.9093 51.1393 20.9044C51.1516 20.8979 51.1636 20.8905 51.1743 20.8834C51.1959 20.8691 51.2209 20.8505 51.2477 20.8293C51.3019 20.7866 51.372 20.7269 51.4541 20.6538C51.6188 20.5072 51.8374 20.3018 52.0847 20.0589C52.5791 19.5732 53.1918 18.9339 53.7207 18.309L53.4877 18.1118C52.9665 18.7275 52.3606 19.3599 51.8708 19.8411C51.6259 20.0817 51.411 20.2834 51.2511 20.4257C51.171 20.4971 51.106 20.5523 51.0586 20.5896C51.0348 20.6085 51.0173 20.6212 51.0058 20.6289C50.9999 20.6327 50.9976 20.634 50.9979 20.6338C50.9982 20.6337 51.0004 20.6325 51.0041 20.631C51.0074 20.6297 51.0153 20.6267 51.0267 20.6246L51.0821 20.9248ZM48.4655 22.6615C48.7481 22.3871 49.3799 21.9561 49.968 21.5848C50.2594 21.4008 50.5357 21.2341 50.7456 21.1125C50.8507 21.0516 50.9383 21.0024 51.0025 20.9682C51.0347 20.9509 51.0598 20.9381 51.0776 20.9297C51.0866 20.9254 51.0925 20.9228 51.0957 20.9216C51.1017 20.9191 51.0949 20.9225 51.0821 20.9248L51.0267 20.6246C51.0069 20.6283 50.9894 20.6352 50.9813 20.6385C50.9703 20.643 50.9585 20.6483 50.9466 20.654C50.9226 20.6654 50.8928 20.6806 50.8587 20.6989C50.7902 20.7355 50.6992 20.7865 50.5925 20.8483C50.379 20.9721 50.0994 21.1408 49.805 21.3266C49.2215 21.6951 48.562 22.1423 48.2529 22.4424L48.4655 22.6615ZM46.7686 24.7047C47.1437 24.2073 48.0022 23.1114 48.4655 22.6615L48.2529 22.4424C47.7697 22.9117 46.8971 24.0273 46.5249 24.5208L46.7686 24.7047Z" fill="black"/>
<path d="M50.8091 23.8425C50.3759 24.0155 49.5562 25.6633 49.2005 26.4655L50.446 25.6539C50.7724 25.3222 51.5517 24.589 52.0583 24.3094C52.6914 23.9598 52.6621 24.4304 53.47 24.3974C54.278 24.3644 54.4613 24.0979 54.6862 24.0564C54.8661 24.0231 55.9664 23.4322 56.494 23.1409L58.1808 22.8292C58.6306 22.7461 58.9264 22.4589 59.0181 22.3256C59.1778 22.1411 59.3765 21.7477 58.8934 21.6509C58.2896 21.5299 58.4228 21.6216 57.236 21.492C56.0491 21.3625 56.3364 21.6582 55.3658 22.0702C54.3953 22.4821 54.1081 22.1863 53.2293 22.4649C52.5262 22.6879 52.2836 23.2211 52.2502 23.4599C51.9503 23.5153 51.2423 23.6694 50.8091 23.8425Z" fill="black" stroke="black" stroke-width="0.305275"/>
<path d="M21.1169 30.4851C21.4195 30.1301 21.3766 28.2902 21.3173 27.4146L20.5937 28.7133C20.4596 29.1588 20.1119 30.1708 19.7941 30.6543C19.3969 31.2587 19.2035 30.8287 18.5041 31.2346C17.8047 31.6404 17.7667 31.9616 17.5871 32.1032C17.4434 32.2165 16.7455 33.2521 16.4145 33.7558L15.0675 34.8179C14.7082 35.1011 14.5804 35.4931 14.5614 35.6537C14.5062 35.8914 14.5138 36.332 14.9863 36.1925C15.5769 36.0181 15.4163 35.9991 16.5267 35.5604C17.6371 35.1218 17.2451 34.994 17.9117 34.1772C18.5783 33.3604 18.9703 33.4882 19.6179 32.832C20.136 32.307 20.1021 31.7221 20.0203 31.4953C20.2598 31.3065 20.8144 30.8402 21.1169 30.4851Z" fill="black" stroke="black" stroke-width="0.305275"/>
<path d="M44.6509 37.3308C44.7102 38.2063 44.7531 40.0462 44.4505 40.4013C44.148 40.7563 43.5934 41.2227 43.3539 41.4115C43.4357 41.6383 43.957 42.4954 43.4389 43.0204C42.7913 43.6766 42.5586 43.2721 41.892 44.089C41.2254 44.9058 40.9707 45.038 39.8603 45.4766C38.7499 45.9152 38.9105 45.9342 38.3199 46.1086C37.8474 46.2482 37.8398 45.8076 37.895 45.5698C37.914 45.4092 38.0418 45.0172 38.4011 44.734C38.7603 44.4508 38.9141 43.6748 39.2134 43.4388C39.0839 43.2064 39.0246 43.1212 39.003 43.0945C38.9915 43.0863 38.9875 43.0753 39.003 43.0945C39.04 43.1209 39.1542 43.1182 38.9457 41.99C38.8834 41.6526 39.2462 41.5133 39.9456 41.1075C40.645 40.7017 41.0396 40.9712 41.4368 40.3668C41.7546 39.8832 42.1549 39.6082 42.289 39.1627L44.6509 37.3308Z" fill="black"/>
<path d="M44.6509 37.3308C44.7102 38.2063 44.7531 40.0462 44.4505 40.4013C44.148 40.7563 43.5934 41.2227 43.3539 41.4115C43.4357 41.6383 43.957 42.4954 43.4389 43.0204C42.7913 43.6766 42.5586 43.2721 41.892 44.089C41.2254 44.9058 40.9707 45.038 39.8603 45.4766C38.7499 45.9152 38.9105 45.9342 38.3199 46.1086C37.8474 46.2482 37.8398 45.8076 37.895 45.5698C37.914 45.4092 38.0418 45.0172 38.4011 44.734C38.7603 44.4508 38.9141 43.6748 39.2134 43.4388C38.6915 42.5021 39.3093 43.9574 38.9457 41.99C38.8834 41.6526 39.2462 41.5133 39.9456 41.1075C40.645 40.7017 41.0396 40.9712 41.4368 40.3668C41.7546 39.8832 42.1549 39.6082 42.289 39.1627L44.6509 37.3308Z" stroke="black" stroke-width="0.305275"/>
</svg>
