<svg width="77" height="76" viewBox="0 0 77 76" fill="none" xmlns="http://www.w3.org/2000/svg">
<rect width="76.9609" height="75.4996" rx="37.7498" fill="#C7FF51"/>
<path fill-rule="evenodd" clip-rule="evenodd" d="M58.4464 35.6746C55.1158 35.6354 50.1548 34.5476 46.1418 31.4377C42.1678 28.358 39.0614 23.2506 39.4404 15.0066L37.9806 14.9395C37.5803 23.6463 40.8873 29.2144 45.2467 32.5928C47.0146 33.9629 48.9453 34.9653 50.8541 35.6745H18.4961V37.1358H51.5465C49.4176 37.8525 47.2334 38.9258 45.2533 40.4603C40.894 43.8386 37.587 49.4067 37.9873 58.1136L39.447 58.0465C39.068 49.8025 42.1744 44.6951 46.1484 41.6153C50.1614 38.5054 55.1225 37.4177 58.4531 37.3785L58.442 36.4339L58.4464 35.6746Z" fill="black"/>
</svg>
