<svg width="1018" height="1525" viewBox="0 0 1018 1525" fill="none" xmlns="http://www.w3.org/2000/svg">
<g clip-path="url(#clip0_781_1052)">
<rect width="1016.66" height="1525" transform="translate(0.683594)" fill="black"/>
<rect x="104.32" y="66.0781" width="21.3137" height="236.782" fill="#9B22EC"/>
<rect x="161.656" y="-15.2607" width="22.0277" height="318.555" fill="#9B22EC"/>
<rect x="218.887" y="66.0781" width="21.3137" height="92.5815" fill="#9B22EC"/>
<rect x="219.227" y="189.299" width="21.3137" height="113.562" fill="#9B22EC"/>
<rect x="276.164" y="66.0781" width="21.3137" height="92.5815" fill="#9B22EC"/>
<rect x="276.488" y="189.299" width="21.3137" height="113.562" fill="#9B22EC"/>
<rect x="0.6875" y="96.5771" width="20.3333" height="328.722" transform="rotate(-90 0.6875 96.5771)" fill="#FB95D2"/>
<rect x="100.988" y="220.269" width="21.3137" height="229.456" transform="rotate(-90 100.988 220.269)" fill="#FB95D2"/>
<rect x="132.852" y="-71.1748" width="22.0277" height="374.472" fill="#9B22EC"/>
<rect x="190.238" y="66.0781" width="21.3137" height="92.5815" fill="#9B22EC"/>
<rect x="190.59" y="189.299" width="21.3137" height="113.562" fill="#9B22EC"/>
<rect x="247.523" y="66.0781" width="21.3137" height="92.9145" fill="#9B22EC"/>
<rect x="247.852" y="189.299" width="21.3137" height="113.562" fill="#9B22EC"/>
<rect x="304.805" y="66.0781" width="21.3137" height="67.9375" fill="#9B22EC"/>
<rect x="305.129" y="189.299" width="21.3137" height="67.9375" fill="#9B22EC"/>
<rect x="100.664" y="126.026" width="21.3137" height="229.456" transform="rotate(-90 100.664 126.026)" fill="#FB95D2"/>
<rect x="100.988" y="248.902" width="21.3137" height="229.456" transform="rotate(-90 100.988 248.902)" fill="#FB95D2"/>
<rect x="100.664" y="154.999" width="21.3137" height="229.456" transform="rotate(-90 100.664 154.999)" fill="#FB95D2"/>
<rect x="100.988" y="278.211" width="21.3137" height="229.456" transform="rotate(-90 100.988 278.211)" fill="#FB95D2"/>
<rect x="100.664" y="187.632" width="21.3137" height="89.5843" transform="rotate(-90 100.664 187.632)" fill="#FB95D2"/>
<rect x="100.664" y="220.269" width="21.3137" height="89.5843" transform="rotate(-90 100.664 220.269)" fill="#FB95D2"/>
<rect x="100.664" y="248.902" width="21.3137" height="89.5843" transform="rotate(-90 100.664 248.902)" fill="#FB95D2"/>
<rect x="100.988" y="278.548" width="21.3137" height="89.5843" transform="rotate(-90 100.988 278.548)" fill="#FB95D2"/>
<rect x="161.602" y="97.0449" width="21.3137" height="28.9733" fill="#9B22EC"/>
<rect x="132.949" y="129.685" width="21.3137" height="28.9733" fill="#9B22EC"/>
<rect x="190.238" y="126.026" width="21.3137" height="28.9733" fill="#9B22EC"/>
<rect x="190.59" y="249.244" width="21.3137" height="28.9733" fill="#9B22EC"/>
<rect x="161.602" y="162.321" width="21.3137" height="28.9733" fill="#9B22EC"/>
<rect x="132.949" y="198.946" width="21.3137" height="28.9733" fill="#9B22EC"/>
<rect x="161.602" y="223.262" width="21.3137" height="28.9733" fill="#9B22EC"/>
<rect x="132.949" y="256.236" width="21.3137" height="28.9733" fill="#9B22EC"/>
<rect x="104.32" y="223.939" width="21.3137" height="28.9733" fill="#9B22EC"/>
<rect x="104.32" y="162.321" width="21.3137" height="28.9733" fill="#9B22EC"/>
<rect x="104.32" y="97.3721" width="21.3137" height="28.9733" fill="#9B22EC"/>
<rect x="218.887" y="97.0449" width="21.3137" height="28.9733" fill="#9B22EC"/>
<rect x="219.227" y="220.269" width="21.3137" height="28.9733" fill="#9B22EC"/>
<rect x="247.523" y="130.014" width="21.3137" height="28.9733" fill="#9B22EC"/>
<rect x="247.852" y="253.231" width="21.3137" height="28.9733" fill="#9B22EC"/>
<rect x="304.805" y="130.014" width="21.3137" height="28.9733" fill="#9B22EC"/>
<rect x="305.129" y="253.231" width="21.3137" height="49.621" fill="#9B22EC"/>
<rect x="276.488" y="101.036" width="21.3137" height="28.9733" fill="#9B22EC"/>
<rect x="400.984" y="71.1533" width="20.3019" height="225.542" fill="#FB95D2"/>
<rect x="455.547" y="71.1533" width="20.3019" height="225.542" fill="#FB95D2"/>
<rect x="510.113" y="71.1533" width="20.3019" height="95.1653" fill="#FB95D2"/>
<rect x="564.934" y="71.1533" width="20.3333" height="327.027" fill="#FB95D2"/>
<rect x="397.496" y="100.657" width="20.3019" height="218.563" transform="rotate(-90 397.496 100.657)" fill="#E7FF51"/>
<rect x="428.277" y="71.1533" width="20.3019" height="225.542" fill="#FB95D2"/>
<rect x="482.836" y="71.1533" width="20.3019" height="95.1653" fill="#FB95D2"/>
<rect x="537.398" y="71.1533" width="20.3019" height="225.542" fill="#FB95D2"/>
<rect x="592.043" y="-6.78906" width="20.3333" height="399.888" fill="#FB95D2"/>
<rect x="397.18" y="128.763" width="20.3333" height="316.861" transform="rotate(-90 397.18 128.763)" fill="#E7FF51"/>
<rect x="397.496" y="155.854" width="20.3019" height="218.563" transform="rotate(-90 397.496 155.854)" fill="#E7FF51"/>
<rect x="530.41" y="186.939" width="20.3019" height="85.6488" transform="rotate(-90 530.41 186.939)" fill="#E7FF51"/>
<rect x="397.18" y="186.619" width="20.3019" height="85.6488" transform="rotate(-90 397.18 186.619)" fill="#E7FF51"/>
<rect x="530.41" y="218.026" width="20.3019" height="85.6488" transform="rotate(-90 530.41 218.026)" fill="#E7FF51"/>
<rect x="397.496" y="218.335" width="20.3019" height="85.3315" transform="rotate(-90 397.496 218.335)" fill="#E7FF51"/>
<rect x="530.41" y="252.918" width="20.3019" height="85.6488" transform="rotate(-90 530.41 252.918)" fill="#E7FF51"/>
<rect x="397.496" y="252.918" width="20.3019" height="85.3315" transform="rotate(-90 397.496 252.918)" fill="#E7FF51"/>
<rect x="530.41" y="280.519" width="20.3019" height="85.6488" transform="rotate(-90 530.41 280.519)" fill="#E7FF51"/>
<rect x="397.809" y="280.519" width="20.3019" height="85.0143" transform="rotate(-90 397.809 280.519)" fill="#E7FF51"/>
<rect x="455.547" y="102.346" width="20.3019" height="27.5979" fill="#FB95D2"/>
<rect x="428.277" y="131.746" width="20.3019" height="27.5979" fill="#FB95D2"/>
<rect x="482.836" y="128.258" width="20.3019" height="27.5979" fill="#FB95D2"/>
<rect x="537.398" y="131.746" width="20.3019" height="27.5979" fill="#FB95D2"/>
<rect x="455.547" y="162.832" width="20.3019" height="27.5979" fill="#FB95D2"/>
<rect x="428.277" y="197.72" width="20.3019" height="27.5979" fill="#FB95D2"/>
<rect x="455.547" y="228.809" width="20.3019" height="27.5979" fill="#FB95D2"/>
<rect x="537.398" y="256.404" width="20.3019" height="27.5979" fill="#FB95D2"/>
<rect x="591.953" y="256.404" width="20.3019" height="27.5979" fill="#FB95D2"/>
<rect x="428.277" y="256.404" width="20.3019" height="27.5979" fill="#FB95D2"/>
<rect x="564.664" y="228.809" width="20.3019" height="27.5979" fill="#FB95D2"/>
<rect x="400.984" y="228.809" width="20.3019" height="27.5979" fill="#FB95D2"/>
<rect x="537.398" y="197.72" width="20.3019" height="27.5979" fill="#FB95D2"/>
<rect x="591.953" y="194.238" width="20.3019" height="27.5979" fill="#FB95D2"/>
<rect x="564.664" y="159.335" width="20.3019" height="27.5979" fill="#FB95D2"/>
<rect x="400.984" y="162.832" width="20.3019" height="27.5979" fill="#FB95D2"/>
<rect x="400.984" y="102.67" width="20.3019" height="27.5979" fill="#FB95D2"/>
<rect x="591.953" y="131.746" width="20.3019" height="27.5979" fill="#FB95D2"/>
<rect x="510.113" y="102.346" width="20.3019" height="27.5979" fill="#FB95D2"/>
<rect x="564.664" y="102.346" width="20.3019" height="27.5979" fill="#FB95D2"/>
<rect x="692.125" y="233.716" width="20.4384" height="64.5087" fill="#E13C95"/>
<rect x="747.066" y="71.1631" width="20.4384" height="227.058" fill="#E13C95"/>
<rect x="801.996" y="71.1631" width="20.4384" height="95.8049" fill="#E13C95"/>
<rect x="856.926" y="71.1631" width="20.4384" height="227.058" fill="#E13C95"/>
<rect x="712.574" y="100.86" width="20.4384" height="196.081" transform="rotate(-90 712.574 100.86)" fill="#E7FF51"/>
<rect x="719.594" y="71.1631" width="20.4384" height="227.058" fill="#E13C95"/>
<rect x="774.523" y="71.1631" width="20.4384" height="95.8049" fill="#E13C95"/>
<rect x="829.453" y="71.1631" width="20.4384" height="227.058" fill="#E13C95"/>
<rect x="884.383" y="71.1631" width="20.4384" height="227.058" fill="#E13C95"/>
<rect x="710.656" y="128.876" width="20.4384" height="196.081" transform="rotate(-90 710.656 128.876)" fill="#E7FF51"/>
<rect x="712.574" y="156.431" width="20.4384" height="196.081" transform="rotate(-90 712.574 156.431)" fill="#E7FF51"/>
<rect x="822.422" y="187.736" width="20.4384" height="86.2245" transform="rotate(-90 822.422 187.736)" fill="#E7FF51"/>
<rect x="712.574" y="187.402" width="20.4384" height="61.9539" transform="rotate(-90 712.574 187.402)" fill="#E7FF51"/>
<rect x="822.422" y="219.025" width="20.4384" height="86.2245" transform="rotate(-90 822.422 219.025)" fill="#E7FF51"/>
<rect x="712.574" y="219.343" width="20.4384" height="61.9539" transform="rotate(-90 712.574 219.343)" fill="#E7FF51"/>
<rect x="822.422" y="254.15" width="20.4384" height="86.2245" transform="rotate(-90 822.422 254.15)" fill="#E7FF51"/>
<rect x="688.621" y="254.15" width="20.4384" height="85.9051" transform="rotate(-90 688.621 254.15)" fill="#E7FF51"/>
<rect x="822.477" y="281.275" width="20.3333" height="218.583" transform="rotate(-90 822.477 281.275)" fill="#E7FF51"/>
<rect x="688.938" y="281.935" width="20.4384" height="85.5858" transform="rotate(-90 688.938 281.935)" fill="#E7FF51"/>
<rect x="747.066" y="102.556" width="20.4384" height="27.7834" fill="#E13C95"/>
<rect x="719.594" y="132.163" width="20.4384" height="27.7834" fill="#E13C95"/>
<rect x="774.523" y="128.646" width="20.4384" height="27.7834" fill="#E13C95"/>
<rect x="829.453" y="132.163" width="20.4384" height="27.7834" fill="#E13C95"/>
<rect x="747.066" y="163.459" width="20.4384" height="27.7834" fill="#E13C95"/>
<rect x="719.594" y="198.579" width="20.4384" height="27.7834" fill="#E13C95"/>
<rect x="747.066" y="229.873" width="20.4384" height="27.7834" fill="#E13C95"/>
<rect x="829.453" y="257.667" width="20.4384" height="27.7834" fill="#E13C95"/>
<rect x="884.383" y="257.667" width="20.4384" height="27.7834" fill="#E13C95"/>
<rect x="719.594" y="257.667" width="20.4384" height="27.7834" fill="#E13C95"/>
<rect x="856.926" y="229.873" width="20.4384" height="27.7834" fill="#E13C95"/>
<rect x="692.125" y="229.873" width="20.4384" height="27.7834" fill="#E13C95"/>
<rect x="829.453" y="198.579" width="20.4384" height="27.7834" fill="#E13C95"/>
<rect x="884.383" y="195.075" width="20.4384" height="27.7834" fill="#E13C95"/>
<rect x="856.926" y="159.939" width="20.4384" height="27.7834" fill="#E13C95"/>
<rect x="884.383" y="132.163" width="20.4384" height="27.7834" fill="#E13C95"/>
<rect x="801.996" y="102.556" width="20.4384" height="27.7834" fill="#E13C95"/>
<rect x="856.926" y="102.556" width="20.4384" height="27.7834" fill="#E13C95"/>
<rect x="104.164" y="393.103" width="20.4383" height="227.057" fill="#FCD348"/>
<rect x="159.094" y="393.103" width="20.4383" height="227.057" fill="#FF6B00"/>
<rect x="214.023" y="481.875" width="20.4383" height="35.1284" fill="#FF6B00"/>
<rect x="214.023" y="555.646" width="20.4383" height="64.5085" fill="#FF6B00"/>
<rect x="214.023" y="393.103" width="20.4383" height="57.4828" fill="#FF6B00"/>
<rect x="100.648" y="422.803" width="20.4383" height="220.031" transform="rotate(-90 100.648 422.803)" fill="#E13C95"/>
<rect x="131.621" y="393.103" width="20.4383" height="227.057" fill="#FF6B00"/>
<rect x="186.551" y="555.646" width="20.4383" height="64.5085" fill="#FF6B00"/>
<rect x="186.551" y="481.875" width="20.4383" height="36.0864" fill="#FF6B00"/>
<rect x="186.551" y="393.103" width="20.4383" height="57.4828" fill="#FF6B00"/>
<rect x="241.492" y="551.814" width="20.4383" height="68.3407" fill="#FF6B00"/>
<rect x="241.492" y="393.103" width="20.4383" height="57.4828" fill="#FF6B00"/>
<rect x="241.492" y="481.875" width="20.4383" height="35.1284" fill="#FF6B00"/>
<rect x="296.422" y="393.103" width="20.4383" height="57.4828" fill="#FF6B00"/>
<rect x="296.422" y="551.814" width="20.4383" height="68.3407" fill="#FF6B00"/>
<rect x="296.422" y="482.524" width="20.4383" height="34.4897" fill="#FF6B00"/>
<rect x="-58.625" y="450.713" width="20.3333" height="379.555" transform="rotate(-90 -58.625 450.713)" fill="#E13C95"/>
<rect x="100.648" y="478.368" width="20.4383" height="85.9049" transform="rotate(-90 100.648 478.368)" fill="#E13C95"/>
<rect x="100.648" y="509.665" width="20.4383" height="220.031" transform="rotate(-90 100.648 509.665)" fill="#E13C95"/>
<rect x="100.648" y="540.962" width="20.4383" height="85.9049" transform="rotate(-90 100.648 540.962)" fill="#E13C95"/>
<rect x="100.648" y="576.09" width="20.4383" height="220.031" transform="rotate(-90 100.648 576.09)" fill="#E13C95"/>
<rect x="100.648" y="603.874" width="20.4383" height="220.031" transform="rotate(-90 100.648 603.874)" fill="#E13C95"/>
<rect x="159.094" y="422.803" width="20.4383" height="27.7834" fill="#FF6B00"/>
<rect x="131.621" y="454.103" width="20.4383" height="27.7834" fill="#FF6B00"/>
<rect x="159.094" y="485.398" width="20.4383" height="27.7834" fill="#FF6B00"/>
<rect x="131.621" y="520.515" width="20.4383" height="27.7834" fill="#FF6B00"/>
<rect x="186.551" y="551.814" width="20.4383" height="3.83108" fill="#FF6B00"/>
<rect x="159.094" y="551.814" width="20.4383" height="27.7834" fill="#FF6B00"/>
<rect x="214.023" y="551.814" width="20.4383" height="27.7834" fill="#FF6B00"/>
<rect x="186.551" y="579.608" width="20.4383" height="27.7834" fill="#FF6B00"/>
<rect x="241.492" y="579.608" width="20.4383" height="27.7834" fill="#FF6B00"/>
<rect x="296.422" y="579.608" width="20.4383" height="27.7834" fill="#FF6B00"/>
<rect x="131.621" y="579.608" width="20.4383" height="27.7834" fill="#FF6B00"/>
<rect x="268.949" y="551.814" width="20.4383" height="31.6155" fill="#FF6B00"/>
<rect x="104.164" y="551.814" width="20.4383" height="27.7834" fill="#FCD348"/>
<rect x="214.023" y="481.875" width="20.4383" height="31.2962" fill="#FF6B00"/>
<rect x="268.949" y="481.875" width="20.4383" height="35.1284" fill="#FF6B00"/>
<rect x="268.949" y="603.874" width="20.4383" height="16.2868" fill="#FF6B00"/>
<rect x="104.164" y="485.398" width="20.4383" height="27.7834" fill="#FCD348"/>
<rect x="104.164" y="423.121" width="20.4383" height="27.7834" fill="#FCD348"/>
<rect x="214.023" y="422.803" width="20.4383" height="31.2962" fill="#FF6B00"/>
<rect x="268.949" y="422.803" width="20.4383" height="31.2962" fill="#FF6B00"/>
<rect x="268.949" y="393.103" width="20.4383" height="9.26112" fill="#FF6B00"/>
<rect x="398.879" y="477.837" width="20.236" height="217.854" transform="rotate(-90 398.879 477.837)" fill="#E7FF51"/>
<rect x="402.359" y="393.103" width="20.2361" height="64.5024" fill="#E13C95"/>
<rect x="483.93" y="393.103" width="20.2361" height="224.81" fill="#E13C95"/>
<rect x="456.742" y="393.103" width="20.2361" height="224.81" fill="#E13C95"/>
<rect x="538.316" y="393.103" width="20.2361" height="224.81" fill="#E13C95"/>
<rect x="511.129" y="393.103" width="20.2361" height="87.9004" fill="#E13C95"/>
<rect x="564.934" y="393.103" width="20.2361" height="64.5024" fill="#FB95D2"/>
<rect x="398.879" y="422.506" width="20.236" height="217.854" transform="rotate(-90 398.879 422.506)" fill="#E7FF51"/>
<rect x="429.547" y="393.103" width="20.2361" height="64.5024" fill="#E13C95"/>
<rect x="511.129" y="393.103" width="20.2361" height="224.81" fill="#E13C95"/>
<rect x="483.93" y="393.103" width="20.2361" height="87.9004" fill="#E13C95"/>
<rect x="538.316" y="393.103" width="20.2361" height="88.2166" fill="#E13C95"/>
<rect x="592.043" y="393.103" width="20.2361" height="64.5024" fill="#FB95D2"/>
<rect x="398.879" y="450.014" width="20.236" height="217.854" transform="rotate(-90 398.879 450.014)" fill="#E7FF51"/>
<rect x="456.742" y="477.837" width="20.236" height="108.769" transform="rotate(-90 456.742 477.837)" fill="#E7FF51"/>
<rect x="456.742" y="508.513" width="20.236" height="108.769" transform="rotate(-90 456.742 508.513)" fill="#E7FF51"/>
<rect x="476.977" y="539.497" width="20.236" height="88.5328" transform="rotate(-90 476.977 539.497)" fill="#E7FF51"/>
<rect x="456.742" y="574.592" width="20.5522" height="108.769" transform="rotate(-90 456.742 574.592)" fill="#E7FF51"/>
<rect x="476.977" y="601.787" width="20.236" height="88.5328" transform="rotate(-90 476.977 601.787)" fill="#E7FF51"/>
<rect x="456.742" y="422.506" width="20.2361" height="27.5084" fill="#E13C95"/>
<rect x="483.93" y="450.334" width="20.2361" height="27.5084" fill="#E13C95"/>
<rect x="538.316" y="484.481" width="20.2361" height="27.5084" fill="#E13C95"/>
<rect x="511.129" y="519.263" width="20.2361" height="27.5084" fill="#E13C95"/>
<rect x="538.316" y="550.249" width="20.2361" height="27.5084" fill="#E13C95"/>
<rect x="511.129" y="577.756" width="20.2361" height="27.5084" fill="#E13C95"/>
<rect x="483.93" y="550.249" width="20.2361" height="27.5084" fill="#E13C95"/>
<rect x="483.93" y="484.481" width="20.2361" height="27.5084" fill="#E13C95"/>
<rect x="402.359" y="422.822" width="20.2361" height="27.5084" fill="#E13C95"/>
<rect x="511.129" y="422.506" width="20.2361" height="27.5084" fill="#E13C95"/>
<rect x="429.547" y="450.334" width="20.2361" height="27.5084" fill="#E13C95"/>
<rect x="564.934" y="423.452" width="20.2361" height="27.5084" fill="#FB95D2"/>
<rect x="592.043" y="450.713" width="20.3333" height="30.4999" fill="#FB95D2"/>
<rect x="511.129" y="402.271" width="20.2361" height="20.2361" fill="#E7FF51"/>
<rect x="538.316" y="453.811" width="20.2361" height="27.5084" fill="#E13C95"/>
<rect x="692.125" y="393.103" width="20.4384" height="227.058" fill="#5E5E5E"/>
<rect x="747.066" y="540.962" width="20.4384" height="42.4736" fill="#5E5E5E"/>
<rect x="801.996" y="485.398" width="20.4384" height="70.5764" fill="#5E5E5E"/>
<rect x="856.926" y="393.103" width="20.4384" height="227.058" fill="#5E5E5E"/>
<rect x="849.895" y="422.803" width="20.4384" height="58.7605" transform="rotate(-90 849.895 422.803)" fill="#C08FE1"/>
<rect x="688.938" y="423.121" width="20.4384" height="58.1218" transform="rotate(-90 688.938 423.121)" fill="#C08FE1"/>
<rect x="719.594" y="393.103" width="20.4384" height="227.058" fill="#5E5E5E"/>
<rect x="774.523" y="513.181" width="20.4384" height="70.2571" fill="#5E5E5E"/>
<rect x="829.453" y="481.875" width="20.4384" height="66.4249" fill="#5E5E5E"/>
<rect x="884.383" y="393.103" width="20.4384" height="227.058" fill="#5E5E5E"/>
<rect x="849.594" y="450.713" width="20.3333" height="191.472" transform="rotate(-90 849.594 450.713)" fill="#C08FE1"/>
<rect x="688.938" y="450.907" width="20.4384" height="56.525" transform="rotate(-90 688.938 450.907)" fill="#C08FE1"/>
<rect x="849.895" y="478.368" width="20.4384" height="58.7605" transform="rotate(-90 849.895 478.368)" fill="#C08FE1"/>
<rect x="688.621" y="478.368" width="20.4384" height="56.8444" transform="rotate(-90 688.621 478.368)" fill="#C08FE1"/>
<rect x="849.594" y="510.023" width="20.3333" height="208.416" transform="rotate(-90 849.594 510.023)" fill="#C08FE1"/>
<rect x="812.203" y="509.977" width="20.4384" height="58.7605" transform="rotate(-90 812.203 509.977)" fill="#C08FE1"/>
<rect x="688.938" y="509.977" width="20.4384" height="56.525" transform="rotate(-90 688.938 509.977)" fill="#C08FE1"/>
<rect x="688.621" y="540.962" width="20.4384" height="220.032" transform="rotate(-90 688.621 540.962)" fill="#C08FE1"/>
<rect x="849.895" y="576.09" width="20.4384" height="58.7605" transform="rotate(-90 849.895 576.09)" fill="#C08FE1"/>
<rect x="688.621" y="576.09" width="20.4384" height="113.369" transform="rotate(-90 688.621 576.09)" fill="#C08FE1"/>
<rect x="849.895" y="603.874" width="20.4384" height="58.7605" transform="rotate(-90 849.895 603.874)" fill="#C08FE1"/>
<rect x="688.938" y="603.874" width="20.4384" height="58.1218" transform="rotate(-90 688.938 603.874)" fill="#C08FE1"/>
<rect x="719.594" y="454.103" width="20.4384" height="27.7835" fill="#5E5E5E"/>
<rect x="829.453" y="457.923" width="20.4384" height="23.9513" fill="#5E5E5E"/>
<rect x="719.594" y="520.515" width="20.4384" height="27.7835" fill="#5E5E5E"/>
<rect x="774.523" y="520.515" width="20.4384" height="27.7835" fill="#5E5E5E"/>
<rect x="747.066" y="551.815" width="20.4384" height="27.7835" fill="#5E5E5E"/>
<rect x="801.996" y="551.815" width="20.4384" height="4.15035" fill="#5E5E5E"/>
<rect x="884.383" y="579.608" width="20.4384" height="27.7835" fill="#5E5E5E"/>
<rect x="719.594" y="579.608" width="20.4384" height="27.7835" fill="#5E5E5E"/>
<rect x="856.926" y="551.815" width="20.4384" height="27.7835" fill="#5E5E5E"/>
<rect x="692.125" y="551.815" width="20.4384" height="27.7835" fill="#5E5E5E"/>
<rect x="829.453" y="520.515" width="20.4384" height="27.7835" fill="#5E5E5E"/>
<rect x="884.383" y="517.012" width="20.4384" height="27.7835" fill="#5E5E5E"/>
<rect x="801.996" y="485.398" width="20.4384" height="27.7835" fill="#5E5E5E"/>
<rect x="856.926" y="485.398" width="20.4384" height="27.7835" fill="#5E5E5E"/>
<rect x="692.125" y="485.398" width="20.4384" height="27.7835" fill="#5E5E5E"/>
<rect x="692.125" y="423.121" width="20.4384" height="27.7835" fill="#5E5E5E"/>
<rect x="884.383" y="454.103" width="20.4384" height="27.7835" fill="#5E5E5E"/>
<rect x="856.926" y="422.803" width="20.4384" height="27.7835" fill="#5E5E5E"/>
<rect x="394.098" y="898.051" width="21.4502" height="238.298" fill="#9042C4"/>
<rect x="451.742" y="898.051" width="21.4502" height="238.298" fill="#9042C4"/>
<rect x="509.391" y="941.621" width="21.4502" height="136.745" fill="#9042C4"/>
<rect x="567.039" y="1046.53" width="21.4502" height="89.8227" fill="#9042C4"/>
<rect x="567.039" y="898.051" width="21.4502" height="89.4876" fill="#9042C4"/>
<rect x="567.039" y="929.22" width="21.4502" height="54.2958" transform="rotate(-90 567.039 929.22)" fill="#FF6B00"/>
<rect x="390.402" y="929.549" width="21.4502" height="82.7844" transform="rotate(-90 390.402 929.549)" fill="#FF6B00"/>
<rect x="422.914" y="898.051" width="21.4502" height="238.298" fill="#9042C4"/>
<rect x="480.562" y="958.72" width="21.4502" height="109.932" fill="#9042C4"/>
<rect x="538.219" y="1024.07" width="21.4502" height="73.7351" fill="#9042C4"/>
<rect x="538.219" y="916.822" width="21.4502" height="82.114" fill="#9042C4"/>
<rect x="595.867" y="1064.62" width="21.4502" height="71.7241" fill="#9042C4"/>
<rect x="595.867" y="898.051" width="21.4502" height="64.0154" fill="#9042C4"/>
<rect x="530.84" y="958.376" width="21.4502" height="90.493" transform="rotate(-90 530.84 958.376)" fill="#FF6B00"/>
<rect x="390.402" y="958.376" width="21.4502" height="82.7844" transform="rotate(-90 390.402 958.376)" fill="#FF6B00"/>
<rect x="-246.703" y="987.854" width="22.0277" height="835.36" transform="rotate(-90 -246.703 987.854)" fill="#FF6B00"/>
<rect x="390.402" y="1020.39" width="21.4502" height="147.805" transform="rotate(-90 390.402 1020.39)" fill="#FF6B00"/>
<rect x="390.402" y="1053.23" width="21.4502" height="184.338" transform="rotate(-90 390.402 1053.23)" fill="#FF6B00"/>
<rect x="519.105" y="1090.1" width="21.4502" height="102.224" transform="rotate(-90 519.105 1090.1)" fill="#FF6B00"/>
<rect x="390.738" y="1090.1" width="21.4502" height="89.8227" transform="rotate(-90 390.738 1090.1)" fill="#FF6B00"/>
<rect x="550.953" y="1119.26" width="21.4502" height="70.3835" transform="rotate(-90 550.953 1119.26)" fill="#FF6B00"/>
<rect x="-14.5625" y="1120.02" width="22.0277" height="487.999" transform="rotate(-90 -14.5625 1120.02)" fill="#FF6B00"/>
<rect x="451.742" y="929.22" width="21.4502" height="29.1589" fill="#9042C4"/>
<rect x="422.914" y="962.067" width="21.4502" height="29.1589" fill="#9042C4"/>
<rect x="480.562" y="958.376" width="21.4502" height="29.1589" fill="#9042C4"/>
<rect x="538.219" y="962.067" width="21.4502" height="29.1589" fill="#9042C4"/>
<rect x="451.742" y="994.917" width="21.4502" height="29.1589" fill="#9042C4"/>
<rect x="422.914" y="1031.78" width="21.4502" height="29.1589" fill="#9042C4"/>
<rect x="480.562" y="1031.78" width="21.4502" height="29.1589" fill="#9042C4"/>
<rect x="451.742" y="1064.62" width="21.4502" height="29.1589" fill="#9042C4"/>
<rect x="509.391" y="1053.91" width="21.4502" height="29.1589" fill="#9042C4"/>
<rect x="538.219" y="1090.1" width="21.4502" height="18.4338" fill="#9042C4"/>
<rect x="595.867" y="1093.79" width="21.4502" height="29.1589" fill="#9042C4"/>
<rect x="422.914" y="1093.79" width="21.4502" height="29.1589" fill="#9042C4"/>
<rect x="567.039" y="1064.62" width="21.4502" height="29.1589" fill="#9042C4"/>
<rect x="538.219" y="1031.78" width="21.4502" height="29.1589" fill="#9042C4"/>
<rect x="394.098" y="1064.62" width="21.4502" height="29.1589" fill="#9042C4"/>
<rect x="509.391" y="994.917" width="21.4502" height="29.1589" fill="#9042C4"/>
<rect x="394.098" y="994.917" width="21.4502" height="29.1589" fill="#9042C4"/>
<rect x="394.098" y="929.549" width="21.4502" height="29.1589" fill="#9042C4"/>
<rect x="509.391" y="936.934" width="21.4502" height="21.4502" fill="#9042C4"/>
<rect x="567.039" y="929.22" width="21.4502" height="29.1589" fill="#9042C4"/>
<rect x="687.199" y="898.051" width="21.3137" height="236.782" fill="#C7FF51"/>
<rect x="744.477" y="898.051" width="21.3137" height="236.782" fill="#C7FF51"/>
<rect x="801.766" y="1052.57" width="21.3137" height="82.2577" fill="#C7FF51"/>
<rect x="801.766" y="898.051" width="21.3137" height="67.6045" fill="#C7FF51"/>
<rect x="859.051" y="898.051" width="21.3137" height="236.782" fill="#C7FF51"/>
<rect x="683.539" y="929.018" width="21.3137" height="229.456" transform="rotate(-90 683.539 929.018)" fill="#E13C95"/>
<rect x="715.84" y="898.051" width="21.3137" height="236.782" fill="#C7FF51"/>
<rect x="773.125" y="1052.24" width="21.3137" height="82.5907" fill="#C7FF51"/>
<rect x="773.125" y="898.051" width="21.3137" height="67.6045" fill="#C7FF51"/>
<rect x="830.953" y="898.051" width="20.3333" height="323.638" fill="#C7FF51"/>
<rect x="887.68" y="898.051" width="21.3137" height="236.782" fill="#C7FF51"/>
<rect x="683.539" y="957.361" width="20.3333" height="357.527" transform="rotate(-90 683.539 957.361)" fill="#E13C95"/>
<rect x="827.066" y="986.967" width="21.3137" height="85.921" transform="rotate(-90 827.066 986.967)" fill="#E13C95"/>
<rect x="683.539" y="986.967" width="21.3137" height="85.921" transform="rotate(-90 683.539 986.967)" fill="#E13C95"/>
<rect x="827.066" y="1019.6" width="21.3137" height="85.921" transform="rotate(-90 827.066 1019.6)" fill="#E13C95"/>
<rect x="683.539" y="1019.6" width="21.3137" height="85.921" transform="rotate(-90 683.539 1019.6)" fill="#E13C95"/>
<rect x="827.066" y="1052.24" width="21.3137" height="85.921" transform="rotate(-90 827.066 1052.24)" fill="#E13C95"/>
<rect x="683.875" y="1052.57" width="21.3137" height="85.588" transform="rotate(-90 683.875 1052.57)" fill="#E13C95"/>
<rect x="683.539" y="1088.87" width="21.3137" height="229.456" transform="rotate(-90 683.539 1088.87)" fill="#E13C95"/>
<rect x="683.539" y="1117.85" width="21.3137" height="229.456" transform="rotate(-90 683.539 1117.85)" fill="#E13C95"/>
<rect x="744.477" y="929.018" width="21.3137" height="28.9733" fill="#C7FF51"/>
<rect x="715.84" y="961.662" width="21.3137" height="28.9733" fill="#C7FF51"/>
<rect x="773.125" y="957.999" width="21.3137" height="7.65962" fill="#C7FF51"/>
<rect x="830.41" y="961.662" width="21.3137" height="28.9733" fill="#C7FF51"/>
<rect x="744.477" y="994.298" width="21.3137" height="28.9733" fill="#C7FF51"/>
<rect x="715.84" y="1030.92" width="21.3137" height="28.9733" fill="#C7FF51"/>
<rect x="773.125" y="1052.24" width="21.3137" height="15.3192" fill="#C7FF51"/>
<rect x="744.477" y="1063.56" width="21.3137" height="28.9733" fill="#C7FF51"/>
<rect x="801.766" y="1063.56" width="21.3137" height="28.9733" fill="#C7FF51"/>
<rect x="773.125" y="1092.54" width="21.3137" height="28.9733" fill="#C7FF51"/>
<rect x="830.41" y="1092.54" width="21.3137" height="28.9733" fill="#C7FF51"/>
<rect x="887.68" y="1092.54" width="21.3137" height="28.9733" fill="#C7FF51"/>
<rect x="715.84" y="1092.54" width="21.3137" height="28.9733" fill="#C7FF51"/>
<rect x="859.051" y="1063.56" width="21.3137" height="28.9733" fill="#C7FF51"/>
<rect x="687.199" y="1063.56" width="21.3137" height="28.9733" fill="#C7FF51"/>
<rect x="830.41" y="1030.92" width="21.3137" height="28.9733" fill="#C7FF51"/>
<rect x="887.68" y="1027.27" width="21.3137" height="28.9733" fill="#C7FF51"/>
<rect x="859.051" y="990.634" width="21.3137" height="28.9733" fill="#C7FF51"/>
<rect x="687.199" y="994.298" width="21.3137" height="28.9733" fill="#C7FF51"/>
<rect x="687.199" y="929.354" width="21.3137" height="28.9733" fill="#C7FF51"/>
<rect x="887.68" y="961.662" width="21.3137" height="28.9733" fill="#C7FF51"/>
<rect x="801.766" y="929.018" width="21.3137" height="28.9733" fill="#C7FF51"/>
<rect x="859.051" y="929.018" width="21.3137" height="28.9733" fill="#C7FF51"/>
<rect x="104.039" y="620.159" width="22.0277" height="909.915" fill="#FFD549" fill-opacity="0.988542"/>
<rect x="162.293" y="1221.69" width="21.4403" height="238.189" fill="#FFD549" fill-opacity="0.988542"/>
<rect x="219.93" y="1311.14" width="21.4403" height="44.2207" fill="#FFD549" fill-opacity="0.988542"/>
<rect x="219.93" y="1417.33" width="21.4403" height="42.5457" fill="#FFD549" fill-opacity="0.988542"/>
<rect x="248.727" y="1221.69" width="21.4403" height="41.5407" fill="#FFD549" fill-opacity="0.988542"/>
<rect x="191.109" y="1221.69" width="21.4403" height="41.5407" fill="#FFD549" fill-opacity="0.988542"/>
<rect x="219.93" y="1221.69" width="21.4403" height="41.5407" fill="#FFD549" fill-opacity="0.988542"/>
<rect x="277.535" y="1221.69" width="21.4403" height="238.189" fill="#FFD549" fill-opacity="0.988542"/>
<rect x="100.988" y="1252.84" width="21.4403" height="214.738" transform="rotate(-90 100.988 1252.84)" fill="#E13C95"/>
<rect x="133.488" y="1221.69" width="21.4403" height="238.189" fill="#FFD549" fill-opacity="0.988542"/>
<rect x="191.109" y="1417.33" width="21.4403" height="42.5457" fill="#FFD549" fill-opacity="0.988542"/>
<rect x="191.109" y="1311.8" width="21.4403" height="43.5507" fill="#FFD549" fill-opacity="0.988542"/>
<rect x="191.109" y="1231.4" width="21.4403" height="27.8054" fill="#FFD549" fill-opacity="0.988542"/>
<rect x="248.727" y="1311.14" width="21.4403" height="44.2207" fill="#FFD549" fill-opacity="0.988542"/>
<rect x="248.727" y="1417.33" width="21.4403" height="42.2107" fill="#FFD549" fill-opacity="0.988542"/>
<rect x="248.727" y="1221.69" width="21.4403" height="37.5206" fill="#FFD549" fill-opacity="0.988542"/>
<rect x="306.352" y="1241.11" width="21.4403" height="77.3862" fill="#FFD549" fill-opacity="0.988542"/>
<rect x="273.492" y="1282.68" width="22.0277" height="413.444" transform="rotate(-90 273.492 1282.68)" fill="#E13C95"/>
<rect x="-26.4258" y="1282.68" width="22.0277" height="216.889" transform="rotate(-90 -26.4258 1282.68)" fill="#E13C95"/>
<rect x="273.188" y="1311.14" width="21.4403" height="58.6259" transform="rotate(-90 273.188 1311.14)" fill="#E13C95"/>
<rect x="100.988" y="1311.14" width="21.4403" height="90.1164" transform="rotate(-90 100.988 1311.14)" fill="#E13C95"/>
<rect x="100.988" y="1343.97" width="21.4403" height="202.008" transform="rotate(-90 100.988 1343.97)" fill="#E13C95"/>
<rect x="270.176" y="1376.79" width="21.4403" height="61.641" transform="rotate(-90 270.176 1376.79)" fill="#E13C95"/>
<rect x="100.988" y="1376.79" width="21.4403" height="90.1164" transform="rotate(-90 100.988 1376.79)" fill="#E13C95"/>
<rect x="270.176" y="1413.64" width="21.4403" height="61.641" transform="rotate(-90 270.176 1413.64)" fill="#E13C95"/>
<rect x="100.66" y="1413.64" width="21.4403" height="90.4514" transform="rotate(-90 100.66 1413.64)" fill="#E13C95"/>
<rect x="100.988" y="1442.79" width="21.4403" height="218.423" transform="rotate(-90 100.988 1442.79)" fill="#E13C95"/>
<rect x="162.293" y="1252.84" width="21.4403" height="29.1455" fill="#FFD549" fill-opacity="0.988542"/>
<rect x="133.488" y="1285.68" width="21.4403" height="29.1455" fill="#FFD549" fill-opacity="0.988542"/>
<rect x="162.293" y="1318.5" width="21.4403" height="29.1455" fill="#FFD549" fill-opacity="0.988542"/>
<rect x="133.488" y="1355.35" width="21.4403" height="29.1455" fill="#FFD549" fill-opacity="0.988542"/>
<rect x="162.293" y="1388.18" width="21.4403" height="29.1455" fill="#FFD549" fill-opacity="0.988542"/>
<rect x="191.109" y="1417.33" width="21.4403" height="29.1455" fill="#FFD549" fill-opacity="0.988542"/>
<rect x="248.727" y="1417.33" width="21.4403" height="29.1455" fill="#FFD549" fill-opacity="0.988542"/>
<rect x="306.352" y="1413.64" width="21.4403" height="19.0953" fill="#FFD549" fill-opacity="0.988542"/>
<rect x="133.488" y="1417.33" width="21.4403" height="29.1455" fill="#FFD549" fill-opacity="0.988542"/>
<rect x="277.535" y="1392.2" width="21.4403" height="25.1254" fill="#FFD549" fill-opacity="0.988542"/>
<rect x="104.68" y="1388.18" width="21.4403" height="29.1455" fill="#FFD549" fill-opacity="0.988542"/>
<rect x="248.727" y="1342.95" width="21.4403" height="8.71014" fill="#FFD549" fill-opacity="0.988542"/>
<rect x="306.352" y="1351.67" width="21.4403" height="40.5356" fill="#FFD549" fill-opacity="0.988542"/>
<rect x="219.93" y="1318.5" width="21.4403" height="29.1455" fill="#FFD549" fill-opacity="0.988542"/>
<rect x="277.535" y="1314.81" width="21.4403" height="29.1455" fill="#FFD549" fill-opacity="0.988542"/>
<rect x="104.68" y="1318.5" width="21.4403" height="29.1455" fill="#FFD549" fill-opacity="0.988542"/>
<rect x="104.68" y="1253.17" width="21.4403" height="29.1455" fill="#FFD549" fill-opacity="0.988542"/>
<rect x="306.352" y="1285.68" width="21.4403" height="29.1455" fill="#FFD549" fill-opacity="0.988542"/>
<rect x="277.535" y="1252.84" width="21.4403" height="29.1455" fill="#FFD549" fill-opacity="0.988542"/>
<rect x="395.742" y="1221.68" width="21.2478" height="236.049" fill="#49FF9D" fill-opacity="0.988542"/>
<rect x="452.852" y="1221.68" width="21.2478" height="236.049" fill="#49FF9D" fill-opacity="0.988542"/>
<rect x="509.949" y="1313.98" width="21.2478" height="36.5196" fill="#49FF9D" fill-opacity="0.988542"/>
<rect x="510.703" y="1391.12" width="20.3333" height="132.166" fill="#49FF9D" fill-opacity="0.988542"/>
<rect x="509.949" y="1221.68" width="21.2478" height="59.7593" fill="#49FF9D" fill-opacity="0.988542"/>
<rect x="392.094" y="1252.56" width="21.2478" height="228.746" transform="rotate(-90 392.094 1252.56)" fill="#9042C4"/>
<rect x="424.293" y="1221.68" width="21.2478" height="236.049" fill="#49FF9D" fill-opacity="0.988542"/>
<rect x="481.902" y="1391.12" width="20.3333" height="135.555" fill="#49FF9D" fill-opacity="0.988542"/>
<rect x="481.398" y="1313.98" width="21.2478" height="37.5156" fill="#49FF9D" fill-opacity="0.988542"/>
<rect x="481.398" y="1221.68" width="21.2478" height="59.7593" fill="#49FF9D" fill-opacity="0.988542"/>
<rect x="538.508" y="1386.68" width="21.2478" height="71.0472" fill="#49FF9D" fill-opacity="0.988542"/>
<rect x="538.508" y="1221.68" width="21.2478" height="59.7593" fill="#49FF9D" fill-opacity="0.988542"/>
<rect x="538.508" y="1313.98" width="21.2478" height="36.5196" fill="#49FF9D" fill-opacity="0.988542"/>
<rect x="595.605" y="1221.68" width="21.2478" height="59.7593" fill="#49FF9D" fill-opacity="0.988542"/>
<rect x="595.605" y="1386.68" width="21.2478" height="71.0472" fill="#49FF9D" fill-opacity="0.988542"/>
<rect x="595.605" y="1314.65" width="21.2478" height="35.8556" fill="#49FF9D" fill-opacity="0.988542"/>
<rect x="392.094" y="1282.68" width="22.0277" height="228.75" transform="rotate(-90 392.094 1282.68)" fill="#E13C95"/>
<rect x="392.094" y="1310.32" width="21.2478" height="89.3071" transform="rotate(-90 392.094 1310.32)" fill="#9042C4"/>
<rect x="392.094" y="1342.87" width="21.2478" height="228.746" transform="rotate(-90 392.094 1342.87)" fill="#9042C4"/>
<rect x="392.094" y="1375.4" width="21.2478" height="89.3071" transform="rotate(-90 392.094 1375.4)" fill="#9042C4"/>
<rect x="392.094" y="1411.91" width="21.2478" height="228.746" transform="rotate(-90 392.094 1411.91)" fill="#9042C4"/>
<rect x="392.094" y="1440.8" width="21.2478" height="228.746" transform="rotate(-90 392.094 1440.8)" fill="#9042C4"/>
<rect x="452.852" y="1252.56" width="21.2478" height="28.8837" fill="#49FF9D" fill-opacity="0.988542"/>
<rect x="453.09" y="1255.58" width="21.2478" height="28.8837" fill="#49FF9D" fill-opacity="0.988542"/>
<rect x="424.293" y="1285.1" width="21.2478" height="28.8837" fill="#49FF9D" fill-opacity="0.988542"/>
<rect x="452.852" y="1317.64" width="21.2478" height="28.8837" fill="#49FF9D" fill-opacity="0.988542"/>
<rect x="424.293" y="1354.14" width="21.2478" height="28.8837" fill="#49FF9D" fill-opacity="0.988542"/>
<rect x="481.398" y="1386.68" width="21.2478" height="3.9828" fill="#49FF9D" fill-opacity="0.988542"/>
<rect x="452.852" y="1386.68" width="21.2478" height="28.8837" fill="#49FF9D" fill-opacity="0.988542"/>
<rect x="510.703" y="1386.04" width="20.3333" height="32.1944" fill="#49FF9D" fill-opacity="0.988542"/>
<rect x="481.902" y="1414.85" width="20.3333" height="33.8888" fill="#49FF9D" fill-opacity="0.988542"/>
<rect x="538.508" y="1415.57" width="21.2478" height="28.8837" fill="#49FF9D" fill-opacity="0.988542"/>
<rect x="595.605" y="1415.57" width="21.2478" height="28.8837" fill="#49FF9D" fill-opacity="0.988542"/>
<rect x="424.293" y="1415.57" width="21.2478" height="28.8837" fill="#49FF9D" fill-opacity="0.988542"/>
<rect x="567.055" y="1386.68" width="21.2478" height="32.8676" fill="#49FF9D" fill-opacity="0.988542"/>
<rect x="395.742" y="1386.68" width="21.2478" height="28.8837" fill="#49FF9D" fill-opacity="0.988542"/>
<rect x="509.949" y="1313.98" width="21.2478" height="32.5357" fill="#49FF9D" fill-opacity="0.988542"/>
<rect x="567.055" y="1313.98" width="21.2478" height="36.5196" fill="#49FF9D" fill-opacity="0.988542"/>
<rect x="567.055" y="1440.8" width="21.2478" height="16.9318" fill="#49FF9D" fill-opacity="0.988542"/>
<rect x="395.742" y="1317.64" width="21.2478" height="28.8837" fill="#49FF9D" fill-opacity="0.988542"/>
<rect x="395.742" y="1257.26" width="21.2478" height="28.8837" fill="#49FF9D" fill-opacity="0.988542"/>
<rect x="509.949" y="1252.56" width="21.2478" height="32.5357" fill="#49FF9D" fill-opacity="0.988542"/>
<rect x="567.055" y="1252.56" width="21.2478" height="32.5357" fill="#49FF9D" fill-opacity="0.988542"/>
<rect x="567.055" y="1221.68" width="21.2478" height="9.62789" fill="#49FF9D" fill-opacity="0.988542"/>
<rect width="21.3137" height="236.782" transform="matrix(1 0 0 -1 687.199 1452.16)" fill="#FB95D2"/>
<rect width="21.3137" height="236.782" transform="matrix(1 0 0 -1 744.477 1452.16)" fill="#FB95D2"/>
<rect width="21.3137" height="140.537" transform="matrix(1 0 0 -1 801.766 1355.91)" fill="#FB95D2"/>
<rect width="21.3137" height="140.537" transform="matrix(1 0 0 -1 859.051 1355.91)" fill="#FB95D2"/>
<rect width="21.3137" height="85.921" transform="matrix(-4.36987e-08 1 1 4.37241e-08 683.539 1421.19)" fill="#E13C95"/>
<rect width="22.0277" height="352.444" transform="matrix(1 0 0 -1 715.738 1567.35)" fill="#FB95D2"/>
<rect width="21.3137" height="140.537" transform="matrix(1 0 0 -1 773.125 1355.91)" fill="#FB95D2"/>
<rect width="21.3137" height="140.537" transform="matrix(1 0 0 -1 830.41 1355.91)" fill="#C7FF51"/>
<rect width="21.3137" height="140.537" transform="matrix(1 0 0 -1 887.68 1355.91)" fill="#FB95D2"/>
<rect width="21.3137" height="85.921" transform="matrix(-4.36987e-08 1 1 4.37241e-08 683.539 1392.21)" fill="#E13C95"/>
<rect width="21.3137" height="85.2549" transform="matrix(-4.36987e-08 1 1 4.37241e-08 683.539 1363.24)" fill="#E13C95"/>
<rect width="21.3137" height="229.456" transform="matrix(-4.36987e-08 1 1 4.37241e-08 683.539 1330.6)" fill="#E13C95"/>
<rect width="21.3137" height="229.456" transform="matrix(-4.36987e-08 1 1 4.37241e-08 683.539 1297.97)" fill="#E13C95"/>
<rect width="22.0277" height="376.166" transform="matrix(-4.36987e-08 1 1 4.37241e-08 683.539 1260.66)" fill="#E13C95"/>
<rect width="21.3137" height="229.456" transform="matrix(-4.36987e-08 1 1 4.37241e-08 683.539 1232.36)" fill="#E13C95"/>
<rect width="21.3137" height="28.9733" transform="matrix(1 0 0 -1 744.477 1421.19)" fill="#FB95D2"/>
<rect width="21.3137" height="28.9733" transform="matrix(1 0 0 -1 715.84 1388.55)" fill="#FB95D2"/>
<rect width="21.3137" height="28.9733" transform="matrix(1 0 0 -1 744.477 1355.91)" fill="#FB95D2"/>
<rect width="21.3137" height="28.9733" transform="matrix(1 0 0 -1 715.84 1319.28)" fill="#FB95D2"/>
<rect width="21.3137" height="28.9733" transform="matrix(1 0 0 -1 773.125 1319.28)" fill="#FB95D2"/>
<rect width="21.3137" height="28.9733" transform="matrix(1 0 0 -1 744.477 1286.64)" fill="#FB95D2"/>
<rect width="21.3137" height="28.9733" transform="matrix(1 0 0 -1 801.766 1286.64)" fill="#FB95D2"/>
<rect width="21.3137" height="28.9733" transform="matrix(1 0 0 -1 773.125 1257.66)" fill="#FB95D2"/>
<rect width="21.3137" height="28.9733" transform="matrix(1 0 0 -1 830.41 1257.66)" fill="#C7FF51"/>
<rect width="21.3137" height="28.9733" transform="matrix(1 0 0 -1 887.68 1257.66)" fill="#FB95D2"/>
<rect width="21.3137" height="28.9733" transform="matrix(1 0 0 -1 715.84 1257.66)" fill="#FB95D2"/>
<rect width="21.3137" height="28.9733" transform="matrix(1 0 0 -1 859.051 1286.64)" fill="#FB95D2"/>
<rect width="21.3137" height="28.9733" transform="matrix(1 0 0 -1 687.199 1286.64)" fill="#FB95D2"/>
<rect width="21.3137" height="28.9733" transform="matrix(1 0 0 -1 830.41 1319.28)" fill="#FB95D2"/>
<rect width="21.3137" height="28.9733" transform="matrix(1 0 0 -1 887.68 1322.94)" fill="#FB95D2"/>
<rect width="21.3137" height="28.9733" transform="matrix(1 0 0 -1 801.766 1355.91)" fill="#FB95D2"/>
<rect width="21.3137" height="25.3101" transform="matrix(1 0 0 -1 859.051 1355.91)" fill="#FB95D2"/>
<rect width="21.3137" height="28.9733" transform="matrix(1 0 0 -1 687.199 1355.91)" fill="#FB95D2"/>
<rect width="21.3137" height="28.9733" transform="matrix(1 0 0 -1 687.199 1420.85)" fill="#FB95D2"/>
<path d="M164.977 687.428C168.039 687.428 170.271 689.108 171.398 691.617H168.422C167.656 690.617 166.423 689.916 164.977 689.916C162.383 689.916 160.47 691.999 160.47 694.763C160.47 697.527 162.383 699.611 164.977 699.611C166.423 699.611 167.656 698.931 168.422 697.91H171.398C170.271 700.44 168.039 702.099 164.977 702.099C160.831 702.099 157.684 698.973 157.684 694.763C157.684 690.553 160.831 687.428 164.977 687.428ZM172.646 687.704H184.638V690.192H180.045V701.822H177.26V690.192H172.646V687.704ZM192.172 695.061L195.978 687.704H198.784L193.277 698.505C192.002 701.014 191.385 701.822 189.259 701.822H187.452V699.335H189.025C189.876 699.335 190.28 699.058 190.62 698.314L190.79 697.931L185.517 687.704H188.366L192.172 695.061ZM200.529 687.704H210.969V699.335H212.903V704.948H210.182V701.822H200.508V704.948H197.786V699.335H199.147C200.168 698.208 200.529 696.082 200.529 694.04V687.704ZM203.314 690.192V694.019C203.314 695.678 203.165 697.74 202.4 699.335H208.183V690.192H203.314ZM227.805 701.822H225.019V691.893L218.003 701.822H215.218V687.704H218.003V697.634L225.019 687.704H227.805V701.822ZM230.677 692.042C230.677 689.703 232.208 687.704 235.567 687.704H242.541V701.822H239.756V696.4H237.523L233.399 701.822H229.933L234.164 696.273C231.783 695.805 230.677 694.04 230.677 692.042ZM239.756 693.913V690.192H235.759C234.313 690.192 233.462 690.915 233.462 692.042C233.462 693.169 234.313 693.913 235.759 693.913H239.756ZM165.02 731.099C160.682 731.099 157.684 727.803 157.684 723.763C157.684 719.702 160.682 716.428 165.02 716.428C169.357 716.428 172.355 719.702 172.355 723.763C172.355 727.803 169.357 731.099 165.02 731.099ZM165.02 728.611C167.656 728.611 169.57 726.442 169.57 723.763C169.57 721.063 167.656 718.916 165.02 718.916C162.383 718.916 160.47 721.063 160.47 723.763C160.47 726.442 162.383 728.611 165.02 728.611ZM186.717 726.336C186.717 728.76 185.122 730.822 181.656 730.822H174.874V716.704H185.611V719.192H177.659V721.828H181.656C185.122 721.828 186.717 723.891 186.717 726.336ZM177.659 724.316V728.335H181.444C183.017 728.335 183.931 727.548 183.931 726.336C183.931 725.124 183.017 724.316 181.444 724.316H177.659ZM194.331 724.061L198.137 716.704H200.944L195.437 727.505C194.161 730.014 193.545 730.822 191.418 730.822H189.611V728.335H191.185C192.035 728.335 192.439 728.058 192.779 727.314L192.949 726.931L187.676 716.704H190.525L194.331 724.061ZM201.957 716.704H204.742V720.85C204.742 722.658 205.678 723.338 207.889 723.338C208.739 723.338 210.058 723.232 211.248 723.019V716.704H214.034V730.822H211.248V725.528C210.334 725.677 208.803 725.826 207.995 725.826C203.87 725.826 201.957 724.231 201.957 720.914V716.704ZM227.223 719.192H220.1V722.509H227.074V724.996H220.1V728.335H227.223V730.822H217.315V716.704H227.223V719.192ZM242.522 730.822H239.737V724.996H232.89V730.822H230.105V716.704H232.89V722.509H239.737V716.704H242.522V730.822ZM258.39 730.822H255.604V720.893L248.588 730.822H245.802V716.704H248.588V726.634L255.604 716.704H258.39V730.822ZM261.262 721.042C261.262 718.703 262.793 716.704 266.152 716.704H273.126V730.822H270.341V725.4H268.108L263.983 730.822H260.518L264.749 725.273C262.367 724.805 261.262 723.04 261.262 721.042ZM270.341 722.913V719.192H266.343C264.898 719.192 264.047 719.915 264.047 721.042C264.047 722.169 264.898 722.913 266.343 722.913H270.341ZM170.654 759.822H167.869V748.192H161.235V759.822H158.45V745.704H170.654V759.822ZM180.489 760.099C176.151 760.099 173.153 756.803 173.153 752.763C173.153 748.702 176.151 745.428 180.489 745.428C184.826 745.428 187.824 748.702 187.824 752.763C187.824 756.803 184.826 760.099 180.489 760.099ZM180.489 757.611C183.125 757.611 185.039 755.442 185.039 752.763C185.039 750.063 183.125 747.916 180.489 747.916C177.852 747.916 175.938 750.063 175.938 752.763C175.938 755.442 177.852 757.611 180.489 757.611ZM192.044 745.704H202.483V759.822H199.698V748.192H194.829V752.402C194.829 755.931 194.34 759.822 190.258 759.822H189.003V757.313H189.811C191.916 757.313 192.044 754.741 192.044 752.593V745.704ZM215.657 748.192H208.535V751.509H215.509V753.996H208.535V757.335H215.657V759.822H205.749V745.704H215.657V748.192ZM217.392 745.704H229.383V748.192H224.791V759.822H222.005V748.192H217.392V745.704ZM236.918 753.061L240.723 745.704H243.53L238.023 756.505C236.747 759.014 236.131 759.822 234.005 759.822H232.197V757.335H233.771C234.621 757.335 235.025 757.058 235.365 756.314L235.536 755.931L230.263 745.704H233.112L236.918 753.061ZM170.867 788.822H168.081V782.996H161.235V788.822H158.45V774.704H161.235V780.509H168.081V774.704H170.867V788.822ZM181.376 774.704L187.521 788.822H184.565L183.183 785.697H176.741L175.359 788.822H172.51L178.655 774.704H181.376ZM179.973 778.404L177.847 783.209H182.078L179.973 778.404ZM205.53 788.822H201.852L196.409 783.23V788.822H193.623V774.704H196.409V780.424L202.022 774.704H205.53L198.641 781.763L205.53 788.822ZM213.44 789.099C209.103 789.099 206.105 785.803 206.105 781.763C206.105 777.702 209.103 774.428 213.44 774.428C217.778 774.428 220.776 777.702 220.776 781.763C220.776 785.803 217.778 789.099 213.44 789.099ZM213.44 786.611C216.077 786.611 217.991 784.442 217.991 781.763C217.991 779.063 216.077 776.916 213.44 776.916C210.804 776.916 208.89 779.063 208.89 781.763C208.89 784.442 210.804 786.611 213.44 786.611ZM229.78 774.704C232.99 774.704 234.478 776.512 234.478 778.744C234.478 780.02 233.926 781.147 232.841 781.763C233.926 782.38 234.478 783.507 234.478 784.782C234.478 787.015 232.99 788.822 229.78 788.822H223.295V774.704H229.78ZM226.08 777.192V780.53H229.503C230.821 780.53 231.693 779.956 231.693 778.872C231.693 777.745 230.843 777.192 229.503 777.192H226.08ZM226.08 783.018V786.335H229.503C230.821 786.335 231.693 785.782 231.693 784.697C231.693 783.571 230.843 783.018 229.503 783.018H226.08ZM249.05 779.042C249.05 781.402 247.519 783.4 244.159 783.4H239.971V788.822H237.185V774.704H244.159C247.519 774.704 249.05 776.703 249.05 779.042ZM239.971 777.192V780.913H243.968C245.414 780.913 246.264 780.169 246.264 779.042C246.264 777.915 245.414 777.192 243.968 777.192H239.971ZM257.537 774.704L263.682 788.822H260.727L259.344 785.697H252.902L251.52 788.822H248.671L254.816 774.704H257.537ZM256.134 778.404L254.008 783.209H258.239L256.134 778.404ZM263.981 788.822L268.999 781.806L263.981 774.704H267.191L270.614 779.552L274.08 774.704H277.184L272.145 781.721L277.184 788.822H273.995L270.529 783.953L267.042 788.822H263.981ZM164.977 803.428C168.039 803.428 170.271 805.108 171.398 807.617H168.422C167.656 806.617 166.423 805.916 164.977 805.916C162.383 805.916 160.47 807.999 160.47 810.763C160.47 813.527 162.383 815.611 164.977 815.611C166.423 815.611 167.656 814.931 168.422 813.91H171.398C170.271 816.44 168.039 818.099 164.977 818.099C160.831 818.099 157.684 814.973 157.684 810.763C157.684 806.553 160.831 803.428 164.977 803.428ZM181.023 803.704L187.168 817.822H184.212L182.83 814.697H176.388L175.006 817.822H172.157L178.302 803.704H181.023ZM179.62 807.404L177.494 812.209H181.725L179.62 807.404ZM192.059 803.704L197.247 814.824L202.435 803.704H205.603V817.822H202.818V808.977L198.714 817.822H195.695L191.591 808.977V817.822H188.806V803.704H192.059ZM215.455 818.099C211.117 818.099 208.119 814.803 208.119 810.763C208.119 806.702 211.117 803.428 215.455 803.428C219.792 803.428 222.79 806.702 222.79 810.763C222.79 814.803 219.792 818.099 215.455 818.099ZM215.455 815.611C218.091 815.611 220.005 813.442 220.005 810.763C220.005 808.063 218.091 805.916 215.455 805.916C212.818 805.916 210.905 808.063 210.905 810.763C210.905 813.442 212.818 815.611 215.455 815.611ZM227.01 803.704H237.449L237.449 817.822H234.664L234.664 806.192H229.795V810.402C229.795 813.931 229.306 817.822 225.224 817.822H223.969V815.313H224.777C226.882 815.313 227.01 812.741 227.01 810.593V803.704ZM250.623 806.192H243.501V809.509H250.475V811.996H243.501L243.501 815.335H250.623V817.822H240.715L240.715 803.704H250.623V806.192ZM252.358 803.704H264.349V806.192H259.757V817.822H256.971V806.192H252.358V803.704ZM272.757 803.704L278.902 817.822H275.946L274.564 814.697H268.122L266.74 817.822H263.891L270.035 803.704H272.757ZM271.354 807.404L269.227 812.209H273.459L271.354 807.404ZM279.201 817.822L284.218 810.806L279.201 803.704H282.411L285.834 808.552L289.3 803.704H292.404L287.365 810.721L292.404 817.822H289.215L285.749 812.953L282.262 817.822H279.201Z" fill="#E7FF51"/>
<path d="M411.715 696.588C411.715 698.876 410.21 700.822 406.939 700.822H400.537V687.498H410.671V689.846H403.166V692.334H406.939C410.21 692.334 411.715 694.28 411.715 696.588ZM403.166 694.682V698.474H406.738C408.223 698.474 409.086 697.732 409.086 696.588C409.086 695.444 408.223 694.682 406.738 694.682H403.166ZM420.181 701.083C416.088 701.083 413.258 697.973 413.258 694.16C413.258 690.327 416.088 687.237 420.181 687.237C424.275 687.237 427.104 690.327 427.104 694.16C427.104 697.973 424.275 701.083 420.181 701.083ZM420.181 698.735C422.669 698.735 424.475 696.689 424.475 694.16C424.475 691.612 422.669 689.585 420.181 689.585C417.693 689.585 415.887 691.612 415.887 694.16C415.887 696.689 417.693 698.735 420.181 698.735ZM431.087 687.498H440.939V700.822H438.311V689.846H433.715V693.819C433.715 697.15 433.254 700.822 429.401 700.822H428.217V698.454H428.98C430.966 698.454 431.087 696.026 431.087 694V687.498ZM455.199 696.588C455.199 698.876 453.694 700.822 450.423 700.822H444.022V687.498H446.651V692.334H450.423C453.694 692.334 455.199 694.28 455.199 696.588ZM446.651 694.682V698.474H450.223C451.707 698.474 452.57 697.732 452.57 696.588C452.57 695.444 451.707 694.682 450.223 694.682H446.651ZM472.335 687.498H474.963V700.822H457.465V687.498H460.094V698.474H464.91V687.498H467.539V698.474H472.335V687.498ZM484.884 687.498L490.683 700.822H487.894L486.589 697.872H480.509L479.205 700.822H476.516L482.315 687.498H484.884ZM483.559 690.99L481.553 695.525H485.546L483.559 690.99ZM491.848 691.592C491.848 689.384 493.293 687.498 496.463 687.498H503.045V700.822H500.417V695.705H498.309L494.417 700.822H491.146L495.139 695.585C492.891 695.143 491.848 693.478 491.848 691.592ZM500.417 693.357V689.846H496.644C495.279 689.846 494.477 690.528 494.477 691.592C494.477 692.655 495.279 693.357 496.644 693.357H500.417ZM412.256 727.822H409.628V722.324H403.166V727.822H400.537V714.498H403.166V719.976H409.628V714.498H412.256V727.822ZM427.232 727.822H424.603V718.451L417.981 727.822H415.352V714.498H417.981V723.869L424.603 714.498H427.232V727.822ZM441.561 727.822H438.09L432.953 722.545V727.822H430.324V714.498H432.953V719.896L438.25 714.498H441.561L435.06 721.16L441.561 727.822ZM455.059 727.822H452.43V718.451L445.808 727.822H443.179V714.498H445.808V723.869L452.43 714.498H455.059V727.822ZM457.067 714.498H468.385V716.846H464.051V727.822H461.422V716.846H457.067V714.498ZM476.285 714.237C479.175 714.237 481.282 715.822 482.345 718.19H479.536C478.813 717.247 477.649 716.585 476.285 716.585C473.837 716.585 472.031 718.551 472.031 721.16C472.031 723.769 473.837 725.735 476.285 725.735C477.649 725.735 478.813 725.093 479.536 724.13H482.345C481.282 726.518 479.175 728.083 476.285 728.083C472.372 728.083 469.402 725.133 469.402 721.16C469.402 717.187 472.372 714.237 476.285 714.237ZM495.844 727.822H492.372L487.235 722.545V727.822H484.606L484.606 714.498H487.235V719.896L492.533 714.498H495.844L489.342 721.16L495.844 727.822ZM504.284 714.498L510.084 727.822H507.294L505.99 724.872H499.91L498.605 727.822H495.916L501.716 714.498H504.284ZM502.96 717.99L500.953 722.525H504.946L502.96 717.99ZM511.248 718.592C511.248 716.384 512.693 714.498 515.864 714.498H522.446V727.822H519.817V722.705H517.71L513.817 727.822H510.546L514.539 722.585C512.292 722.143 511.248 720.478 511.248 718.592ZM519.817 720.357V716.846H516.044C514.68 716.846 513.877 717.528 513.877 718.592C513.877 719.655 514.68 720.357 516.044 720.357H519.817ZM526.547 730.571H524.801L526.466 727.822H525.082V724.832H528.072V728.123L526.547 730.571ZM401.862 741.498H411.715V752.474H413.541V757.772H410.972V754.822H401.842V757.772H399.273V752.474H400.557C401.521 751.411 401.862 749.404 401.862 747.478V741.498ZM404.49 743.846V747.458C404.49 749.023 404.35 750.969 403.628 752.474H409.086V743.846H404.49ZM416.185 754.822V751.832H419.175V754.822H416.185ZM422.652 754.822V744.528L419.903 747.056V743.966L422.532 741.498H425.281V754.822H422.652ZM434.436 746.474H437.064V749.665H439.191V752.013H437.064V754.822H434.436V752.013H427.593V749.665L433.974 741.498H437.024L430.623 749.665H434.436V746.474Z" fill="#E7FF51"/>
<path d="M604.858 691.934L609.754 702.429L614.65 691.934H617.64V705.259H615.011V696.911L611.138 705.259H608.289L604.416 696.911V705.259H601.787V691.934H604.858ZM627.56 691.934L633.359 705.259H630.57L629.266 702.309H623.185L621.881 705.259H619.192L624.991 691.934H627.56ZM626.235 695.426L624.229 699.961H628.222L626.235 695.426ZM640.909 691.674C643.799 691.674 645.906 693.259 646.969 695.627H644.16C643.438 694.684 642.274 694.021 640.909 694.021C638.461 694.021 636.655 695.988 636.655 698.597C636.655 701.205 638.461 703.172 640.909 703.172C642.274 703.172 643.438 702.53 644.16 701.566H646.969C645.906 703.954 643.799 705.52 640.909 705.52C636.996 705.52 634.026 702.57 634.026 698.597C634.026 694.623 636.996 691.674 640.909 691.674ZM648.147 691.934H659.464V694.282H655.13V705.259H652.501V694.282H648.147V691.934ZM670.829 694.282H664.107V697.413H670.689V699.76H664.107V702.911H670.829V705.259H661.478V691.934H670.829V694.282ZM684.747 696.028C684.747 698.255 683.302 700.142 680.132 700.142H676.178V705.259H673.55V691.934H680.132C683.302 691.934 684.747 693.821 684.747 696.028ZM676.178 694.282V697.794H679.951C681.315 697.794 682.118 697.092 682.118 696.028C682.118 694.965 681.315 694.282 679.951 694.282H676.178ZM698.25 705.259H694.778L689.641 699.981V705.259H687.012V691.934H689.641V697.332L694.939 691.934H698.25L691.748 698.597L698.25 705.259ZM701.924 691.934H711.777V705.259H709.148V694.282H704.553V698.255C704.553 701.587 704.091 705.259 700.238 705.259H699.054V702.891H699.817C701.803 702.891 701.924 700.463 701.924 698.436V691.934ZM721.682 691.934L727.481 705.259H724.692L723.387 702.309H717.307L716.003 705.259H713.314L719.113 691.934H721.682ZM720.357 695.426L718.351 699.961H722.344L720.357 695.426ZM735.031 691.674C737.921 691.674 740.028 693.259 741.091 695.627H738.282C737.559 694.684 736.396 694.021 735.031 694.021C732.583 694.021 730.777 695.988 730.777 698.597C730.777 701.205 732.583 703.172 735.031 703.172C736.396 703.172 737.559 702.53 738.282 701.566H741.091C740.028 703.954 737.921 705.52 735.031 705.52C731.118 705.52 728.148 702.57 728.148 698.597C728.148 694.623 731.118 691.674 735.031 691.674ZM749.513 691.674C752.402 691.674 754.509 693.259 755.573 695.627H752.764C752.041 694.684 750.877 694.021 749.513 694.021C747.065 694.021 745.259 695.988 745.259 698.597C745.259 701.205 747.065 703.172 749.513 703.172C750.877 703.172 752.041 702.53 752.764 701.566H755.573C754.509 703.954 752.402 705.52 749.513 705.52C745.6 705.52 742.63 702.57 742.63 698.597C742.63 694.623 745.6 691.674 749.513 691.674ZM613.306 732.259H610.677V721.282H604.416V732.259H601.787V718.934H613.306V732.259ZM622.587 732.52C618.494 732.52 615.664 729.409 615.664 725.597C615.664 721.764 618.494 718.674 622.587 718.674C626.681 718.674 629.51 721.764 629.51 725.597C629.51 729.409 626.681 732.52 622.587 732.52ZM622.587 730.172C625.076 730.172 626.882 728.125 626.882 725.597C626.882 723.048 625.076 721.021 622.587 721.021C620.099 721.021 618.293 723.048 618.293 725.597C618.293 728.125 620.099 730.172 622.587 730.172ZM647.619 732.259H644.99V721.282H638.73V732.259H636.101V718.934H647.619V732.259ZM652.305 718.934H662.158V732.259H659.53V721.282H654.934V725.255C654.934 728.587 654.473 732.259 650.62 732.259H649.436V729.891H650.198C652.185 729.891 652.305 727.463 652.305 725.436V718.934ZM674.592 721.282H667.869V724.413H674.451V726.76H667.869V729.911H674.592V732.259H665.241V718.934H674.592V721.282ZM676.229 718.934H687.546V721.282H683.212L683.212 732.259H680.583V721.282H676.229V718.934ZM698.911 721.282H692.189V724.413H698.771V726.76H692.189V729.911H698.911V732.259H689.56V718.934H698.911V721.282ZM713.35 732.259H710.722V726.76H704.26V732.259H701.631V718.934H704.26V724.413H710.722V718.934H713.35V732.259ZM728.326 732.259H725.697V722.888L719.075 732.259H716.446V718.934H719.075V728.306L725.697 718.934H728.326V732.259ZM743.217 732.52C739.565 732.52 736.977 730.072 736.475 726.76H734.047V732.259H731.418V718.934H734.047V724.413H736.475C736.977 721.102 739.565 718.674 743.217 718.674C747.311 718.674 750.06 721.704 750.06 725.597C750.06 729.47 747.311 732.52 743.217 732.52ZM743.217 730.172C745.706 730.172 747.431 728.165 747.431 725.597C747.431 723.008 745.706 721.021 743.217 721.021C740.749 721.021 739.023 723.008 739.023 725.597C739.023 728.165 740.749 730.172 743.217 730.172ZM613.025 759.259H609.553L604.416 753.981V759.259H601.787V745.934H604.416V751.332L609.714 745.934H613.025L606.523 752.597L613.025 759.259ZM620.491 759.52C616.397 759.52 613.567 756.409 613.567 752.597C613.567 748.764 616.397 745.674 620.491 745.674C624.584 745.674 627.414 748.764 627.414 752.597C627.414 756.409 624.584 759.52 620.491 759.52ZM620.491 757.172C622.979 757.172 624.785 755.125 624.785 752.597C624.785 750.048 622.979 748.021 620.491 748.021C618.002 748.021 616.196 750.048 616.196 752.597C616.196 755.125 618.002 757.172 620.491 757.172ZM635.911 745.934C638.941 745.934 640.346 747.64 640.346 749.747C640.346 750.951 639.824 752.015 638.801 752.597C639.824 753.179 640.346 754.242 640.346 755.446C640.346 757.553 638.941 759.259 635.911 759.259H629.791V745.934H635.911ZM632.419 748.282V751.433H635.65C636.894 751.433 637.717 750.891 637.717 749.868C637.717 748.804 636.914 748.282 635.65 748.282H632.419ZM632.419 753.781V756.911H635.65C636.894 756.911 637.717 756.389 637.717 755.366C637.717 754.302 636.914 753.781 635.65 753.781H632.419ZM654.098 750.028C654.098 752.255 652.653 754.142 649.483 754.142H645.529V759.259H642.901V745.934H649.483C652.653 745.934 654.098 747.821 654.098 750.028ZM645.529 748.282V751.794H649.302C650.667 751.794 651.469 751.092 651.469 750.028C651.469 748.965 650.667 748.282 649.302 748.282H645.529ZM662.108 745.934L667.908 759.259H665.118L663.814 756.309H657.734L656.43 759.259H653.741L659.54 745.934H662.108ZM660.784 749.426L658.777 753.961H662.771L660.784 749.426Z" fill="#E7FF51"/>
<path d="M828.138 700.822V690.557L825.397 693.078V689.997L828.018 687.536H830.759V700.822H828.138ZM838.887 701.082C835.746 701.082 833.765 699.282 833.765 697.04C833.765 695.92 834.325 694.799 835.486 694.099C834.385 693.419 833.925 692.298 833.925 691.238C833.925 689.036 835.806 687.276 838.887 687.276C841.949 687.276 843.83 689.036 843.83 691.238C843.83 692.298 843.369 693.419 842.269 694.099C843.429 694.799 843.99 695.92 843.99 697.04C843.99 699.282 842.009 701.082 838.887 701.082ZM838.887 698.741C840.388 698.741 841.368 698.001 841.368 697C841.368 695.98 840.408 695.28 838.887 695.28C837.366 695.28 836.386 695.98 836.386 697C836.386 698.001 837.386 698.741 838.887 698.741ZM841.208 691.258C841.208 690.297 840.328 689.597 838.887 689.597C837.446 689.597 836.546 690.297 836.546 691.258C836.546 692.258 837.426 692.938 838.887 692.938C840.348 692.938 841.208 692.258 841.208 691.258ZM846.193 700.822V697.841H849.174V700.822H846.193ZM852.642 700.822V690.557L849.901 693.078V689.997L852.522 687.536H855.263V700.822H852.642ZM860.81 700.822V690.557L858.069 693.078V689.997L860.69 687.536H863.431V700.822H860.81ZM866.437 700.822V697.841H869.418V700.822H866.437ZM875.397 698.481H881.26V700.822H871.735V698.481L877.038 693.879C877.838 693.199 878.399 692.378 878.399 691.538C878.399 690.377 877.578 689.617 876.358 689.617C875.217 689.617 874.277 690.197 873.976 691.518H871.315C871.795 688.976 873.616 687.276 876.258 687.276C879.119 687.276 881.02 688.916 881.02 691.498C881.02 692.838 880.319 694.179 879.079 695.26L875.397 698.481ZM888.022 701.082C885.64 701.082 883.619 699.882 882.959 697.14H885.56C885.981 698.281 886.841 698.741 888.042 698.741C889.422 698.741 890.303 698.021 890.303 697C890.303 695.98 889.522 695.32 888.102 695.32H886.441V692.958H888.082C889.502 692.958 890.263 692.338 890.263 691.318C890.263 690.297 889.442 689.617 888.062 689.617C886.901 689.617 886.021 690.157 885.6 691.218H882.979C883.579 688.516 885.7 687.276 888.042 687.276C891.043 687.276 892.884 689.197 892.884 691.318C892.884 692.358 892.444 693.399 891.363 694.119C892.504 694.879 892.924 695.94 892.924 697C892.924 699.181 891.043 701.082 888.022 701.082ZM832.18 714.276C835.061 714.276 837.162 715.856 838.223 718.218H835.421C834.701 717.277 833.541 716.617 832.18 716.617C829.739 716.617 827.938 718.578 827.938 721.179C827.938 723.78 829.739 725.741 832.18 725.741C833.541 725.741 834.701 725.101 835.421 724.14H838.223C837.162 726.522 835.061 728.082 832.18 728.082C828.278 728.082 825.316 725.141 825.316 721.179C825.316 717.217 828.278 714.276 832.18 714.276ZM846.78 727.822V717.557L844.038 720.078V716.997L846.66 714.536H849.401V727.822H846.78ZM857.169 728.082C854.488 728.082 852.607 726.582 852.106 724.281H854.748C855.168 725.301 856.068 725.741 857.129 725.741C858.63 725.741 859.59 724.761 859.59 723.48C859.59 722.2 858.63 721.259 857.129 721.259C856.269 721.259 855.408 721.579 854.848 722.159H852.507L853.247 714.536H861.671V716.877H855.468L855.248 719.278C855.788 719.058 856.709 718.918 857.389 718.918C859.79 718.918 862.211 720.439 862.211 723.48C862.211 725.941 860.25 728.082 857.169 728.082ZM870.269 714.536H880.094V725.481H881.915V730.764H879.354V727.822H870.249V730.764H867.688V725.481H868.968C869.929 724.421 870.269 722.42 870.269 720.499V714.536ZM872.89 716.877V720.479C872.89 722.039 872.75 723.98 872.03 725.481H877.473V716.877H872.89ZM890.276 728.082C886.194 728.082 883.372 724.981 883.372 721.179C883.372 717.357 886.194 714.276 890.276 714.276C894.358 714.276 897.179 717.357 897.179 721.179C897.179 724.981 894.358 728.082 890.276 728.082ZM890.276 725.741C892.757 725.741 894.558 723.7 894.558 721.179C894.558 718.638 892.757 716.617 890.276 716.617C887.794 716.617 885.994 718.638 885.994 721.179C885.994 723.7 887.794 725.741 890.276 725.741ZM905.852 727.822V717.557L903.11 720.078V716.997L905.732 714.536H908.473V727.822H905.852ZM916.601 728.082C913.459 728.082 911.478 726.282 911.478 724.04C911.478 722.92 912.039 721.799 913.199 721.099C912.099 720.419 911.639 719.298 911.639 718.238C911.639 716.036 913.519 714.276 916.601 714.276C919.662 714.276 921.543 716.036 921.543 718.238C921.543 719.298 921.083 720.419 919.983 721.099C921.143 721.799 921.703 722.92 921.703 724.04C921.703 726.282 919.723 728.082 916.601 728.082ZM916.601 725.741C918.102 725.741 919.082 725.001 919.082 724C919.082 722.98 918.122 722.28 916.601 722.28C915.08 722.28 914.1 722.98 914.1 724C914.1 725.001 915.1 725.741 916.601 725.741ZM918.922 718.258C918.922 717.297 918.042 716.597 916.601 716.597C915.16 716.597 914.26 717.297 914.26 718.258C914.26 719.258 915.14 719.938 916.601 719.938C918.062 719.938 918.922 719.258 918.922 718.258Z" fill="#E7FF51"/>
<path d="M919.161 1438.7C918.483 1439.25 921.907 1435.62 924.17 1433.91C927.1 1432.82 926.9 1431.62 928.147 1431.39C929.394 1431.16 932.011 1432.37 933.409 1433.95C934.807 1435.54 934.101 1437.69 934.43 1439.47C934.759 1441.26 927.768 1445.4 926.507 1446.56C925.247 1447.71 924.061 1453.15 922.59 1454.16C921.118 1455.17 919.63 1455.2 919.246 1457.11C918.863 1459.02 919.416 1462.2 918.417 1463.59C917.244 1465.22 911.54 1469.13 909.638 1474.79C909.043 1476.56 911.119 1482.81 916.244 1484.62C922.391 1486.8 928.466 1476.1 931.324 1472.62C935.128 1468 934.153 1463.01 934.959 1461.39C935.764 1459.77 939.214 1455.51 940.151 1454.6C941.54 1453.25 943.67 1452.6 944.93 1448.56C946.35 1444 947.387 1439.81 948.001 1439.15C948.615 1438.48 953.312 1437.98 955.173 1437.08C957.034 1436.19 959.605 1440.13 960.337 1441.1C960.923 1441.88 959.705 1444.66 959.022 1445.95C958.157 1447.59 956.312 1451.02 955.847 1451.7C955.266 1452.54 948.116 1455.83 950.298 1458.56C951.33 1459.85 954.188 1459 954.201 1459.74C953.2 1460.97 951.231 1463.6 951.362 1464.32C951.494 1465.03 948.184 1467.05 946.512 1467.98C944.722 1468.92 941.002 1471.06 940.448 1472.04C939.893 1473.03 939.072 1476.23 938.73 1477.7C938.059 1479.06 936.46 1481.77 935.436 1481.81C934.157 1481.86 931.57 1483.82 930.764 1485.44C929.959 1487.06 933.481 1489.17 932.853 1490.76C932.226 1492.35 926.954 1495.72 925.192 1497.15C923.43 1498.58 915.698 1497.62 913.95 1498.12C912.201 1498.63 906.41 1496.2 904.174 1496.06C901.937 1495.92 899.174 1492.93 898.832 1492.08C898.489 1491.22 899.064 1488.35 899.856 1487.65C900.489 1487.09 898.956 1484.44 898.109 1483.18C897.842 1482.07 897.487 1479.61 898.21 1478.74C899.114 1477.65 897.749 1476.25 897.618 1475.54C897.486 1474.82 900.377 1471.53 901.736 1470.91C903.095 1470.29 900.404 1469.68 901.012 1466.99C901.62 1464.3 903.059 1463.11 905.144 1461.43C907.229 1459.76 906.678 1453.78 908.242 1451.28C909.807 1448.78 917.266 1443.29 918.137 1442.02C919.008 1440.76 920.248 1437.83 919.161 1438.7Z" fill="#E7FF51" stroke="#E7FF51" stroke-width="0.483445"/>
<path fill-rule="evenodd" clip-rule="evenodd" d="M932.789 1490.41C933.129 1490.59 933.821 1491.21 933.863 1492.23C933.884 1492.75 933.601 1493.56 933.295 1494.44C932.843 1495.73 932.343 1497.16 932.713 1497.97C933.333 1499.33 936.953 1501.98 938.036 1500.86C938.437 1500.44 939.328 1499.81 940.299 1499.12C941.951 1497.95 943.836 1496.61 943.936 1495.9C944.018 1495.31 944.75 1493.96 945.5 1492.58C946.197 1491.29 946.908 1489.98 947.125 1489.23C947.29 1488.66 947.376 1487.93 947.467 1487.15C947.624 1485.81 947.798 1484.33 948.42 1483.28C948.957 1482.38 950.5 1481.29 951.987 1480.24C953.225 1479.37 954.424 1478.52 954.967 1477.83C955.44 1477.24 955.767 1476.32 956.083 1475.43C956.564 1474.08 957.017 1472.81 957.917 1472.87C958.679 1472.91 959.754 1473.1 961.025 1473.31C962.242 1473.52 963.64 1473.75 965.114 1473.93C966.712 1474.12 967.418 1474.53 967.941 1474.84C968.406 1475.11 968.725 1475.29 969.395 1475.17C970.649 1474.94 972.546 1472.02 973.281 1470.89C973.382 1470.74 973.461 1470.61 973.514 1470.54C973.783 1470.15 974.536 1470.09 975.577 1470.01C976.22 1469.96 976.973 1469.9 977.789 1469.75C978.101 1469.69 978.475 1469.63 978.895 1469.55C981.351 1469.12 985.396 1468.42 988.022 1467.3C991.097 1466 997.003 1463.07 998.006 1462.51C999.009 1461.96 1001.71 1459.62 1001.44 1458.19C1001.24 1457.09 1000.66 1456.29 1000.05 1455.45C999.865 1455.2 999.682 1454.95 999.506 1454.68C998.742 1453.53 998.248 1450.86 999.832 1449.46C1001.42 1448.07 1003 1446.67 1002.17 1445.16C1001.34 1443.66 997.818 1441.67 996.684 1441.51C995.549 1441.35 991.09 1440.15 989.533 1439.7C987.976 1439.25 981.709 1440.22 980.462 1440.45C979.934 1440.55 978.851 1440.32 977.602 1440.06C975.899 1439.7 973.888 1439.27 972.552 1439.52C972.315 1439.57 972.084 1439.61 971.86 1439.65C969.898 1439.99 968.408 1440.25 966.726 1441.89C965.654 1442.93 965.056 1444.86 964.538 1446.54C964.15 1447.8 963.807 1448.91 963.343 1449.39C963.019 1449.73 962.522 1450.19 961.965 1450.71C960.661 1451.94 959.031 1453.46 958.545 1454.33C957.976 1455.34 957.146 1456.28 956.447 1457.07C956.293 1457.24 956.147 1457.4 956.01 1457.56C955.852 1457.74 955.68 1457.94 955.503 1458.14C954.83 1458.89 954.085 1459.73 953.766 1460.37C952.862 1461.46 951.08 1463.78 951.185 1464.35C951.256 1464.73 948.301 1466.63 945.443 1468.47C942.989 1470.05 940.606 1471.59 940.27 1472.07C939.544 1473.13 938.632 1477.17 938.731 1477.7C938.81 1478.13 936.806 1480.58 935.794 1481.74C934.525 1481.86 931.678 1482.8 930.442 1485.68C929.206 1488.56 931.491 1490.03 932.789 1490.41ZM962.831 1457.59C962.18 1458.39 960.872 1460.35 960.85 1461.83C960.823 1463.67 962.835 1464.59 963.824 1464.96C964.01 1465.03 964.224 1465.12 964.458 1465.22C965.472 1465.64 966.841 1466.21 967.683 1465.91C968.146 1465.74 968.829 1465.16 969.595 1464.51C970.542 1463.71 971.618 1462.8 972.567 1462.42C974.282 1461.74 976.387 1461.17 977.634 1460.94L982.087 1460.11C982.995 1460.37 985.012 1460.79 985.814 1460.35C985.894 1460.3 985.978 1460.26 986.066 1460.21C987.082 1459.65 988.598 1458.82 989.728 1457.6C990.14 1457.15 990.601 1456.73 991.013 1456.36C991.827 1455.63 992.452 1455.06 992.15 1454.75C991.961 1454.56 991.834 1454.35 991.685 1454.11C991.474 1453.77 991.219 1453.36 990.686 1452.81C990.364 1452.48 990.005 1452.2 989.669 1451.94C989.056 1451.46 988.517 1451.05 988.411 1450.47C988.279 1449.76 988.621 1448.28 988.808 1447.63C988.947 1447.06 988.962 1445.87 987.911 1445.77C987.296 1445.71 986.911 1445.37 986.547 1445.04C986.136 1444.67 985.751 1444.33 985.088 1444.45C984.091 1444.64 980.332 1444.96 978.577 1445.1C977.556 1445.23 975.183 1445.88 973.852 1447.45C972.189 1449.41 969.991 1451.48 969.813 1451.51C969.635 1451.54 966.481 1453.42 965.544 1454.33C964.794 1455.06 963.423 1456.81 962.831 1457.59Z" fill="#E7FF51"/>
<path d="M933.863 1492.23L933.622 1492.24L933.622 1492.24L933.863 1492.23ZM932.789 1490.41L932.903 1490.19L932.88 1490.18L932.856 1490.17L932.789 1490.41ZM933.295 1494.44L933.067 1494.36L933.067 1494.36L933.295 1494.44ZM932.713 1497.97L932.933 1497.87L932.933 1497.87L932.713 1497.97ZM938.036 1500.86L937.862 1500.69L937.862 1500.69L938.036 1500.86ZM940.299 1499.12L940.159 1498.92L940.159 1498.92L940.299 1499.12ZM943.936 1495.9L944.175 1495.93L944.175 1495.93L943.936 1495.9ZM945.5 1492.58L945.287 1492.46L945.287 1492.46L945.5 1492.58ZM947.467 1487.15L947.707 1487.18L947.707 1487.18L947.467 1487.15ZM948.42 1483.28L948.212 1483.16L948.212 1483.16L948.42 1483.28ZM951.987 1480.24L951.847 1480.04L951.847 1480.04L951.987 1480.24ZM954.967 1477.83L954.777 1477.68L954.777 1477.68L954.967 1477.83ZM956.083 1475.43L956.311 1475.51L956.311 1475.51L956.083 1475.43ZM957.917 1472.87L957.932 1472.63L957.932 1472.63L957.917 1472.87ZM961.025 1473.31L961.065 1473.07L961.065 1473.07L961.025 1473.31ZM965.114 1473.93L965.085 1474.17L965.085 1474.17L965.114 1473.93ZM967.941 1474.84L967.82 1475.05L967.82 1475.05L967.941 1474.84ZM973.281 1470.89L973.079 1470.76L973.079 1470.76L973.281 1470.89ZM973.514 1470.54L973.713 1470.67L973.713 1470.67L973.514 1470.54ZM975.577 1470.01L975.595 1470.25L975.595 1470.25L975.577 1470.01ZM978.895 1469.55L978.853 1469.31L978.853 1469.31L978.895 1469.55ZM988.022 1467.3L987.928 1467.08L987.928 1467.08L988.022 1467.3ZM998.006 1462.51L997.889 1462.3L997.889 1462.3L998.006 1462.51ZM1000.05 1455.45L999.851 1455.59L999.851 1455.59L1000.05 1455.45ZM999.506 1454.68L999.305 1454.82L999.305 1454.82L999.506 1454.68ZM999.832 1449.46L999.992 1449.65L999.992 1449.65L999.832 1449.46ZM1002.17 1445.16L1002.38 1445.05L1002.38 1445.05L1002.17 1445.16ZM996.684 1441.51L996.717 1441.27L996.717 1441.27L996.684 1441.51ZM989.533 1439.7L989.6 1439.47L989.6 1439.47L989.533 1439.7ZM977.602 1440.06L977.552 1440.3L977.552 1440.3L977.602 1440.06ZM971.86 1439.65L971.902 1439.88L971.902 1439.88L971.86 1439.65ZM966.726 1441.89L966.894 1442.06L966.894 1442.06L966.726 1441.89ZM964.538 1446.54L964.307 1446.47L964.307 1446.47L964.538 1446.54ZM963.343 1449.39L963.517 1449.56L963.517 1449.56L963.343 1449.39ZM961.965 1450.71L962.131 1450.89L962.131 1450.89L961.965 1450.71ZM958.545 1454.33L958.334 1454.21L958.334 1454.21L958.545 1454.33ZM956.447 1457.07L956.266 1456.9L956.266 1456.9L956.447 1457.07ZM956.01 1457.56L956.193 1457.72L956.193 1457.72L956.01 1457.56ZM955.503 1458.14L955.323 1457.97L955.323 1457.97L955.503 1458.14ZM953.766 1460.37L953.952 1460.52L953.97 1460.5L953.983 1460.48L953.766 1460.37ZM945.443 1468.47L945.574 1468.68L945.574 1468.68L945.443 1468.47ZM940.27 1472.07L940.47 1472.21L940.47 1472.21L940.27 1472.07ZM935.794 1481.74L935.815 1481.99L935.912 1481.98L935.977 1481.9L935.794 1481.74ZM930.442 1485.68L930.664 1485.78L930.664 1485.78L930.442 1485.68ZM960.85 1461.83L961.092 1461.83L961.092 1461.83L960.85 1461.83ZM962.831 1457.59L963.018 1457.74L963.024 1457.74L962.831 1457.59ZM963.824 1464.96L963.909 1464.73L963.909 1464.73L963.824 1464.96ZM964.458 1465.22L964.551 1464.99L964.551 1464.99L964.458 1465.22ZM967.683 1465.91L967.766 1466.13L967.766 1466.13L967.683 1465.91ZM969.595 1464.51L969.751 1464.7L969.751 1464.7L969.595 1464.51ZM972.567 1462.42L972.656 1462.65L972.656 1462.65L972.567 1462.42ZM982.087 1460.11L982.154 1459.88L982.099 1459.86L982.043 1459.88L982.087 1460.11ZM985.814 1460.35L985.931 1460.56L985.931 1460.56L985.814 1460.35ZM986.066 1460.21L986.182 1460.42L986.182 1460.42L986.066 1460.21ZM989.728 1457.6L989.55 1457.43L989.55 1457.43L989.728 1457.6ZM991.013 1456.36L991.175 1456.54L991.175 1456.54L991.013 1456.36ZM992.15 1454.75L991.976 1454.92L991.976 1454.92L992.15 1454.75ZM991.685 1454.11L991.89 1453.99L991.89 1453.99L991.685 1454.11ZM990.686 1452.81L990.513 1452.98L990.513 1452.98L990.686 1452.81ZM989.669 1451.94L989.817 1451.75L989.817 1451.75L989.669 1451.94ZM988.808 1447.63L989.04 1447.7L989.043 1447.69L988.808 1447.63ZM987.911 1445.77L987.935 1445.53L987.935 1445.53L987.911 1445.77ZM986.547 1445.04L986.386 1445.22L986.386 1445.22L986.547 1445.04ZM978.577 1445.1L978.558 1444.86L978.547 1444.86L978.577 1445.1ZM973.852 1447.45L974.037 1447.61L974.037 1447.61L973.852 1447.45ZM965.544 1454.33L965.375 1454.15L965.375 1454.15L965.544 1454.33ZM934.105 1492.22C934.058 1491.09 933.296 1490.4 932.903 1490.19L932.674 1490.62C932.962 1490.77 933.584 1491.33 933.622 1492.24L934.105 1492.22ZM933.523 1494.51C933.676 1494.08 933.825 1493.65 933.934 1493.27C934.042 1492.88 934.117 1492.52 934.105 1492.22L933.622 1492.24C933.631 1492.46 933.574 1492.76 933.469 1493.13C933.365 1493.5 933.22 1493.92 933.067 1494.36L933.523 1494.51ZM932.933 1497.87C932.783 1497.54 932.798 1497.05 932.932 1496.44C933.064 1495.83 933.296 1495.17 933.523 1494.51L933.067 1494.36C932.842 1495 932.599 1495.7 932.46 1496.33C932.323 1496.96 932.273 1497.59 932.493 1498.07L932.933 1497.87ZM937.862 1500.69C937.68 1500.88 937.361 1500.94 936.887 1500.83C936.423 1500.73 935.875 1500.48 935.328 1500.14C934.783 1499.8 934.252 1499.39 933.82 1498.98C933.384 1498.56 933.068 1498.17 932.933 1497.87L932.493 1498.07C932.667 1498.45 933.037 1498.9 933.487 1499.33C933.943 1499.76 934.5 1500.2 935.074 1500.55C935.644 1500.9 936.244 1501.19 936.782 1501.31C937.311 1501.42 937.85 1501.4 938.21 1501.03L937.862 1500.69ZM940.159 1498.92C939.199 1499.6 938.283 1500.25 937.862 1500.69L938.21 1501.03C938.59 1500.63 939.456 1500.02 940.439 1499.32L940.159 1498.92ZM943.696 1495.87C943.682 1495.97 943.59 1496.14 943.377 1496.38C943.172 1496.61 942.887 1496.87 942.545 1497.15C941.864 1497.72 940.988 1498.34 940.159 1498.92L940.439 1499.32C941.263 1498.73 942.155 1498.1 942.853 1497.52C943.202 1497.24 943.51 1496.96 943.738 1496.7C943.958 1496.45 944.139 1496.19 944.175 1495.93L943.696 1495.87ZM945.287 1492.46C944.913 1493.15 944.54 1493.84 944.25 1494.43C944.106 1494.72 943.98 1495 943.885 1495.24C943.791 1495.47 943.721 1495.69 943.696 1495.87L944.175 1495.93C944.191 1495.81 944.244 1495.64 944.334 1495.42C944.422 1495.19 944.542 1494.93 944.684 1494.64C944.969 1494.06 945.337 1493.39 945.712 1492.69L945.287 1492.46ZM946.892 1489.16C946.791 1489.51 946.568 1490.01 946.276 1490.6C945.986 1491.17 945.636 1491.82 945.287 1492.46L945.712 1492.69C946.06 1492.05 946.414 1491.4 946.708 1490.81C947.001 1490.23 947.242 1489.7 947.357 1489.3L946.892 1489.16ZM947.227 1487.12C947.135 1487.9 947.051 1488.61 946.892 1489.16L947.357 1489.3C947.529 1488.7 947.616 1487.95 947.707 1487.18L947.227 1487.12ZM948.212 1483.16C947.558 1484.26 947.382 1485.79 947.227 1487.12L947.707 1487.18C947.866 1485.82 948.037 1484.4 948.628 1483.4L948.212 1483.16ZM951.847 1480.04C951.106 1480.56 950.341 1481.1 949.695 1481.63C949.055 1482.14 948.504 1482.66 948.212 1483.16L948.628 1483.4C948.872 1482.99 949.362 1482.52 949.999 1482C950.631 1481.49 951.381 1480.96 952.126 1480.44L951.847 1480.04ZM954.777 1477.68C954.525 1478 954.109 1478.37 953.589 1478.78C953.072 1479.18 952.468 1479.6 951.847 1480.04L952.126 1480.44C952.744 1480 953.358 1479.57 953.886 1479.16C954.411 1478.75 954.866 1478.35 955.156 1477.98L954.777 1477.68ZM955.855 1475.35C955.535 1476.25 955.22 1477.12 954.777 1477.68L955.156 1477.98C955.66 1477.35 956 1476.38 956.311 1475.51L955.855 1475.35ZM957.932 1472.63C957.34 1472.59 956.933 1473 956.635 1473.5C956.335 1474 956.093 1474.68 955.855 1475.35L956.311 1475.51C956.554 1474.83 956.779 1474.2 957.051 1473.75C957.325 1473.29 957.594 1473.09 957.902 1473.11L957.932 1472.63ZM961.065 1473.07C959.8 1472.86 958.71 1472.67 957.932 1472.63L957.902 1473.11C958.648 1473.15 959.708 1473.33 960.985 1473.55L961.065 1473.07ZM965.143 1473.69C963.675 1473.51 962.283 1473.28 961.065 1473.07L960.985 1473.55C962.202 1473.76 963.604 1473.99 965.085 1474.17L965.143 1473.69ZM968.062 1474.63C967.521 1474.31 966.783 1473.89 965.143 1473.69L965.085 1474.17C966.64 1474.36 967.315 1474.75 967.82 1475.05L968.062 1474.63ZM969.352 1474.93C969.047 1474.99 968.839 1474.97 968.659 1474.92C968.47 1474.86 968.3 1474.77 968.062 1474.63L967.82 1475.05C968.047 1475.18 968.269 1475.31 968.524 1475.38C968.787 1475.46 969.074 1475.47 969.439 1475.41L969.352 1474.93ZM973.079 1470.76C972.71 1471.32 972.058 1472.33 971.344 1473.21C970.987 1473.66 970.619 1474.07 970.268 1474.38C969.91 1474.7 969.597 1474.88 969.352 1474.93L969.439 1475.41C969.82 1475.33 970.215 1475.07 970.588 1474.74C970.968 1474.41 971.355 1473.97 971.721 1473.52C972.452 1472.61 973.117 1471.59 973.484 1471.02L973.079 1470.76ZM973.315 1470.4C973.26 1470.48 973.179 1470.61 973.079 1470.76L973.484 1471.02C973.586 1470.87 973.663 1470.75 973.713 1470.67L973.315 1470.4ZM975.558 1469.77C975.043 1469.81 974.577 1469.84 974.207 1469.92C973.844 1470 973.506 1470.12 973.315 1470.4L973.713 1470.67C973.791 1470.56 973.964 1470.46 974.306 1470.39C974.639 1470.32 975.069 1470.29 975.595 1470.25L975.558 1469.77ZM977.745 1469.51C976.943 1469.66 976.202 1469.72 975.558 1469.77L975.595 1470.25C976.238 1470.2 977.003 1470.14 977.833 1469.99L977.745 1469.51ZM978.853 1469.31C978.434 1469.39 978.059 1469.45 977.745 1469.51L977.833 1469.99C978.144 1469.93 978.516 1469.86 978.936 1469.79L978.853 1469.31ZM987.928 1467.08C985.333 1468.18 981.319 1468.88 978.853 1469.31L978.936 1469.79C981.384 1469.36 985.46 1468.65 988.117 1467.53L987.928 1467.08ZM997.889 1462.3C996.893 1462.85 990.995 1465.78 987.928 1467.08L988.117 1467.53C991.199 1466.22 997.112 1463.28 998.123 1462.72L997.889 1462.3ZM1001.21 1458.24C1001.26 1458.51 1001.17 1458.87 1000.95 1459.28C1000.73 1459.68 1000.4 1460.11 1000.02 1460.52C999.268 1461.33 998.362 1462.04 997.889 1462.3L998.123 1462.72C998.652 1462.43 999.598 1461.69 1000.38 1460.84C1000.77 1460.42 1001.13 1459.96 1001.37 1459.51C1001.61 1459.06 1001.76 1458.59 1001.68 1458.15L1001.21 1458.24ZM999.851 1455.59C1000.46 1456.43 1001.02 1457.2 1001.21 1458.24L1001.68 1458.15C1001.47 1456.99 1000.85 1456.14 1000.24 1455.31L999.851 1455.59ZM999.305 1454.82C999.484 1455.08 999.67 1455.34 999.851 1455.59L1000.24 1455.31C1000.06 1455.06 999.88 1454.81 999.708 1454.55L999.305 1454.82ZM999.672 1449.28C998.809 1450.04 998.525 1451.14 998.547 1452.17C998.569 1453.2 998.895 1454.2 999.305 1454.82L999.708 1454.55C999.353 1454.02 999.05 1453.11 999.03 1452.16C999.01 1451.22 999.271 1450.28 999.992 1449.65L999.672 1449.28ZM1001.96 1445.28C1002.31 1445.92 1002.17 1446.54 1001.71 1447.22C1001.24 1447.9 1000.47 1448.58 999.672 1449.28L999.992 1449.65C1000.78 1448.95 1001.59 1448.23 1002.1 1447.49C1002.62 1446.74 1002.86 1445.91 1002.38 1445.05L1001.96 1445.28ZM996.65 1441.75C996.897 1441.78 997.302 1441.93 997.801 1442.16C998.294 1442.38 998.857 1442.69 999.412 1443.04C999.967 1443.38 1000.51 1443.77 1000.96 1444.16C1001.42 1444.56 1001.77 1444.94 1001.96 1445.28L1002.38 1445.05C1002.15 1444.63 1001.75 1444.2 1001.28 1443.8C1000.8 1443.39 1000.24 1442.98 999.669 1442.63C999.098 1442.27 998.517 1441.95 998.004 1441.72C997.498 1441.48 997.038 1441.32 996.717 1441.27L996.65 1441.75ZM989.466 1439.93C990.247 1440.16 991.753 1440.57 993.206 1440.95C994.652 1441.32 996.066 1441.67 996.65 1441.75L996.717 1441.27C996.167 1441.19 994.784 1440.86 993.327 1440.48C991.878 1440.1 990.376 1439.69 989.6 1439.47L989.466 1439.93ZM980.506 1440.69C981.124 1440.58 982.997 1440.28 984.908 1440.06C985.864 1439.95 986.826 1439.87 987.644 1439.84C988.473 1439.81 989.119 1439.83 989.466 1439.93L989.6 1439.47C989.169 1439.34 988.448 1439.32 987.625 1439.35C986.791 1439.39 985.816 1439.47 984.854 1439.58C982.931 1439.8 981.047 1440.1 980.418 1440.22L980.506 1440.69ZM977.552 1440.3C978.175 1440.43 978.764 1440.55 979.265 1440.63C979.756 1440.71 980.196 1440.75 980.506 1440.69L980.418 1440.22C980.2 1440.26 979.835 1440.23 979.34 1440.15C978.855 1440.08 978.278 1439.96 977.652 1439.82L977.552 1440.3ZM972.596 1439.76C973.225 1439.64 974.031 1439.68 974.907 1439.8C975.779 1439.92 976.699 1440.12 977.552 1440.3L977.652 1439.82C976.802 1439.64 975.865 1439.45 974.972 1439.32C974.083 1439.2 973.215 1439.15 972.508 1439.28L972.596 1439.76ZM971.902 1439.88C972.126 1439.84 972.357 1439.8 972.596 1439.76L972.508 1439.28C972.272 1439.33 972.042 1439.37 971.818 1439.41L971.902 1439.88ZM966.894 1442.06C968.52 1440.48 969.944 1440.23 971.902 1439.88L971.818 1439.41C969.852 1439.75 968.296 1440.03 966.558 1441.71L966.894 1442.06ZM964.769 1446.61C965.029 1445.77 965.304 1444.88 965.647 1444.07C965.991 1443.26 966.393 1442.55 966.894 1442.06L966.558 1441.71C965.987 1442.27 965.555 1443.05 965.202 1443.88C964.848 1444.72 964.565 1445.63 964.307 1446.47L964.769 1446.61ZM963.517 1449.56C963.785 1449.28 964.001 1448.84 964.194 1448.34C964.39 1447.84 964.576 1447.24 964.769 1446.61L964.307 1446.47C964.112 1447.1 963.932 1447.68 963.743 1448.17C963.552 1448.66 963.365 1449.02 963.169 1449.22L963.517 1449.56ZM962.131 1450.89C962.685 1450.37 963.188 1449.9 963.517 1449.56L963.169 1449.22C962.851 1449.55 962.359 1450.01 961.8 1450.54L962.131 1450.89ZM958.756 1454.45C958.981 1454.05 959.487 1453.47 960.121 1452.83C960.748 1452.19 961.478 1451.5 962.131 1450.89L961.8 1450.54C961.149 1451.15 960.411 1451.84 959.776 1452.49C959.146 1453.13 958.595 1453.75 958.334 1454.21L958.756 1454.45ZM956.627 1457.23C957.323 1456.44 958.172 1455.49 958.756 1454.45L958.334 1454.21C957.78 1455.2 956.968 1456.11 956.266 1456.9L956.627 1457.23ZM956.193 1457.72C956.328 1457.56 956.474 1457.4 956.627 1457.23L956.266 1456.9C956.113 1457.08 955.965 1457.24 955.828 1457.4L956.193 1457.72ZM955.684 1458.3C955.861 1458.1 956.034 1457.9 956.193 1457.72L955.828 1457.4C955.671 1457.58 955.5 1457.78 955.323 1457.97L955.684 1458.3ZM953.983 1460.48C954.13 1460.18 954.382 1459.83 954.69 1459.45C954.996 1459.07 955.346 1458.68 955.684 1458.3L955.323 1457.97C954.987 1458.35 954.628 1458.75 954.314 1459.14C954.001 1459.53 953.721 1459.92 953.55 1460.26L953.983 1460.48ZM951.423 1464.3C951.423 1464.3 951.422 1464.3 951.422 1464.29C951.423 1464.28 951.423 1464.27 951.426 1464.26C951.431 1464.23 951.441 1464.19 951.458 1464.13C951.492 1464.03 951.55 1463.9 951.631 1463.75C951.79 1463.45 952.025 1463.08 952.296 1462.69C952.836 1461.91 953.503 1461.07 953.952 1460.52L953.58 1460.22C953.125 1460.76 952.449 1461.62 951.898 1462.42C951.624 1462.81 951.376 1463.2 951.203 1463.53C951.117 1463.69 951.046 1463.84 951 1463.98C950.956 1464.11 950.923 1464.26 950.947 1464.39L951.423 1464.3ZM945.574 1468.68C947.002 1467.76 948.459 1466.82 949.55 1466.06C950.095 1465.69 950.554 1465.35 950.875 1465.08C951.034 1464.95 951.167 1464.82 951.259 1464.72C951.305 1464.66 951.348 1464.61 951.378 1464.55C951.406 1464.5 951.442 1464.41 951.423 1464.3L950.947 1464.39C950.937 1464.34 950.959 1464.31 950.949 1464.33C950.943 1464.34 950.927 1464.36 950.893 1464.4C950.826 1464.48 950.717 1464.58 950.565 1464.71C950.262 1464.96 949.817 1465.29 949.275 1465.67C948.192 1466.42 946.742 1467.35 945.312 1468.27L945.574 1468.68ZM940.47 1472.21C940.495 1472.18 940.551 1472.11 940.65 1472.02C940.746 1471.94 940.87 1471.84 941.022 1471.72C941.326 1471.49 941.727 1471.2 942.198 1470.88C943.139 1470.24 944.346 1469.47 945.574 1468.68L945.312 1468.27C944.086 1469.06 942.874 1469.84 941.926 1470.48C941.453 1470.81 941.042 1471.1 940.728 1471.34C940.571 1471.46 940.435 1471.57 940.327 1471.67C940.222 1471.76 940.13 1471.85 940.071 1471.94L940.47 1472.21ZM938.969 1477.66C938.964 1477.63 938.962 1477.54 938.98 1477.37C938.996 1477.22 939.025 1477.02 939.066 1476.79C939.148 1476.32 939.274 1475.74 939.426 1475.14C939.578 1474.54 939.755 1473.93 939.938 1473.4C940.123 1472.87 940.308 1472.45 940.47 1472.21L940.071 1471.94C939.87 1472.23 939.668 1472.71 939.481 1473.24C939.292 1473.79 939.111 1474.42 938.957 1475.02C938.803 1475.63 938.674 1476.23 938.59 1476.7C938.548 1476.94 938.516 1477.15 938.499 1477.32C938.482 1477.49 938.474 1477.64 938.493 1477.75L938.969 1477.66ZM935.977 1481.9C936.485 1481.32 937.242 1480.41 937.864 1479.59C938.174 1479.18 938.454 1478.79 938.653 1478.48C938.751 1478.32 938.834 1478.17 938.89 1478.05C938.918 1477.99 938.941 1477.92 938.956 1477.86C938.971 1477.81 938.983 1477.73 938.969 1477.66L938.493 1477.75C938.489 1477.72 938.495 1477.72 938.488 1477.75C938.482 1477.77 938.47 1477.8 938.448 1477.85C938.406 1477.95 938.337 1478.07 938.243 1478.22C938.056 1478.52 937.787 1478.89 937.479 1479.3C936.866 1480.1 936.115 1481 935.611 1481.59L935.977 1481.9ZM930.664 1485.78C931.853 1483.01 934.599 1482.09 935.815 1481.99L935.773 1481.5C934.451 1481.62 931.503 1482.59 930.22 1485.59L930.664 1485.78ZM932.856 1490.17C932.241 1490 931.397 1489.56 930.859 1488.84C930.333 1488.14 930.079 1487.14 930.664 1485.78L930.22 1485.59C929.569 1487.1 929.839 1488.28 930.472 1489.13C931.091 1489.96 932.039 1490.44 932.722 1490.64L932.856 1490.17ZM961.092 1461.83C961.102 1461.15 961.412 1460.33 961.818 1459.57C962.221 1458.81 962.702 1458.13 963.018 1457.74L962.644 1457.44C962.309 1457.85 961.81 1458.55 961.391 1459.34C960.975 1460.12 960.62 1461.02 960.609 1461.82L961.092 1461.83ZM963.909 1464.73C963.422 1464.55 962.701 1464.24 962.109 1463.76C961.518 1463.28 961.08 1462.65 961.092 1461.83L960.609 1461.82C960.594 1462.85 961.147 1463.6 961.804 1464.14C962.458 1464.67 963.237 1465 963.74 1465.19L963.909 1464.73ZM964.551 1464.99C964.319 1464.9 964.099 1464.81 963.909 1464.73L963.74 1465.19C963.92 1465.25 964.13 1465.34 964.365 1465.44L964.551 1464.99ZM967.601 1465.68C967.255 1465.8 966.765 1465.76 966.199 1465.6C965.642 1465.45 965.061 1465.21 964.551 1464.99L964.365 1465.44C964.869 1465.65 965.479 1465.91 966.071 1466.07C966.654 1466.23 967.27 1466.31 967.766 1466.13L967.601 1465.68ZM969.439 1464.33C969.054 1464.65 968.697 1464.96 968.379 1465.2C968.056 1465.44 967.795 1465.61 967.601 1465.68L967.766 1466.13C968.035 1466.04 968.346 1465.83 968.672 1465.58C969.002 1465.33 969.369 1465.02 969.751 1464.7L969.439 1464.33ZM972.477 1462.2C971.484 1462.6 970.375 1463.54 969.439 1464.33L969.751 1464.7C970.71 1463.89 971.752 1463.01 972.656 1462.65L972.477 1462.2ZM977.59 1460.7C976.328 1460.93 974.208 1461.51 972.477 1462.2L972.656 1462.65C974.357 1461.97 976.446 1461.4 977.678 1461.17L977.59 1460.7ZM982.043 1459.88L977.59 1460.7L977.678 1461.17L982.131 1460.35L982.043 1459.88ZM985.698 1460.13C985.543 1460.22 985.308 1460.27 985.006 1460.29C984.709 1460.31 984.368 1460.29 984.017 1460.25C983.316 1460.17 982.598 1460.01 982.154 1459.88L982.02 1460.35C982.484 1460.48 983.229 1460.65 983.963 1460.73C984.331 1460.77 984.701 1460.79 985.036 1460.77C985.366 1460.75 985.685 1460.69 985.931 1460.56L985.698 1460.13ZM985.95 1459.99C985.862 1460.04 985.778 1460.09 985.698 1460.13L985.931 1460.56C986.011 1460.51 986.094 1460.47 986.182 1460.42L985.95 1459.99ZM989.55 1457.43C988.451 1458.62 986.971 1459.44 985.95 1459.99L986.182 1460.42C987.194 1459.87 988.745 1459.02 989.905 1457.76L989.55 1457.43ZM990.851 1456.18C990.44 1456.55 989.972 1456.97 989.55 1457.43L989.905 1457.76C990.309 1457.32 990.762 1456.91 991.175 1456.54L990.851 1456.18ZM991.976 1454.92C991.983 1454.93 991.991 1454.93 991.981 1454.97C991.965 1455.03 991.916 1455.12 991.812 1455.25C991.607 1455.5 991.264 1455.81 990.851 1456.18L991.175 1456.54C991.576 1456.18 991.953 1455.84 992.188 1455.55C992.304 1455.41 992.405 1455.25 992.448 1455.1C992.495 1454.92 992.468 1454.73 992.323 1454.58L991.976 1454.92ZM991.479 1454.24C991.627 1454.48 991.767 1454.71 991.976 1454.92L992.323 1454.58C992.156 1454.41 992.041 1454.23 991.89 1453.99L991.479 1454.24ZM990.513 1452.98C991.028 1453.51 991.272 1453.91 991.479 1454.24L991.89 1453.99C991.676 1453.64 991.411 1453.21 990.859 1452.64L990.513 1452.98ZM989.52 1452.13C989.858 1452.39 990.204 1452.66 990.513 1452.98L990.859 1452.64C990.524 1452.3 990.151 1452.01 989.817 1451.75L989.52 1452.13ZM988.173 1450.51C988.238 1450.87 988.433 1451.16 988.675 1451.41C988.914 1451.66 989.217 1451.9 989.52 1452.13L989.817 1451.75C989.507 1451.51 989.234 1451.3 989.025 1451.08C988.817 1450.86 988.69 1450.65 988.649 1450.43L988.173 1450.51ZM988.576 1447.57C988.48 1447.9 988.346 1448.44 988.252 1448.99C988.159 1449.53 988.099 1450.11 988.173 1450.51L988.649 1450.43C988.591 1450.12 988.636 1449.61 988.728 1449.07C988.819 1448.54 988.949 1448.02 989.04 1447.7L988.576 1447.57ZM987.888 1446.01C988.103 1446.03 988.248 1446.11 988.35 1446.2C988.454 1446.3 988.527 1446.43 988.573 1446.59C988.668 1446.92 988.636 1447.31 988.573 1447.58L989.043 1447.69C989.118 1447.38 989.164 1446.89 989.038 1446.46C988.974 1446.24 988.863 1446.02 988.679 1445.85C988.492 1445.67 988.245 1445.56 987.935 1445.53L987.888 1446.01ZM986.386 1445.22C986.746 1445.55 987.185 1445.95 987.888 1446.01L987.935 1445.53C987.407 1445.48 987.076 1445.19 986.709 1444.86L986.386 1445.22ZM985.132 1444.69C985.666 1444.59 985.968 1444.85 986.386 1445.22L986.709 1444.86C986.303 1444.5 985.835 1444.07 985.045 1444.21L985.132 1444.69ZM978.596 1445.34C980.343 1445.2 984.119 1444.88 985.132 1444.69L985.045 1444.21C984.063 1444.4 980.32 1444.72 978.558 1444.86L978.596 1445.34ZM974.037 1447.61C974.669 1446.86 975.557 1446.32 976.425 1445.96C977.291 1445.59 978.118 1445.4 978.607 1445.34L978.547 1444.86C978.015 1444.93 977.145 1445.13 976.237 1445.51C975.33 1445.89 974.367 1446.47 973.668 1447.29L974.037 1447.61ZM969.857 1451.75C969.899 1451.74 969.933 1451.73 969.948 1451.72C969.967 1451.71 969.986 1451.7 970.003 1451.68C970.037 1451.66 970.077 1451.63 970.119 1451.6C970.205 1451.53 970.316 1451.44 970.446 1451.32C970.707 1451.09 971.054 1450.76 971.445 1450.38C972.228 1449.61 973.199 1448.6 974.037 1447.61L973.668 1447.29C972.842 1448.27 971.882 1449.27 971.107 1450.03C970.719 1450.41 970.378 1450.73 970.125 1450.96C969.998 1451.07 969.895 1451.16 969.82 1451.22C969.782 1451.25 969.755 1451.27 969.736 1451.28C969.727 1451.29 969.723 1451.29 969.724 1451.29C969.724 1451.29 969.728 1451.29 969.734 1451.28C969.739 1451.28 969.751 1451.28 969.769 1451.27L969.857 1451.75ZM965.712 1454.5C966.16 1454.07 967.161 1453.38 968.092 1452.79C968.554 1452.5 968.991 1452.24 969.324 1452.05C969.49 1451.95 969.629 1451.87 969.731 1451.82C969.782 1451.79 969.822 1451.77 969.85 1451.76C969.864 1451.75 969.874 1451.75 969.879 1451.74C969.888 1451.74 969.877 1451.75 969.857 1451.75L969.769 1451.27C969.738 1451.28 969.71 1451.29 969.697 1451.3C969.68 1451.3 969.661 1451.31 969.642 1451.32C969.605 1451.34 969.557 1451.36 969.503 1451.39C969.395 1451.45 969.251 1451.53 969.082 1451.63C968.743 1451.82 968.3 1452.09 967.834 1452.39C966.91 1452.97 965.865 1453.68 965.375 1454.15L965.712 1454.5ZM963.024 1457.74C963.618 1456.95 964.978 1455.21 965.712 1454.5L965.375 1454.15C964.61 1454.9 963.228 1456.66 962.638 1457.45L963.024 1457.74Z" fill="#E7FF51"/>
<path d="M969.425 1456.37C968.739 1456.64 967.44 1459.25 966.877 1460.52L968.85 1459.24C969.367 1458.71 970.601 1457.55 971.404 1457.11C972.407 1456.55 972.36 1457.3 973.64 1457.25C974.92 1457.19 975.21 1456.77 975.567 1456.71C975.852 1456.65 977.594 1455.72 978.43 1455.26L981.102 1454.76C981.815 1454.63 982.283 1454.18 982.429 1453.97C982.682 1453.67 982.996 1453.05 982.231 1452.9C981.275 1452.71 981.486 1452.85 979.606 1452.65C977.726 1452.44 978.181 1452.91 976.643 1453.56C975.106 1454.21 974.651 1453.75 973.259 1454.19C972.145 1454.54 971.761 1455.38 971.708 1455.76C971.233 1455.85 970.111 1456.09 969.425 1456.37Z" fill="#E7FF51" stroke="#E7FF51" stroke-width="0.483445"/>
<path d="M922.39 1466.89C922.87 1466.32 922.802 1463.41 922.708 1462.02L921.562 1464.08C921.349 1464.79 920.798 1466.39 920.295 1467.15C919.666 1468.11 919.359 1467.43 918.251 1468.07C917.143 1468.72 917.083 1469.23 916.799 1469.45C916.571 1469.63 915.466 1471.27 914.941 1472.07L912.807 1473.75C912.238 1474.2 912.036 1474.82 912.006 1475.07C911.918 1475.45 911.93 1476.15 912.679 1475.93C913.614 1475.65 913.36 1475.62 915.119 1474.93C916.878 1474.23 916.257 1474.03 917.313 1472.74C918.369 1471.44 918.99 1471.64 920.016 1470.6C920.836 1469.77 920.783 1468.85 920.653 1468.49C921.033 1468.19 921.911 1467.45 922.39 1466.89Z" fill="#E7FF51" stroke="#E7FF51" stroke-width="0.483446"/>
<path d="M959.674 1477.74C959.768 1479.12 959.836 1482.04 959.357 1482.6C958.878 1483.16 957.999 1483.9 957.62 1484.2C957.749 1484.56 958.575 1485.92 957.754 1486.75C956.729 1487.79 956.36 1487.15 955.304 1488.44C954.248 1489.74 953.845 1489.94 952.086 1490.64C950.326 1491.33 950.581 1491.36 949.645 1491.64C948.897 1491.86 948.885 1491.16 948.972 1490.79C949.002 1490.53 949.205 1489.91 949.774 1489.46C950.343 1489.01 950.587 1487.79 951.061 1487.41C950.856 1487.04 950.762 1486.91 950.728 1486.87C950.709 1486.85 950.703 1486.84 950.728 1486.87C950.786 1486.91 950.967 1486.9 950.637 1485.12C950.538 1484.58 951.113 1484.36 952.221 1483.72C953.329 1483.08 953.954 1483.5 954.583 1482.54C955.086 1481.78 955.72 1481.34 955.933 1480.64L959.674 1477.74Z" fill="#E7FF51"/>
<path d="M959.674 1477.74C959.768 1479.12 959.836 1482.04 959.357 1482.6C958.878 1483.16 957.999 1483.9 957.62 1484.2C957.749 1484.56 958.575 1485.92 957.754 1486.75C956.729 1487.79 956.36 1487.15 955.304 1488.44C954.248 1489.74 953.845 1489.94 952.086 1490.64C950.326 1491.33 950.581 1491.36 949.645 1491.64C948.897 1491.86 948.885 1491.16 948.972 1490.79C949.002 1490.53 949.205 1489.91 949.774 1489.46C950.343 1489.01 950.587 1487.79 951.061 1487.41C950.234 1485.93 951.213 1488.23 950.637 1485.12C950.538 1484.58 951.113 1484.36 952.221 1483.72C953.329 1483.08 953.954 1483.5 954.583 1482.54C955.086 1481.78 955.72 1481.34 955.933 1480.64L959.674 1477.74Z" stroke="#E7FF51" stroke-width="0.483446"/>
<rect x="277.168" y="1281.58" width="22.7692" height="3.25274" fill="#FFD44A"/>
<rect x="163.324" y="1281.58" width="19.5164" height="3.25274" fill="#FFD44A"/>
<rect x="104.77" y="1281.58" width="19.5164" height="3.25274" fill="#FFD44A"/>
</g>
<defs>
<clipPath id="clip0_781_1052">
<rect width="1016.66" height="1525" fill="white" transform="translate(0.683594)"/>
</clipPath>
</defs>
</svg>
