<svg width="1017" height="1526" viewBox="0 0 1017 1526" fill="none" xmlns="http://www.w3.org/2000/svg">
<g clip-path="url(#clip0_781_666)">
<rect width="1016.79" height="1525.18" transform="translate(0.109375)" fill="black"/>
<rect x="0.109375" y="1266.38" width="1098.04" height="58.562" fill="#E13C95"/>
<rect x="0.109375" y="1171.21" width="1098.04" height="58.562" fill="#E13C95"/>
<rect x="-5.08984" y="1358.61" width="1098.04" height="58.562" fill="#E13C95"/>
<path d="M20.9679 1465.19H22.8057V1475.02H20.9679V1470.87H15.2193V1475.02H13.3815V1465.19H15.2193V1469.25H20.9679V1465.19ZM30.7252 1464.91C33.6742 1464.91 35.8754 1467.13 35.8754 1470.1C35.8754 1473.05 33.6742 1475.29 30.7252 1475.29C27.7761 1475.29 25.575 1473.05 25.575 1470.1C25.575 1467.13 27.7761 1464.91 30.7252 1464.91ZM30.7252 1473.58C32.6699 1473.58 34.0375 1472.02 34.0375 1470.1C34.0375 1468.16 32.6699 1466.62 30.7252 1466.62C28.7805 1466.62 27.4128 1468.16 27.4128 1470.1C27.4128 1472.02 28.7805 1473.58 30.7252 1473.58ZM46.3901 1470.1C47.5014 1470.68 47.7578 1471.53 47.7578 1472.37C47.7578 1473.82 46.7534 1475.02 44.6164 1475.02H38.6542V1465.19H44.5309C46.6679 1465.19 47.6723 1466.36 47.6723 1467.84C47.6723 1468.65 47.4586 1469.48 46.3901 1470.1ZM44.4241 1473.39C45.343 1473.39 45.92 1472.99 45.92 1472.15C45.92 1471.32 45.343 1470.91 44.4241 1470.91H40.492V1473.39H44.4241ZM44.3386 1469.29C45.2575 1469.29 45.8345 1468.88 45.8345 1468.05C45.8345 1467.22 45.2575 1466.81 44.3386 1466.81H40.492V1469.29H44.3386ZM54.4609 1464.91C57.239 1464.91 59.1623 1466.3 59.1623 1468.75V1475.02H57.3245V1473.95C56.5551 1474.78 55.4225 1475.29 53.9052 1475.29C51.5973 1475.29 49.909 1474.22 49.909 1472.02C49.909 1469.65 51.9606 1468.84 54.2258 1468.84H57.3245C57.3245 1467.22 56.085 1466.62 54.4609 1466.62C53.2855 1466.62 52.0888 1467.11 51.7041 1468.05H49.674C50.2509 1466.02 52.1956 1464.91 54.4609 1464.91ZM57.3245 1471.08V1470.44H54.2044C52.6871 1470.44 51.7469 1470.96 51.7469 1472.02C51.7469 1473.09 52.6871 1473.58 54.0976 1473.58C56.085 1473.58 57.3245 1472.56 57.3245 1471.08ZM68.5162 1471.77H66.2296L63.4515 1475.02H61.0367L63.9644 1471.6C62.3616 1471.15 61.6137 1469.89 61.6137 1468.48C61.6137 1466.7 62.7677 1465.19 65.3107 1465.19H70.354V1475.02H68.5162V1471.77ZM68.5162 1466.81H65.3748C64.1995 1466.81 63.4515 1467.41 63.4515 1468.48C63.4515 1469.54 64.1995 1470.14 65.3748 1470.14H68.5162V1466.81ZM79.6639 1465.19H87.5281V1475.02H85.6903V1466.81H81.5017V1469.35C81.5017 1471.83 81.3094 1475.02 78.0398 1475.02H77.42V1473.28H77.8047C79.6425 1473.28 79.6639 1471.04 79.6639 1469.35V1465.19ZM92.7903 1475.02H90.9525V1465.19H92.7903V1472.34L98.5389 1465.19H100.377V1475.02H98.5389V1467.86L92.7903 1475.02ZM111.373 1465.19H113.211V1475.02H111.373V1470.87H105.625V1475.02H103.787V1465.19H105.625V1469.25H111.373V1465.19ZM121.131 1473.58C122.285 1473.58 123.225 1473.14 123.738 1472.26H125.725C125.042 1474.16 123.289 1475.29 121.131 1475.29C118.16 1475.29 115.981 1473.11 115.981 1470.08C115.981 1467.13 118.053 1464.91 121.024 1464.91C123.845 1464.91 125.854 1467.15 125.854 1469.97C125.854 1470.21 125.854 1470.51 125.811 1470.78H117.883C118.096 1472.39 119.443 1473.58 121.131 1473.58ZM121.024 1466.62C119.336 1466.62 118.118 1467.66 117.904 1469.18H123.93C123.695 1467.66 122.627 1466.62 121.024 1466.62ZM130.459 1475.02H128.622V1465.19H130.459V1472.34L136.208 1465.19H138.046V1475.02H136.208V1467.86L130.459 1475.02ZM133.323 1462.15C134.541 1462.15 135.417 1461.3 135.588 1460.18H137.212C137.041 1462.17 135.396 1463.73 133.323 1463.73C131.229 1463.73 129.605 1462.17 129.434 1460.18H131.036C131.207 1461.3 132.083 1462.15 133.323 1462.15ZM141.456 1465.19H143.294V1469.48L148.017 1465.19H150.474L145.025 1470.1L150.474 1475.02H148.017L143.294 1470.98V1475.02H141.456V1465.19ZM156.324 1464.91C159.102 1464.91 161.025 1466.3 161.025 1468.75V1475.02H159.187V1473.95C158.418 1474.78 157.285 1475.29 155.768 1475.29C153.46 1475.29 151.772 1474.22 151.772 1472.02C151.772 1469.65 153.823 1468.84 156.089 1468.84H159.187C159.187 1467.22 157.948 1466.62 156.324 1466.62C155.148 1466.62 153.952 1467.11 153.567 1468.05H151.537C152.114 1466.02 154.058 1464.91 156.324 1464.91ZM159.187 1471.08V1470.44H156.067C154.55 1470.44 153.61 1470.96 153.61 1472.02C153.61 1473.09 154.55 1473.58 155.96 1473.58C157.948 1473.58 159.187 1472.56 159.187 1471.08ZM169.15 1465.19H170.987V1469.48L175.71 1465.19H178.168L172.718 1470.1L178.168 1475.02H175.71L170.987 1470.98V1475.02H169.15V1465.19ZM184.385 1464.91C187.335 1464.91 189.536 1467.13 189.536 1470.1C189.536 1473.05 187.335 1475.29 184.385 1475.29C181.436 1475.29 179.235 1473.05 179.235 1470.1C179.235 1467.13 181.436 1464.91 184.385 1464.91ZM184.385 1473.58C186.33 1473.58 187.698 1472.02 187.698 1470.1C187.698 1468.16 186.33 1466.62 184.385 1466.62C182.441 1466.62 181.073 1468.16 181.073 1470.1C181.073 1472.02 182.441 1473.58 184.385 1473.58ZM200.05 1470.1C201.162 1470.68 201.418 1471.53 201.418 1472.37C201.418 1473.82 200.414 1475.02 198.277 1475.02H192.314V1465.19H198.191C200.328 1465.19 201.333 1466.36 201.333 1467.84C201.333 1468.65 201.119 1469.48 200.05 1470.1ZM198.084 1473.39C199.003 1473.39 199.58 1472.99 199.58 1472.15C199.58 1471.32 199.003 1470.91 198.084 1470.91H194.152V1473.39H198.084ZM197.999 1469.29C198.918 1469.29 199.495 1468.88 199.495 1468.05C199.495 1467.22 198.918 1466.81 197.999 1466.81H194.152V1469.29H197.999ZM206.027 1479.38H204.189V1465.19H206.027V1466.25C206.754 1465.44 207.95 1464.91 209.339 1464.91C212.566 1464.91 214.319 1467.39 214.319 1470.1C214.319 1472.81 212.566 1475.29 209.339 1475.29C207.95 1475.29 206.754 1474.76 206.027 1473.95V1479.38ZM205.963 1470.1C205.963 1472.43 207.566 1473.58 209.275 1473.58C211.177 1473.58 212.481 1471.98 212.481 1470.1C212.481 1468.22 211.177 1466.62 209.275 1466.62C207.566 1466.62 205.963 1467.77 205.963 1470.1ZM221.595 1464.91C224.544 1464.91 226.746 1467.13 226.746 1470.1C226.746 1473.05 224.544 1475.29 221.595 1475.29C218.646 1475.29 216.445 1473.05 216.445 1470.1C216.445 1467.13 218.646 1464.91 221.595 1464.91ZM221.595 1473.58C223.54 1473.58 224.908 1472.02 224.908 1470.1C224.908 1468.16 223.54 1466.62 221.595 1466.62C219.651 1466.62 218.283 1468.16 218.283 1470.1C218.283 1472.02 219.651 1473.58 221.595 1473.58ZM237.26 1470.1C238.372 1470.68 238.628 1471.53 238.628 1472.37C238.628 1473.82 237.624 1475.02 235.487 1475.02H229.524V1465.19H235.401C237.538 1465.19 238.543 1466.36 238.543 1467.84C238.543 1468.65 238.329 1469.48 237.26 1470.1ZM235.294 1473.39C236.213 1473.39 236.79 1472.99 236.79 1472.15C236.79 1471.32 236.213 1470.91 235.294 1470.91H231.362V1473.39H235.294ZM235.209 1469.29C236.128 1469.29 236.705 1468.88 236.705 1468.05C236.705 1467.22 236.128 1466.81 235.209 1466.81H231.362V1469.29H235.209ZM255.449 1468.05H253.44C252.927 1467.17 251.966 1466.62 250.812 1466.62C248.889 1466.62 247.521 1468.16 247.521 1470.1C247.521 1472.05 248.889 1473.58 250.812 1473.58C251.966 1473.58 252.927 1473.03 253.44 1472.15H255.449C254.744 1474.05 252.992 1475.29 250.812 1475.29C247.906 1475.29 245.683 1473.07 245.683 1470.1C245.683 1467.13 247.906 1464.91 250.812 1464.91C252.992 1464.91 254.744 1466.15 255.449 1468.05ZM262.047 1464.91C264.825 1464.91 266.749 1466.3 266.749 1468.75V1475.02H264.911V1473.95C264.142 1474.78 263.009 1475.29 261.492 1475.29C259.184 1475.29 257.496 1474.22 257.496 1472.02C257.496 1469.65 259.547 1468.84 261.812 1468.84H264.911C264.911 1467.22 263.671 1466.62 262.047 1466.62C260.872 1466.62 259.675 1467.11 259.291 1468.05H257.26C257.837 1466.02 259.782 1464.91 262.047 1464.91ZM264.911 1471.08V1470.44H261.791C260.274 1470.44 259.333 1470.96 259.333 1472.02C259.333 1473.09 260.274 1473.58 261.684 1473.58C263.671 1473.58 264.911 1472.56 264.911 1471.08ZM280.013 1468.52L276.829 1475.02H274.97L271.786 1468.52V1475.02H269.948V1465.19H272.042L275.91 1473.09L279.8 1465.19H281.851V1475.02H280.013V1468.52ZM289.775 1464.91C292.724 1464.91 294.925 1467.13 294.925 1470.1C294.925 1473.05 292.724 1475.29 289.775 1475.29C286.826 1475.29 284.625 1473.05 284.625 1470.1C284.625 1467.13 286.826 1464.91 289.775 1464.91ZM289.775 1473.58C291.72 1473.58 293.088 1472.02 293.088 1470.1C293.088 1468.16 291.72 1466.62 289.775 1466.62C287.831 1466.62 286.463 1468.16 286.463 1470.1C286.463 1472.02 287.831 1473.58 289.775 1473.58ZM298.666 1465.19H306.53V1475.02H304.692V1466.81H300.504V1469.35C300.504 1471.83 300.311 1475.02 297.042 1475.02H296.422V1473.28H296.807C298.644 1473.28 298.666 1471.04 298.666 1469.35V1465.19ZM314.464 1473.58C315.618 1473.58 316.558 1473.14 317.071 1472.26H319.058C318.374 1474.16 316.622 1475.29 314.464 1475.29C311.493 1475.29 309.313 1473.11 309.313 1470.08C309.313 1467.13 311.386 1464.91 314.357 1464.91C317.178 1464.91 319.186 1467.15 319.186 1469.97C319.186 1470.21 319.186 1470.51 319.144 1470.78H311.215C311.429 1472.39 312.775 1473.58 314.464 1473.58ZM314.357 1466.62C312.668 1466.62 311.45 1467.66 311.237 1469.18H317.263C317.028 1467.66 315.959 1466.62 314.357 1466.62ZM320.463 1466.81V1465.19H329.909V1466.81H326.105V1475.02H324.267V1466.81H320.463ZM336.397 1464.91C339.346 1464.91 341.547 1467.13 341.547 1470.1C341.547 1473.05 339.346 1475.29 336.397 1475.29C333.448 1475.29 331.247 1473.05 331.247 1470.1C331.247 1467.13 333.448 1464.91 336.397 1464.91ZM336.397 1473.58C338.342 1473.58 339.71 1472.02 339.71 1470.1C339.71 1468.16 338.342 1466.62 336.397 1466.62C334.452 1466.62 333.085 1468.16 333.085 1470.1C333.085 1472.02 334.452 1473.58 336.397 1473.58ZM352.062 1470.1C353.173 1470.68 353.43 1471.53 353.43 1472.37C353.43 1473.82 352.425 1475.02 350.288 1475.02H344.326V1465.19H350.203C352.34 1465.19 353.344 1466.36 353.344 1467.84C353.344 1468.65 353.131 1469.48 352.062 1470.1ZM350.096 1473.39C351.015 1473.39 351.592 1472.99 351.592 1472.15C351.592 1471.32 351.015 1470.91 350.096 1470.91H346.164V1473.39H350.096ZM350.011 1469.29C350.929 1469.29 351.506 1468.88 351.506 1468.05C351.506 1467.22 350.929 1466.81 350.011 1466.81H346.164V1469.29H350.011Z" fill="white"/>
<path d="M18.2111 1490.58C21.032 1490.58 23.2117 1492.85 23.2117 1495.63C23.2117 1498.4 21.0106 1500.63 18.0615 1500.63C14.6851 1500.63 12.9541 1498.13 12.9541 1494.64C12.9541 1490.24 13.9371 1487.78 17.2922 1487.42L19.3224 1487.21C20.3054 1487.1 20.9251 1486.8 21.0747 1486.05H22.9126C22.8057 1487.4 21.9723 1488.6 19.9849 1488.81L17.4418 1489.07C15.3689 1489.28 14.856 1490.86 14.7492 1492.12C15.3689 1491.33 16.4802 1490.58 18.2111 1490.58ZM18.0615 1498.92C19.9849 1498.92 21.3739 1497.46 21.3739 1495.63C21.3739 1493.75 19.9849 1492.27 18.0615 1492.27C16.1596 1492.27 14.7919 1493.75 14.7919 1495.63C14.7919 1497.46 16.1596 1498.92 18.0615 1498.92ZM30.4956 1490.24C33.4447 1490.24 35.6458 1492.46 35.6458 1495.43C35.6458 1498.38 33.4447 1500.63 30.4956 1500.63C27.5465 1500.63 25.3454 1498.38 25.3454 1495.43C25.3454 1492.46 27.5465 1490.24 30.4956 1490.24ZM30.4956 1498.92C32.4403 1498.92 33.808 1497.36 33.808 1495.43C33.808 1493.49 32.4403 1491.95 30.4956 1491.95C28.5509 1491.95 27.1832 1493.49 27.1832 1495.43C27.1832 1497.36 28.5509 1498.92 30.4956 1498.92ZM39.3862 1490.52H47.2504V1500.35H45.4126V1492.14H41.2241V1494.69C41.2241 1497.17 41.0317 1500.35 37.7621 1500.35H37.1424V1498.62H37.527C39.3649 1498.62 39.3862 1496.37 39.3862 1494.69V1490.52ZM55.9319 1493.77C58.4749 1493.77 59.6289 1495.31 59.6289 1497.06C59.6289 1498.83 58.4749 1500.35 55.9319 1500.35H50.6748V1490.52H52.5127V1493.77H55.9319ZM55.8678 1498.73C57.0431 1498.73 57.7911 1498.13 57.7911 1497.06C57.7911 1495.99 57.0431 1495.39 55.8678 1495.39H52.5127V1498.73H55.8678ZM76.0903 1500.35H61.986V1490.52H63.8238V1498.73H68.1192V1490.52H69.957V1498.73H74.2524V1490.52H76.0903V1500.35ZM83.4483 1490.24C86.2264 1490.24 88.1497 1491.63 88.1497 1494.09V1500.35H86.3118V1499.28C85.5425 1500.11 84.4099 1500.63 82.8926 1500.63C80.5847 1500.63 78.8964 1499.56 78.8964 1497.36C78.8964 1494.99 80.9479 1494.17 83.2132 1494.17H86.3118C86.3118 1492.55 85.0724 1491.95 83.4483 1491.95C82.2729 1491.95 81.0762 1492.44 80.6915 1493.38H78.6613C79.2383 1491.35 81.183 1490.24 83.4483 1490.24ZM86.3118 1496.42V1495.78H83.1918C81.6745 1495.78 80.7342 1496.29 80.7342 1497.36C80.7342 1498.43 81.6745 1498.92 83.085 1498.92C85.0724 1498.92 86.3118 1497.89 86.3118 1496.42ZM97.5036 1497.1H95.217L92.4389 1500.35H90.0241L92.9518 1496.93C91.349 1496.48 90.6011 1495.22 90.6011 1493.81C90.6011 1492.04 91.7551 1490.52 94.2981 1490.52H99.3414V1500.35H97.5036V1497.1ZM97.5036 1492.14H94.3622C93.1869 1492.14 92.4389 1492.74 92.4389 1493.81C92.4389 1494.88 93.1869 1495.48 94.3622 1495.48H97.5036V1492.14ZM115.276 1490.52H117.114V1500.35H115.276V1496.2H109.527V1500.35H107.69V1490.52H109.527V1494.58H115.276V1490.52ZM122.362 1500.35H120.524V1490.52H122.362V1497.68L128.111 1490.52H129.948V1500.35H128.111V1493.19L122.362 1500.35ZM133.359 1490.52H135.197V1494.81L139.919 1490.52H142.377L136.928 1495.43L142.377 1500.35H139.919L135.197 1496.31V1500.35H133.359V1490.52ZM146.132 1500.35H144.294V1490.52H146.132V1497.68L151.881 1490.52H153.719V1500.35H151.881V1493.19L146.132 1500.35ZM155.847 1492.14V1490.52H165.292V1492.14H161.488V1500.35H159.651V1492.14H155.847ZM176.396 1493.38H174.388C173.875 1492.51 172.913 1491.95 171.759 1491.95C169.836 1491.95 168.468 1493.49 168.468 1495.43C168.468 1497.38 169.836 1498.92 171.759 1498.92C172.913 1498.92 173.875 1498.36 174.388 1497.49H176.396C175.691 1499.39 173.939 1500.63 171.759 1500.63C168.853 1500.63 166.63 1498.4 166.63 1495.43C166.63 1492.46 168.853 1490.24 171.759 1490.24C173.939 1490.24 175.691 1491.48 176.396 1493.38ZM179.062 1490.52H180.9V1494.81L185.623 1490.52H188.081L182.631 1495.43L188.081 1500.35H185.623L180.9 1496.31V1500.35H179.062V1490.52ZM193.93 1490.24C196.708 1490.24 198.632 1491.63 198.632 1494.09V1500.35H196.794V1499.28C196.024 1500.11 194.892 1500.63 193.374 1500.63C191.066 1500.63 189.378 1499.56 189.378 1497.36C189.378 1494.99 191.43 1494.17 193.695 1494.17H196.794C196.794 1492.55 195.554 1491.95 193.93 1491.95C192.755 1491.95 191.558 1492.44 191.173 1493.38H189.143C189.72 1491.35 191.665 1490.24 193.93 1490.24ZM196.794 1496.42V1495.78H193.674C192.156 1495.78 191.216 1496.29 191.216 1497.36C191.216 1498.43 192.156 1498.92 193.567 1498.92C195.554 1498.92 196.794 1497.89 196.794 1496.42ZM207.985 1497.1H205.699L202.921 1500.35H200.506L203.434 1496.93C201.831 1496.48 201.083 1495.22 201.083 1493.81C201.083 1492.04 202.237 1490.52 204.78 1490.52H209.823V1500.35H207.985V1497.1ZM207.985 1492.14H204.844C203.669 1492.14 202.921 1492.74 202.921 1493.81C202.921 1494.88 203.669 1495.48 204.844 1495.48H207.985V1492.14ZM220.565 1500.35V1488.38L217.53 1491.12V1488.77L220.479 1486.16H222.488V1500.35H220.565ZM232.804 1491.33H234.727V1495.54H237.164V1497.34H234.727V1500.35H232.804V1497.34H225.154V1495.54L232.077 1486.16H234.3L227.376 1495.54H232.804V1491.33Z" fill="white"/>
<path d="M838.534 1500.35V1488.38L835.5 1491.12V1488.77L838.449 1486.16H840.457V1500.35H838.534ZM849.192 1500.63C845.901 1500.63 843.978 1498.66 843.978 1496.44C843.978 1495.28 844.448 1494.07 845.965 1493.08C844.555 1492.14 844.127 1491.01 844.127 1489.9C844.127 1487.78 845.986 1485.88 849.192 1485.88C852.397 1485.88 854.257 1487.78 854.257 1489.9C854.257 1491.01 853.829 1492.14 852.419 1493.08C853.936 1494.07 854.406 1495.28 854.406 1496.44C854.406 1498.66 852.483 1500.63 849.192 1500.63ZM852.333 1489.9C852.333 1488.6 851.03 1487.68 849.192 1487.68C847.354 1487.68 846.05 1488.6 846.05 1489.9C846.05 1491.35 847.29 1492.19 849.192 1492.19C851.094 1492.19 852.333 1491.35 852.333 1489.9ZM849.192 1498.83C851.072 1498.83 852.483 1497.83 852.483 1496.44C852.483 1494.92 851.137 1493.98 849.192 1493.98C847.247 1493.98 845.901 1494.92 845.901 1496.44C845.901 1497.83 847.311 1498.83 849.192 1498.83ZM869.918 1490.52H871.756V1500.35H869.918V1496.2H864.169V1500.35H862.332V1490.52H864.169V1494.58H869.918V1490.52ZM879.675 1490.24C882.624 1490.24 884.826 1492.46 884.826 1495.43C884.826 1498.38 882.624 1500.63 879.675 1500.63C876.726 1500.63 874.525 1498.38 874.525 1495.43C874.525 1492.46 876.726 1490.24 879.675 1490.24ZM879.675 1498.92C881.62 1498.92 882.988 1497.36 882.988 1495.43C882.988 1493.49 881.62 1491.95 879.675 1491.95C877.731 1491.95 876.363 1493.49 876.363 1495.43C876.363 1497.36 877.731 1498.92 879.675 1498.92ZM893.759 1497.1H891.472L888.694 1500.35H886.279L889.207 1496.93C887.604 1496.48 886.856 1495.22 886.856 1493.81C886.856 1492.04 888.01 1490.52 890.553 1490.52H895.597V1500.35H893.759V1497.1ZM893.759 1492.14H890.617C889.442 1492.14 888.694 1492.74 888.694 1493.81C888.694 1494.88 889.442 1495.48 890.617 1495.48H893.759V1492.14ZM903.849 1490.58C906.67 1490.58 908.85 1492.85 908.85 1495.63C908.85 1498.4 906.649 1500.63 903.7 1500.63C900.323 1500.63 898.592 1498.13 898.592 1494.64C898.592 1490.24 899.575 1487.78 902.931 1487.42L904.961 1487.21C905.944 1487.1 906.563 1486.8 906.713 1486.05H908.551C908.444 1487.4 907.611 1488.6 905.623 1488.81L903.08 1489.07C901.007 1489.28 900.494 1490.86 900.387 1492.12C901.007 1491.33 902.118 1490.58 903.849 1490.58ZM903.7 1498.92C905.623 1498.92 907.012 1497.46 907.012 1495.63C907.012 1493.75 905.623 1492.27 903.7 1492.27C901.798 1492.27 900.43 1493.75 900.43 1495.63C900.43 1497.46 901.798 1498.92 903.7 1498.92ZM913.463 1504.71H911.625V1490.52H913.463V1491.59C914.189 1490.78 915.386 1490.24 916.775 1490.24C920.002 1490.24 921.754 1492.72 921.754 1495.43C921.754 1498.15 920.002 1500.63 916.775 1500.63C915.386 1500.63 914.189 1500.09 913.463 1499.28V1504.71ZM913.399 1495.43C913.399 1497.76 915.001 1498.92 916.711 1498.92C918.613 1498.92 919.916 1497.32 919.916 1495.43C919.916 1493.55 918.613 1491.95 916.711 1491.95C915.001 1491.95 913.399 1493.11 913.399 1495.43ZM930.677 1497.1H928.39L925.612 1500.35H923.197L926.125 1496.93C924.522 1496.48 923.774 1495.22 923.774 1493.81C923.774 1492.04 924.928 1490.52 927.471 1490.52H932.514V1500.35H930.677V1497.1ZM930.677 1492.14H927.535C926.36 1492.14 925.612 1492.74 925.612 1493.81C925.612 1494.88 926.36 1495.48 927.535 1495.48H930.677V1492.14ZM948.599 1495.43C949.71 1496.01 949.966 1496.87 949.966 1497.7C949.966 1499.15 948.962 1500.35 946.825 1500.35H940.863V1490.52H946.739C948.876 1490.52 949.881 1491.69 949.881 1493.17C949.881 1493.98 949.667 1494.81 948.599 1495.43ZM946.633 1498.73C947.551 1498.73 948.128 1498.32 948.128 1497.49C948.128 1496.65 947.551 1496.25 946.633 1496.25H942.7V1498.73H946.633ZM946.547 1494.62C947.466 1494.62 948.043 1494.22 948.043 1493.38C948.043 1492.55 947.466 1492.14 946.547 1492.14H942.7V1494.62H946.547ZM962.931 1490.52H964.769V1500.35H962.931V1490.52ZM957.567 1493.77C960.11 1493.77 961.264 1495.31 961.264 1497.06C961.264 1498.83 960.11 1500.35 957.567 1500.35H952.737V1490.52H954.575V1493.77H957.567ZM957.503 1498.73C958.678 1498.73 959.426 1498.13 959.426 1497.06C959.426 1495.99 958.678 1495.39 957.503 1495.39H954.575V1498.73H957.503ZM977.135 1490.52L973.138 1495.37L977.177 1500.35H974.933L971.984 1496.74L969.014 1500.35H966.898L970.916 1495.43L966.941 1490.52H969.228L972.07 1494.05L974.933 1490.52H977.135ZM983.625 1490.24C986.574 1490.24 988.775 1492.46 988.775 1495.43C988.775 1498.38 986.574 1500.63 983.625 1500.63C980.676 1500.63 978.475 1498.38 978.475 1495.43C978.475 1492.46 980.676 1490.24 983.625 1490.24ZM983.625 1498.92C985.57 1498.92 986.937 1497.36 986.937 1495.43C986.937 1493.49 985.57 1491.95 983.625 1491.95C981.68 1491.95 980.313 1493.49 980.313 1495.43C980.313 1497.36 981.68 1498.92 983.625 1498.92ZM1002.2 1503.04H1000.36V1500.35H992.11V1503.04H990.272V1498.73H991.426C992.345 1497.89 992.644 1496.25 992.644 1494.6V1490.52H1000.59V1498.73H1002.2V1503.04ZM994.482 1494.58C994.482 1495.93 994.332 1497.59 993.627 1498.73H998.756V1492.14H994.482V1494.58Z" fill="white"/>
<path d="M918.916 1468.05H916.907C916.394 1467.17 915.432 1466.62 914.278 1466.62C912.355 1466.62 910.987 1468.16 910.987 1470.1C910.987 1472.05 912.355 1473.58 914.278 1473.58C915.432 1473.58 916.394 1473.03 916.907 1472.15H918.916C918.21 1474.05 916.458 1475.29 914.278 1475.29C911.372 1475.29 909.149 1473.07 909.149 1470.1C909.149 1467.13 911.372 1464.91 914.278 1464.91C916.458 1464.91 918.21 1466.15 918.916 1468.05ZM928.9 1475.02V1463.05L925.866 1465.78V1463.43L928.815 1460.83H930.824V1475.02H928.9ZM939.772 1460.55C944.046 1460.55 945.2 1465.01 945.2 1467.92C945.2 1470.83 944.046 1475.29 939.772 1475.29C935.498 1475.29 934.344 1470.83 934.344 1467.92C934.344 1465.01 935.498 1460.55 939.772 1460.55ZM939.772 1473.5C942.464 1473.5 943.276 1470.31 943.276 1467.92C943.276 1465.53 942.464 1462.34 939.772 1462.34C937.079 1462.34 936.267 1465.53 936.267 1467.92C936.267 1470.31 937.079 1473.5 939.772 1473.5ZM963.757 1477.71H961.92V1475.02H953.671V1477.71H951.833V1473.39H952.987C953.906 1472.56 954.205 1470.91 954.205 1469.27V1465.19H962.155V1473.39H963.757V1477.71ZM956.043 1469.25C956.043 1470.59 955.893 1472.26 955.188 1473.39H960.317V1466.81H956.043V1469.25ZM970.834 1464.91C973.784 1464.91 975.985 1467.13 975.985 1470.1C975.985 1473.05 973.784 1475.29 970.834 1475.29C967.885 1475.29 965.684 1473.05 965.684 1470.1C965.684 1467.13 967.885 1464.91 970.834 1464.91ZM970.834 1473.58C972.779 1473.58 974.147 1472.02 974.147 1470.1C974.147 1468.16 972.779 1466.62 970.834 1466.62C968.89 1466.62 967.522 1468.16 967.522 1470.1C967.522 1472.02 968.89 1473.58 970.834 1473.58ZM985.868 1473.22H992.963V1475.02H983.283V1473.22L989.074 1467.9C989.95 1467.09 990.805 1466.15 990.805 1464.93C990.805 1463.35 989.544 1462.34 987.963 1462.34C986.531 1462.34 985.313 1463.09 984.949 1464.65H982.941C983.389 1462.24 985.163 1460.55 987.856 1460.55C990.719 1460.55 992.707 1462.24 992.707 1464.86C992.707 1466.42 991.831 1467.73 990.57 1468.88L985.868 1473.22ZM998.035 1473.22H1005.13V1475.02H995.449V1473.22L1001.24 1467.9C1002.12 1467.09 1002.97 1466.15 1002.97 1464.93C1002.97 1463.35 1001.71 1462.34 1000.13 1462.34C998.698 1462.34 997.479 1463.09 997.116 1464.65H995.107C995.556 1462.24 997.33 1460.55 1000.02 1460.55C1002.89 1460.55 1004.87 1462.24 1004.87 1464.86C1004.87 1466.42 1004 1467.73 1002.74 1468.88L998.035 1473.22Z" fill="white"/>
<rect x="-25.918" y="700.45" width="1098.04" height="58.562" fill="#E13C95"/>
<rect x="-25.918" y="795.616" width="1098.04" height="58.562" fill="#E13C95"/>
<path d="M174.018 867.282V562.925H241.273V895.78C241.273 933.968 211.065 964.745 174.588 964.745H162.049C154.639 964.745 132.411 961.896 115.312 944.797C97.6435 927.698 94.7937 904.9 94.7937 898.63H162.049V944.797H174.018V886.661H159.769C125.001 885.521 95.9336 857.593 94.7937 822.256V562.925H162.049V867.282H174.018ZM343.224 752.721V562.925H410.479V961.896H343.224V772.099H331.255V961.896H264V562.925H331.255V752.721H343.224ZM512.431 562.925H579.686V961.896H497.042C460.564 960.756 433.206 930.548 433.206 894.64V562.925H500.462V942.517H512.431V562.925ZM748.892 562.925V704.844C748.892 729.353 735.783 750.441 716.405 762.41C735.783 774.379 748.892 795.468 748.892 819.976V961.896H681.637V772.669H669.668V961.896H602.413V562.925H669.668V753.291H681.637V562.925H748.892ZM916.959 630.18V961.896H838.304C801.257 961.896 771.619 931.688 771.619 894.64V630.18C771.619 593.702 801.827 562.355 837.734 561.215H850.273C886.751 561.215 916.959 593.132 916.959 630.18ZM838.304 582.303V942.517H850.273V582.303H838.304Z" fill="#3EFFFF" fill-opacity="0.988542"/>
<path d="M210.043 1036.61V1435.58H142.787V1055.99H130.818V1435.58H63.5632V1103.87C63.5632 1067.96 90.9212 1037.75 127.399 1036.61H210.043ZM379.249 1160.87V1374.6C379.249 1411.65 350.181 1438.43 313.134 1438.43H299.455C262.407 1438.43 232.77 1408.8 232.77 1371.75V1036.61H300.025V1099.31H312.564C347.901 1099.31 379.249 1126.1 379.249 1160.87ZM311.994 1420.2V1118.12H300.025V1420.2H311.994ZM481.2 1226.41V1036.61H548.455V1435.58H481.2V1245.79H469.231V1435.58H401.976V1036.61H469.231V1226.41H481.2ZM638.437 1100.45H650.977C686.884 1100.45 717.662 1126.1 717.662 1162V1375.74C717.662 1411.65 689.164 1438.43 652.116 1438.43H637.867C600.82 1438.43 571.182 1407.66 571.182 1370.61V1036.61H638.437V1100.45ZM729.631 1435.58V1036.61H798.596V1435.58H729.631ZM650.407 1421.34V1119.26H638.437V1421.34H650.407ZM875.798 996.147H913.416V1014.96H875.798V996.147ZM900.877 1036.61H968.132V1435.58H885.488C849.01 1434.45 821.652 1404.24 821.652 1368.33V1036.61H888.907V1416.21H900.877V1036.61Z" fill="#3EFFFF" fill-opacity="0.988542"/>
<rect x="74.1719" y="795.616" width="87.8431" height="58.562" fill="#E13C95"/>
<rect x="247.617" y="795.616" width="87.8431" height="58.562" fill="#E13C95"/>
<rect x="161.891" y="700.45" width="87.8431" height="58.562" fill="#E13C95"/>
<rect x="330.254" y="700.45" width="87.8431" height="58.562" fill="#E13C95"/>
<rect x="502.273" y="700.45" width="87.8431" height="58.562" fill="#E13C95"/>
<rect x="668.82" y="700.45" width="87.8431" height="58.562" fill="#E13C95"/>
<rect x="845.797" y="700.45" width="87.8431" height="58.562" fill="#E13C95"/>
<rect x="414.43" y="795.616" width="87.8431" height="58.562" fill="#E13C95"/>
<rect x="584.633" y="795.616" width="87.8431" height="58.562" fill="#E13C95"/>
<rect x="756.656" y="795.616" width="87.8431" height="58.562" fill="#E13C95"/>
<rect x="-31.1211" y="195.532" width="1098.04" height="58.562" fill="white"/>
<rect x="-31.1211" y="114.518" width="1098.04" height="58.562" fill="white"/>
<rect x="-31.1211" y="290.694" width="1098.04" height="58.562" fill="white"/>
<rect x="-31.1211" y="385.199" width="1098.04" height="58.562" fill="white"/>
<path d="M338.236 153.64V280.17H269.271V104.053H257.302V471.106H269.271V292.139H338.236V420.95C338.236 459.137 308.028 491.055 270.411 491.055H255.592C219.115 491.055 188.907 459.707 188.907 422.09V153.07C188.907 117.162 219.115 86.3844 256.732 86.3844H270.411C306.888 86.3844 338.236 117.732 338.236 153.64ZM506.806 157.059V230.584C506.806 255.662 493.697 277.32 473.178 289.29C493.697 300.689 506.806 322.347 506.806 346.855V420.95C506.806 457.997 477.168 488.205 440.121 488.205H360.896V89.2342H440.691C477.168 90.3742 506.806 120.012 506.806 157.059ZM440.121 278.46V108.613H428.151V278.46H440.121ZM440.121 468.826V298.979H428.151V468.826H440.121ZM595.091 86.3844H608.77C646.388 86.3844 676.025 117.732 676.025 155.349V422.09C676.025 459.137 646.958 491.055 611.05 491.055H596.801C556.334 491.055 529.546 459.707 529.546 422.09V155.349C529.546 118.302 559.184 86.3844 595.091 86.3844ZM596.231 106.333V471.106H608.77V106.333H596.231ZM752.899 48.7672H790.516V67.5758H752.899V48.7672ZM777.977 89.2342H845.232V488.205H762.588C726.11 487.065 698.752 456.857 698.752 420.95V89.2342H766.008V468.826H777.977V89.2342Z" fill="#E13C95"/>
<rect x="58.5508" y="290.694" width="87.8431" height="58.562" fill="white"/>
<rect x="258.027" y="290.694" width="87.8431" height="58.562" fill="white"/>
<rect x="255.176" y="114.518" width="87.8431" height="58.562" fill="white"/>
<rect x="177.508" y="195.532" width="87.8431" height="58.562" fill="white"/>
<rect x="177.09" y="385.199" width="87.8431" height="58.562" fill="white"/>
<rect x="345.863" y="195.532" width="87.8431" height="58.562" fill="white"/>
<rect x="345.461" y="385.199" width="87.8431" height="58.562" fill="white"/>
<rect x="517.895" y="195.532" width="87.8431" height="58.562" fill="white"/>
<rect x="517.484" y="385.199" width="87.8431" height="58.562" fill="white"/>
<rect x="684.438" y="195.532" width="87.8431" height="58.562" fill="white"/>
<rect x="684.027" y="385.199" width="87.8431" height="58.562" fill="white"/>
<rect x="430.039" y="290.694" width="87.8431" height="58.562" fill="white"/>
<rect x="427.188" y="114.518" width="87.8431" height="58.562" fill="white"/>
<rect x="600.242" y="290.694" width="87.8431" height="58.562" fill="white"/>
<rect x="597.391" y="114.518" width="87.8431" height="58.562" fill="white"/>
<rect x="772.273" y="290.694" width="87.8431" height="58.562" fill="white"/>
<rect x="984.277" y="795.616" width="87.8431" height="58.562" fill="#E13C95"/>
<rect x="48.1406" y="1266.38" width="87.8431" height="58.562" fill="#E13C95"/>
<rect x="221.59" y="1266.38" width="87.8431" height="58.562" fill="#E13C95"/>
<rect x="141.07" y="1171.21" width="87.8431" height="58.562" fill="#E13C95"/>
<rect x="140.66" y="1358.61" width="87.8431" height="58.562" fill="#E13C95"/>
<rect x="309.434" y="1171.21" width="87.8431" height="58.562" fill="#E13C95"/>
<rect x="309.027" y="1358.61" width="87.8431" height="58.562" fill="#E13C95"/>
<rect x="468.602" y="1171.21" width="87.8431" height="58.562" fill="#E13C95"/>
<rect x="468.191" y="1358.61" width="87.8431" height="58.562" fill="#E13C95"/>
<rect x="637.582" y="1171.21" width="87.8431" height="58.562" fill="#E13C95"/>
<rect x="637.18" y="1358.61" width="87.8431" height="58.562" fill="#E13C95"/>
<rect x="393.602" y="1266.38" width="87.8431" height="58.562" fill="#E13C95"/>
<rect x="558.602" y="1266.38" width="87.8431" height="58.562" fill="#E13C95"/>
<rect x="725.422" y="1266.38" width="87.8431" height="58.562" fill="#E13C95"/>
<rect x="812.148" y="1171.21" width="87.8431" height="58.562" fill="#E13C95"/>
<rect x="811.738" y="1358.61" width="87.8431" height="58.562" fill="#E13C95"/>
<rect x="900.645" y="1264.91" width="87.8431" height="58.562" fill="#E13C95"/>
<path d="M953.081 13.1009C952.639 13.4572 954.871 11.0889 956.346 9.97569C958.256 9.26257 958.126 8.48608 958.938 8.33589C959.751 8.18569 961.458 8.97136 962.369 10.0038C963.28 11.0363 962.819 12.4424 963.034 13.6036C963.249 14.7648 958.691 17.468 957.869 18.2203C957.048 18.9726 956.275 22.5178 955.316 23.1754C954.357 23.833 953.386 23.8521 953.136 25.0992C952.886 26.3462 953.247 28.4174 952.596 29.322C951.831 30.3839 948.113 32.9363 946.873 36.6239C946.485 37.7763 947.838 41.8494 951.179 43.0333C955.186 44.4533 959.146 37.4784 961.009 35.2127C963.489 32.1966 962.854 28.9477 963.379 27.89C963.904 26.8323 966.153 24.0551 966.764 23.4618C967.669 22.5829 969.058 22.1573 969.879 19.5239C970.804 16.5552 971.481 13.824 971.881 13.3898C972.281 12.9556 975.343 12.63 976.556 12.0456C977.769 11.4612 979.445 14.0336 979.922 14.6659C980.304 15.1718 979.51 16.9837 979.065 17.8265C978.501 18.8913 977.298 21.1311 976.995 21.5713C976.616 22.1217 971.955 24.2638 973.378 26.0424C974.051 26.8835 975.914 26.3344 975.922 26.8132C975.27 27.6143 973.986 29.3325 974.072 29.797C974.158 30.2615 972 31.5809 970.91 32.1825C969.743 32.7984 967.318 34.1911 966.957 34.8343C966.595 35.4775 966.06 37.5619 965.837 38.5237C965.4 39.4051 964.358 41.1747 963.69 41.202C962.856 41.2361 961.17 42.5083 960.645 43.5661C960.119 44.6238 962.415 46.0008 962.006 47.0371C961.597 48.0733 958.161 50.2695 957.012 51.2022C955.863 52.135 950.823 51.5051 949.684 51.8358C948.544 52.1665 944.769 50.5824 943.311 50.4915C941.853 50.4006 940.052 48.4518 939.829 47.8926C939.605 47.3335 939.98 45.4629 940.496 45.0073C940.909 44.6428 939.909 42.9142 939.358 42.0954C939.183 41.3671 938.952 39.7687 939.423 39.2012C940.013 38.4919 939.123 37.5755 939.037 37.111C938.951 36.6465 940.836 34.4971 941.722 34.0932C942.608 33.6893 940.854 33.2929 941.25 31.5385C941.646 29.7841 942.584 29.0104 943.943 27.9186C945.303 26.8268 944.943 22.9304 945.963 21.3009C946.983 19.6715 951.845 16.0911 952.413 15.2656C952.981 14.4402 953.789 12.5296 953.081 13.1009Z" fill="#3EFFFF" fill-opacity="0.988542" stroke="#3EFFFF" stroke-opacity="0.988542" stroke-width="0.89494"/>
<path fill-rule="evenodd" clip-rule="evenodd" d="M961.963 46.8017C962.185 46.9208 962.636 47.3258 962.663 47.9932C962.677 48.3296 962.492 48.8588 962.293 49.4287C961.998 50.2725 961.673 51.2055 961.914 51.7343C962.318 52.6204 964.678 54.3458 965.383 53.615C965.645 53.3444 966.226 52.9324 966.859 52.4833C967.936 51.7195 969.164 50.8484 969.229 50.3826C969.283 49.9994 969.76 49.1188 970.249 48.218C970.703 47.3801 971.167 46.5247 971.308 46.0357C971.416 45.6627 971.472 45.1857 971.531 44.678C971.634 43.8043 971.747 42.8395 972.153 42.157C972.502 41.5683 973.509 40.8583 974.478 40.1746C975.285 39.6051 976.066 39.0539 976.42 38.6065C976.729 38.2164 976.942 37.6177 977.148 37.0407C977.461 36.1614 977.757 35.3324 978.344 35.369C978.84 35.3999 979.541 35.5185 980.369 35.6587C981.163 35.793 982.074 35.9471 983.035 36.0632C984.076 36.1889 984.537 36.4557 984.878 36.6532C985.181 36.8285 985.389 36.9492 985.826 36.8685C986.643 36.7176 987.879 34.8177 988.359 34.0808C988.425 33.9797 988.476 33.9005 988.511 33.8507C988.686 33.5956 989.177 33.5575 989.855 33.5048C990.274 33.4722 990.765 33.4341 991.297 33.3357C991.501 33.2981 991.744 33.2557 992.018 33.208C993.619 32.9289 996.256 32.4694 997.968 31.7429C999.973 30.8922 1003.82 28.98 1004.48 28.619C1005.13 28.2581 1006.89 26.7321 1006.72 25.8031C1006.59 25.0875 1006.2 24.5606 1005.81 24.0142C1005.69 23.8513 1005.57 23.6867 1005.45 23.5148C1004.96 22.7663 1004.63 21.0245 1005.67 20.1132C1006.7 19.2019 1007.73 18.2906 1007.19 17.3099C1006.65 16.3292 1004.35 15.0319 1003.61 14.9284C1002.87 14.8249 999.968 14.041 998.953 13.7482C997.938 13.4553 993.853 14.0902 993.04 14.2404C992.696 14.3039 991.99 14.1548 991.175 13.9827C990.065 13.7481 988.754 13.4711 987.884 13.632C987.729 13.6606 987.578 13.6871 987.432 13.7129C986.154 13.9384 985.182 14.1097 984.086 15.1743C983.387 15.8527 982.997 17.1152 982.659 18.2088C982.406 19.0278 982.183 19.7521 981.88 20.065C981.669 20.2836 981.345 20.5876 980.982 20.9278C980.132 21.725 979.069 22.7213 978.753 23.2848C978.382 23.9444 977.841 24.5547 977.385 25.0683C977.285 25.1808 977.189 25.2887 977.1 25.3914C976.997 25.5104 976.885 25.6364 976.77 25.7659C976.331 26.2587 975.845 26.8041 975.638 27.2228C975.048 27.9322 973.886 29.4438 973.955 29.8153C974.001 30.0653 972.075 31.3053 970.212 32.5049C968.612 33.5348 967.059 34.5349 966.84 34.8527C966.367 35.5405 965.772 38.1722 965.837 38.5206C965.888 38.7993 964.582 40.3936 963.922 41.156C963.095 41.2288 961.239 41.8439 960.433 43.722C959.627 45.6001 961.117 46.5577 961.963 46.8017ZM981.545 25.4096C981.121 25.9284 980.268 27.2067 980.254 28.17C980.236 29.3741 981.548 29.9724 982.193 30.2135C982.313 30.2586 982.453 30.317 982.606 30.3805C983.267 30.6563 984.159 31.0285 984.708 30.8295C985.01 30.72 985.455 30.3441 985.954 29.922C986.572 29.3999 987.273 28.8072 987.891 28.5601C989.01 28.1133 990.382 27.7397 991.195 27.5895L994.098 27.0531C994.69 27.2239 996.004 27.4934 996.527 27.2046C996.579 27.1759 996.634 27.1458 996.692 27.1145C997.354 26.752 998.342 26.2115 999.078 25.4123C999.347 25.1203 999.648 24.8496 999.916 24.6074C1000.45 24.1295 1000.85 23.7622 1000.66 23.5594C1000.53 23.4329 1000.45 23.299 1000.35 23.1422C1000.22 22.9204 1000.05 22.6526 999.703 22.2947C999.493 22.0783 999.259 21.8964 999.04 21.726C998.64 21.4152 998.289 21.1424 998.22 20.7675C998.134 20.303 998.357 19.3412 998.479 18.9184C998.569 18.5414 998.579 17.771 997.894 17.7054C997.493 17.6669 997.242 17.4423 997.005 17.23C996.737 16.9895 996.486 16.7648 996.054 16.8446C995.404 16.9647 992.953 17.1773 991.809 17.2686C991.144 17.3515 989.597 17.7735 988.73 18.7984C987.645 20.0795 986.213 21.4249 986.097 21.4464C985.98 21.4679 983.924 22.6884 983.313 23.2816C982.825 23.7562 981.931 24.898 981.545 25.4096Z" fill="#3EFFFF" fill-opacity="0.988542"/>
<path d="M962.663 47.9932L963.11 47.975L963.11 47.975L962.663 47.9932ZM961.963 46.8017L962.174 46.4073L962.133 46.3849L962.087 46.3718L961.963 46.8017ZM962.293 49.4287L962.716 49.5763L962.716 49.5763L962.293 49.4287ZM961.914 51.7343L962.321 51.5487L962.321 51.5487L961.914 51.7343ZM965.383 53.615L965.061 53.3042L965.061 53.3042L965.383 53.615ZM966.859 52.4833L967.118 52.8483L967.118 52.8483L966.859 52.4833ZM969.229 50.3826L968.786 50.3206L968.786 50.3206L969.229 50.3826ZM970.249 48.218L969.855 48.0047L969.855 48.0047L970.249 48.218ZM971.531 44.678L971.976 44.7301L971.976 44.7301L971.531 44.678ZM972.153 42.157L972.537 42.3855L972.537 42.3855L972.153 42.157ZM974.478 40.1746L974.22 39.809L974.22 39.809L974.478 40.1746ZM976.42 38.6065L976.069 38.3289L976.069 38.3289L976.42 38.6065ZM977.148 37.0407L977.569 37.191L977.569 37.191L977.148 37.0407ZM978.344 35.369L978.371 34.9224L978.371 34.9224L978.344 35.369ZM980.369 35.6587L980.444 35.2175L980.444 35.2175L980.369 35.6587ZM983.035 36.0632L983.089 35.619L983.089 35.619L983.035 36.0632ZM984.878 36.6532L985.102 36.266L985.102 36.266L984.878 36.6532ZM988.359 34.0808L987.984 33.8367L987.984 33.8367L988.359 34.0808ZM988.511 33.8507L988.142 33.597L988.142 33.597L988.511 33.8507ZM989.855 33.5048L989.821 33.0586L989.821 33.0586L989.855 33.5048ZM992.018 33.208L992.095 33.6488L992.095 33.6488L992.018 33.208ZM997.968 31.7429L998.143 32.1548L998.143 32.1548L997.968 31.7429ZM1004.48 28.619L1004.26 28.2273L1004.26 28.2273L1004.48 28.619ZM1005.81 24.0142L1005.44 24.2771L1005.44 24.2771L1005.81 24.0142ZM1005.45 23.5148L1005.08 23.7628L1005.08 23.7628L1005.45 23.5148ZM1007.19 17.3099L1006.8 17.5262L1006.8 17.5262L1007.19 17.3099ZM1003.61 14.9284L1003.68 14.4852L1003.68 14.4852L1003.61 14.9284ZM998.953 13.7482L998.829 14.1781L998.829 14.1781L998.953 13.7482ZM991.175 13.9827L991.268 13.5449L991.268 13.5449L991.175 13.9827ZM987.432 13.7129L987.354 13.2722L987.354 13.2722L987.432 13.7129ZM984.086 15.1743L983.774 14.8533L983.774 14.8533L984.086 15.1743ZM982.659 18.2088L983.087 18.3408L983.087 18.3408L982.659 18.2088ZM981.88 20.065L982.202 20.3758L982.202 20.3758L981.88 20.065ZM980.982 20.9278L981.288 21.2542L981.288 21.2542L980.982 20.9278ZM978.753 23.2848L979.143 23.5041L979.143 23.5041L978.753 23.2848ZM977.385 25.0683L977.05 24.7714L977.05 24.7714L977.385 25.0683ZM977.1 25.3914L977.439 25.6842L977.439 25.6842L977.1 25.3914ZM976.77 25.7659L976.436 25.4683L976.436 25.4683L976.77 25.7659ZM975.638 27.2228L975.982 27.5088L976.015 27.4686L976.038 27.4218L975.638 27.2228ZM970.212 32.5049L970.454 32.8811L970.454 32.8811L970.212 32.5049ZM966.84 34.8527L966.471 34.599L966.471 34.599L966.84 34.8527ZM963.922 41.156L963.961 41.6017L964.142 41.5859L964.26 41.4488L963.922 41.156ZM960.433 43.722L960.844 43.8984L960.844 43.8984L960.433 43.722ZM980.254 28.17L979.806 28.1635L979.806 28.1635L980.254 28.17ZM981.545 25.4096L981.891 25.693L981.897 25.6861L981.902 25.6791L981.545 25.4096ZM982.193 30.2135L982.036 30.6327L982.036 30.6327L982.193 30.2135ZM982.606 30.3805L982.778 29.9675L982.778 29.9675L982.606 30.3805ZM984.708 30.8295L984.556 30.4088L984.556 30.4088L984.708 30.8295ZM985.954 29.922L985.665 29.5802L985.665 29.5802L985.954 29.922ZM987.891 28.5601L988.057 28.9756L988.057 28.9756L987.891 28.5601ZM991.195 27.5895L991.276 28.0295L991.195 27.5895ZM994.098 27.0531L994.222 26.6232L994.12 26.5939L994.016 26.6131L994.098 27.0531ZM996.527 27.2046L996.744 27.5963L996.744 27.5963L996.527 27.2046ZM996.692 27.1145L996.477 26.7219L996.477 26.7219L996.692 27.1145ZM999.078 25.4123L999.407 25.7156L999.407 25.7156L999.078 25.4123ZM999.916 24.6074L999.617 24.2751L999.617 24.2751L999.916 24.6074ZM1000.66 23.5594L1000.98 23.2477L1000.98 23.2477L1000.66 23.5594ZM1000.35 23.1422L1000.73 22.9064L1000.73 22.9064L1000.35 23.1422ZM999.703 22.2947L1000.02 21.983L1000.02 21.983L999.703 22.2947ZM999.04 21.726L999.314 21.3727L999.314 21.3727L999.04 21.726ZM998.479 18.9184L998.909 19.0424L998.911 19.0327L998.914 19.0228L998.479 18.9184ZM997.894 17.7054L997.852 18.1508L997.852 18.1508L997.894 17.7054ZM997.005 17.23L996.707 17.5633L996.707 17.5633L997.005 17.23ZM991.809 17.2686L991.774 16.8226L991.764 16.8234L991.754 16.8246L991.809 17.2686ZM988.73 18.7984L989.071 19.0874L989.071 19.0874L988.73 18.7984ZM983.313 23.2816L983.002 22.9606L983.002 22.9606L983.313 23.2816ZM963.11 47.975C963.075 47.1072 962.494 46.5789 962.174 46.4073L961.752 47.1961C961.876 47.2627 962.197 47.5444 962.216 48.0115L963.11 47.975ZM962.716 49.5763C962.814 49.2948 962.915 49.0063 962.989 48.745C963.06 48.4921 963.12 48.2182 963.11 47.975L962.216 48.0115C962.22 48.1046 962.195 48.2634 962.127 48.5017C962.063 48.7316 961.972 48.9927 961.871 49.2811L962.716 49.5763ZM962.321 51.5487C962.265 51.4261 962.254 51.187 962.34 50.7949C962.421 50.4218 962.566 50.0046 962.716 49.5763L961.871 49.2811C961.726 49.6966 961.56 50.1678 961.465 50.6044C961.374 51.0219 961.321 51.5138 961.506 51.9199L962.321 51.5487ZM965.061 53.3042C965.049 53.3166 964.973 53.3787 964.698 53.3173C964.439 53.2597 964.113 53.1124 963.771 52.9005C963.433 52.6913 963.102 52.4343 962.835 52.1805C962.559 51.9181 962.386 51.6916 962.321 51.5487L961.506 51.9199C961.643 52.2201 961.916 52.5416 962.219 52.829C962.53 53.1251 962.909 53.4199 963.3 53.6616C963.686 53.9004 964.108 54.1028 964.503 54.1908C964.881 54.2752 965.364 54.2789 965.705 53.9258L965.061 53.3042ZM966.6 52.1183C965.988 52.5525 965.36 52.9953 965.061 53.3042L965.705 53.9258C965.93 53.6936 966.463 53.3123 967.118 52.8483L966.6 52.1183ZM968.786 50.3206C968.79 50.2951 968.783 50.3505 968.648 50.503C968.529 50.6369 968.356 50.7964 968.139 50.9761C967.704 51.335 967.142 51.7336 966.6 52.1183L967.118 52.8483C967.652 52.4691 968.243 52.0503 968.708 51.6662C968.941 51.4745 969.154 51.2811 969.318 51.0969C969.465 50.9311 969.636 50.703 969.672 50.4446L968.786 50.3206ZM969.855 48.0047C969.613 48.4528 969.366 48.9067 969.174 49.297C969.078 49.4924 968.993 49.6782 968.927 49.8439C968.863 50.003 968.807 50.1702 968.786 50.3206L969.672 50.4446C969.678 50.4034 969.702 50.3169 969.758 50.175C969.812 50.0396 969.886 49.8771 969.978 49.6918C970.16 49.3209 970.397 48.8841 970.642 48.4313L969.855 48.0047ZM970.878 45.9116C970.82 46.1127 970.686 46.4164 970.496 46.7954C970.309 47.1675 970.084 47.5841 969.855 48.0047L970.642 48.4313C970.868 48.014 971.102 47.584 971.296 47.1966C971.487 46.8162 971.655 46.4477 971.738 46.1597L970.878 45.9116ZM971.087 44.6259C971.026 45.146 970.973 45.5817 970.878 45.9116L971.738 46.1597C971.858 45.7437 971.918 45.2255 971.976 44.7301L971.087 44.6259ZM971.768 41.9284C971.304 42.7097 971.186 43.7817 971.087 44.6259L971.976 44.7301C972.082 43.8269 972.19 42.9693 972.537 42.3855L971.768 41.9284ZM974.22 39.809C973.738 40.1487 973.232 40.5059 972.802 40.8534C972.382 41.1927 971.987 41.5599 971.768 41.9284L972.537 42.3855C972.668 42.1654 972.951 41.8831 973.364 41.5494C973.767 41.2238 974.248 40.8842 974.736 40.5403L974.22 39.809ZM976.069 38.3289C975.928 38.5079 975.68 38.7302 975.344 38.9916C975.013 39.2489 974.625 39.5227 974.22 39.809L974.736 40.5403C975.137 40.2571 975.543 39.9705 975.894 39.6979C976.239 39.4296 976.559 39.1525 976.771 38.8841L976.069 38.3289ZM976.726 36.8904C976.512 37.4917 976.322 38.0093 976.069 38.3289L976.771 38.8841C977.135 38.4236 977.372 37.7438 977.569 37.191L976.726 36.8904ZM978.371 34.9224C977.815 34.8877 977.468 35.2823 977.259 35.6322C977.045 35.9906 976.878 36.4647 976.726 36.8904L977.569 37.191C977.731 36.7374 977.868 36.3574 978.028 36.0906C978.192 35.8153 978.285 35.8137 978.316 35.8156L978.371 34.9224ZM980.444 35.2175C979.626 35.0791 978.897 34.9552 978.371 34.9224L978.316 35.8156C978.783 35.8447 979.455 35.9579 980.295 36.0999L980.444 35.2175ZM983.089 35.619C982.14 35.5043 981.239 35.352 980.444 35.2175L980.295 36.0999C981.087 36.234 982.008 36.3899 982.982 36.5075L983.089 35.619ZM985.102 36.266C984.728 36.0491 984.209 35.7542 983.089 35.619L982.982 36.5075C983.944 36.6237 984.346 36.8622 984.654 37.0404L985.102 36.266ZM985.745 36.4285C985.583 36.4583 985.494 36.4467 985.426 36.4272C985.343 36.403 985.263 36.3592 985.102 36.266L984.654 37.0404C984.795 37.1225 984.971 37.2266 985.177 37.2865C985.399 37.3511 985.632 37.3595 985.907 37.3086L985.745 36.4285ZM987.984 33.8367C987.743 34.2066 987.325 34.8479 986.87 35.414C986.642 35.6974 986.414 35.9505 986.202 36.1378C985.978 36.3362 985.824 36.4138 985.745 36.4285L985.907 37.3086C986.236 37.2478 986.543 37.0313 986.795 36.808C987.06 36.5736 987.324 36.2773 987.568 35.9748C988.055 35.3689 988.495 34.6918 988.734 34.3249L987.984 33.8367ZM988.142 33.597C988.104 33.6528 988.048 33.7381 987.984 33.8367L988.734 34.3249C988.801 34.2212 988.849 34.1481 988.879 34.1043L988.142 33.597ZM989.821 33.0586C989.492 33.0842 989.167 33.1086 988.903 33.1638C988.653 33.216 988.334 33.3182 988.142 33.597L988.879 34.1043C988.863 34.128 988.877 34.0836 989.086 34.0398C989.281 33.999 989.54 33.978 989.89 33.9509L989.821 33.0586ZM991.216 32.8957C990.71 32.9892 990.241 33.026 989.821 33.0586L989.89 33.9509C990.308 33.9184 990.82 33.8789 991.379 33.7757L991.216 32.8957ZM991.941 32.7672C991.668 32.8147 991.422 32.8576 991.216 32.8957L991.379 33.7757C991.579 33.7386 991.82 33.6967 992.095 33.6488L991.941 32.7672ZM997.793 31.331C996.139 32.0331 993.56 32.4852 991.941 32.7672L992.095 33.6488C993.679 33.3727 996.374 32.9058 998.143 32.1548L997.793 31.331ZM1004.26 28.2273C1003.62 28.5808 999.784 30.4862 997.793 31.331L998.143 32.1548C1000.16 31.2982 1004.02 29.3793 1004.69 29.0108L1004.26 28.2273ZM1006.28 25.8844C1006.29 25.9677 1006.27 26.126 1006.14 26.3714C1006.01 26.6061 1005.81 26.8646 1005.58 27.1208C1005.1 27.6383 1004.53 28.0759 1004.26 28.2273L1004.69 29.0108C1005.07 28.8012 1005.71 28.2954 1006.24 27.7273C1006.5 27.4408 1006.75 27.121 1006.93 26.7971C1007.09 26.4839 1007.23 26.103 1007.16 25.7218L1006.28 25.8844ZM1005.44 24.2771C1005.85 24.8328 1006.17 25.2825 1006.28 25.8844L1007.16 25.7218C1007 24.8925 1006.56 24.2884 1006.17 23.7514L1005.44 24.2771ZM1005.08 23.7628C1005.2 23.9434 1005.33 24.1153 1005.44 24.2771L1006.17 23.7514C1006.05 23.5874 1005.94 23.4299 1005.83 23.2667L1005.08 23.7628ZM1005.37 19.7777C1004.72 20.3498 1004.52 21.1618 1004.54 21.8846C1004.55 22.6028 1004.78 23.3101 1005.08 23.7628L1005.83 23.2667C1005.63 22.9709 1005.45 22.4331 1005.43 21.8655C1005.42 21.3024 1005.58 20.7879 1005.96 20.4487L1005.37 19.7777ZM1006.8 17.5262C1006.95 17.8095 1006.92 18.0939 1006.65 18.4839C1006.37 18.8933 1005.9 19.3104 1005.37 19.7777L1005.96 20.4487C1006.47 20.0047 1007.03 19.5105 1007.39 18.9912C1007.76 18.4526 1007.97 17.791 1007.58 17.0936L1006.8 17.5262ZM1003.55 15.3715C1003.67 15.3877 1003.9 15.4639 1004.22 15.6124C1004.53 15.7552 1004.89 15.9484 1005.24 16.1693C1005.59 16.3905 1005.93 16.6346 1006.21 16.8774C1006.5 17.1258 1006.7 17.3497 1006.8 17.5262L1007.58 17.0936C1007.41 16.7797 1007.12 16.4737 1006.8 16.1997C1006.47 15.9202 1006.09 15.6497 1005.71 15.411C1005.33 15.1721 1004.94 14.9603 1004.6 14.8001C1004.26 14.6455 1003.93 14.5208 1003.68 14.4852L1003.55 15.3715ZM998.829 14.1781C999.341 14.3259 1000.33 14.5961 1001.27 14.8424C1002.21 15.0853 1003.15 15.3154 1003.55 15.3715L1003.68 14.4852C1003.34 14.4379 1002.46 14.2243 1001.5 13.9761C1000.56 13.7314 999.58 13.4633 999.077 13.3182L998.829 14.1781ZM993.121 14.6804C993.517 14.6072 994.731 14.4125 995.971 14.2728C996.591 14.2029 997.21 14.1476 997.732 14.1276C998.276 14.1067 998.654 14.1275 998.829 14.1781L999.077 13.3182C998.745 13.2224 998.231 13.2128 997.698 13.2333C997.144 13.2546 996.501 13.3125 995.871 13.3835C994.61 13.5255 993.375 13.7233 992.958 13.8004L993.121 14.6804ZM991.083 14.4205C991.486 14.5058 991.879 14.5888 992.214 14.6419C992.532 14.6922 992.865 14.7278 993.121 14.6804L992.958 13.8004C992.871 13.8166 992.678 13.8093 992.354 13.7579C992.046 13.7092 991.679 13.6316 991.268 13.5449L991.083 14.4205ZM987.965 14.072C988.328 14.0048 988.816 14.0256 989.379 14.1024C989.936 14.1783 990.525 14.3025 991.083 14.4205L991.268 13.5449C990.716 13.4282 990.095 13.2967 989.5 13.2157C988.913 13.1355 988.31 13.0982 987.802 13.1919L987.965 14.072ZM987.51 14.1536C987.656 14.1278 987.808 14.101 987.965 14.072L987.802 13.1919C987.649 13.2202 987.501 13.2464 987.354 13.2722L987.51 14.1536ZM984.397 15.4953C985.389 14.5326 986.239 14.3777 987.51 14.1536L987.354 13.2722C986.068 13.4991 984.975 13.6868 983.774 14.8533L984.397 15.4953ZM983.087 18.3408C983.257 17.79 983.433 17.2229 983.649 16.7101C983.868 16.1934 984.112 15.7728 984.397 15.4953L983.774 14.8533C983.361 15.2542 983.061 15.804 982.825 16.3616C982.588 16.923 982.399 17.534 982.232 18.0767L983.087 18.3408ZM982.202 20.3758C982.42 20.1503 982.578 19.8174 982.705 19.4887C982.838 19.1483 982.962 18.7459 983.087 18.3408L982.232 18.0767C982.104 18.4907 981.99 18.8599 981.871 19.1646C981.748 19.4811 981.643 19.6668 981.559 19.7542L982.202 20.3758ZM981.288 21.2542C981.648 20.9175 981.982 20.6044 982.202 20.3758L981.559 19.7542C981.357 19.9628 981.043 20.2576 980.676 20.6014L981.288 21.2542ZM979.143 23.5041C979.268 23.2813 979.571 22.9305 979.987 22.5074C980.391 22.0961 980.862 21.6542 981.288 21.2542L980.676 20.6014C980.253 20.9986 979.767 21.4535 979.348 21.8805C978.94 22.2958 978.554 22.7249 978.363 23.0656L979.143 23.5041ZM977.72 25.3653C978.169 24.8584 978.745 24.2127 979.143 23.5041L978.363 23.0656C978.019 23.6761 977.512 24.251 977.05 24.7714L977.72 25.3653ZM977.439 25.6842C977.526 25.5839 977.619 25.4782 977.72 25.3653L977.05 24.7714C976.951 24.8834 976.853 24.9934 976.762 25.0986L977.439 25.6842ZM977.104 26.0635C977.219 25.9345 977.333 25.8061 977.439 25.6842L976.762 25.0986C976.662 25.2148 976.552 25.3382 976.436 25.4683L977.104 26.0635ZM976.038 27.4218C976.12 27.2579 976.268 27.0478 976.465 26.8034C976.66 26.5629 976.883 26.3116 977.104 26.0635L976.436 25.4683C976.218 25.713 975.979 25.9808 975.769 26.2409C975.562 26.497 975.363 26.769 975.237 27.0239L976.038 27.4218ZM974.395 29.734C974.408 29.8042 974.387 29.8307 974.408 29.7691C974.423 29.7227 974.453 29.6541 974.502 29.5625C974.598 29.3805 974.744 29.1513 974.917 28.9006C975.263 28.4016 975.692 27.8571 975.982 27.5088L975.293 26.9368C974.993 27.2979 974.547 27.8638 974.182 28.3909C974 28.6532 973.831 28.9159 973.711 29.144C973.651 29.2574 973.596 29.3734 973.559 29.4836C973.527 29.5786 973.485 29.7336 973.515 29.8966L974.395 29.734ZM970.454 32.8811C971.383 32.2828 972.338 31.6683 973.054 31.1718C973.411 30.9244 973.72 30.6991 973.939 30.5154C974.047 30.425 974.147 30.3332 974.223 30.2457C974.26 30.2026 974.304 30.1463 974.338 30.0802C974.367 30.0244 974.425 29.8955 974.395 29.734L973.515 29.8966C973.491 29.7664 973.539 29.6765 973.544 29.6669C973.555 29.647 973.56 29.6441 973.545 29.6612C973.517 29.694 973.46 29.7495 973.364 29.8292C973.177 29.9858 972.896 30.1924 972.545 30.4362C971.844 30.9221 970.904 31.5274 969.97 32.1286L970.454 32.8811ZM967.209 35.1063C967.205 35.1118 967.221 35.0901 967.281 35.0356C967.336 34.9865 967.411 34.9251 967.507 34.8516C967.698 34.7048 967.954 34.5234 968.26 34.3159C968.87 33.9012 969.653 33.3971 970.454 32.8811L969.97 32.1286C969.171 32.6426 968.378 33.1535 967.757 33.5758C967.446 33.7867 967.173 33.9793 966.962 34.1416C966.856 34.2226 966.761 34.2995 966.683 34.3699C966.611 34.4351 966.53 34.5141 966.471 34.599L967.209 35.1063ZM966.277 38.4393C966.282 38.4672 966.275 38.4483 966.287 38.3372C966.296 38.245 966.314 38.1223 966.34 37.975C966.392 37.6813 966.473 37.3091 966.57 36.924C966.668 36.5387 966.781 36.1473 966.897 35.8139C967.017 35.4683 967.127 35.2248 967.209 35.1063L966.471 34.599C966.316 34.8245 966.174 35.1679 966.052 35.52C965.925 35.8845 965.805 36.3018 965.703 36.7039C965.601 37.1063 965.515 37.5003 965.459 37.8195C965.431 37.9786 965.409 38.124 965.397 38.2452C965.386 38.3473 965.375 38.4869 965.397 38.6019L966.277 38.4393ZM964.26 41.4488C964.594 41.0634 965.092 40.4666 965.502 39.928C965.706 39.6599 965.895 39.398 966.031 39.1801C966.099 39.0723 966.16 38.9642 966.205 38.8652C966.227 38.8158 966.249 38.7585 966.265 38.6979C966.278 38.6442 966.297 38.5488 966.277 38.4393L965.397 38.6019C965.389 38.5611 965.39 38.529 965.392 38.5114C965.393 38.4932 965.396 38.4813 965.397 38.4776C965.399 38.4712 965.398 38.4775 965.388 38.4999C965.368 38.5444 965.331 38.6125 965.273 38.7053C965.158 38.8886 964.988 39.1252 964.79 39.3858C964.395 39.9047 963.91 40.4863 963.583 40.8632L964.26 41.4488ZM960.844 43.8984C961.562 42.2247 963.231 41.6659 963.961 41.6017L963.883 40.7102C962.958 40.7916 960.915 41.4631 960.022 43.5456L960.844 43.8984ZM962.087 46.3718C961.727 46.268 961.24 46.0112 960.937 45.6066C960.659 45.2345 960.502 44.6958 960.844 43.8984L960.022 43.5456C959.558 44.6263 959.744 45.5054 960.22 46.1426C960.673 46.7474 961.353 47.0914 961.839 47.2316L962.087 46.3718ZM980.701 28.1766C980.707 27.8038 980.882 27.3206 981.141 26.8329C981.394 26.3569 981.696 25.9321 981.891 25.693L981.199 25.1262C980.97 25.4059 980.634 25.8796 980.35 26.4133C980.073 26.9353 979.815 27.5729 979.806 28.1635L980.701 28.1766ZM982.349 29.7944C982.041 29.679 981.606 29.4895 981.257 29.2057C980.912 28.9252 980.695 28.5925 980.701 28.1766L979.806 28.1635C979.795 28.9516 980.225 29.5201 980.692 29.9001C981.156 30.2768 981.699 30.5069 982.036 30.6327L982.349 29.7944ZM982.778 29.9675C982.628 29.905 982.479 29.843 982.349 29.7944L982.036 30.6327C982.147 30.6742 982.279 30.729 982.433 30.7935L982.778 29.9675ZM984.556 30.4088C984.42 30.4581 984.177 30.45 983.817 30.3515C983.475 30.2577 983.113 30.1075 982.778 29.9675L982.433 30.7935C982.759 30.9293 983.174 31.1031 983.581 31.2146C983.97 31.3214 984.448 31.4 984.861 31.2502L984.556 30.4088ZM985.665 29.5802C985.413 29.7935 985.187 29.9847 984.987 30.1366C984.778 30.295 984.638 30.3791 984.556 30.4088L984.861 31.2502C985.081 31.1704 985.314 31.0118 985.528 30.8494C985.75 30.6804 985.996 30.4726 986.243 30.2637L985.665 29.5802ZM987.725 28.1446C987.024 28.4246 986.262 29.076 985.665 29.5802L986.243 30.2637C986.882 29.7238 987.522 29.1897 988.057 28.9756L987.725 28.1446ZM991.113 27.1495C990.272 27.3049 988.872 27.6865 987.725 28.1446L988.057 28.9756C989.148 28.5401 990.491 28.1745 991.276 28.0295L991.113 27.1495ZM994.016 26.6131L991.113 27.1495L991.276 28.0295L994.179 27.4931L994.016 26.6131ZM996.311 26.8129C996.265 26.8381 996.163 26.8691 995.983 26.8802C995.811 26.8907 995.607 26.8812 995.388 26.8565C994.95 26.8073 994.499 26.7032 994.222 26.6232L993.973 27.483C994.288 27.5738 994.79 27.6899 995.288 27.7459C995.537 27.7739 995.797 27.7882 996.038 27.7734C996.27 27.7591 996.528 27.7155 996.744 27.5963L996.311 26.8129ZM996.477 26.7219C996.42 26.7532 996.364 26.7836 996.311 26.8129L996.744 27.5963C996.795 27.5681 996.849 27.5385 996.906 27.507L996.477 26.7219ZM998.749 25.1091C998.07 25.8464 997.147 26.3553 996.477 26.7219L996.906 27.507C997.561 27.1487 998.614 26.5767 999.407 25.7156L998.749 25.1091ZM999.617 24.2751C999.35 24.5151 999.035 24.7993 998.749 25.1091L999.407 25.7156C999.66 25.4412 999.945 25.1842 1000.22 24.9398L999.617 24.2751ZM1000.34 23.8712C1000.31 23.8419 1000.28 23.7966 1000.27 23.7389C1000.25 23.6846 1000.26 23.6434 1000.27 23.626C1000.27 23.6038 1000.27 23.6243 1000.21 23.6983C1000.1 23.8416 999.893 24.026 999.617 24.2751L1000.22 24.9398C1000.47 24.7109 1000.74 24.4727 1000.91 24.2622C1000.99 24.1593 1001.09 24.02 1001.13 23.857C1001.18 23.6612 1001.16 23.4298 1000.98 23.2477L1000.34 23.8712ZM999.974 23.378C1000.07 23.5295 1000.17 23.7046 1000.34 23.8712L1000.98 23.2477C1000.89 23.1612 1000.83 23.0685 1000.73 22.9064L999.974 23.378ZM999.382 22.6065C999.696 22.9299 999.842 23.1657 999.974 23.378L1000.73 22.9064C1000.59 22.675 1000.4 22.3753 1000.02 21.983L999.382 22.6065ZM998.765 22.0792C998.988 22.2524 999.197 22.4159 999.382 22.6065L1000.02 21.983C999.789 21.7407 999.53 21.5405 999.314 21.3727L998.765 22.0792ZM997.78 20.8488C997.836 21.1545 998.004 21.3921 998.182 21.5791C998.356 21.7622 998.572 21.9294 998.765 22.0792L999.314 21.3727C999.107 21.2118 998.949 21.0873 998.83 20.9625C998.715 20.8416 998.673 20.7554 998.66 20.6862L997.78 20.8488ZM998.049 18.7943C997.984 19.019 997.894 19.3815 997.83 19.7518C997.77 20.103 997.721 20.5303 997.78 20.8488L998.66 20.6862C998.633 20.5401 998.652 20.2543 998.712 19.9028C998.769 19.5703 998.851 19.2405 998.909 19.0424L998.049 18.7943ZM997.852 18.1508C997.934 18.1588 997.967 18.1832 997.982 18.1973C998.002 18.2158 998.028 18.2515 998.047 18.3197C998.09 18.4679 998.078 18.6706 998.044 18.814L998.914 19.0228C998.97 18.7892 999.008 18.4182 998.907 18.0706C998.855 17.8908 998.76 17.6981 998.592 17.5419C998.419 17.3813 998.196 17.2849 997.937 17.26L997.852 18.1508ZM996.707 17.5633C996.937 17.7697 997.287 18.0967 997.852 18.1508L997.937 17.26C997.699 17.2371 997.547 17.1149 997.304 16.8966L996.707 17.5633ZM996.135 17.2846C996.249 17.2636 996.32 17.2817 996.388 17.3162C996.477 17.3612 996.563 17.4349 996.707 17.5633L997.304 16.8966C997.048 16.6672 996.643 16.2808 995.973 16.4046L996.135 17.2846ZM991.845 17.7147C992.975 17.6245 995.456 17.4101 996.135 17.2846L995.973 16.4046C995.351 16.5194 992.932 16.7302 991.774 16.8226L991.845 17.7147ZM989.071 19.0874C989.443 18.648 989.977 18.3211 990.519 18.0925C991.059 17.8648 991.572 17.7491 991.865 17.7127L991.754 16.8246C991.381 16.871 990.788 17.0078 990.171 17.268C989.556 17.5273 988.883 17.9238 988.388 18.5093L989.071 19.0874ZM986.178 21.8864C986.249 21.8733 986.302 21.8459 986.319 21.8371C986.343 21.8242 986.365 21.8107 986.38 21.8003C986.412 21.7792 986.445 21.7544 986.476 21.7303C986.538 21.6811 986.615 21.6151 986.702 21.538C986.877 21.3825 987.106 21.167 987.364 20.914C987.878 20.4082 988.518 19.7413 989.071 19.0874L988.388 18.5093C987.857 19.1365 987.238 19.7829 986.736 20.2755C986.486 20.5217 986.268 20.7266 986.107 20.8695C986.026 20.9415 985.964 20.9942 985.921 21.0277C985.9 21.0449 985.889 21.0525 985.886 21.0541C985.885 21.055 985.892 21.0505 985.904 21.044C985.908 21.0417 985.951 21.0182 986.015 21.0064L986.178 21.8864ZM983.625 23.6026C983.892 23.3438 984.518 22.9141 985.129 22.5279C985.428 22.3397 985.71 22.1696 985.923 22.0459C986.03 21.9839 986.117 21.935 986.179 21.9018C986.211 21.885 986.232 21.8741 986.245 21.8681C986.252 21.865 986.252 21.8651 986.248 21.8667C986.246 21.8676 986.24 21.87 986.231 21.8729C986.224 21.8752 986.205 21.8815 986.178 21.8864L986.015 21.0064C985.964 21.0158 985.923 21.0328 985.912 21.037C985.894 21.0446 985.876 21.0527 985.861 21.0599C985.83 21.0744 985.795 21.0926 985.758 21.1123C985.683 21.1523 985.586 21.2069 985.474 21.2716C985.25 21.4014 984.958 21.5775 984.652 21.7712C984.053 22.149 983.346 22.6261 983.002 22.9606L983.625 23.6026ZM981.902 25.6791C982.292 25.1619 983.166 24.0489 983.625 23.6026L983.002 22.9606C982.484 23.4635 981.569 24.6342 981.188 25.1402L981.902 25.6791Z" fill="#3EFFFF" fill-opacity="0.988542"/>
<path d="M985.848 24.6187C985.4 24.7974 984.554 26.4989 984.187 27.3273L985.473 26.4892C985.81 26.1467 986.614 25.3896 987.138 25.1008C987.791 24.7398 987.761 25.2258 988.595 25.1917C989.43 25.1576 989.619 24.8825 989.851 24.8396C990.037 24.8052 991.173 24.195 991.718 23.8942L993.46 23.5724C993.924 23.4866 994.23 23.1899 994.324 23.0524C994.489 22.8618 994.695 22.4556 994.196 22.3556C993.572 22.2307 993.71 22.3254 992.484 22.1916C991.259 22.0577 991.555 22.3632 990.553 22.7885C989.551 23.2139 989.254 22.9084 988.347 23.1962C987.621 23.4264 987.37 23.9771 987.336 24.2236C987.026 24.2808 986.295 24.4399 985.848 24.6187Z" fill="#3EFFFF" fill-opacity="0.988542" stroke="#3EFFFF" stroke-opacity="0.988542" stroke-width="0.89494"/>
<path d="M955.187 31.4712C955.499 31.1046 955.455 29.2047 955.394 28.3006L954.646 29.6416C954.508 30.1017 954.149 31.1466 953.821 31.646C953.41 32.2701 953.211 31.8261 952.489 32.2451C951.766 32.6642 951.727 32.9959 951.542 33.1421C951.393 33.2591 950.673 34.3285 950.331 34.8486L948.94 35.9453C948.569 36.2378 948.437 36.6426 948.417 36.8084C948.36 37.0539 948.368 37.5089 948.856 37.3648C949.466 37.1847 949.3 37.1651 950.447 36.7122C951.593 36.2592 951.188 36.1273 951.877 35.2838C952.565 34.4403 952.97 34.5723 953.639 33.8947C954.174 33.3525 954.139 32.7486 954.054 32.5144C954.301 32.3194 954.874 31.8378 955.187 31.4712Z" fill="#3EFFFF" fill-opacity="0.988542" stroke="#3EFFFF" stroke-opacity="0.988542" stroke-width="0.894941"/>
<path d="M979.489 38.5456C979.551 39.4497 979.595 41.3496 979.283 41.7162C978.97 42.0829 978.397 42.5645 978.15 42.7594C978.235 42.9936 978.773 43.8787 978.238 44.4208C977.569 45.0985 977.329 44.6808 976.641 45.5243C975.952 46.3677 975.689 46.5042 974.543 46.9572C973.396 47.4101 973.562 47.4297 972.952 47.6098C972.464 47.7539 972.456 47.2989 972.513 47.0534C972.533 46.8876 972.665 46.4828 973.036 46.1903C973.407 45.8979 973.565 45.0966 973.875 44.8529C973.741 44.6129 973.68 44.525 973.657 44.4974C973.645 44.4889 973.641 44.4775 973.657 44.4974C973.695 44.5246 973.813 44.5218 973.598 43.3568C973.534 43.0084 973.908 42.8645 974.631 42.4455C975.353 42.0264 975.76 42.3048 976.171 41.6806C976.499 41.1813 976.912 40.8973 977.051 40.4372L979.489 38.5456Z" fill="#3EFFFF" fill-opacity="0.988542"/>
<path d="M979.489 38.5456C979.551 39.4497 979.595 41.3496 979.283 41.7162C978.97 42.0829 978.397 42.5645 978.15 42.7594C978.235 42.9936 978.773 43.8787 978.238 44.4208C977.569 45.0985 977.329 44.6808 976.641 45.5243C975.952 46.3677 975.689 46.5042 974.543 46.9572C973.396 47.4101 973.562 47.4297 972.952 47.6098C972.464 47.7539 972.456 47.2989 972.513 47.0534C972.533 46.8876 972.665 46.4828 973.036 46.1903C973.407 45.8979 973.565 45.0966 973.875 44.8529C973.336 43.8856 973.974 45.3884 973.598 43.3568C973.534 43.0084 973.908 42.8645 974.631 42.4455C975.353 42.0264 975.76 42.3048 976.171 41.6806C976.499 41.1813 976.912 40.8973 977.051 40.4372L979.489 38.5456Z" stroke="#3EFFFF" stroke-opacity="0.988542" stroke-width="0.894941"/>
</g>
<defs>
<clipPath id="clip0_781_666">
<rect width="1016.79" height="1525.18" fill="white" transform="translate(0.109375)"/>
</clipPath>
</defs>
</svg>
