<svg width="1017" height="1526" viewBox="0 0 1017 1526" fill="none" xmlns="http://www.w3.org/2000/svg">
<g clip-path="url(#clip0_781_578)">
<rect width="1016.79" height="1525.18" transform="translate(0.210938)" fill="white"/>
<rect x="0.210938" y="1279.16" width="1012.53" height="108.003" fill="#3EFFFF" fill-opacity="0.988542"/>
<rect x="0.210938" y="897.777" width="1012.53" height="108.003" fill="#3EFFFF" fill-opacity="0.988542"/>
<rect x="0.210938" y="516.391" width="1012.53" height="108.003" fill="#3EFFFF" fill-opacity="0.988542"/>
<rect x="0.210938" y="135.003" width="1012.53" height="108.003" fill="#3EFFFF" fill-opacity="0.988542"/>
<rect x="81.2188" y="897.777" width="74.2523" height="108.003" fill="#3EFFFF" fill-opacity="0.988542"/>
<rect x="72.7734" y="135.003" width="82.6901" height="108.003" fill="#3EFFFF" fill-opacity="0.988542"/>
<rect x="233.098" y="897.777" width="74.2523" height="108.003" fill="#3EFFFF" fill-opacity="0.988542"/>
<rect x="233.098" y="135.003" width="74.2523" height="108.003" fill="#3EFFFF" fill-opacity="0.988542"/>
<rect x="384.977" y="897.777" width="84.3777" height="108.003" fill="#3EFFFF" fill-opacity="0.988542"/>
<rect x="396.785" y="135.003" width="74.2523" height="108.003" fill="#3EFFFF" fill-opacity="0.988542"/>
<rect x="546.98" y="897.777" width="74.2523" height="108.003" fill="#3EFFFF" fill-opacity="0.988542"/>
<rect x="552.043" y="135.003" width="74.2523" height="108.003" fill="#3EFFFF" fill-opacity="0.988542"/>
<rect x="708.984" y="897.777" width="74.2523" height="108.003" fill="#3EFFFF" fill-opacity="0.988542"/>
<rect x="708.984" y="135.003" width="74.2523" height="108.003" fill="#3EFFFF" fill-opacity="0.988542"/>
<rect x="938.496" y="897.777" width="74.2523" height="108.003" fill="#3EFFFF" fill-opacity="0.988542"/>
<rect x="938.496" y="135.003" width="74.2523" height="108.003" fill="#3EFFFF" fill-opacity="0.988542"/>
<rect x="10.3359" y="1279.16" width="74.2523" height="108.003" fill="#3EFFFF" fill-opacity="0.988542"/>
<rect x="5.27344" y="516.391" width="74.2523" height="108.003" fill="#3EFFFF" fill-opacity="0.988542"/>
<rect x="165.59" y="1279.16" width="74.2523" height="108.003" fill="#3EFFFF" fill-opacity="0.988542"/>
<rect x="160.531" y="516.391" width="74.2523" height="108.003" fill="#3EFFFF" fill-opacity="0.988542"/>
<rect x="307.34" y="1279.16" width="74.2523" height="108.003" fill="#3EFFFF" fill-opacity="0.988542"/>
<rect x="302.285" y="516.391" width="74.2523" height="108.003" fill="#3EFFFF" fill-opacity="0.988542"/>
<rect x="469.355" y="1279.16" width="74.2523" height="108.003" fill="#3EFFFF" fill-opacity="0.988542"/>
<rect x="464.285" y="516.391" width="74.2523" height="108.003" fill="#3EFFFF" fill-opacity="0.988542"/>
<rect x="621.23" y="1279.16" width="74.2523" height="108.003" fill="#3EFFFF" fill-opacity="0.988542"/>
<rect x="616.172" y="516.391" width="74.2523" height="108.003" fill="#3EFFFF" fill-opacity="0.988542"/>
<rect x="938.496" y="1279.16" width="74.2523" height="108.003" fill="#3EFFFF" fill-opacity="0.988542"/>
<rect x="933.426" y="516.391" width="74.2523" height="108.003" fill="#3EFFFF" fill-opacity="0.988542"/>
<path d="M20.7999 1465.61H22.6377V1475.44H20.7999V1471.3H15.0513V1475.44H13.2135V1465.61H15.0513V1469.67H20.7999V1465.61ZM30.5572 1465.33C33.5063 1465.33 35.7074 1467.56 35.7074 1470.53C35.7074 1473.48 33.5063 1475.72 30.5572 1475.72C27.6081 1475.72 25.407 1473.48 25.407 1470.53C25.407 1467.56 27.6081 1465.33 30.5572 1465.33ZM30.5572 1474.01C32.5019 1474.01 33.8696 1472.45 33.8696 1470.53C33.8696 1468.58 32.5019 1467.04 30.5572 1467.04C28.6125 1467.04 27.2448 1468.58 27.2448 1470.53C27.2448 1472.45 28.6125 1474.01 30.5572 1474.01ZM46.2222 1470.53C47.3334 1471.1 47.5899 1471.96 47.5899 1472.79C47.5899 1474.25 46.5855 1475.44 44.4484 1475.44H38.4862V1465.61H44.363C46.5 1465.61 47.5044 1466.79 47.5044 1468.26C47.5044 1469.07 47.2907 1469.91 46.2222 1470.53ZM44.2561 1473.82C45.175 1473.82 45.752 1473.41 45.752 1472.58C45.752 1471.75 45.175 1471.34 44.2561 1471.34H40.324V1473.82H44.2561ZM44.1706 1469.72C45.0895 1469.72 45.6665 1469.31 45.6665 1468.48C45.6665 1467.64 45.0895 1467.24 44.1706 1467.24H40.324V1469.72H44.1706ZM54.2929 1465.33C57.071 1465.33 58.9943 1466.72 58.9943 1469.18V1475.44H57.1565V1474.37C56.3872 1475.21 55.2545 1475.72 53.7373 1475.72C51.4293 1475.72 49.7411 1474.65 49.7411 1472.45C49.7411 1470.08 51.7926 1469.27 54.0578 1469.27H57.1565C57.1565 1467.64 55.917 1467.04 54.2929 1467.04C53.1175 1467.04 51.9208 1467.54 51.5361 1468.48H49.506C50.083 1466.45 52.0277 1465.33 54.2929 1465.33ZM57.1565 1471.51V1470.87H54.0364C52.5192 1470.87 51.5789 1471.38 51.5789 1472.45C51.5789 1473.52 52.5192 1474.01 53.9296 1474.01C55.917 1474.01 57.1565 1472.98 57.1565 1471.51ZM68.3483 1472.19H66.0616L63.2835 1475.44H60.8687L63.7964 1472.02C62.1937 1471.57 61.4457 1470.31 61.4457 1468.9C61.4457 1467.13 62.5997 1465.61 65.1427 1465.61H70.1861V1475.44H68.3483V1472.19ZM68.3483 1467.24H65.2068C64.0315 1467.24 63.2835 1467.83 63.2835 1468.9C63.2835 1469.97 64.0315 1470.57 65.2068 1470.57H68.3483V1467.24ZM79.4959 1465.61H87.3601V1475.44H85.5223V1467.24H81.3338V1469.78C81.3338 1472.26 81.1414 1475.44 77.8718 1475.44H77.2521V1473.71H77.6367C79.4746 1473.71 79.4959 1471.47 79.4959 1469.78V1465.61ZM92.6224 1475.44H90.7845V1465.61H92.6224V1472.77L98.3709 1465.61H100.209V1475.44H98.3709V1468.28L92.6224 1475.44ZM111.206 1465.61H113.043V1475.44H111.206V1471.3H105.457V1475.44H103.619V1465.61H105.457V1469.67H111.206V1465.61ZM120.963 1474.01C122.117 1474.01 123.057 1473.56 123.57 1472.69H125.557C124.874 1474.59 123.121 1475.72 120.963 1475.72C117.992 1475.72 115.813 1473.54 115.813 1470.51C115.813 1467.56 117.886 1465.33 120.856 1465.33C123.677 1465.33 125.686 1467.58 125.686 1470.4C125.686 1470.63 125.686 1470.93 125.643 1471.21H117.715C117.928 1472.81 119.275 1474.01 120.963 1474.01ZM120.856 1467.04C119.168 1467.04 117.95 1468.09 117.736 1469.61H123.762C123.527 1468.09 122.459 1467.04 120.856 1467.04ZM130.291 1475.44H128.454V1465.61H130.291V1472.77L136.04 1465.61H137.878V1475.44H136.04V1468.28L130.291 1475.44ZM133.155 1462.58C134.373 1462.58 135.249 1461.72 135.42 1460.61H137.044C136.873 1462.6 135.228 1464.16 133.155 1464.16C131.061 1464.16 129.437 1462.6 129.266 1460.61H130.868C131.039 1461.72 131.916 1462.58 133.155 1462.58ZM141.288 1465.61H143.126V1469.91L147.849 1465.61H150.306L144.857 1470.53L150.306 1475.44H147.849L143.126 1471.4V1475.44H141.288V1465.61ZM156.156 1465.33C158.934 1465.33 160.857 1466.72 160.857 1469.18V1475.44H159.019V1474.37C158.25 1475.21 157.117 1475.72 155.6 1475.72C153.292 1475.72 151.604 1474.65 151.604 1472.45C151.604 1470.08 153.655 1469.27 155.921 1469.27H159.019C159.019 1467.64 157.78 1467.04 156.156 1467.04C154.98 1467.04 153.784 1467.54 153.399 1468.48H151.369C151.946 1466.45 153.89 1465.33 156.156 1465.33ZM159.019 1471.51V1470.87H155.899C154.382 1470.87 153.442 1471.38 153.442 1472.45C153.442 1473.52 154.382 1474.01 155.792 1474.01C157.78 1474.01 159.019 1472.98 159.019 1471.51ZM168.982 1465.61H170.819V1469.91L175.542 1465.61H178L172.55 1470.53L178 1475.44H175.542L170.819 1471.4V1475.44H168.982V1465.61ZM184.218 1465.33C187.167 1465.33 189.368 1467.56 189.368 1470.53C189.368 1473.48 187.167 1475.72 184.218 1475.72C181.268 1475.72 179.067 1473.48 179.067 1470.53C179.067 1467.56 181.268 1465.33 184.218 1465.33ZM184.218 1474.01C186.162 1474.01 187.53 1472.45 187.53 1470.53C187.53 1468.58 186.162 1467.04 184.218 1467.04C182.273 1467.04 180.905 1468.58 180.905 1470.53C180.905 1472.45 182.273 1474.01 184.218 1474.01ZM199.882 1470.53C200.994 1471.1 201.25 1471.96 201.25 1472.79C201.25 1474.25 200.246 1475.44 198.109 1475.44H192.147V1465.61H198.023C200.16 1465.61 201.165 1466.79 201.165 1468.26C201.165 1469.07 200.951 1469.91 199.882 1470.53ZM197.916 1473.82C198.835 1473.82 199.412 1473.41 199.412 1472.58C199.412 1471.75 198.835 1471.34 197.916 1471.34H193.984V1473.82H197.916ZM197.831 1469.72C198.75 1469.72 199.327 1469.31 199.327 1468.48C199.327 1467.64 198.75 1467.24 197.831 1467.24H193.984V1469.72H197.831ZM205.859 1479.8H204.021V1465.61H205.859V1466.68C206.586 1465.87 207.782 1465.33 209.171 1465.33C212.398 1465.33 214.151 1467.81 214.151 1470.53C214.151 1473.24 212.398 1475.72 209.171 1475.72C207.782 1475.72 206.586 1475.19 205.859 1474.37V1479.8ZM205.795 1470.53C205.795 1472.86 207.398 1474.01 209.107 1474.01C211.009 1474.01 212.313 1472.41 212.313 1470.53C212.313 1468.65 211.009 1467.04 209.107 1467.04C207.398 1467.04 205.795 1468.2 205.795 1470.53ZM221.427 1465.33C224.376 1465.33 226.578 1467.56 226.578 1470.53C226.578 1473.48 224.376 1475.72 221.427 1475.72C218.478 1475.72 216.277 1473.48 216.277 1470.53C216.277 1467.56 218.478 1465.33 221.427 1465.33ZM221.427 1474.01C223.372 1474.01 224.74 1472.45 224.74 1470.53C224.74 1468.58 223.372 1467.04 221.427 1467.04C219.483 1467.04 218.115 1468.58 218.115 1470.53C218.115 1472.45 219.483 1474.01 221.427 1474.01ZM237.092 1470.53C238.204 1471.1 238.46 1471.96 238.46 1472.79C238.46 1474.25 237.456 1475.44 235.319 1475.44H229.356V1465.61H235.233C237.37 1465.61 238.375 1466.79 238.375 1468.26C238.375 1469.07 238.161 1469.91 237.092 1470.53ZM235.126 1473.82C236.045 1473.82 236.622 1473.41 236.622 1472.58C236.622 1471.75 236.045 1471.34 235.126 1471.34H231.194V1473.82H235.126ZM235.041 1469.72C235.96 1469.72 236.537 1469.31 236.537 1468.48C236.537 1467.64 235.96 1467.24 235.041 1467.24H231.194V1469.72H235.041ZM255.281 1468.48H253.272C252.76 1467.6 251.798 1467.04 250.644 1467.04C248.721 1467.04 247.353 1468.58 247.353 1470.53C247.353 1472.47 248.721 1474.01 250.644 1474.01C251.798 1474.01 252.76 1473.45 253.272 1472.58H255.281C254.576 1474.48 252.824 1475.72 250.644 1475.72C247.738 1475.72 245.515 1473.5 245.515 1470.53C245.515 1467.56 247.738 1465.33 250.644 1465.33C252.824 1465.33 254.576 1466.57 255.281 1468.48ZM261.879 1465.33C264.657 1465.33 266.581 1466.72 266.581 1469.18V1475.44H264.743V1474.37C263.974 1475.21 262.841 1475.72 261.324 1475.72C259.016 1475.72 257.328 1474.65 257.328 1472.45C257.328 1470.08 259.379 1469.27 261.644 1469.27H264.743C264.743 1467.64 263.503 1467.04 261.879 1467.04C260.704 1467.04 259.507 1467.54 259.123 1468.48H257.092C257.669 1466.45 259.614 1465.33 261.879 1465.33ZM264.743 1471.51V1470.87H261.623C260.106 1470.87 259.165 1471.38 259.165 1472.45C259.165 1473.52 260.106 1474.01 261.516 1474.01C263.503 1474.01 264.743 1472.98 264.743 1471.51ZM279.845 1468.95L276.661 1475.44H274.802L271.618 1468.95V1475.44H269.78V1465.61H271.874L275.742 1473.52L279.632 1465.61H281.683V1475.44H279.845V1468.95ZM289.607 1465.33C292.556 1465.33 294.757 1467.56 294.757 1470.53C294.757 1473.48 292.556 1475.72 289.607 1475.72C286.658 1475.72 284.457 1473.48 284.457 1470.53C284.457 1467.56 286.658 1465.33 289.607 1465.33ZM289.607 1474.01C291.552 1474.01 292.92 1472.45 292.92 1470.53C292.92 1468.58 291.552 1467.04 289.607 1467.04C287.663 1467.04 286.295 1468.58 286.295 1470.53C286.295 1472.45 287.663 1474.01 289.607 1474.01ZM298.498 1465.61H306.362V1475.44H304.524V1467.24H300.336V1469.78C300.336 1472.26 300.143 1475.44 296.874 1475.44H296.254V1473.71H296.639C298.477 1473.71 298.498 1471.47 298.498 1469.78V1465.61ZM314.296 1474.01C315.45 1474.01 316.39 1473.56 316.903 1472.69H318.89C318.206 1474.59 316.454 1475.72 314.296 1475.72C311.325 1475.72 309.145 1473.54 309.145 1470.51C309.145 1467.56 311.218 1465.33 314.189 1465.33C317.01 1465.33 319.018 1467.58 319.018 1470.4C319.018 1470.63 319.018 1470.93 318.976 1471.21H311.047C311.261 1472.81 312.607 1474.01 314.296 1474.01ZM314.189 1467.04C312.501 1467.04 311.282 1468.09 311.069 1469.61H317.095C316.86 1468.09 315.792 1467.04 314.189 1467.04ZM320.295 1467.24V1465.61H329.741V1467.24H325.937V1475.44H324.099V1467.24H320.295ZM336.229 1465.33C339.178 1465.33 341.379 1467.56 341.379 1470.53C341.379 1473.48 339.178 1475.72 336.229 1475.72C333.28 1475.72 331.079 1473.48 331.079 1470.53C331.079 1467.56 333.28 1465.33 336.229 1465.33ZM336.229 1474.01C338.174 1474.01 339.542 1472.45 339.542 1470.53C339.542 1468.58 338.174 1467.04 336.229 1467.04C334.284 1467.04 332.917 1468.58 332.917 1470.53C332.917 1472.45 334.284 1474.01 336.229 1474.01ZM351.894 1470.53C353.005 1471.1 353.262 1471.96 353.262 1472.79C353.262 1474.25 352.257 1475.44 350.12 1475.44H344.158V1465.61H350.035C352.172 1465.61 353.176 1466.79 353.176 1468.26C353.176 1469.07 352.963 1469.91 351.894 1470.53ZM349.928 1473.82C350.847 1473.82 351.424 1473.41 351.424 1472.58C351.424 1471.75 350.847 1471.34 349.928 1471.34H345.996V1473.82H349.928ZM349.843 1469.72C350.762 1469.72 351.339 1469.31 351.339 1468.48C351.339 1467.64 350.762 1467.24 349.843 1467.24H345.996V1469.72H349.843Z" fill="black"/>
<path d="M18.0432 1491.32C20.864 1491.32 23.0438 1493.59 23.0438 1496.36C23.0438 1499.14 20.8426 1501.36 17.8936 1501.36C14.5171 1501.36 12.7861 1498.86 12.7861 1495.38C12.7861 1490.98 13.7691 1488.52 17.1242 1488.16L19.1544 1487.94C20.1374 1487.84 20.7572 1487.54 20.9068 1486.79H22.7446C22.6377 1488.14 21.8043 1489.33 19.8169 1489.55L17.2738 1489.8C15.2009 1490.02 14.6881 1491.6 14.5812 1492.86C15.2009 1492.07 16.3122 1491.32 18.0432 1491.32ZM17.8936 1499.65C19.8169 1499.65 21.2059 1498.2 21.2059 1496.36C21.2059 1494.48 19.8169 1493.01 17.8936 1493.01C15.9916 1493.01 14.6239 1494.48 14.6239 1496.36C14.6239 1498.2 15.9916 1499.65 17.8936 1499.65ZM30.3276 1490.98C33.2767 1490.98 35.4778 1493.2 35.4778 1496.17C35.4778 1499.12 33.2767 1501.36 30.3276 1501.36C27.3786 1501.36 25.1774 1499.12 25.1774 1496.17C25.1774 1493.2 27.3786 1490.98 30.3276 1490.98ZM30.3276 1499.65C32.2723 1499.65 33.64 1498.09 33.64 1496.17C33.64 1494.23 32.2723 1492.69 30.3276 1492.69C28.383 1492.69 27.0153 1494.23 27.0153 1496.17C27.0153 1498.09 28.383 1499.65 30.3276 1499.65ZM39.2183 1491.26H47.0825V1501.09H45.2447V1492.88H41.0561V1495.42C41.0561 1497.9 40.8638 1501.09 37.5941 1501.09H36.9744V1499.35H37.3591C39.1969 1499.35 39.2183 1497.11 39.2183 1495.42V1491.26ZM55.7639 1494.5C58.307 1494.5 59.461 1496.04 59.461 1497.79C59.461 1499.57 58.307 1501.09 55.7639 1501.09H50.5069V1491.26H52.3447V1494.5H55.7639ZM55.6998 1499.46C56.8752 1499.46 57.6231 1498.86 57.6231 1497.79C57.6231 1496.73 56.8752 1496.13 55.6998 1496.13H52.3447V1499.46H55.6998ZM75.9223 1501.09H61.818V1491.26H63.6558V1499.46H67.9512V1491.26H69.7891V1499.46H74.0845V1491.26H75.9223V1501.09ZM83.2803 1490.98C86.0584 1490.98 87.9817 1492.37 87.9817 1494.82V1501.09H86.1439V1500.02C85.3746 1500.85 84.2419 1501.36 82.7247 1501.36C80.4167 1501.36 78.7284 1500.3 78.7284 1498.09C78.7284 1495.72 80.78 1494.91 83.0452 1494.91H86.1439C86.1439 1493.29 84.9044 1492.69 83.2803 1492.69C82.1049 1492.69 80.9082 1493.18 80.5235 1494.12H78.4934C79.0704 1492.09 81.0151 1490.98 83.2803 1490.98ZM86.1439 1497.15V1496.51H83.0238C81.5066 1496.51 80.5663 1497.03 80.5663 1498.09C80.5663 1499.16 81.5066 1499.65 82.917 1499.65C84.9044 1499.65 86.1439 1498.63 86.1439 1497.15ZM97.3356 1497.84H95.049L92.2709 1501.09H89.8561L92.7838 1497.67C91.1811 1497.22 90.4331 1495.96 90.4331 1494.55C90.4331 1492.77 91.5871 1491.26 94.1301 1491.26H99.1735V1501.09H97.3356V1497.84ZM97.3356 1492.88H94.1942C93.0189 1492.88 92.2709 1493.48 92.2709 1494.55C92.2709 1495.62 93.0189 1496.21 94.1942 1496.21H97.3356V1492.88ZM115.108 1491.26H116.946V1501.09H115.108V1496.94H109.36V1501.09H107.522V1491.26H109.36V1495.32H115.108V1491.26ZM122.194 1501.09H120.356V1491.26H122.194V1498.41L127.943 1491.26H129.78V1501.09H127.943V1493.93L122.194 1501.09ZM133.191 1491.26H135.029V1495.55L139.751 1491.26H142.209L136.76 1496.17L142.209 1501.09H139.751L135.029 1497.05V1501.09H133.191V1491.26ZM145.964 1501.09H144.126V1491.26H145.964V1498.41L151.713 1491.26H153.551V1501.09H151.713V1493.93L145.964 1501.09ZM155.679 1492.88V1491.26H165.124V1492.88H161.32V1501.09H159.483V1492.88H155.679ZM176.228 1494.12H174.22C173.707 1493.24 172.745 1492.69 171.591 1492.69C169.668 1492.69 168.3 1494.23 168.3 1496.17C168.3 1498.12 169.668 1499.65 171.591 1499.65C172.745 1499.65 173.707 1499.1 174.22 1498.22H176.228C175.523 1500.12 173.771 1501.36 171.591 1501.36C168.685 1501.36 166.462 1499.14 166.462 1496.17C166.462 1493.2 168.685 1490.98 171.591 1490.98C173.771 1490.98 175.523 1492.22 176.228 1494.12ZM178.895 1491.26H180.732V1495.55L185.455 1491.26H187.913L182.463 1496.17L187.913 1501.09H185.455L180.732 1497.05V1501.09H178.895V1491.26ZM193.762 1490.98C196.54 1490.98 198.464 1492.37 198.464 1494.82V1501.09H196.626V1500.02C195.856 1500.85 194.724 1501.36 193.206 1501.36C190.899 1501.36 189.21 1500.3 189.21 1498.09C189.21 1495.72 191.262 1494.91 193.527 1494.91H196.626C196.626 1493.29 195.386 1492.69 193.762 1492.69C192.587 1492.69 191.39 1493.18 191.005 1494.12H188.975C189.552 1492.09 191.497 1490.98 193.762 1490.98ZM196.626 1497.15V1496.51H193.506C191.988 1496.51 191.048 1497.03 191.048 1498.09C191.048 1499.16 191.988 1499.65 193.399 1499.65C195.386 1499.65 196.626 1498.63 196.626 1497.15ZM207.817 1497.84H205.531L202.753 1501.09H200.338L203.266 1497.67C201.663 1497.22 200.915 1495.96 200.915 1494.55C200.915 1492.77 202.069 1491.26 204.612 1491.26H209.655V1501.09H207.817V1497.84ZM207.817 1492.88H204.676C203.501 1492.88 202.753 1493.48 202.753 1494.55C202.753 1495.62 203.501 1496.21 204.676 1496.21H207.817V1492.88ZM220.397 1501.09V1489.12L217.362 1491.85V1489.5L220.311 1486.9H222.32V1501.09H220.397ZM232.636 1492.07H234.559V1496.28H236.996V1498.07H234.559V1501.09H232.636V1498.07H224.986V1496.28L231.909 1486.9H234.132L227.208 1496.28H232.636V1492.07Z" fill="black"/>
<path d="M839.653 1501.09V1489.12L836.618 1491.85V1489.5L839.567 1486.9H841.576V1501.09H839.653ZM850.31 1501.36C847.019 1501.36 845.096 1499.4 845.096 1497.18C845.096 1496.02 845.566 1494.8 847.084 1493.82C845.673 1492.88 845.246 1491.75 845.246 1490.64C845.246 1488.52 847.105 1486.62 850.31 1486.62C853.516 1486.62 855.375 1488.52 855.375 1490.64C855.375 1491.75 854.948 1492.88 853.537 1493.82C855.055 1494.8 855.525 1496.02 855.525 1497.18C855.525 1499.4 853.601 1501.36 850.31 1501.36ZM853.452 1490.64C853.452 1489.33 852.148 1488.41 850.31 1488.41C848.473 1488.41 847.169 1489.33 847.169 1490.64C847.169 1492.09 848.408 1492.92 850.31 1492.92C852.212 1492.92 853.452 1492.09 853.452 1490.64ZM850.31 1499.57C852.191 1499.57 853.601 1498.56 853.601 1497.18C853.601 1495.66 852.255 1494.72 850.31 1494.72C848.366 1494.72 847.019 1495.66 847.019 1497.18C847.019 1498.56 848.43 1499.57 850.31 1499.57ZM871.037 1491.26H872.874V1501.09H871.037V1496.94H865.288V1501.09H863.45V1491.26H865.288V1495.32H871.037V1491.26ZM880.794 1490.98C883.743 1490.98 885.944 1493.2 885.944 1496.17C885.944 1499.12 883.743 1501.36 880.794 1501.36C877.845 1501.36 875.644 1499.12 875.644 1496.17C875.644 1493.2 877.845 1490.98 880.794 1490.98ZM880.794 1499.65C882.739 1499.65 884.106 1498.09 884.106 1496.17C884.106 1494.23 882.739 1492.69 880.794 1492.69C878.849 1492.69 877.482 1494.23 877.482 1496.17C877.482 1498.09 878.849 1499.65 880.794 1499.65ZM894.877 1497.84H892.591L889.813 1501.09H887.398L890.326 1497.67C888.723 1497.22 887.975 1495.96 887.975 1494.55C887.975 1492.77 889.129 1491.26 891.672 1491.26H896.715V1501.09H894.877V1497.84ZM894.877 1492.88H891.736C890.561 1492.88 889.813 1493.48 889.813 1494.55C889.813 1495.62 890.561 1496.21 891.736 1496.21H894.877V1492.88ZM904.968 1491.32C907.789 1491.32 909.969 1493.59 909.969 1496.36C909.969 1499.14 907.767 1501.36 904.818 1501.36C901.442 1501.36 899.711 1498.86 899.711 1495.38C899.711 1490.98 900.694 1488.52 904.049 1488.16L906.079 1487.94C907.062 1487.84 907.682 1487.54 907.832 1486.79H909.669C909.563 1488.14 908.729 1489.33 906.742 1489.55L904.199 1489.8C902.126 1490.02 901.613 1491.6 901.506 1492.86C902.126 1492.07 903.237 1491.32 904.968 1491.32ZM904.818 1499.65C906.742 1499.65 908.131 1498.2 908.131 1496.36C908.131 1494.48 906.742 1493.01 904.818 1493.01C902.916 1493.01 901.549 1494.48 901.549 1496.36C901.549 1498.2 902.916 1499.65 904.818 1499.65ZM914.581 1505.45H912.743V1491.26H914.581V1492.32C915.308 1491.51 916.505 1490.98 917.894 1490.98C921.12 1490.98 922.873 1493.46 922.873 1496.17C922.873 1498.88 921.12 1501.36 917.894 1501.36C916.505 1501.36 915.308 1500.83 914.581 1500.02V1505.45ZM914.517 1496.17C914.517 1498.5 916.12 1499.65 917.829 1499.65C919.731 1499.65 921.035 1498.05 921.035 1496.17C921.035 1494.29 919.731 1492.69 917.829 1492.69C916.12 1492.69 914.517 1493.84 914.517 1496.17ZM931.795 1497.84H929.509L926.73 1501.09H924.316L927.243 1497.67C925.641 1497.22 924.893 1495.96 924.893 1494.55C924.893 1492.77 926.047 1491.26 928.59 1491.26H933.633V1501.09H931.795V1497.84ZM931.795 1492.88H928.654C927.478 1492.88 926.73 1493.48 926.73 1494.55C926.73 1495.62 927.478 1496.21 928.654 1496.21H931.795V1492.88ZM949.717 1496.17C950.828 1496.75 951.085 1497.6 951.085 1498.44C951.085 1499.89 950.08 1501.09 947.943 1501.09H941.981V1491.26H947.858C949.995 1491.26 950.999 1492.43 950.999 1493.91C950.999 1494.72 950.786 1495.55 949.717 1496.17ZM947.751 1499.46C948.67 1499.46 949.247 1499.06 949.247 1498.22C949.247 1497.39 948.67 1496.98 947.751 1496.98H943.819V1499.46H947.751ZM947.666 1495.36C948.585 1495.36 949.162 1494.95 949.162 1494.12C949.162 1493.29 948.585 1492.88 947.666 1492.88H943.819V1495.36H947.666ZM964.049 1491.26H965.887V1501.09H964.049V1491.26ZM958.685 1494.5C961.228 1494.5 962.382 1496.04 962.382 1497.79C962.382 1499.57 961.228 1501.09 958.685 1501.09H953.856V1491.26H955.694V1494.5H958.685ZM958.621 1499.46C959.797 1499.46 960.545 1498.86 960.545 1497.79C960.545 1496.73 959.797 1496.13 958.621 1496.13H955.694V1499.46H958.621ZM978.253 1491.26L974.257 1496.11L978.296 1501.09H976.052L973.103 1497.47L970.132 1501.09H968.017L972.034 1496.17L968.06 1491.26H970.346L973.188 1494.78L976.052 1491.26H978.253ZM984.744 1490.98C987.693 1490.98 989.894 1493.2 989.894 1496.17C989.894 1499.12 987.693 1501.36 984.744 1501.36C981.795 1501.36 979.593 1499.12 979.593 1496.17C979.593 1493.2 981.795 1490.98 984.744 1490.98ZM984.744 1499.65C986.688 1499.65 988.056 1498.09 988.056 1496.17C988.056 1494.23 986.688 1492.69 984.744 1492.69C982.799 1492.69 981.431 1494.23 981.431 1496.17C981.431 1498.09 982.799 1499.65 984.744 1499.65ZM1003.31 1503.78H1001.48V1501.09H993.228V1503.78H991.39V1499.46H992.544C993.463 1498.63 993.762 1496.98 993.762 1495.34V1491.26H1001.71V1499.46H1003.31V1503.78ZM995.6 1495.32C995.6 1496.66 995.451 1498.33 994.746 1499.46H999.874V1492.88H995.6V1495.32Z" fill="black"/>
<path d="M916.478 1468.48H914.469C913.956 1467.6 912.995 1467.04 911.841 1467.04C909.917 1467.04 908.55 1468.58 908.55 1470.53C908.55 1472.47 909.917 1474.01 911.841 1474.01C912.995 1474.01 913.956 1473.45 914.469 1472.58H916.478C915.773 1474.48 914.02 1475.72 911.841 1475.72C908.934 1475.72 906.712 1473.5 906.712 1470.53C906.712 1467.56 908.934 1465.33 911.841 1465.33C914.02 1465.33 915.773 1466.57 916.478 1468.48ZM926.463 1475.44V1463.48L923.428 1466.21V1463.86L926.377 1461.25H928.386V1475.44H926.463ZM937.334 1460.97C941.608 1460.97 942.762 1465.44 942.762 1468.35C942.762 1471.25 941.608 1475.72 937.334 1475.72C933.06 1475.72 931.906 1471.25 931.906 1468.35C931.906 1465.44 933.06 1460.97 937.334 1460.97ZM937.334 1473.93C940.027 1473.93 940.839 1470.74 940.839 1468.35C940.839 1465.95 940.027 1462.77 937.334 1462.77C934.641 1462.77 933.829 1465.95 933.829 1468.35C933.829 1470.74 934.641 1473.93 937.334 1473.93ZM961.32 1478.14H959.482V1475.44H951.233V1478.14H949.395V1473.82H950.549C951.468 1472.98 951.767 1471.34 951.767 1469.69V1465.61H959.717V1473.82H961.32V1478.14ZM953.605 1469.67C953.605 1471.02 953.456 1472.69 952.75 1473.82H957.879V1467.24H953.605V1469.67ZM968.397 1465.33C971.346 1465.33 973.547 1467.56 973.547 1470.53C973.547 1473.48 971.346 1475.72 968.397 1475.72C965.448 1475.72 963.247 1473.48 963.247 1470.53C963.247 1467.56 965.448 1465.33 968.397 1465.33ZM968.397 1474.01C970.341 1474.01 971.709 1472.45 971.709 1470.53C971.709 1468.58 970.341 1467.04 968.397 1467.04C966.452 1467.04 965.084 1468.58 965.084 1470.53C965.084 1472.45 966.452 1474.01 968.397 1474.01ZM983.431 1473.65H990.525V1475.44H980.845V1473.65L986.636 1468.33C987.512 1467.51 988.367 1466.57 988.367 1465.36C988.367 1463.77 987.106 1462.77 985.525 1462.77C984.093 1462.77 982.875 1463.52 982.512 1465.08H980.503C980.952 1462.66 982.725 1460.97 985.418 1460.97C988.282 1460.97 990.269 1462.66 990.269 1465.29C990.269 1466.85 989.393 1468.16 988.132 1469.31L983.431 1473.65ZM995.597 1473.65H1002.69V1475.44H993.012V1473.65L998.803 1468.33C999.679 1467.51 1000.53 1466.57 1000.53 1465.36C1000.53 1463.77 999.273 1462.77 997.692 1462.77C996.26 1462.77 995.042 1463.52 994.678 1465.08H992.67C993.118 1462.66 994.892 1460.97 997.585 1460.97C1000.45 1460.97 1002.44 1462.66 1002.44 1465.29C1002.44 1466.85 1001.56 1468.16 1000.3 1469.31L995.597 1473.65Z" fill="black"/>
<path d="M849.269 93.6943C885.413 93.6943 914.215 195.255 914.215 317.504V562.002C914.215 684.251 884.848 783.931 848.704 783.931H835.715V1415.86H769.074V93.6943H849.269ZM847.575 721.866V157.64H835.715V721.866H847.575Z" fill="#E13C95"/>
<path d="M748.34 726.846H669.84V1343.24H681.7V765.952H748.34V1181.23C748.34 1305.99 720.103 1414 683.394 1415.86H669.84C633.696 1412.14 603.199 1305.99 603.199 1184.95V307.849C603.199 186.805 633.131 93.6943 669.84 93.6943H683.394C719.538 97.4188 748.34 190.529 748.34 311.573V726.846ZM681.7 665.393V158.872H669.84V665.393H681.7Z" fill="#E13C95"/>
<path d="M577.286 318.463V562.12C577.286 645.228 564.246 717.003 543.835 756.668C564.246 794.444 577.286 866.219 577.286 947.438V1192.98C577.286 1315.76 547.804 1415.86 510.952 1415.86H432.145V93.6943H511.519C547.804 97.472 577.286 195.69 577.286 318.463ZM510.952 720.78V157.914H499.045V720.78H510.952ZM510.952 1351.64V788.778H499.045V1351.64H510.952Z" fill="#E13C95"/>
<path d="M331.216 93.6943H344.77C382.044 93.6943 411.411 196.116 411.411 319.022V1190.54C411.411 1311.58 382.608 1415.86 347.029 1415.86H332.91C292.813 1415.86 266.27 1313.44 266.27 1190.54V319.022C266.27 197.978 295.637 93.6943 331.216 93.6943ZM332.345 158.872V1350.69H344.77V158.872H332.345Z" fill="#E13C95"/>
<path d="M240.348 93.6953V564.01C240.348 645.229 227.359 715.115 208.157 754.78C227.359 794.445 240.348 864.331 240.348 945.55V1415.86H173.707V788.779H161.848V1415.86H95.207V93.6953H161.848V724.559H173.707V93.6953H240.348Z" fill="#E13C95"/>
<rect x="83.1445" y="896.765" width="82.9378" height="108.856" fill="#3EFFFF" fill-opacity="0.988542"/>
<rect x="77.9648" y="134.774" width="88.1214" height="108.856" fill="#3EFFFF" fill-opacity="0.988542"/>
<rect x="254.207" y="134.774" width="88.1214" height="108.856" fill="#3EFFFF" fill-opacity="0.988542"/>
<rect x="254.207" y="896.765" width="77.7542" height="108.856" fill="#3EFFFF" fill-opacity="0.988542"/>
<rect x="414.902" y="896.765" width="93.305" height="108.856" fill="#3EFFFF" fill-opacity="0.988542"/>
<rect x="425.27" y="134.774" width="82.9378" height="108.856" fill="#3EFFFF" fill-opacity="0.988542"/>
<rect x="596.328" y="896.765" width="82.9378" height="108.856" fill="#3EFFFF" fill-opacity="0.988542"/>
<rect x="757.016" y="896.765" width="82.9378" height="108.856" fill="#3EFFFF" fill-opacity="0.988542"/>
<rect x="596.328" y="134.774" width="82.9378" height="108.856" fill="#3EFFFF" fill-opacity="0.988542"/>
<rect x="860.691" y="896.765" width="82.9378" height="108.856" fill="#3EFFFF" fill-opacity="0.988542"/>
<rect x="762.207" y="134.774" width="82.9378" height="108.856" fill="#3EFFFF" fill-opacity="0.988542"/>
<rect x="160.906" y="1280.35" width="82.9378" height="108.856" fill="#3EFFFF" fill-opacity="0.988542"/>
<rect x="166.09" y="518.36" width="82.9378" height="103.672" fill="#3EFFFF" fill-opacity="0.988542"/>
<rect x="331.969" y="1280.35" width="82.9378" height="108.856" fill="#3EFFFF" fill-opacity="0.988542"/>
<rect x="337.152" y="518.36" width="82.9378" height="103.672" fill="#3EFFFF" fill-opacity="0.988542"/>
<rect x="497.836" y="1280.35" width="77.7542" height="108.856" fill="#3EFFFF" fill-opacity="0.988542"/>
<rect x="507.293" y="518.36" width="72.5706" height="103.672" fill="#3EFFFF" fill-opacity="0.988542"/>
<rect x="668.898" y="1280.35" width="77.7542" height="108.856" fill="#3EFFFF" fill-opacity="0.988542"/>
<rect x="674.082" y="518.36" width="82.9378" height="103.672" fill="#3EFFFF" fill-opacity="0.988542"/>
<rect x="834.777" y="1280.35" width="82.9378" height="108.856" fill="#3EFFFF" fill-opacity="0.988542"/>
<rect x="839.957" y="518.36" width="82.9378" height="103.672" fill="#3EFFFF" fill-opacity="0.988542"/>
<path d="M959.984 13.1557C959.54 13.5135 961.781 11.1353 963.263 10.0174C965.181 9.30127 965.05 8.52151 965.866 8.37069C966.682 8.21986 968.396 9.00883 969.311 10.0456C970.226 11.0825 969.763 12.4944 969.979 13.6605C970.194 14.8266 965.618 17.5412 964.793 18.2966C963.968 19.052 963.192 22.6122 962.228 23.2725C961.265 23.9329 960.291 23.9521 960.04 25.2044C959.789 26.4567 960.151 28.5365 959.497 29.445C958.729 30.5114 954.995 33.0745 953.75 36.7775C953.361 37.9347 954.72 42.0249 958.075 43.2139C962.098 44.6398 966.075 37.6356 967.946 35.3604C970.436 32.3316 969.798 29.069 970.325 28.0069C970.852 26.9447 973.111 24.1559 973.724 23.5602C974.633 22.6775 976.028 22.2502 976.852 19.6056C977.782 16.6245 978.461 13.8818 978.863 13.4458C979.265 13.0098 982.34 12.6828 983.558 12.096C984.776 11.5091 986.459 14.0923 986.938 14.7273C987.321 15.2353 986.524 17.0548 986.077 17.9011C985.511 18.9704 984.303 21.2196 983.999 21.6617C983.618 22.2143 978.938 24.3655 980.366 26.1515C981.042 26.9962 982.913 26.4448 982.921 26.9256C982.266 27.73 980.977 29.4555 981.063 29.9219C981.149 30.3883 978.982 31.7133 977.888 32.3174C976.716 32.936 974.281 34.3345 973.918 34.9804C973.555 35.6263 973.017 37.7194 972.794 38.6852C972.355 39.5704 971.308 41.3475 970.638 41.3748C969.8 41.4091 968.107 42.6867 967.579 43.7488C967.052 44.811 969.358 46.1938 968.947 47.2344C968.536 48.275 965.085 50.4804 963.932 51.4171C962.778 52.3538 957.717 51.7212 956.573 52.0533C955.428 52.3854 951.637 50.7947 950.173 50.7034C948.709 50.6121 946.9 48.6551 946.676 48.0936C946.452 47.5321 946.828 45.6537 947.347 45.1961C947.761 44.8301 946.757 43.0942 946.203 42.272C946.028 41.5407 945.796 39.9356 946.269 39.3657C946.861 38.6534 945.968 37.7332 945.881 37.2667C945.795 36.8003 947.688 34.6418 948.577 34.2362C949.467 33.8306 947.705 33.4326 948.103 31.6708C948.501 29.909 949.443 29.132 950.808 28.0357C952.173 26.9393 951.812 23.0265 952.836 21.3902C953.86 19.7539 958.743 16.1585 959.314 15.3296C959.884 14.5006 960.695 12.5821 959.984 13.1557Z" fill="black" stroke="black" stroke-opacity="0.988542" stroke-width="0.89494"/>
<path fill-rule="evenodd" clip-rule="evenodd" d="M968.908 46.998C969.131 47.1175 969.584 47.5242 969.611 48.1945C969.625 48.5322 969.44 49.0636 969.24 49.636C968.944 50.4833 968.616 51.4202 968.859 51.9513C969.264 52.8411 971.634 54.5737 972.343 53.8399C972.605 53.5681 973.189 53.1544 973.825 52.7033C974.906 51.9363 976.139 51.0616 976.205 50.5939C976.259 50.209 976.738 49.3248 977.229 48.4201C977.685 47.5787 978.151 46.7197 978.292 46.2286C978.401 45.8541 978.457 45.3751 978.517 44.8653C978.619 43.9879 978.733 43.0191 979.14 42.3337C979.492 41.7425 980.502 41.0295 981.475 40.343C982.286 39.7711 983.07 39.2176 983.426 38.7683C983.736 38.3766 983.95 37.7753 984.157 37.1959C984.471 36.3129 984.768 35.4804 985.357 35.5172C985.856 35.5482 986.56 35.6673 987.392 35.8081C988.189 35.943 989.103 36.0977 990.069 36.2143C991.114 36.3405 991.577 36.6084 991.919 36.8067C992.223 36.9828 992.432 37.104 992.871 37.023C993.691 36.8714 994.933 34.9635 995.415 34.2235C995.481 34.122 995.533 34.0424 995.567 33.9924C995.743 33.7363 996.236 33.698 996.917 33.6451C997.338 33.6124 997.831 33.5741 998.366 33.4753C998.57 33.4376 998.814 33.395 999.089 33.3471C1000.7 33.0668 1003.35 32.6054 1005.06 31.8758C1007.08 31.0215 1010.94 29.1013 1011.6 28.7388C1012.26 28.3763 1014.02 26.8439 1013.85 25.911C1013.72 25.1924 1013.33 24.6633 1012.94 24.1146C1012.82 23.951 1012.7 23.7857 1012.58 23.6131C1012.08 22.8615 1011.76 21.1123 1012.79 20.1972C1013.83 19.2821 1014.87 18.367 1014.32 17.3821C1013.78 16.3973 1011.48 15.0946 1010.73 14.9906C1009.99 14.8867 1007.07 14.0996 1006.05 13.8055C1005.03 13.5115 1000.93 14.149 1000.12 14.2998C999.77 14.3636 999.061 14.2138 998.243 14.041C997.128 13.8055 995.812 13.5273 994.937 13.6888C994.782 13.7176 994.631 13.7442 994.484 13.7701C993.2 13.9966 992.225 14.1686 991.124 15.2377C990.422 15.9189 990.03 17.1868 989.691 18.2849C989.437 19.1074 989.212 19.8347 988.909 20.1489C988.697 20.3685 988.372 20.6737 988.007 21.0153C987.153 21.8159 986.086 22.8164 985.768 23.3823C985.396 24.0446 984.852 24.6575 984.395 25.1733C984.294 25.2862 984.198 25.3945 984.109 25.4977C984.006 25.6172 983.893 25.7437 983.777 25.8738C983.336 26.3687 982.849 26.9163 982.64 27.3368C982.048 28.0491 980.882 29.5671 980.95 29.9402C980.997 30.1912 979.063 31.4365 977.192 32.6411C975.585 33.6753 974.025 34.6796 973.806 34.9987C973.33 35.6895 972.733 38.3322 972.798 38.682C972.85 38.9619 971.538 40.563 970.875 41.3285C970.045 41.4016 968.181 42.0193 967.372 43.9053C966.563 45.7913 968.059 46.7529 968.908 46.998ZM988.574 25.5178C988.148 26.0387 987.292 27.3224 987.278 28.2898C987.26 29.4989 988.577 30.0997 989.225 30.3418C989.346 30.3871 989.486 30.4458 989.639 30.5095C990.303 30.7865 991.199 31.1603 991.751 30.9604C992.054 30.8505 992.5 30.473 993.002 30.0491C993.622 29.5248 994.326 28.9295 994.947 28.6815C996.07 28.2328 997.448 27.8576 998.264 27.7068L1001.18 27.1681C1001.77 27.3397 1003.09 27.6102 1003.62 27.3202C1003.67 27.2914 1003.73 27.2612 1003.78 27.2297C1004.45 26.8658 1005.44 26.323 1006.18 25.5204C1006.45 25.2272 1006.75 24.9554 1007.02 24.7122C1007.56 24.2322 1007.96 23.8633 1007.77 23.6598C1007.64 23.5327 1007.56 23.3983 1007.46 23.2407C1007.32 23.018 1007.16 22.7491 1006.81 22.3897C1006.6 22.1724 1006.36 21.9898 1006.14 21.8186C1005.74 21.5065 1005.39 21.2326 1005.32 20.8561C1005.23 20.3896 1005.46 19.4238 1005.58 18.9992C1005.67 18.6207 1005.68 17.8471 1004.99 17.7812C1004.59 17.7425 1004.34 17.5169 1004.1 17.3037C1003.83 17.0622 1003.58 16.8366 1003.14 16.9167C1002.49 17.0374 1000.03 17.2509 998.882 17.3426C998.214 17.4258 996.66 17.8496 995.789 18.8787C994.7 20.1652 993.262 21.5163 993.145 21.5379C993.028 21.5594 990.964 22.7851 990.35 23.3808C989.859 23.8574 988.962 25.004 988.574 25.5178Z" fill="black"/>
<path d="M969.611 48.1945L969.164 48.2127L969.164 48.2127L969.611 48.1945ZM968.908 46.998L969.119 46.6036L969.078 46.5812L969.032 46.568L968.908 46.998ZM969.24 49.636L969.662 49.7835L969.662 49.7835L969.24 49.636ZM968.859 51.9513L969.266 51.7657L969.266 51.7657L968.859 51.9513ZM972.343 53.8399L972.665 54.1507L972.665 54.1507L972.343 53.8399ZM973.825 52.7033L974.083 53.0683L974.083 53.0683L973.825 52.7033ZM976.205 50.5939L976.648 50.6559L976.648 50.6559L976.205 50.5939ZM977.229 48.4201L977.622 48.6334L977.622 48.6334L977.229 48.4201ZM978.292 46.2286L978.722 46.3527L978.722 46.3527L978.292 46.2286ZM978.517 44.8653L978.072 44.8131L978.072 44.8131L978.517 44.8653ZM979.14 42.3337L978.756 42.1051L978.756 42.1051L979.14 42.3337ZM981.475 40.343L981.217 39.9774L981.217 39.9774L981.475 40.343ZM983.426 38.7683L983.075 38.4906L983.075 38.4906L983.426 38.7683ZM984.157 37.1959L984.578 37.3462L984.578 37.3462L984.157 37.1959ZM985.357 35.5172L985.385 35.0706L985.385 35.0706L985.357 35.5172ZM987.392 35.8081L987.317 36.2493L987.317 36.2493L987.392 35.8081ZM990.069 36.2143L990.015 36.6585L990.015 36.6585L990.069 36.2143ZM991.919 36.8067L991.695 37.1939L991.695 37.1939L991.919 36.8067ZM995.415 34.2235L995.04 33.9794L995.04 33.9794L995.415 34.2235ZM995.567 33.9924L995.936 34.2461L995.936 34.2461L995.567 33.9924ZM996.917 33.6451L996.952 34.0912L996.952 34.0912L996.917 33.6451ZM999.089 33.3471L999.166 33.7879L999.166 33.7879L999.089 33.3471ZM1005.06 31.8758L1005.24 32.2877L1005.24 32.2877L1005.06 31.8758ZM1011.6 28.7388L1011.82 29.1305L1011.82 29.1305L1011.6 28.7388ZM1013.85 25.911L1014.29 25.8297L1014.29 25.8297L1013.85 25.911ZM1012.94 24.1146L1013.3 23.8518L1013.3 23.8518L1012.94 24.1146ZM1012.58 23.6131L1012.95 23.365L1012.95 23.365L1012.58 23.6131ZM1012.79 20.1972L1012.5 19.8617L1012.5 19.8617L1012.79 20.1972ZM1014.32 17.3821L1013.93 17.5984L1013.93 17.5984L1014.32 17.3821ZM1010.73 14.9906L1010.67 15.4338L1010.67 15.4338L1010.73 14.9906ZM1006.05 13.8055L1005.93 14.2354L1005.93 14.2354L1006.05 13.8055ZM1000.12 14.2998L1000.03 13.8598L1000.03 13.8598L1000.12 14.2998ZM998.243 14.041L998.335 13.6032L998.335 13.6032L998.243 14.041ZM994.937 13.6888L995.019 14.1289L994.937 13.6888ZM994.484 13.7701L994.562 14.2108L994.484 13.7701ZM991.124 15.2377L991.435 15.5587L991.435 15.5587L991.124 15.2377ZM989.691 18.2849L989.264 18.1528L989.264 18.1528L989.691 18.2849ZM988.909 20.1489L988.587 19.8381L988.587 19.8381L988.909 20.1489ZM988.007 21.0153L988.313 21.3418L988.313 21.3418L988.007 21.0153ZM985.768 23.3823L985.378 23.163L985.378 23.163L985.768 23.3823ZM984.395 25.1733L984.729 25.4702L984.729 25.4702L984.395 25.1733ZM984.109 25.4977L983.771 25.2049L983.771 25.2049L984.109 25.4977ZM983.777 25.8738L984.111 26.1714L984.111 26.1714L983.777 25.8738ZM982.64 27.3368L982.984 27.6228L983.018 27.5826L983.041 27.5358L982.64 27.3368ZM980.95 29.9402L980.51 30.0215L980.51 30.0215L980.95 29.9402ZM977.192 32.6411L976.949 32.2648L976.949 32.2648L977.192 32.6411ZM973.806 34.9987L974.174 35.2524L974.174 35.2524L973.806 34.9987ZM972.798 38.682L972.358 38.7633L972.358 38.7633L972.798 38.682ZM970.875 41.3285L970.914 41.7743L971.095 41.7584L971.214 41.6213L970.875 41.3285ZM967.372 43.9053L967.783 44.0817L967.783 44.0817L967.372 43.9053ZM987.278 28.2898L986.83 28.2832L986.83 28.2832L987.278 28.2898ZM988.574 25.5178L988.921 25.8012L988.926 25.7943L988.932 25.7872L988.574 25.5178ZM989.225 30.3418L989.381 29.9227L989.381 29.9227L989.225 30.3418ZM989.639 30.5095L989.467 30.9225L989.467 30.9225L989.639 30.5095ZM991.751 30.9604L991.903 31.3811L991.903 31.3811L991.751 30.9604ZM993.002 30.0491L993.291 30.3908L993.291 30.3908L993.002 30.0491ZM994.947 28.6815L995.113 29.097L995.113 29.097L994.947 28.6815ZM998.264 27.7068L998.183 27.2668L998.183 27.2668L998.264 27.7068ZM1001.18 27.1681L1001.3 26.7382L1001.2 26.7089L1001.1 26.7281L1001.18 27.1681ZM1003.62 27.3202L1003.4 26.9285L1003.4 26.9285L1003.62 27.3202ZM1003.78 27.2297L1004 27.6223L1004 27.6223L1003.78 27.2297ZM1006.18 25.5204L1006.51 25.8237L1006.51 25.8237L1006.18 25.5204ZM1007.02 24.7122L1007.32 25.0445L1007.32 25.0445L1007.02 24.7122ZM1007.77 23.6598L1008.09 23.348L1008.09 23.348L1007.77 23.6598ZM1007.46 23.2407L1007.08 23.4765L1007.08 23.4765L1007.46 23.2407ZM1006.81 22.3897L1007.13 22.078L1007.13 22.078L1006.81 22.3897ZM1006.14 21.8186L1005.87 22.1718L1005.87 22.1718L1006.14 21.8186ZM1005.32 20.8561L1004.88 20.9374L1004.88 20.9374L1005.32 20.8561ZM1005.58 18.9992L1006.01 19.1233L1006.01 19.1135L1006.01 19.1036L1005.58 18.9992ZM1004.99 17.7812L1005.03 17.3357L1005.03 17.3357L1004.99 17.7812ZM1004.1 17.3037L1003.8 17.6371L1003.8 17.6371L1004.1 17.3037ZM1003.14 16.9167L1003.23 17.3567L1003.23 17.3567L1003.14 16.9167ZM998.882 17.3426L998.846 16.8965L998.836 16.8973L998.826 16.8985L998.882 17.3426ZM995.789 18.8787L996.131 19.1678L996.131 19.1678L995.789 18.8787ZM990.35 23.3808L990.662 23.7018L990.662 23.7018L990.35 23.3808ZM970.059 48.1762C970.023 47.3056 969.44 46.7756 969.119 46.6036L968.697 47.3923C968.822 47.4594 969.145 47.7429 969.164 48.2127L970.059 48.1762ZM969.662 49.7835C969.761 49.5009 969.862 49.2112 969.936 48.9489C970.008 48.695 970.068 48.4201 970.059 48.1762L969.164 48.2127C969.168 48.3066 969.143 48.4663 969.075 48.7056C969.01 48.9365 968.918 49.1987 968.817 49.4884L969.662 49.7835ZM969.266 51.7657C969.209 51.6419 969.199 51.4013 969.285 51.0075C969.366 50.6327 969.512 50.2136 969.662 49.7835L968.817 49.4884C968.671 49.9056 968.506 50.3787 968.41 50.817C968.319 51.2362 968.266 51.7296 968.451 52.1369L969.266 51.7657ZM972.021 53.5291C972.008 53.5422 971.93 53.6044 971.654 53.5427C971.394 53.4848 971.067 53.3368 970.722 53.1239C970.383 52.9138 970.051 52.6556 969.783 52.4007C969.506 52.1371 969.331 51.9094 969.266 51.7657L968.451 52.1369C968.589 52.438 968.863 52.7606 969.166 53.0492C969.479 53.3465 969.859 53.6424 970.252 53.885C970.639 54.1248 971.063 54.3279 971.459 54.4163C971.839 54.5009 972.323 54.5045 972.665 54.1507L972.021 53.5291ZM973.566 52.3383C972.951 52.7745 972.32 53.219 972.021 53.5291L972.665 54.1507C972.89 53.9173 973.426 53.5342 974.083 53.0683L973.566 52.3383ZM975.762 50.5318C975.765 50.5069 975.758 50.5629 975.623 50.716C975.503 50.8506 975.329 51.0108 975.111 51.1913C974.674 51.5518 974.11 51.9521 973.566 52.3383L974.083 53.0683C974.62 52.6876 975.214 52.267 975.681 51.8814C975.914 51.6889 976.128 51.4948 976.292 51.3099C976.44 51.1434 976.612 50.9147 976.648 50.6559L975.762 50.5318ZM976.835 48.2068C976.591 48.6568 976.344 49.1126 976.151 49.5045C976.055 49.7007 975.969 49.8872 975.903 50.0535C975.839 50.2133 975.783 50.381 975.762 50.5318L976.648 50.6559C976.654 50.6143 976.678 50.5272 976.734 50.3846C976.788 50.2487 976.863 50.0854 976.955 49.8993C977.138 49.5268 977.376 49.0881 977.622 48.6334L976.835 48.2068ZM977.863 46.1046C977.804 46.3067 977.669 46.6118 977.479 46.9925C977.291 47.3661 977.064 47.7845 976.835 48.2068L977.622 48.6334C977.849 48.2143 978.083 47.7826 978.279 47.3936C978.47 47.0116 978.639 46.6417 978.722 46.3527L977.863 46.1046ZM978.072 44.8131C978.011 45.3354 977.958 45.7731 977.863 46.1046L978.722 46.3527C978.843 45.9351 978.903 45.4149 978.961 44.9174L978.072 44.8131ZM978.756 42.1051C978.29 42.8893 978.172 43.9653 978.072 44.8131L978.961 44.9174C979.067 44.0105 979.177 43.1489 979.525 42.5622L978.756 42.1051ZM981.217 39.9774C980.734 40.3185 980.225 40.6771 979.793 41.0261C979.372 41.3668 978.975 41.7353 978.756 42.1051L979.525 42.5622C979.657 42.3408 979.941 42.0572 980.356 41.7221C980.761 41.3951 981.244 41.054 981.733 40.7086L981.217 39.9774ZM983.075 38.4906C982.933 38.6706 982.684 38.8939 982.346 39.1565C982.014 39.4149 981.625 39.6899 981.217 39.9774L981.733 40.7086C982.136 40.4242 982.544 40.1365 982.896 39.8628C983.242 39.5933 983.564 39.3153 983.777 39.0459L983.075 38.4906ZM983.735 37.0456C983.52 37.6493 983.329 38.1694 983.075 38.4906L983.777 39.0459C984.142 38.5837 984.38 37.9014 984.578 37.3462L983.735 37.0456ZM985.385 35.0706C984.828 35.0358 984.479 35.4312 984.27 35.7824C984.055 36.1421 983.888 36.6181 983.735 37.0456L984.578 37.3462C984.74 36.8907 984.879 36.5089 985.038 36.2408C985.203 35.9642 985.298 35.9618 985.33 35.9638L985.385 35.0706ZM987.466 35.3669C986.645 35.2279 985.913 35.1035 985.385 35.0706L985.33 35.9638C985.799 35.993 986.474 36.1067 987.317 36.2493L987.466 35.3669ZM990.122 35.7701C989.169 35.6549 988.264 35.5019 987.466 35.3669L987.317 36.2493C988.113 36.384 989.038 36.5405 990.015 36.6585L990.122 35.7701ZM992.143 36.4195C991.768 36.2019 991.247 35.9058 990.122 35.7701L990.015 36.6585C990.982 36.7753 991.386 37.0149 991.695 37.1939L992.143 36.4195ZM992.79 36.583C992.628 36.6129 992.537 36.6013 992.469 36.5816C992.386 36.5573 992.305 36.5131 992.143 36.4195L991.695 37.1939C991.837 37.2764 992.013 37.3809 992.22 37.4409C992.442 37.5056 992.676 37.5141 992.952 37.463L992.79 36.583ZM995.04 33.9794C994.798 34.3509 994.378 34.9949 993.921 35.5635C993.692 35.8482 993.463 36.1024 993.25 36.2906C993.025 36.4899 992.87 36.5681 992.79 36.583L992.952 37.463C993.282 37.4021 993.59 37.185 993.843 36.9608C994.109 36.7255 994.374 36.4281 994.619 36.1243C995.108 35.516 995.55 34.8361 995.79 34.4676L995.04 33.9794ZM995.198 33.7388C995.16 33.7948 995.104 33.8805 995.04 33.9794L995.79 34.4676C995.858 34.3635 995.905 34.2901 995.936 34.2461L995.198 33.7388ZM996.883 33.1989C996.553 33.2246 996.226 33.2491 995.961 33.3046C995.711 33.357 995.391 33.4594 995.198 33.7388L995.936 34.2461C995.92 34.2693 995.934 34.2245 996.145 34.1805C996.34 34.1395 996.601 34.1185 996.952 34.0912L996.883 33.1989ZM998.284 33.0353C997.776 33.1292 997.305 33.1661 996.883 33.1989L996.952 34.0912C997.372 34.0586 997.886 34.0189 998.447 33.9153L998.284 33.0353ZM999.013 32.9062C998.738 32.954 998.491 32.997 998.284 33.0353L998.447 33.9153C998.649 33.8781 998.891 33.8359 999.166 33.7879L999.013 32.9062ZM1004.89 31.4639C1003.23 32.169 1000.64 32.623 999.013 32.9062L999.166 33.7879C1000.76 33.5106 1003.46 33.0417 1005.24 32.2877L1004.89 31.4639ZM1011.38 28.3471C1010.74 28.702 1006.89 30.6155 1004.89 31.4639L1005.24 32.2877C1007.27 31.4275 1011.15 29.5006 1011.82 29.1305L1011.38 28.3471ZM1013.41 25.9924C1013.43 26.0766 1013.4 26.236 1013.27 26.4826C1013.14 26.7185 1012.94 26.9782 1012.71 27.2356C1012.23 27.7553 1011.66 28.1948 1011.38 28.3471L1011.82 29.1305C1012.2 28.9202 1012.84 28.4124 1013.37 27.842C1013.63 27.5544 1013.88 27.2334 1014.06 26.9083C1014.23 26.5939 1014.36 26.2119 1014.29 25.8297L1013.41 25.9924ZM1012.57 24.3775C1012.98 24.9356 1013.3 25.3874 1013.41 25.9924L1014.29 25.8297C1014.14 24.9974 1013.69 24.3911 1013.3 23.8518L1012.57 24.3775ZM1012.21 23.8612C1012.33 24.0425 1012.46 24.215 1012.57 24.3775L1013.3 23.8518C1013.18 23.6871 1013.06 23.5289 1012.95 23.365L1012.21 23.8612ZM1012.5 19.8617C1011.85 20.4358 1011.65 21.2506 1011.66 21.976C1011.68 22.6969 1011.91 23.4069 1012.21 23.8612L1012.95 23.365C1012.76 23.0677 1012.57 22.5272 1012.56 21.9569C1012.55 21.3911 1012.7 20.8738 1013.09 20.5327L1012.5 19.8617ZM1013.93 17.5984C1014.09 17.8838 1014.05 18.1702 1013.78 18.5622C1013.5 18.9735 1013.03 19.3925 1012.5 19.8617L1013.09 20.5327C1013.6 20.0868 1014.16 19.5907 1014.52 19.0695C1014.89 18.5289 1015.1 17.8653 1014.72 17.1659L1013.93 17.5984ZM1010.67 15.4338C1010.79 15.4501 1011.02 15.5267 1011.34 15.6758C1011.65 15.8192 1012.01 16.0133 1012.37 16.2352C1012.72 16.4574 1013.06 16.7026 1013.35 16.9465C1013.64 17.1959 1013.83 17.4209 1013.93 17.5984L1014.72 17.1659C1014.54 16.851 1014.25 16.5438 1013.93 16.2688C1013.61 15.9881 1013.22 15.7165 1012.84 15.4769C1012.46 15.237 1012.07 15.0244 1011.72 14.8635C1011.38 14.7084 1011.05 14.5831 1010.8 14.5475L1010.67 15.4338ZM1005.93 14.2354C1006.44 14.3838 1007.43 14.6552 1008.38 14.9025C1009.32 15.1464 1010.27 15.3774 1010.67 15.4338L1010.8 14.5475C1010.46 14.4999 1009.57 14.2854 1008.61 14.0363C1007.66 13.7905 1006.68 13.5213 1006.18 13.3756L1005.93 14.2354ZM1000.2 14.7398C1000.59 14.6664 1001.81 14.4708 1003.06 14.3305C1003.68 14.2603 1004.3 14.2048 1004.83 14.1846C1005.37 14.1636 1005.75 14.1845 1005.93 14.2354L1006.18 13.3756C1005.84 13.2795 1005.33 13.2698 1004.79 13.2903C1004.24 13.3117 1003.59 13.3699 1002.96 13.4412C1001.69 13.5838 1000.45 13.7824 1000.03 13.8598L1000.2 14.7398ZM998.15 14.4788C998.556 14.5645 998.95 14.6479 999.286 14.7011C999.606 14.7517 999.939 14.7873 1000.2 14.7398L1000.03 13.8598C999.945 13.8761 999.752 13.8688 999.426 13.8172C999.117 13.7683 998.748 13.6904 998.335 13.6032L998.15 14.4788ZM995.019 14.1289C995.384 14.0614 995.874 14.0823 996.44 14.1594C996.999 14.2356 997.59 14.3604 998.15 14.4788L998.335 13.6032C997.781 13.4861 997.157 13.354 996.561 13.2727C995.971 13.1922 995.365 13.1547 994.856 13.2488L995.019 14.1289ZM994.562 14.2108C994.708 14.1849 994.861 14.158 995.019 14.1289L994.856 13.2488C994.703 13.2772 994.553 13.3035 994.406 13.3295L994.562 14.2108ZM991.435 15.5587C992.431 14.5915 993.285 14.4359 994.562 14.2108L994.406 13.3295C993.115 13.5573 992.018 13.7457 990.812 14.9167L991.435 15.5587ZM990.119 18.417C990.29 17.8638 990.466 17.2942 990.684 16.7792C990.903 16.2602 991.148 15.8376 991.435 15.5587L990.812 14.9167C990.398 15.319 990.096 15.8709 989.859 16.4307C989.621 16.9944 989.432 17.6079 989.264 18.1528L990.119 18.417ZM989.231 20.4597C989.449 20.2335 989.608 19.8995 989.736 19.5696C989.869 19.2278 989.993 18.8237 990.119 18.417L989.264 18.1528C989.135 18.5685 989.02 18.9394 988.902 19.2454C988.778 19.5633 988.672 19.7501 988.587 19.8381L989.231 20.4597ZM988.313 21.3418C988.674 21.0036 989.009 20.6892 989.231 20.4597L988.587 19.8381C988.385 20.0477 988.069 20.3437 987.701 20.6889L988.313 21.3418ZM986.158 23.6015C986.284 23.3775 986.589 23.0251 987.006 22.6003C987.412 22.1872 987.885 21.7434 988.313 21.3418L987.701 20.6889C987.276 21.0878 986.788 21.5446 986.367 21.9733C985.958 22.3904 985.57 22.8211 985.378 23.163L986.158 23.6015ZM984.729 25.4702C985.181 24.9612 985.758 24.3129 986.158 23.6015L985.378 23.163C985.033 23.7764 984.524 24.3537 984.06 24.8763L984.729 25.4702ZM984.447 25.7905C984.535 25.6898 984.629 25.5837 984.729 25.4702L984.06 24.8763C983.96 24.9888 983.862 25.0992 983.771 25.2049L984.447 25.7905ZM984.111 26.1714C984.227 26.0418 984.342 25.9129 984.447 25.7905L983.771 25.2049C983.67 25.3216 983.559 25.4456 983.443 25.5762L984.111 26.1714ZM983.041 27.5358C983.123 27.371 983.271 27.1599 983.47 26.9144C983.665 26.6729 983.889 26.4205 984.111 26.1714L983.443 25.5762C983.224 25.8219 982.985 26.0908 982.774 26.3519C982.566 26.6091 982.366 26.8821 982.239 27.1379L983.041 27.5358ZM981.39 29.8589C981.403 29.9289 981.382 29.9551 981.403 29.8932C981.419 29.8465 981.449 29.7775 981.498 29.6854C981.594 29.5025 981.741 29.2723 981.915 29.0206C982.263 28.5194 982.694 27.9726 982.984 27.6228L982.296 27.0508C981.995 27.4134 981.546 27.9817 981.18 28.5108C980.997 28.7742 980.828 29.038 980.707 29.267C980.646 29.3808 980.592 29.4972 980.555 29.6077C980.523 29.703 980.48 29.8583 980.51 30.0215L981.39 29.8589ZM977.434 33.0173C978.367 32.4165 979.326 31.7994 980.045 31.3008C980.403 31.0524 980.713 30.8262 980.933 30.6418C981.041 30.5511 981.142 30.4589 981.218 30.3712C981.255 30.328 981.299 30.2715 981.333 30.2053C981.362 30.1494 981.42 30.0205 981.39 29.8589L980.51 30.0215C980.486 29.8913 980.535 29.8015 980.54 29.7921C980.55 29.7722 980.555 29.7694 980.54 29.7867C980.512 29.8197 980.454 29.8755 980.359 29.9556C980.171 30.1129 979.888 30.3204 979.535 30.5653C978.831 31.0532 977.887 31.6611 976.949 32.2648L977.434 33.0173ZM974.174 35.2524C974.171 35.2576 974.186 35.2357 974.247 35.1811C974.302 35.1317 974.378 35.07 974.474 34.9961C974.666 34.8487 974.923 34.6665 975.23 34.4581C975.843 34.0417 976.629 33.5355 977.434 33.0173L976.949 32.2648C976.148 32.7809 975.351 33.2939 974.727 33.718C974.415 33.9298 974.141 34.1232 973.929 34.2862C973.823 34.3675 973.728 34.4447 973.649 34.5154C973.576 34.5807 973.495 34.66 973.437 34.7451L974.174 35.2524ZM973.238 38.6007C973.243 38.6285 973.237 38.6092 973.248 38.4976C973.258 38.405 973.276 38.2818 973.302 38.1338C973.354 37.8388 973.435 37.465 973.533 37.0782C973.631 36.6913 973.745 36.2982 973.861 35.9634C973.982 35.6163 974.092 35.3715 974.174 35.2524L973.437 34.7451C973.281 34.9713 973.139 35.3159 973.016 35.6695C972.889 36.0354 972.768 36.4544 972.666 36.8582C972.563 37.2622 972.477 37.6578 972.421 37.9783C972.392 38.1381 972.371 38.2841 972.358 38.4057C972.347 38.5083 972.337 38.6481 972.358 38.7633L973.238 38.6007ZM971.214 41.6213C971.548 41.2343 972.048 40.635 972.46 40.0942C972.665 39.825 972.855 39.562 972.992 39.3434C973.06 39.2351 973.121 39.1267 973.166 39.0273C973.188 38.9778 973.21 38.9204 973.226 38.8596C973.239 38.8058 973.258 38.7103 973.238 38.6007L972.358 38.7633C972.35 38.7226 972.352 38.6906 972.353 38.673C972.355 38.6548 972.358 38.643 972.358 38.6393C972.36 38.6331 972.359 38.6395 972.349 38.662C972.329 38.7068 972.291 38.7754 972.233 38.8685C972.118 39.0527 971.948 39.2903 971.748 39.552C971.352 40.0731 970.864 40.6572 970.537 41.0357L971.214 41.6213ZM967.783 44.0817C968.504 42.4001 970.181 41.8388 970.914 41.7743L970.836 40.8828C969.908 40.9644 967.857 41.6385 966.961 43.7289L967.783 44.0817ZM969.032 46.568C968.671 46.4637 968.18 46.2056 967.876 45.799C967.596 45.4248 967.439 44.883 967.783 44.0817L966.961 43.7289C966.495 44.8136 966.681 45.6956 967.16 46.335C967.614 46.9419 968.296 47.2871 968.784 47.4279L969.032 46.568ZM987.725 28.2963C987.731 27.9216 987.907 27.436 988.167 26.9462C988.421 26.4681 988.724 26.0413 988.921 25.8012L988.228 25.2344C987.998 25.5152 987.661 25.9908 987.376 26.5266C987.098 27.0507 986.839 27.6906 986.83 28.2832L987.725 28.2963ZM989.381 29.9227C989.071 29.8069 988.635 29.6164 988.284 29.3312C987.937 29.0494 987.719 28.7148 987.725 28.2963L986.83 28.2832C986.819 29.0739 987.25 29.6443 987.719 30.0257C988.184 30.4037 988.73 30.6347 989.068 30.761L989.381 29.9227ZM989.811 30.0966C989.661 30.0338 989.512 29.9715 989.381 29.9227L989.068 30.761C989.18 30.8027 989.312 30.8578 989.467 30.9225L989.811 30.0966ZM991.598 30.5397C991.461 30.5894 991.216 30.5812 990.856 30.4822C990.512 30.388 990.149 30.2371 989.811 30.0966L989.467 30.9225C989.794 31.0589 990.211 31.2334 990.619 31.3453C991.01 31.4525 991.489 31.5313 991.903 31.3811L991.598 30.5397ZM992.713 29.7073C992.46 29.9215 992.232 30.1135 992.031 30.266C991.822 30.4252 991.681 30.5098 991.598 30.5397L991.903 31.3811C992.124 31.3011 992.358 31.1419 992.572 30.9789C992.796 30.8092 993.043 30.6005 993.291 30.3908L992.713 29.7073ZM994.781 28.2659C994.078 28.547 993.312 29.2009 992.713 29.7073L993.291 30.3908C993.932 29.8487 994.575 29.312 995.113 29.097L994.781 28.2659ZM998.183 27.2668C997.339 27.4228 995.932 27.806 994.781 28.2659L995.113 29.097C996.208 28.6596 997.557 28.2924 998.346 28.1468L998.183 27.2668ZM1001.1 26.7281L998.183 27.2668L998.346 28.1468L1001.26 27.6081L1001.1 26.7281ZM1003.4 26.9285C1003.36 26.954 1003.25 26.9852 1003.07 26.9963C1002.9 27.0069 1002.7 26.9973 1002.48 26.9726C1002.04 26.9232 1001.58 26.8186 1001.3 26.7382L1001.06 27.5981C1001.37 27.6892 1001.88 27.8057 1002.38 27.8619C1002.63 27.89 1002.89 27.9044 1003.13 27.8896C1003.36 27.8752 1003.62 27.8315 1003.84 27.712L1003.4 26.9285ZM1003.57 26.8372C1003.51 26.8686 1003.46 26.8992 1003.4 26.9285L1003.84 27.712C1003.89 27.6836 1003.94 27.6539 1004 27.6223L1003.57 26.8372ZM1005.85 25.2172C1005.17 25.9578 1004.24 26.4691 1003.57 26.8372L1004 27.6223C1004.66 27.2625 1005.71 26.6882 1006.51 25.8237L1005.85 25.2172ZM1006.72 24.3798C1006.46 24.6209 1006.14 24.9062 1005.85 25.2172L1006.51 25.8237C1006.76 25.5481 1007.05 25.2899 1007.32 25.0445L1006.72 24.3798ZM1007.45 23.9715C1007.42 23.9423 1007.39 23.8971 1007.38 23.8396C1007.36 23.7854 1007.37 23.7444 1007.38 23.7271C1007.38 23.7052 1007.38 23.726 1007.32 23.8004C1007.2 23.9444 1007 24.1297 1006.72 24.3798L1007.32 25.0445C1007.58 24.8146 1007.84 24.5755 1008.02 24.3643C1008.1 24.261 1008.2 24.1214 1008.24 23.958C1008.29 23.762 1008.26 23.5304 1008.09 23.348L1007.45 23.9715ZM1007.08 23.4765C1007.18 23.6288 1007.28 23.8044 1007.45 23.9715L1008.09 23.348C1008 23.261 1007.94 23.1678 1007.84 23.0049L1007.08 23.4765ZM1006.49 22.7015C1006.8 23.0264 1006.95 23.2634 1007.08 23.4765L1007.84 23.0049C1007.7 22.7726 1007.51 22.4718 1007.13 22.078L1006.49 22.7015ZM1005.87 22.1718C1006.09 22.3457 1006.3 22.51 1006.49 22.7015L1007.13 22.078C1006.89 21.8348 1006.63 21.6339 1006.42 21.4653L1005.87 22.1718ZM1004.88 20.9374C1004.94 21.2439 1005.1 21.4822 1005.28 21.6698C1005.46 21.8535 1005.67 22.0213 1005.87 22.1718L1006.42 21.4653C1006.21 21.3038 1006.05 21.1786 1005.93 21.0532C1005.82 20.9317 1005.77 20.8448 1005.76 20.7748L1004.88 20.9374ZM1005.15 18.8752C1005.08 19.1008 1004.99 19.4647 1004.93 19.8364C1004.87 20.1891 1004.82 20.618 1004.88 20.9374L1005.76 20.7748C1005.73 20.6277 1005.75 20.3405 1005.81 19.9875C1005.87 19.6535 1005.95 19.3223 1006.01 19.1233L1005.15 18.8752ZM1004.95 18.2266C1005.03 18.2346 1005.07 18.2593 1005.08 18.2738C1005.1 18.2926 1005.13 18.3288 1005.15 18.3975C1005.19 18.5467 1005.18 18.7506 1005.14 18.8948L1006.01 19.1036C1006.07 18.8692 1006.11 18.4971 1006.01 18.1484C1005.96 17.9681 1005.86 17.7749 1005.69 17.6183C1005.52 17.4574 1005.3 17.3607 1005.03 17.3357L1004.95 18.2266ZM1003.8 17.6371C1004.03 17.8443 1004.38 18.1723 1004.95 18.2266L1005.03 17.3357C1004.79 17.3127 1004.64 17.1895 1004.4 16.9704L1003.8 17.6371ZM1003.23 17.3567C1003.34 17.3356 1003.41 17.3539 1003.48 17.3886C1003.57 17.4339 1003.66 17.5081 1003.8 17.6371L1004.4 16.9704C1004.14 16.74 1003.73 16.3526 1003.06 16.4767L1003.23 17.3567ZM998.917 17.7886C1000.05 17.6981 1002.54 17.4828 1003.23 17.3567L1003.06 16.4767C1002.44 16.592 1000.01 16.8037 998.846 16.8965L998.917 17.7886ZM996.131 19.1678C996.504 18.7262 997.041 18.3978 997.585 18.1682C998.128 17.9394 998.643 17.8232 998.937 17.7866L998.826 16.8985C998.452 16.9452 997.857 17.0824 997.238 17.3436C996.62 17.604 995.945 18.002 995.447 18.5897L996.131 19.1678ZM993.226 21.9779C993.297 21.9648 993.35 21.9373 993.367 21.9286C993.392 21.9157 993.413 21.9022 993.429 21.8917C993.461 21.8705 993.494 21.8457 993.525 21.8215C993.587 21.7721 993.665 21.7059 993.752 21.6285C993.927 21.4724 994.157 21.256 994.416 21.0019C994.933 20.494 995.575 19.8244 996.131 19.1678L995.447 18.5897C994.914 19.2196 994.292 19.8687 993.789 20.3634C993.537 20.6107 993.318 20.8165 993.157 20.96C993.075 21.0323 993.013 21.0853 992.97 21.1189C992.948 21.1362 992.937 21.1439 992.935 21.1455C992.933 21.1464 992.94 21.1419 992.952 21.1355C992.957 21.1332 993 21.1097 993.064 21.0979L993.226 21.9779ZM990.662 23.7018C990.93 23.4418 991.559 23.0102 992.173 22.6224C992.472 22.4334 992.755 22.2625 992.97 22.1383C993.077 22.076 993.165 22.0269 993.227 21.9936C993.259 21.9767 993.28 21.9658 993.293 21.9597C993.3 21.9566 993.3 21.9566 993.296 21.9582C993.294 21.9591 993.288 21.9615 993.279 21.9644C993.272 21.9667 993.253 21.973 993.226 21.9779L993.064 21.0979C993.012 21.1073 992.971 21.1243 992.961 21.1285C992.942 21.1361 992.924 21.1443 992.909 21.1515C992.878 21.166 992.843 21.1843 992.806 21.2041C992.731 21.2442 992.633 21.2991 992.521 21.364C992.296 21.4943 992.003 21.6711 991.695 21.8657C991.094 22.2451 990.384 22.7241 990.038 23.0598L990.662 23.7018ZM988.932 25.7872C989.323 25.2679 990.2 24.1501 990.662 23.7018L990.038 23.0598C989.518 23.5647 988.6 24.7402 988.217 25.2484L988.932 25.7872Z" fill="black" fill-opacity="0.988542"/>
<path d="M992.885 24.7241C992.436 24.9036 991.586 26.6122 991.217 27.4441L992.508 26.6025C992.847 26.2586 993.655 25.4983 994.18 25.2083C994.837 24.8458 994.806 25.3338 995.644 25.2995C996.482 25.2653 996.672 24.989 996.905 24.9459C997.092 24.9115 998.233 24.2987 998.78 23.9966L1000.53 23.6734C1001 23.5872 1001.3 23.2894 1001.4 23.1512C1001.56 22.9598 1001.77 22.5519 1001.27 22.4516C1000.64 22.3261 1000.78 22.4211 999.549 22.2868C998.318 22.1524 998.616 22.4591 997.61 22.8863C996.604 23.3134 996.306 23.0067 995.394 23.2957C994.665 23.5268 994.414 24.0798 994.379 24.3274C994.068 24.3848 993.334 24.5446 992.885 24.7241Z" fill="black" stroke="black" stroke-opacity="0.988542" stroke-width="0.89494"/>
<path d="M962.098 31.6022C962.412 31.2341 962.367 29.3262 962.306 28.4183L961.555 29.7649C961.416 30.2269 961.056 31.2763 960.726 31.7777C960.314 32.4045 960.114 31.9586 959.389 32.3794C958.663 32.8002 958.624 33.1333 958.438 33.2801C958.289 33.3976 957.565 34.4716 957.222 34.9939L955.825 36.0952C955.452 36.3888 955.32 36.7953 955.3 36.9619C955.243 37.2084 955.251 37.6653 955.741 37.5206C956.353 37.3398 956.187 37.32 957.338 36.8652C958.49 36.4104 958.083 36.2779 958.774 35.4308C959.466 34.5838 959.872 34.7163 960.544 34.0359C961.081 33.4915 961.046 32.885 960.961 32.6498C961.209 32.454 961.784 31.9704 962.098 31.6022Z" fill="black" stroke="black" stroke-opacity="0.988542" stroke-width="0.894941"/>
<path d="M986.503 38.7077C986.564 39.6156 986.609 41.5234 986.295 41.8916C985.981 42.2598 985.406 42.7434 985.158 42.9392C985.243 43.1744 985.783 44.0632 985.246 44.6076C984.575 45.2881 984.333 44.8686 983.642 45.7157C982.951 46.5627 982.687 46.6998 981.535 47.1546C980.384 47.6094 980.55 47.6291 979.938 47.81C979.448 47.9547 979.44 47.4978 979.497 47.2513C979.517 47.0847 979.649 46.6782 980.022 46.3845C980.394 46.0909 980.554 45.2862 980.864 45.0415C980.73 44.8005 980.669 44.7122 980.646 44.6845C980.634 44.676 980.63 44.6646 980.646 44.6845C980.685 44.7118 980.803 44.709 980.587 43.5391C980.522 43.1893 980.898 43.0448 981.624 42.624C982.349 42.2032 982.758 42.4826 983.17 41.8559C983.499 41.3545 983.915 41.0693 984.054 40.6073L986.503 38.7077Z" fill="black"/>
<path d="M986.503 38.7077C986.564 39.6156 986.609 41.5234 986.295 41.8916C985.981 42.2598 985.406 42.7434 985.158 42.9392C985.243 43.1744 985.783 44.0632 985.246 44.6076C984.575 45.2881 984.333 44.8686 983.642 45.7157C982.951 46.5627 982.687 46.6998 981.535 47.1546C980.384 47.6094 980.55 47.6291 979.938 47.81C979.448 47.9547 979.44 47.4978 979.497 47.2513C979.517 47.0847 979.649 46.6782 980.022 46.3845C980.394 46.0909 980.554 45.2862 980.864 45.0415C980.323 44.0702 980.964 45.5793 980.587 43.5391C980.522 43.1893 980.898 43.0448 981.624 42.624C982.349 42.2032 982.758 42.4826 983.17 41.8559C983.499 41.3545 983.915 41.0693 984.054 40.6073L986.503 38.7077Z" stroke="black" stroke-opacity="0.988542" stroke-width="0.894941"/>
</g>
<defs>
<clipPath id="clip0_781_578">
<rect width="1016.79" height="1525.18" fill="white" transform="translate(0.210938)"/>
</clipPath>
</defs>
</svg>
